G04 #@! TF.FileFunction,Soldermask,Top*
%FSLAX46Y46*%
G04 Gerber Fmt 4.6, Leading zero omitted, Abs format (unit mm)*
G04 Created by KiCad (PCBNEW 4.0.6) date Friday, August 25, 2017 'AMt' 01:12:00 AM*
%MOMM*%
%LPD*%
G01*
G04 APERTURE LIST*
%ADD10C,0.100000*%
%ADD11R,1.000000X1.100000*%
%ADD12R,1.200000X1.200000*%
%ADD13R,2.100000X2.100000*%
%ADD14O,2.100000X2.100000*%
%ADD15R,0.900000X1.300000*%
%ADD16R,1.300000X0.900000*%
%ADD17C,2.400000*%
G04 APERTURE END LIST*
D10*
D11*
X51950000Y-157500000D03*
X53050000Y-157500000D03*
D12*
X66700000Y-157500000D03*
X68300000Y-157500000D03*
X109200000Y-157500000D03*
X110800000Y-157500000D03*
X81700000Y-157500000D03*
X83300000Y-157500000D03*
X96700000Y-157500000D03*
X98300000Y-157500000D03*
D13*
X151750000Y-143300000D03*
D14*
X151750000Y-140760000D03*
X149210000Y-143300000D03*
X149210000Y-140760000D03*
X146670000Y-143300000D03*
X146670000Y-140760000D03*
X144130000Y-143300000D03*
X144130000Y-140760000D03*
X141590000Y-143300000D03*
X141590000Y-140760000D03*
X139050000Y-143300000D03*
X139050000Y-140760000D03*
X136510000Y-143300000D03*
X136510000Y-140760000D03*
X133970000Y-143300000D03*
X133970000Y-140760000D03*
D13*
X104250000Y-41500000D03*
D14*
X104250000Y-44040000D03*
X106790000Y-41500000D03*
X106790000Y-44040000D03*
X109330000Y-41500000D03*
X109330000Y-44040000D03*
X111870000Y-41500000D03*
X111870000Y-44040000D03*
X114410000Y-41500000D03*
X114410000Y-44040000D03*
X116950000Y-41500000D03*
X116950000Y-44040000D03*
X119490000Y-41500000D03*
X119490000Y-44040000D03*
X122030000Y-41500000D03*
X122030000Y-44040000D03*
X124570000Y-41500000D03*
X124570000Y-44040000D03*
X127110000Y-41500000D03*
X127110000Y-44040000D03*
D13*
X104250000Y-106900000D03*
D14*
X104250000Y-109440000D03*
X106790000Y-106900000D03*
X106790000Y-109440000D03*
X109330000Y-106900000D03*
X109330000Y-109440000D03*
X111870000Y-106900000D03*
X111870000Y-109440000D03*
X114410000Y-106900000D03*
X114410000Y-109440000D03*
X116950000Y-106900000D03*
X116950000Y-109440000D03*
X119490000Y-106900000D03*
X119490000Y-109440000D03*
X122030000Y-106900000D03*
X122030000Y-109440000D03*
X124570000Y-106900000D03*
X124570000Y-109440000D03*
X127110000Y-106900000D03*
X127110000Y-109440000D03*
D13*
X120000000Y-165000000D03*
D14*
X122540000Y-165000000D03*
X120000000Y-167540000D03*
X122540000Y-167540000D03*
X120000000Y-170080000D03*
X122540000Y-170080000D03*
D13*
X140000000Y-165000000D03*
D14*
X142540000Y-165000000D03*
X140000000Y-167540000D03*
X142540000Y-167540000D03*
X140000000Y-170080000D03*
X142540000Y-170080000D03*
D13*
X150000000Y-165000000D03*
D14*
X152540000Y-165000000D03*
X150000000Y-167540000D03*
X152540000Y-167540000D03*
X150000000Y-170080000D03*
X152540000Y-170080000D03*
D13*
X110000000Y-165000000D03*
D14*
X112540000Y-165000000D03*
X110000000Y-167540000D03*
X112540000Y-167540000D03*
X110000000Y-170080000D03*
X112540000Y-170080000D03*
D13*
X130000000Y-165000000D03*
D14*
X132540000Y-165000000D03*
X130000000Y-167540000D03*
X132540000Y-167540000D03*
X130000000Y-170080000D03*
X132540000Y-170080000D03*
D15*
X46750000Y-157500000D03*
X48250000Y-157500000D03*
D16*
X45000000Y-154250000D03*
X45000000Y-155750000D03*
D15*
X61750000Y-157500000D03*
X63250000Y-157500000D03*
D16*
X60000000Y-154250000D03*
X60000000Y-155750000D03*
X107500000Y-154250000D03*
X107500000Y-155750000D03*
D15*
X76750000Y-157500000D03*
X78250000Y-157500000D03*
X91750000Y-157500000D03*
X93250000Y-157500000D03*
D16*
X75000000Y-154250000D03*
X75000000Y-155750000D03*
X90000000Y-154250000D03*
X90000000Y-155750000D03*
D17*
X50000000Y-165000000D03*
X55000000Y-165000000D03*
X55000000Y-170000000D03*
X50000000Y-170000000D03*
X65000000Y-165000000D03*
X70000000Y-165000000D03*
X70000000Y-170000000D03*
X65000000Y-170000000D03*
X80000000Y-165000000D03*
X85000000Y-165000000D03*
X85000000Y-170000000D03*
X80000000Y-170000000D03*
X95000000Y-165000000D03*
X100000000Y-165000000D03*
X100000000Y-170000000D03*
X95000000Y-170000000D03*
M02*
