G04 #@! TF.FileFunction,Legend,Top*
%FSLAX46Y46*%
G04 Gerber Fmt 4.6, Leading zero omitted, Abs format (unit mm)*
G04 Created by KiCad (PCBNEW 4.0.6) date Friday, August 25, 2017 'AMt' 01:12:00 AM*
%MOMM*%
%LPD*%
G01*
G04 APERTURE LIST*
%ADD10C,0.100000*%
%ADD11C,0.150000*%
%ADD12C,0.120000*%
G04 APERTURE END LIST*
D10*
D11*
X132600000Y-138302857D02*
X132528571Y-138445714D01*
X132528571Y-138660000D01*
X132600000Y-138874285D01*
X132742857Y-139017143D01*
X132885714Y-139088571D01*
X133171429Y-139160000D01*
X133385714Y-139160000D01*
X133671429Y-139088571D01*
X133814286Y-139017143D01*
X133957143Y-138874285D01*
X134028571Y-138660000D01*
X134028571Y-138517143D01*
X133957143Y-138302857D01*
X133885714Y-138231428D01*
X133385714Y-138231428D01*
X133385714Y-138517143D01*
X134028571Y-137588571D02*
X132528571Y-137588571D01*
X134028571Y-136731428D01*
X132528571Y-136731428D01*
X134028571Y-136017142D02*
X132528571Y-136017142D01*
X132528571Y-135659999D01*
X132600000Y-135445714D01*
X132742857Y-135302856D01*
X132885714Y-135231428D01*
X133171429Y-135159999D01*
X133385714Y-135159999D01*
X133671429Y-135231428D01*
X133814286Y-135302856D01*
X133957143Y-135445714D01*
X134028571Y-135659999D01*
X134028571Y-136017142D01*
X149903571Y-137409999D02*
X149189286Y-137909999D01*
X149903571Y-138267142D02*
X148403571Y-138267142D01*
X148403571Y-137695714D01*
X148475000Y-137552856D01*
X148546429Y-137481428D01*
X148689286Y-137409999D01*
X148903571Y-137409999D01*
X149046429Y-137481428D01*
X149117857Y-137552856D01*
X149189286Y-137695714D01*
X149189286Y-138267142D01*
X148403571Y-136909999D02*
X149903571Y-135909999D01*
X148403571Y-135909999D02*
X149903571Y-136909999D01*
X147363571Y-137409999D02*
X146649286Y-137909999D01*
X147363571Y-138267142D02*
X145863571Y-138267142D01*
X145863571Y-137695714D01*
X145935000Y-137552856D01*
X146006429Y-137481428D01*
X146149286Y-137409999D01*
X146363571Y-137409999D01*
X146506429Y-137481428D01*
X146577857Y-137552856D01*
X146649286Y-137695714D01*
X146649286Y-138267142D01*
X145863571Y-136909999D02*
X147363571Y-135909999D01*
X145863571Y-135909999D02*
X147363571Y-136909999D01*
X144823571Y-137409999D02*
X144109286Y-137909999D01*
X144823571Y-138267142D02*
X143323571Y-138267142D01*
X143323571Y-137695714D01*
X143395000Y-137552856D01*
X143466429Y-137481428D01*
X143609286Y-137409999D01*
X143823571Y-137409999D01*
X143966429Y-137481428D01*
X144037857Y-137552856D01*
X144109286Y-137695714D01*
X144109286Y-138267142D01*
X143323571Y-136909999D02*
X144823571Y-135909999D01*
X143323571Y-135909999D02*
X144823571Y-136909999D01*
X142283571Y-137409999D02*
X141569286Y-137909999D01*
X142283571Y-138267142D02*
X140783571Y-138267142D01*
X140783571Y-137695714D01*
X140855000Y-137552856D01*
X140926429Y-137481428D01*
X141069286Y-137409999D01*
X141283571Y-137409999D01*
X141426429Y-137481428D01*
X141497857Y-137552856D01*
X141569286Y-137695714D01*
X141569286Y-138267142D01*
X140783571Y-136909999D02*
X142283571Y-135909999D01*
X140783571Y-135909999D02*
X142283571Y-136909999D01*
X139743571Y-137409999D02*
X139029286Y-137909999D01*
X139743571Y-138267142D02*
X138243571Y-138267142D01*
X138243571Y-137695714D01*
X138315000Y-137552856D01*
X138386429Y-137481428D01*
X138529286Y-137409999D01*
X138743571Y-137409999D01*
X138886429Y-137481428D01*
X138957857Y-137552856D01*
X139029286Y-137695714D01*
X139029286Y-138267142D01*
X138243571Y-136909999D02*
X139743571Y-135909999D01*
X138243571Y-135909999D02*
X139743571Y-136909999D01*
X152300714Y-138096428D02*
X152372143Y-138167857D01*
X152443571Y-138382143D01*
X152443571Y-138525000D01*
X152372143Y-138739285D01*
X152229286Y-138882143D01*
X152086429Y-138953571D01*
X151800714Y-139025000D01*
X151586429Y-139025000D01*
X151300714Y-138953571D01*
X151157857Y-138882143D01*
X151015000Y-138739285D01*
X150943571Y-138525000D01*
X150943571Y-138382143D01*
X151015000Y-138167857D01*
X151086429Y-138096428D01*
X152015000Y-137525000D02*
X152015000Y-136810714D01*
X152443571Y-137667857D02*
X150943571Y-137167857D01*
X152443571Y-136667857D01*
X152443571Y-136167857D02*
X150943571Y-136167857D01*
X152443571Y-135310714D01*
X150943571Y-135310714D01*
X152443571Y-133882142D02*
X152443571Y-134596428D01*
X150943571Y-134596428D01*
X152300714Y-149070000D02*
X152372143Y-149141429D01*
X152443571Y-149355715D01*
X152443571Y-149498572D01*
X152372143Y-149712857D01*
X152229286Y-149855715D01*
X152086429Y-149927143D01*
X151800714Y-149998572D01*
X151586429Y-149998572D01*
X151300714Y-149927143D01*
X151157857Y-149855715D01*
X151015000Y-149712857D01*
X150943571Y-149498572D01*
X150943571Y-149355715D01*
X151015000Y-149141429D01*
X151086429Y-149070000D01*
X152015000Y-148498572D02*
X152015000Y-147784286D01*
X152443571Y-148641429D02*
X150943571Y-148141429D01*
X152443571Y-147641429D01*
X152443571Y-147141429D02*
X150943571Y-147141429D01*
X152443571Y-146284286D01*
X150943571Y-146284286D01*
X152443571Y-145570000D02*
X150943571Y-145570000D01*
X151657857Y-145570000D02*
X151657857Y-144712857D01*
X152443571Y-144712857D02*
X150943571Y-144712857D01*
X148473571Y-152590000D02*
X148473571Y-151732857D01*
X149973571Y-152161428D02*
X148473571Y-152161428D01*
X148473571Y-151375714D02*
X149973571Y-150375714D01*
X148473571Y-150375714D02*
X149973571Y-151375714D01*
X148473571Y-148375715D02*
X148473571Y-148090001D01*
X148545000Y-147947143D01*
X148687857Y-147804286D01*
X148973571Y-147732858D01*
X149473571Y-147732858D01*
X149759286Y-147804286D01*
X149902143Y-147947143D01*
X149973571Y-148090001D01*
X149973571Y-148375715D01*
X149902143Y-148518572D01*
X149759286Y-148661429D01*
X149473571Y-148732858D01*
X148973571Y-148732858D01*
X148687857Y-148661429D01*
X148545000Y-148518572D01*
X148473571Y-148375715D01*
X149187857Y-146590000D02*
X149259286Y-146375714D01*
X149330714Y-146304286D01*
X149473571Y-146232857D01*
X149687857Y-146232857D01*
X149830714Y-146304286D01*
X149902143Y-146375714D01*
X149973571Y-146518572D01*
X149973571Y-147090000D01*
X148473571Y-147090000D01*
X148473571Y-146590000D01*
X148545000Y-146447143D01*
X148616429Y-146375714D01*
X148759286Y-146304286D01*
X148902143Y-146304286D01*
X149045000Y-146375714D01*
X149116429Y-146447143D01*
X149187857Y-146590000D01*
X149187857Y-147090000D01*
X149830714Y-144732857D02*
X149902143Y-144804286D01*
X149973571Y-145018572D01*
X149973571Y-145161429D01*
X149902143Y-145375714D01*
X149759286Y-145518572D01*
X149616429Y-145590000D01*
X149330714Y-145661429D01*
X149116429Y-145661429D01*
X148830714Y-145590000D01*
X148687857Y-145518572D01*
X148545000Y-145375714D01*
X148473571Y-145161429D01*
X148473571Y-145018572D01*
X148545000Y-144804286D01*
X148616429Y-144732857D01*
X145863571Y-152339999D02*
X145863571Y-151482856D01*
X147363571Y-151911427D02*
X145863571Y-151911427D01*
X145863571Y-151125713D02*
X147363571Y-150125713D01*
X145863571Y-150125713D02*
X147363571Y-151125713D01*
X147363571Y-148411428D02*
X145863571Y-148411428D01*
X145863571Y-147840000D01*
X145935000Y-147697142D01*
X146006429Y-147625714D01*
X146149286Y-147554285D01*
X146363571Y-147554285D01*
X146506429Y-147625714D01*
X146577857Y-147697142D01*
X146649286Y-147840000D01*
X146649286Y-148411428D01*
X146935000Y-146982857D02*
X146935000Y-146268571D01*
X147363571Y-147125714D02*
X145863571Y-146625714D01*
X147363571Y-146125714D01*
X146649286Y-145340000D02*
X147363571Y-145340000D01*
X145863571Y-145840000D02*
X146649286Y-145340000D01*
X145863571Y-144840000D01*
X143323571Y-152697143D02*
X143323571Y-151840000D01*
X144823571Y-152268571D02*
X143323571Y-152268571D01*
X143323571Y-151482857D02*
X144823571Y-150482857D01*
X143323571Y-150482857D02*
X144823571Y-151482857D01*
X144680714Y-147911429D02*
X144752143Y-147982858D01*
X144823571Y-148197144D01*
X144823571Y-148340001D01*
X144752143Y-148554286D01*
X144609286Y-148697144D01*
X144466429Y-148768572D01*
X144180714Y-148840001D01*
X143966429Y-148840001D01*
X143680714Y-148768572D01*
X143537857Y-148697144D01*
X143395000Y-148554286D01*
X143323571Y-148340001D01*
X143323571Y-148197144D01*
X143395000Y-147982858D01*
X143466429Y-147911429D01*
X143323571Y-146982858D02*
X143323571Y-146697144D01*
X143395000Y-146554286D01*
X143537857Y-146411429D01*
X143823571Y-146340001D01*
X144323571Y-146340001D01*
X144609286Y-146411429D01*
X144752143Y-146554286D01*
X144823571Y-146697144D01*
X144823571Y-146982858D01*
X144752143Y-147125715D01*
X144609286Y-147268572D01*
X144323571Y-147340001D01*
X143823571Y-147340001D01*
X143537857Y-147268572D01*
X143395000Y-147125715D01*
X143323571Y-146982858D01*
X144823571Y-145697143D02*
X143323571Y-145697143D01*
X144395000Y-145197143D01*
X143323571Y-144697143D01*
X144823571Y-144697143D01*
X140853571Y-152447142D02*
X140853571Y-151589999D01*
X142353571Y-152018570D02*
X140853571Y-152018570D01*
X140853571Y-151232856D02*
X142353571Y-150232856D01*
X140853571Y-150232856D02*
X142353571Y-151232856D01*
X141567857Y-148518571D02*
X141567857Y-148018571D01*
X142353571Y-147804285D02*
X142353571Y-148518571D01*
X140853571Y-148518571D01*
X140853571Y-147804285D01*
X142353571Y-147161428D02*
X140853571Y-147161428D01*
X140853571Y-146590000D01*
X140925000Y-146447142D01*
X140996429Y-146375714D01*
X141139286Y-146304285D01*
X141353571Y-146304285D01*
X141496429Y-146375714D01*
X141567857Y-146447142D01*
X141639286Y-146590000D01*
X141639286Y-147161428D01*
X142282143Y-145732857D02*
X142353571Y-145518571D01*
X142353571Y-145161428D01*
X142282143Y-145018571D01*
X142210714Y-144947142D01*
X142067857Y-144875714D01*
X141925000Y-144875714D01*
X141782143Y-144947142D01*
X141710714Y-145018571D01*
X141639286Y-145161428D01*
X141567857Y-145447142D01*
X141496429Y-145590000D01*
X141425000Y-145661428D01*
X141282143Y-145732857D01*
X141139286Y-145732857D01*
X140996429Y-145661428D01*
X140925000Y-145590000D01*
X140853571Y-145447142D01*
X140853571Y-145090000D01*
X140925000Y-144875714D01*
X138243571Y-152161428D02*
X138243571Y-151304285D01*
X139743571Y-151732856D02*
X138243571Y-151732856D01*
X138243571Y-150947142D02*
X139743571Y-149947142D01*
X138243571Y-149947142D02*
X139743571Y-150947142D01*
X139315000Y-148304286D02*
X139315000Y-147590000D01*
X139743571Y-148447143D02*
X138243571Y-147947143D01*
X139743571Y-147447143D01*
X139743571Y-146232857D02*
X139743571Y-146947143D01*
X138243571Y-146947143D01*
X139743571Y-145018571D02*
X139743571Y-145732857D01*
X138243571Y-145732857D01*
X135703571Y-148327857D02*
X137203571Y-147827857D01*
X135703571Y-147327857D01*
X137203571Y-146827857D02*
X135703571Y-146827857D01*
X137203571Y-146113571D02*
X135703571Y-146113571D01*
X137203571Y-145256428D01*
X135703571Y-145256428D01*
X133163571Y-149177142D02*
X133163571Y-148248571D01*
X133735000Y-148748571D01*
X133735000Y-148534285D01*
X133806429Y-148391428D01*
X133877857Y-148319999D01*
X134020714Y-148248571D01*
X134377857Y-148248571D01*
X134520714Y-148319999D01*
X134592143Y-148391428D01*
X134663571Y-148534285D01*
X134663571Y-148962857D01*
X134592143Y-149105714D01*
X134520714Y-149177142D01*
X133163571Y-147820000D02*
X134663571Y-147320000D01*
X133163571Y-146820000D01*
X133163571Y-146462857D02*
X133163571Y-145534286D01*
X133735000Y-146034286D01*
X133735000Y-145820000D01*
X133806429Y-145677143D01*
X133877857Y-145605714D01*
X134020714Y-145534286D01*
X134377857Y-145534286D01*
X134520714Y-145605714D01*
X134592143Y-145677143D01*
X134663571Y-145820000D01*
X134663571Y-146248572D01*
X134592143Y-146391429D01*
X134520714Y-146462857D01*
D12*
X53450000Y-157950000D02*
X53450000Y-157050000D01*
X53450000Y-157050000D02*
X52000000Y-157050000D01*
X53450000Y-157950000D02*
X52000000Y-157950000D01*
X68800000Y-158000000D02*
X68800000Y-157000000D01*
X68800000Y-157000000D02*
X66700000Y-157000000D01*
X68800000Y-158000000D02*
X66700000Y-158000000D01*
X111300000Y-158000000D02*
X111300000Y-157000000D01*
X111300000Y-157000000D02*
X109200000Y-157000000D01*
X111300000Y-158000000D02*
X109200000Y-158000000D01*
X83800000Y-158000000D02*
X83800000Y-157000000D01*
X83800000Y-157000000D02*
X81700000Y-157000000D01*
X83800000Y-158000000D02*
X81700000Y-158000000D01*
X98800000Y-158000000D02*
X98800000Y-157000000D01*
X98800000Y-157000000D02*
X96700000Y-157000000D01*
X98800000Y-158000000D02*
X96700000Y-158000000D01*
X150480000Y-144630000D02*
X132640000Y-144630000D01*
X132640000Y-144630000D02*
X132640000Y-139430000D01*
X132640000Y-139430000D02*
X153080000Y-139430000D01*
X153080000Y-139430000D02*
X153080000Y-142030000D01*
X153080000Y-142030000D02*
X150480000Y-142030000D01*
X150480000Y-142030000D02*
X150480000Y-144630000D01*
X151750000Y-144630000D02*
X153080000Y-144630000D01*
X153080000Y-144630000D02*
X153080000Y-143360000D01*
X105520000Y-40170000D02*
X128440000Y-40170000D01*
X128440000Y-40170000D02*
X128440000Y-45370000D01*
X128440000Y-45370000D02*
X102920000Y-45370000D01*
X102920000Y-45370000D02*
X102920000Y-42770000D01*
X102920000Y-42770000D02*
X105520000Y-42770000D01*
X105520000Y-42770000D02*
X105520000Y-40170000D01*
X104250000Y-40170000D02*
X102920000Y-40170000D01*
X102920000Y-40170000D02*
X102920000Y-41440000D01*
X105520000Y-105570000D02*
X128440000Y-105570000D01*
X128440000Y-105570000D02*
X128440000Y-110770000D01*
X128440000Y-110770000D02*
X102920000Y-110770000D01*
X102920000Y-110770000D02*
X102920000Y-108170000D01*
X102920000Y-108170000D02*
X105520000Y-108170000D01*
X105520000Y-108170000D02*
X105520000Y-105570000D01*
X104250000Y-105570000D02*
X102920000Y-105570000D01*
X102920000Y-105570000D02*
X102920000Y-106840000D01*
X118670000Y-171410000D02*
X123870000Y-171410000D01*
X118670000Y-166270000D02*
X118670000Y-171410000D01*
X123870000Y-163670000D02*
X123870000Y-171410000D01*
X118670000Y-166270000D02*
X121270000Y-166270000D01*
X121270000Y-166270000D02*
X121270000Y-163670000D01*
X121270000Y-163670000D02*
X123870000Y-163670000D01*
X118670000Y-165000000D02*
X118670000Y-163670000D01*
X118670000Y-163670000D02*
X120000000Y-163670000D01*
X138670000Y-171410000D02*
X143870000Y-171410000D01*
X138670000Y-166270000D02*
X138670000Y-171410000D01*
X143870000Y-163670000D02*
X143870000Y-171410000D01*
X138670000Y-166270000D02*
X141270000Y-166270000D01*
X141270000Y-166270000D02*
X141270000Y-163670000D01*
X141270000Y-163670000D02*
X143870000Y-163670000D01*
X138670000Y-165000000D02*
X138670000Y-163670000D01*
X138670000Y-163670000D02*
X140000000Y-163670000D01*
X148670000Y-171410000D02*
X153870000Y-171410000D01*
X148670000Y-166270000D02*
X148670000Y-171410000D01*
X153870000Y-163670000D02*
X153870000Y-171410000D01*
X148670000Y-166270000D02*
X151270000Y-166270000D01*
X151270000Y-166270000D02*
X151270000Y-163670000D01*
X151270000Y-163670000D02*
X153870000Y-163670000D01*
X148670000Y-165000000D02*
X148670000Y-163670000D01*
X148670000Y-163670000D02*
X150000000Y-163670000D01*
X108670000Y-171410000D02*
X113870000Y-171410000D01*
X108670000Y-166270000D02*
X108670000Y-171410000D01*
X113870000Y-163670000D02*
X113870000Y-171410000D01*
X108670000Y-166270000D02*
X111270000Y-166270000D01*
X111270000Y-166270000D02*
X111270000Y-163670000D01*
X111270000Y-163670000D02*
X113870000Y-163670000D01*
X108670000Y-165000000D02*
X108670000Y-163670000D01*
X108670000Y-163670000D02*
X110000000Y-163670000D01*
X128670000Y-171410000D02*
X133870000Y-171410000D01*
X128670000Y-166270000D02*
X128670000Y-171410000D01*
X133870000Y-163670000D02*
X133870000Y-171410000D01*
X128670000Y-166270000D02*
X131270000Y-166270000D01*
X131270000Y-166270000D02*
X131270000Y-163670000D01*
X131270000Y-163670000D02*
X133870000Y-163670000D01*
X128670000Y-165000000D02*
X128670000Y-163670000D01*
X128670000Y-163670000D02*
X130000000Y-163670000D01*
X48000000Y-158180000D02*
X47000000Y-158180000D01*
X47000000Y-156820000D02*
X48000000Y-156820000D01*
X44320000Y-155500000D02*
X44320000Y-154500000D01*
X45680000Y-154500000D02*
X45680000Y-155500000D01*
X63000000Y-158180000D02*
X62000000Y-158180000D01*
X62000000Y-156820000D02*
X63000000Y-156820000D01*
X59320000Y-155500000D02*
X59320000Y-154500000D01*
X60680000Y-154500000D02*
X60680000Y-155500000D01*
X106820000Y-155500000D02*
X106820000Y-154500000D01*
X108180000Y-154500000D02*
X108180000Y-155500000D01*
X78000000Y-158180000D02*
X77000000Y-158180000D01*
X77000000Y-156820000D02*
X78000000Y-156820000D01*
X93000000Y-158180000D02*
X92000000Y-158180000D01*
X92000000Y-156820000D02*
X93000000Y-156820000D01*
X74320000Y-155500000D02*
X74320000Y-154500000D01*
X75680000Y-154500000D02*
X75680000Y-155500000D01*
X89320000Y-155500000D02*
X89320000Y-154500000D01*
X90680000Y-154500000D02*
X90680000Y-155500000D01*
D11*
X54890000Y-173140000D02*
X50110000Y-173140000D01*
X54896843Y-173137095D02*
G75*
G03X50110000Y-173140000I-2396843J5637095D01*
G01*
X69890000Y-173140000D02*
X65110000Y-173140000D01*
X69896843Y-173137095D02*
G75*
G03X65110000Y-173140000I-2396843J5637095D01*
G01*
X84890000Y-173140000D02*
X80110000Y-173140000D01*
X84896843Y-173137095D02*
G75*
G03X80110000Y-173140000I-2396843J5637095D01*
G01*
X99890000Y-173140000D02*
X95110000Y-173140000D01*
X99896843Y-173137095D02*
G75*
G03X95110000Y-173140000I-2396843J5637095D01*
G01*
X51761905Y-159152381D02*
X51761905Y-158152381D01*
X52000000Y-158152381D01*
X52142858Y-158200000D01*
X52238096Y-158295238D01*
X52285715Y-158390476D01*
X52333334Y-158580952D01*
X52333334Y-158723810D01*
X52285715Y-158914286D01*
X52238096Y-159009524D01*
X52142858Y-159104762D01*
X52000000Y-159152381D01*
X51761905Y-159152381D01*
X53285715Y-159152381D02*
X52714286Y-159152381D01*
X53000000Y-159152381D02*
X53000000Y-158152381D01*
X52904762Y-158295238D01*
X52809524Y-158390476D01*
X52714286Y-158438095D01*
X66761905Y-159202381D02*
X66761905Y-158202381D01*
X67000000Y-158202381D01*
X67142858Y-158250000D01*
X67238096Y-158345238D01*
X67285715Y-158440476D01*
X67333334Y-158630952D01*
X67333334Y-158773810D01*
X67285715Y-158964286D01*
X67238096Y-159059524D01*
X67142858Y-159154762D01*
X67000000Y-159202381D01*
X66761905Y-159202381D01*
X67714286Y-158297619D02*
X67761905Y-158250000D01*
X67857143Y-158202381D01*
X68095239Y-158202381D01*
X68190477Y-158250000D01*
X68238096Y-158297619D01*
X68285715Y-158392857D01*
X68285715Y-158488095D01*
X68238096Y-158630952D01*
X67666667Y-159202381D01*
X68285715Y-159202381D01*
X109261905Y-159202381D02*
X109261905Y-158202381D01*
X109500000Y-158202381D01*
X109642858Y-158250000D01*
X109738096Y-158345238D01*
X109785715Y-158440476D01*
X109833334Y-158630952D01*
X109833334Y-158773810D01*
X109785715Y-158964286D01*
X109738096Y-159059524D01*
X109642858Y-159154762D01*
X109500000Y-159202381D01*
X109261905Y-159202381D01*
X110166667Y-158202381D02*
X110785715Y-158202381D01*
X110452381Y-158583333D01*
X110595239Y-158583333D01*
X110690477Y-158630952D01*
X110738096Y-158678571D01*
X110785715Y-158773810D01*
X110785715Y-159011905D01*
X110738096Y-159107143D01*
X110690477Y-159154762D01*
X110595239Y-159202381D01*
X110309524Y-159202381D01*
X110214286Y-159154762D01*
X110166667Y-159107143D01*
X81761905Y-159202381D02*
X81761905Y-158202381D01*
X82000000Y-158202381D01*
X82142858Y-158250000D01*
X82238096Y-158345238D01*
X82285715Y-158440476D01*
X82333334Y-158630952D01*
X82333334Y-158773810D01*
X82285715Y-158964286D01*
X82238096Y-159059524D01*
X82142858Y-159154762D01*
X82000000Y-159202381D01*
X81761905Y-159202381D01*
X83190477Y-158535714D02*
X83190477Y-159202381D01*
X82952381Y-158154762D02*
X82714286Y-158869048D01*
X83333334Y-158869048D01*
X96761905Y-159202381D02*
X96761905Y-158202381D01*
X97000000Y-158202381D01*
X97142858Y-158250000D01*
X97238096Y-158345238D01*
X97285715Y-158440476D01*
X97333334Y-158630952D01*
X97333334Y-158773810D01*
X97285715Y-158964286D01*
X97238096Y-159059524D01*
X97142858Y-159154762D01*
X97000000Y-159202381D01*
X96761905Y-159202381D01*
X98238096Y-158202381D02*
X97761905Y-158202381D01*
X97714286Y-158678571D01*
X97761905Y-158630952D01*
X97857143Y-158583333D01*
X98095239Y-158583333D01*
X98190477Y-158630952D01*
X98238096Y-158678571D01*
X98285715Y-158773810D01*
X98285715Y-159011905D01*
X98238096Y-159107143D01*
X98190477Y-159154762D01*
X98095239Y-159202381D01*
X97857143Y-159202381D01*
X97761905Y-159154762D01*
X97714286Y-159107143D01*
X154532381Y-143768095D02*
X153532381Y-143768095D01*
X153532381Y-143530000D01*
X153580000Y-143387142D01*
X153675238Y-143291904D01*
X153770476Y-143244285D01*
X153960952Y-143196666D01*
X154103810Y-143196666D01*
X154294286Y-143244285D01*
X154389524Y-143291904D01*
X154484762Y-143387142D01*
X154532381Y-143530000D01*
X154532381Y-143768095D01*
X154008571Y-142434761D02*
X154056190Y-142291904D01*
X154103810Y-142244285D01*
X154199048Y-142196666D01*
X154341905Y-142196666D01*
X154437143Y-142244285D01*
X154484762Y-142291904D01*
X154532381Y-142387142D01*
X154532381Y-142768095D01*
X153532381Y-142768095D01*
X153532381Y-142434761D01*
X153580000Y-142339523D01*
X153627619Y-142291904D01*
X153722857Y-142244285D01*
X153818095Y-142244285D01*
X153913333Y-142291904D01*
X153960952Y-142339523D01*
X154008571Y-142434761D01*
X154008571Y-142768095D01*
X153580000Y-141244285D02*
X153532381Y-141339523D01*
X153532381Y-141482380D01*
X153580000Y-141625238D01*
X153675238Y-141720476D01*
X153770476Y-141768095D01*
X153960952Y-141815714D01*
X154103810Y-141815714D01*
X154294286Y-141768095D01*
X154389524Y-141720476D01*
X154484762Y-141625238D01*
X154532381Y-141482380D01*
X154532381Y-141387142D01*
X154484762Y-141244285D01*
X154437143Y-141196666D01*
X154103810Y-141196666D01*
X154103810Y-141387142D01*
X154532381Y-140244285D02*
X154532381Y-140815714D01*
X154532381Y-140530000D02*
X153532381Y-140530000D01*
X153675238Y-140625238D01*
X153770476Y-140720476D01*
X153818095Y-140815714D01*
X101420000Y-42984285D02*
X101372381Y-43079523D01*
X101372381Y-43222380D01*
X101420000Y-43365238D01*
X101515238Y-43460476D01*
X101610476Y-43508095D01*
X101800952Y-43555714D01*
X101943810Y-43555714D01*
X102134286Y-43508095D01*
X102229524Y-43460476D01*
X102324762Y-43365238D01*
X102372381Y-43222380D01*
X102372381Y-43127142D01*
X102324762Y-42984285D01*
X102277143Y-42936666D01*
X101943810Y-42936666D01*
X101943810Y-43127142D01*
X102372381Y-41984285D02*
X102372381Y-42555714D01*
X102372381Y-42270000D02*
X101372381Y-42270000D01*
X101515238Y-42365238D01*
X101610476Y-42460476D01*
X101658095Y-42555714D01*
X101420000Y-108384285D02*
X101372381Y-108479523D01*
X101372381Y-108622380D01*
X101420000Y-108765238D01*
X101515238Y-108860476D01*
X101610476Y-108908095D01*
X101800952Y-108955714D01*
X101943810Y-108955714D01*
X102134286Y-108908095D01*
X102229524Y-108860476D01*
X102324762Y-108765238D01*
X102372381Y-108622380D01*
X102372381Y-108527142D01*
X102324762Y-108384285D01*
X102277143Y-108336666D01*
X101943810Y-108336666D01*
X101943810Y-108527142D01*
X101467619Y-107955714D02*
X101420000Y-107908095D01*
X101372381Y-107812857D01*
X101372381Y-107574761D01*
X101420000Y-107479523D01*
X101467619Y-107431904D01*
X101562857Y-107384285D01*
X101658095Y-107384285D01*
X101800952Y-107431904D01*
X102372381Y-108003333D01*
X102372381Y-107384285D01*
X120189762Y-174077381D02*
X120380239Y-174077381D01*
X120475477Y-174125000D01*
X120570715Y-174220238D01*
X120618334Y-174410714D01*
X120618334Y-174744048D01*
X120570715Y-174934524D01*
X120475477Y-175029762D01*
X120380239Y-175077381D01*
X120189762Y-175077381D01*
X120094524Y-175029762D01*
X119999286Y-174934524D01*
X119951667Y-174744048D01*
X119951667Y-174410714D01*
X119999286Y-174220238D01*
X120094524Y-174125000D01*
X120189762Y-174077381D01*
X121380239Y-174553571D02*
X121523096Y-174601190D01*
X121570715Y-174648810D01*
X121618334Y-174744048D01*
X121618334Y-174886905D01*
X121570715Y-174982143D01*
X121523096Y-175029762D01*
X121427858Y-175077381D01*
X121046905Y-175077381D01*
X121046905Y-174077381D01*
X121380239Y-174077381D01*
X121475477Y-174125000D01*
X121523096Y-174172619D01*
X121570715Y-174267857D01*
X121570715Y-174363095D01*
X121523096Y-174458333D01*
X121475477Y-174505952D01*
X121380239Y-174553571D01*
X121046905Y-174553571D01*
X122618334Y-174982143D02*
X122570715Y-175029762D01*
X122427858Y-175077381D01*
X122332620Y-175077381D01*
X122189762Y-175029762D01*
X122094524Y-174934524D01*
X122046905Y-174839286D01*
X121999286Y-174648810D01*
X121999286Y-174505952D01*
X122046905Y-174315476D01*
X122094524Y-174220238D01*
X122189762Y-174125000D01*
X122332620Y-174077381D01*
X122427858Y-174077381D01*
X122570715Y-174125000D01*
X122618334Y-174172619D01*
X139850952Y-175077381D02*
X139850952Y-174077381D01*
X140231905Y-174077381D01*
X140327143Y-174125000D01*
X140374762Y-174172619D01*
X140422381Y-174267857D01*
X140422381Y-174410714D01*
X140374762Y-174505952D01*
X140327143Y-174553571D01*
X140231905Y-174601190D01*
X139850952Y-174601190D01*
X140803333Y-174791667D02*
X141279524Y-174791667D01*
X140708095Y-175077381D02*
X141041428Y-174077381D01*
X141374762Y-175077381D01*
X141898571Y-174601190D02*
X141898571Y-175077381D01*
X141565238Y-174077381D02*
X141898571Y-174601190D01*
X142231905Y-174077381D01*
X150979286Y-174982143D02*
X150931667Y-175029762D01*
X150788810Y-175077381D01*
X150693572Y-175077381D01*
X150550714Y-175029762D01*
X150455476Y-174934524D01*
X150407857Y-174839286D01*
X150360238Y-174648810D01*
X150360238Y-174505952D01*
X150407857Y-174315476D01*
X150455476Y-174220238D01*
X150550714Y-174125000D01*
X150693572Y-174077381D01*
X150788810Y-174077381D01*
X150931667Y-174125000D01*
X150979286Y-174172619D01*
X151598333Y-174077381D02*
X151788810Y-174077381D01*
X151884048Y-174125000D01*
X151979286Y-174220238D01*
X152026905Y-174410714D01*
X152026905Y-174744048D01*
X151979286Y-174934524D01*
X151884048Y-175029762D01*
X151788810Y-175077381D01*
X151598333Y-175077381D01*
X151503095Y-175029762D01*
X151407857Y-174934524D01*
X151360238Y-174744048D01*
X151360238Y-174410714D01*
X151407857Y-174220238D01*
X151503095Y-174125000D01*
X151598333Y-174077381D01*
X152455476Y-175077381D02*
X152455476Y-174077381D01*
X152788810Y-174791667D01*
X153122143Y-174077381D01*
X153122143Y-175077381D01*
X110077381Y-174791667D02*
X110553572Y-174791667D01*
X109982143Y-175077381D02*
X110315476Y-174077381D01*
X110648810Y-175077381D01*
X111458334Y-175077381D02*
X110982143Y-175077381D01*
X110982143Y-174077381D01*
X112267858Y-175077381D02*
X111791667Y-175077381D01*
X111791667Y-174077381D01*
X130254524Y-174553571D02*
X130587858Y-174553571D01*
X130730715Y-175077381D02*
X130254524Y-175077381D01*
X130254524Y-174077381D01*
X130730715Y-174077381D01*
X131159286Y-175077381D02*
X131159286Y-174077381D01*
X131540239Y-174077381D01*
X131635477Y-174125000D01*
X131683096Y-174172619D01*
X131730715Y-174267857D01*
X131730715Y-174410714D01*
X131683096Y-174505952D01*
X131635477Y-174553571D01*
X131540239Y-174601190D01*
X131159286Y-174601190D01*
X132111667Y-175029762D02*
X132254524Y-175077381D01*
X132492620Y-175077381D01*
X132587858Y-175029762D01*
X132635477Y-174982143D01*
X132683096Y-174886905D01*
X132683096Y-174791667D01*
X132635477Y-174696429D01*
X132587858Y-174648810D01*
X132492620Y-174601190D01*
X132302143Y-174553571D01*
X132206905Y-174505952D01*
X132159286Y-174458333D01*
X132111667Y-174363095D01*
X132111667Y-174267857D01*
X132159286Y-174172619D01*
X132206905Y-174125000D01*
X132302143Y-174077381D01*
X132540239Y-174077381D01*
X132683096Y-174125000D01*
X47333334Y-156502381D02*
X47000000Y-156026190D01*
X46761905Y-156502381D02*
X46761905Y-155502381D01*
X47142858Y-155502381D01*
X47238096Y-155550000D01*
X47285715Y-155597619D01*
X47333334Y-155692857D01*
X47333334Y-155835714D01*
X47285715Y-155930952D01*
X47238096Y-155978571D01*
X47142858Y-156026190D01*
X46761905Y-156026190D01*
X48285715Y-156502381D02*
X47714286Y-156502381D01*
X48000000Y-156502381D02*
X48000000Y-155502381D01*
X47904762Y-155645238D01*
X47809524Y-155740476D01*
X47714286Y-155788095D01*
X46902381Y-155166666D02*
X46426190Y-155500000D01*
X46902381Y-155738095D02*
X45902381Y-155738095D01*
X45902381Y-155357142D01*
X45950000Y-155261904D01*
X45997619Y-155214285D01*
X46092857Y-155166666D01*
X46235714Y-155166666D01*
X46330952Y-155214285D01*
X46378571Y-155261904D01*
X46426190Y-155357142D01*
X46426190Y-155738095D01*
X45997619Y-154785714D02*
X45950000Y-154738095D01*
X45902381Y-154642857D01*
X45902381Y-154404761D01*
X45950000Y-154309523D01*
X45997619Y-154261904D01*
X46092857Y-154214285D01*
X46188095Y-154214285D01*
X46330952Y-154261904D01*
X46902381Y-154833333D01*
X46902381Y-154214285D01*
X62333334Y-156502381D02*
X62000000Y-156026190D01*
X61761905Y-156502381D02*
X61761905Y-155502381D01*
X62142858Y-155502381D01*
X62238096Y-155550000D01*
X62285715Y-155597619D01*
X62333334Y-155692857D01*
X62333334Y-155835714D01*
X62285715Y-155930952D01*
X62238096Y-155978571D01*
X62142858Y-156026190D01*
X61761905Y-156026190D01*
X62666667Y-155502381D02*
X63285715Y-155502381D01*
X62952381Y-155883333D01*
X63095239Y-155883333D01*
X63190477Y-155930952D01*
X63238096Y-155978571D01*
X63285715Y-156073810D01*
X63285715Y-156311905D01*
X63238096Y-156407143D01*
X63190477Y-156454762D01*
X63095239Y-156502381D01*
X62809524Y-156502381D01*
X62714286Y-156454762D01*
X62666667Y-156407143D01*
X61902381Y-155166666D02*
X61426190Y-155500000D01*
X61902381Y-155738095D02*
X60902381Y-155738095D01*
X60902381Y-155357142D01*
X60950000Y-155261904D01*
X60997619Y-155214285D01*
X61092857Y-155166666D01*
X61235714Y-155166666D01*
X61330952Y-155214285D01*
X61378571Y-155261904D01*
X61426190Y-155357142D01*
X61426190Y-155738095D01*
X61235714Y-154309523D02*
X61902381Y-154309523D01*
X60854762Y-154547619D02*
X61569048Y-154785714D01*
X61569048Y-154166666D01*
X109402381Y-155166666D02*
X108926190Y-155500000D01*
X109402381Y-155738095D02*
X108402381Y-155738095D01*
X108402381Y-155357142D01*
X108450000Y-155261904D01*
X108497619Y-155214285D01*
X108592857Y-155166666D01*
X108735714Y-155166666D01*
X108830952Y-155214285D01*
X108878571Y-155261904D01*
X108926190Y-155357142D01*
X108926190Y-155738095D01*
X108402381Y-154261904D02*
X108402381Y-154738095D01*
X108878571Y-154785714D01*
X108830952Y-154738095D01*
X108783333Y-154642857D01*
X108783333Y-154404761D01*
X108830952Y-154309523D01*
X108878571Y-154261904D01*
X108973810Y-154214285D01*
X109211905Y-154214285D01*
X109307143Y-154261904D01*
X109354762Y-154309523D01*
X109402381Y-154404761D01*
X109402381Y-154642857D01*
X109354762Y-154738095D01*
X109307143Y-154785714D01*
X77333334Y-156502381D02*
X77000000Y-156026190D01*
X76761905Y-156502381D02*
X76761905Y-155502381D01*
X77142858Y-155502381D01*
X77238096Y-155550000D01*
X77285715Y-155597619D01*
X77333334Y-155692857D01*
X77333334Y-155835714D01*
X77285715Y-155930952D01*
X77238096Y-155978571D01*
X77142858Y-156026190D01*
X76761905Y-156026190D01*
X78190477Y-155502381D02*
X78000000Y-155502381D01*
X77904762Y-155550000D01*
X77857143Y-155597619D01*
X77761905Y-155740476D01*
X77714286Y-155930952D01*
X77714286Y-156311905D01*
X77761905Y-156407143D01*
X77809524Y-156454762D01*
X77904762Y-156502381D01*
X78095239Y-156502381D01*
X78190477Y-156454762D01*
X78238096Y-156407143D01*
X78285715Y-156311905D01*
X78285715Y-156073810D01*
X78238096Y-155978571D01*
X78190477Y-155930952D01*
X78095239Y-155883333D01*
X77904762Y-155883333D01*
X77809524Y-155930952D01*
X77761905Y-155978571D01*
X77714286Y-156073810D01*
X92333334Y-156502381D02*
X92000000Y-156026190D01*
X91761905Y-156502381D02*
X91761905Y-155502381D01*
X92142858Y-155502381D01*
X92238096Y-155550000D01*
X92285715Y-155597619D01*
X92333334Y-155692857D01*
X92333334Y-155835714D01*
X92285715Y-155930952D01*
X92238096Y-155978571D01*
X92142858Y-156026190D01*
X91761905Y-156026190D01*
X92666667Y-155502381D02*
X93333334Y-155502381D01*
X92904762Y-156502381D01*
X76902381Y-155166666D02*
X76426190Y-155500000D01*
X76902381Y-155738095D02*
X75902381Y-155738095D01*
X75902381Y-155357142D01*
X75950000Y-155261904D01*
X75997619Y-155214285D01*
X76092857Y-155166666D01*
X76235714Y-155166666D01*
X76330952Y-155214285D01*
X76378571Y-155261904D01*
X76426190Y-155357142D01*
X76426190Y-155738095D01*
X76330952Y-154595238D02*
X76283333Y-154690476D01*
X76235714Y-154738095D01*
X76140476Y-154785714D01*
X76092857Y-154785714D01*
X75997619Y-154738095D01*
X75950000Y-154690476D01*
X75902381Y-154595238D01*
X75902381Y-154404761D01*
X75950000Y-154309523D01*
X75997619Y-154261904D01*
X76092857Y-154214285D01*
X76140476Y-154214285D01*
X76235714Y-154261904D01*
X76283333Y-154309523D01*
X76330952Y-154404761D01*
X76330952Y-154595238D01*
X76378571Y-154690476D01*
X76426190Y-154738095D01*
X76521429Y-154785714D01*
X76711905Y-154785714D01*
X76807143Y-154738095D01*
X76854762Y-154690476D01*
X76902381Y-154595238D01*
X76902381Y-154404761D01*
X76854762Y-154309523D01*
X76807143Y-154261904D01*
X76711905Y-154214285D01*
X76521429Y-154214285D01*
X76426190Y-154261904D01*
X76378571Y-154309523D01*
X76330952Y-154404761D01*
X91902381Y-155166666D02*
X91426190Y-155500000D01*
X91902381Y-155738095D02*
X90902381Y-155738095D01*
X90902381Y-155357142D01*
X90950000Y-155261904D01*
X90997619Y-155214285D01*
X91092857Y-155166666D01*
X91235714Y-155166666D01*
X91330952Y-155214285D01*
X91378571Y-155261904D01*
X91426190Y-155357142D01*
X91426190Y-155738095D01*
X91902381Y-154690476D02*
X91902381Y-154500000D01*
X91854762Y-154404761D01*
X91807143Y-154357142D01*
X91664286Y-154261904D01*
X91473810Y-154214285D01*
X91092857Y-154214285D01*
X90997619Y-154261904D01*
X90950000Y-154309523D01*
X90902381Y-154404761D01*
X90902381Y-154595238D01*
X90950000Y-154690476D01*
X90997619Y-154738095D01*
X91092857Y-154785714D01*
X91330952Y-154785714D01*
X91426190Y-154738095D01*
X91473810Y-154690476D01*
X91521429Y-154595238D01*
X91521429Y-154404761D01*
X91473810Y-154309523D01*
X91426190Y-154261904D01*
X91330952Y-154214285D01*
X51609762Y-175982381D02*
X51800239Y-175982381D01*
X51895477Y-176030000D01*
X51990715Y-176125238D01*
X52038334Y-176315714D01*
X52038334Y-176649048D01*
X51990715Y-176839524D01*
X51895477Y-176934762D01*
X51800239Y-176982381D01*
X51609762Y-176982381D01*
X51514524Y-176934762D01*
X51419286Y-176839524D01*
X51371667Y-176649048D01*
X51371667Y-176315714D01*
X51419286Y-176125238D01*
X51514524Y-176030000D01*
X51609762Y-175982381D01*
X52800239Y-176458571D02*
X52943096Y-176506190D01*
X52990715Y-176553810D01*
X53038334Y-176649048D01*
X53038334Y-176791905D01*
X52990715Y-176887143D01*
X52943096Y-176934762D01*
X52847858Y-176982381D01*
X52466905Y-176982381D01*
X52466905Y-175982381D01*
X52800239Y-175982381D01*
X52895477Y-176030000D01*
X52943096Y-176077619D01*
X52990715Y-176172857D01*
X52990715Y-176268095D01*
X52943096Y-176363333D01*
X52895477Y-176410952D01*
X52800239Y-176458571D01*
X52466905Y-176458571D01*
X54038334Y-176887143D02*
X53990715Y-176934762D01*
X53847858Y-176982381D01*
X53752620Y-176982381D01*
X53609762Y-176934762D01*
X53514524Y-176839524D01*
X53466905Y-176744286D01*
X53419286Y-176553810D01*
X53419286Y-176410952D01*
X53466905Y-176220476D01*
X53514524Y-176125238D01*
X53609762Y-176030000D01*
X53752620Y-175982381D01*
X53847858Y-175982381D01*
X53990715Y-176030000D01*
X54038334Y-176077619D01*
X66190952Y-176982381D02*
X66190952Y-175982381D01*
X66571905Y-175982381D01*
X66667143Y-176030000D01*
X66714762Y-176077619D01*
X66762381Y-176172857D01*
X66762381Y-176315714D01*
X66714762Y-176410952D01*
X66667143Y-176458571D01*
X66571905Y-176506190D01*
X66190952Y-176506190D01*
X67143333Y-176696667D02*
X67619524Y-176696667D01*
X67048095Y-176982381D02*
X67381428Y-175982381D01*
X67714762Y-176982381D01*
X68238571Y-176506190D02*
X68238571Y-176982381D01*
X67905238Y-175982381D02*
X68238571Y-176506190D01*
X68571905Y-175982381D01*
X81764286Y-176887143D02*
X81716667Y-176934762D01*
X81573810Y-176982381D01*
X81478572Y-176982381D01*
X81335714Y-176934762D01*
X81240476Y-176839524D01*
X81192857Y-176744286D01*
X81145238Y-176553810D01*
X81145238Y-176410952D01*
X81192857Y-176220476D01*
X81240476Y-176125238D01*
X81335714Y-176030000D01*
X81478572Y-175982381D01*
X81573810Y-175982381D01*
X81716667Y-176030000D01*
X81764286Y-176077619D01*
X82383333Y-175982381D02*
X82573810Y-175982381D01*
X82669048Y-176030000D01*
X82764286Y-176125238D01*
X82811905Y-176315714D01*
X82811905Y-176649048D01*
X82764286Y-176839524D01*
X82669048Y-176934762D01*
X82573810Y-176982381D01*
X82383333Y-176982381D01*
X82288095Y-176934762D01*
X82192857Y-176839524D01*
X82145238Y-176649048D01*
X82145238Y-176315714D01*
X82192857Y-176125238D01*
X82288095Y-176030000D01*
X82383333Y-175982381D01*
X83240476Y-176982381D02*
X83240476Y-175982381D01*
X83573810Y-176696667D01*
X83907143Y-175982381D01*
X83907143Y-176982381D01*
X96599524Y-176458571D02*
X96932858Y-176458571D01*
X97075715Y-176982381D02*
X96599524Y-176982381D01*
X96599524Y-175982381D01*
X97075715Y-175982381D01*
X97504286Y-176982381D02*
X97504286Y-175982381D01*
X97885239Y-175982381D01*
X97980477Y-176030000D01*
X98028096Y-176077619D01*
X98075715Y-176172857D01*
X98075715Y-176315714D01*
X98028096Y-176410952D01*
X97980477Y-176458571D01*
X97885239Y-176506190D01*
X97504286Y-176506190D01*
X98456667Y-176934762D02*
X98599524Y-176982381D01*
X98837620Y-176982381D01*
X98932858Y-176934762D01*
X98980477Y-176887143D01*
X99028096Y-176791905D01*
X99028096Y-176696667D01*
X98980477Y-176601429D01*
X98932858Y-176553810D01*
X98837620Y-176506190D01*
X98647143Y-176458571D01*
X98551905Y-176410952D01*
X98504286Y-176363333D01*
X98456667Y-176268095D01*
X98456667Y-176172857D01*
X98504286Y-176077619D01*
X98551905Y-176030000D01*
X98647143Y-175982381D01*
X98885239Y-175982381D01*
X99028096Y-176030000D01*
M02*
