G04 #@! TF.FileFunction,Soldermask,Bot*
%FSLAX46Y46*%
G04 Gerber Fmt 4.6, Leading zero omitted, Abs format (unit mm)*
G04 Created by KiCad (PCBNEW 4.0.6) date Monday, August 21, 2017 'PMt' 07:16:47 PM*
%MOMM*%
%LPD*%
G01*
G04 APERTURE LIST*
%ADD10C,0.100000*%
%ADD11R,2.100000X2.100000*%
%ADD12O,2.100000X2.100000*%
%ADD13C,2.400000*%
G04 APERTURE END LIST*
D10*
D11*
X151750000Y-143300000D03*
D12*
X151750000Y-140760000D03*
X149210000Y-143300000D03*
X149210000Y-140760000D03*
X146670000Y-143300000D03*
X146670000Y-140760000D03*
X144130000Y-143300000D03*
X144130000Y-140760000D03*
X141590000Y-143300000D03*
X141590000Y-140760000D03*
X139050000Y-143300000D03*
X139050000Y-140760000D03*
X136510000Y-143300000D03*
X136510000Y-140760000D03*
X133970000Y-143300000D03*
X133970000Y-140760000D03*
D11*
X104250000Y-41500000D03*
D12*
X104250000Y-44040000D03*
X106790000Y-41500000D03*
X106790000Y-44040000D03*
X109330000Y-41500000D03*
X109330000Y-44040000D03*
X111870000Y-41500000D03*
X111870000Y-44040000D03*
X114410000Y-41500000D03*
X114410000Y-44040000D03*
X116950000Y-41500000D03*
X116950000Y-44040000D03*
X119490000Y-41500000D03*
X119490000Y-44040000D03*
X122030000Y-41500000D03*
X122030000Y-44040000D03*
X124570000Y-41500000D03*
X124570000Y-44040000D03*
X127110000Y-41500000D03*
X127110000Y-44040000D03*
D11*
X104250000Y-106900000D03*
D12*
X104250000Y-109440000D03*
X106790000Y-106900000D03*
X106790000Y-109440000D03*
X109330000Y-106900000D03*
X109330000Y-109440000D03*
X111870000Y-106900000D03*
X111870000Y-109440000D03*
X114410000Y-106900000D03*
X114410000Y-109440000D03*
X116950000Y-106900000D03*
X116950000Y-109440000D03*
X119490000Y-106900000D03*
X119490000Y-109440000D03*
X122030000Y-106900000D03*
X122030000Y-109440000D03*
X124570000Y-106900000D03*
X124570000Y-109440000D03*
X127110000Y-106900000D03*
X127110000Y-109440000D03*
D11*
X120000000Y-165000000D03*
D12*
X122540000Y-165000000D03*
X120000000Y-167540000D03*
X122540000Y-167540000D03*
X120000000Y-170080000D03*
X122540000Y-170080000D03*
D11*
X140000000Y-165000000D03*
D12*
X142540000Y-165000000D03*
X140000000Y-167540000D03*
X142540000Y-167540000D03*
X140000000Y-170080000D03*
X142540000Y-170080000D03*
D11*
X150000000Y-165000000D03*
D12*
X152540000Y-165000000D03*
X150000000Y-167540000D03*
X152540000Y-167540000D03*
X150000000Y-170080000D03*
X152540000Y-170080000D03*
D11*
X110000000Y-165000000D03*
D12*
X112540000Y-165000000D03*
X110000000Y-167540000D03*
X112540000Y-167540000D03*
X110000000Y-170080000D03*
X112540000Y-170080000D03*
D11*
X130000000Y-165000000D03*
D12*
X132540000Y-165000000D03*
X130000000Y-167540000D03*
X132540000Y-167540000D03*
X130000000Y-170080000D03*
X132540000Y-170080000D03*
D13*
X50000000Y-165000000D03*
X55000000Y-165000000D03*
X55000000Y-170000000D03*
X50000000Y-170000000D03*
X65000000Y-165000000D03*
X70000000Y-165000000D03*
X70000000Y-170000000D03*
X65000000Y-170000000D03*
X80000000Y-165000000D03*
X85000000Y-165000000D03*
X85000000Y-170000000D03*
X80000000Y-170000000D03*
X95000000Y-165000000D03*
X100000000Y-165000000D03*
X100000000Y-170000000D03*
X95000000Y-170000000D03*
M02*
