G04 #@! TF.FileFunction,Copper,L3,Inr,Plane*
%FSLAX46Y46*%
G04 Gerber Fmt 4.6, Leading zero omitted, Abs format (unit mm)*
G04 Created by KiCad (PCBNEW 4.0.6) date Friday, August 25, 2017 'AMt' 01:12:00 AM*
%MOMM*%
%LPD*%
G01*
G04 APERTURE LIST*
%ADD10C,0.100000*%
%ADD11R,1.700000X1.700000*%
%ADD12O,1.700000X1.700000*%
%ADD13C,2.000000*%
%ADD14C,0.700000*%
%ADD15C,0.254000*%
G04 APERTURE END LIST*
D10*
D11*
X151750000Y-143300000D03*
D12*
X151750000Y-140760000D03*
X149210000Y-143300000D03*
X149210000Y-140760000D03*
X146670000Y-143300000D03*
X146670000Y-140760000D03*
X144130000Y-143300000D03*
X144130000Y-140760000D03*
X141590000Y-143300000D03*
X141590000Y-140760000D03*
X139050000Y-143300000D03*
X139050000Y-140760000D03*
X136510000Y-143300000D03*
X136510000Y-140760000D03*
X133970000Y-143300000D03*
X133970000Y-140760000D03*
D11*
X104250000Y-41500000D03*
D12*
X104250000Y-44040000D03*
X106790000Y-41500000D03*
X106790000Y-44040000D03*
X109330000Y-41500000D03*
X109330000Y-44040000D03*
X111870000Y-41500000D03*
X111870000Y-44040000D03*
X114410000Y-41500000D03*
X114410000Y-44040000D03*
X116950000Y-41500000D03*
X116950000Y-44040000D03*
X119490000Y-41500000D03*
X119490000Y-44040000D03*
X122030000Y-41500000D03*
X122030000Y-44040000D03*
X124570000Y-41500000D03*
X124570000Y-44040000D03*
X127110000Y-41500000D03*
X127110000Y-44040000D03*
D11*
X104250000Y-106900000D03*
D12*
X104250000Y-109440000D03*
X106790000Y-106900000D03*
X106790000Y-109440000D03*
X109330000Y-106900000D03*
X109330000Y-109440000D03*
X111870000Y-106900000D03*
X111870000Y-109440000D03*
X114410000Y-106900000D03*
X114410000Y-109440000D03*
X116950000Y-106900000D03*
X116950000Y-109440000D03*
X119490000Y-106900000D03*
X119490000Y-109440000D03*
X122030000Y-106900000D03*
X122030000Y-109440000D03*
X124570000Y-106900000D03*
X124570000Y-109440000D03*
X127110000Y-106900000D03*
X127110000Y-109440000D03*
D11*
X120000000Y-165000000D03*
D12*
X122540000Y-165000000D03*
X120000000Y-167540000D03*
X122540000Y-167540000D03*
X120000000Y-170080000D03*
X122540000Y-170080000D03*
D11*
X140000000Y-165000000D03*
D12*
X142540000Y-165000000D03*
X140000000Y-167540000D03*
X142540000Y-167540000D03*
X140000000Y-170080000D03*
X142540000Y-170080000D03*
D11*
X150000000Y-165000000D03*
D12*
X152540000Y-165000000D03*
X150000000Y-167540000D03*
X152540000Y-167540000D03*
X150000000Y-170080000D03*
X152540000Y-170080000D03*
D11*
X110000000Y-165000000D03*
D12*
X112540000Y-165000000D03*
X110000000Y-167540000D03*
X112540000Y-167540000D03*
X110000000Y-170080000D03*
X112540000Y-170080000D03*
D11*
X130000000Y-165000000D03*
D12*
X132540000Y-165000000D03*
X130000000Y-167540000D03*
X132540000Y-167540000D03*
X130000000Y-170080000D03*
X132540000Y-170080000D03*
D13*
X50000000Y-165000000D03*
X55000000Y-165000000D03*
X55000000Y-170000000D03*
X50000000Y-170000000D03*
X65000000Y-165000000D03*
X70000000Y-165000000D03*
X70000000Y-170000000D03*
X65000000Y-170000000D03*
X80000000Y-165000000D03*
X85000000Y-165000000D03*
X85000000Y-170000000D03*
X80000000Y-170000000D03*
X95000000Y-165000000D03*
X100000000Y-165000000D03*
X100000000Y-170000000D03*
X95000000Y-170000000D03*
D14*
X133150000Y-137900000D03*
X107350000Y-38300000D03*
X112500000Y-157500000D03*
X100250000Y-157500000D03*
X85250000Y-157500000D03*
X70500000Y-157250000D03*
X54750000Y-157500000D03*
X145900000Y-170900000D03*
X155400000Y-171000000D03*
X135200000Y-170900000D03*
X126000000Y-171300000D03*
X115300000Y-170900000D03*
X104600000Y-165000000D03*
X89600000Y-164700000D03*
X74300000Y-165000000D03*
X59400000Y-164300000D03*
X90134702Y-137289298D03*
X93700000Y-134400000D03*
X96950000Y-134700000D03*
X96139000Y-141986000D03*
X138176000Y-163076000D03*
X135890000Y-162052000D03*
X131699000Y-152527000D03*
X135500000Y-153040000D03*
X122300000Y-146000000D03*
X133096000Y-151003000D03*
X121250000Y-145415000D03*
X109550000Y-147800000D03*
X108750000Y-146800000D03*
X97155000Y-150495000D03*
X129850000Y-136250000D03*
X128524000Y-135636000D03*
X96700000Y-146385002D03*
X134747000Y-164338000D03*
X124841000Y-163957000D03*
X114681000Y-164465000D03*
X132350000Y-145150000D03*
X103700000Y-38200000D03*
X107250000Y-153000000D03*
X90000000Y-153000000D03*
X75000000Y-152750000D03*
X60000000Y-153000000D03*
X46000000Y-153000000D03*
X155500000Y-163500000D03*
X145500000Y-164100000D03*
X120150000Y-147000000D03*
X145050000Y-165950000D03*
X132334000Y-151638000D03*
X123300000Y-145500000D03*
X113372900Y-113893600D03*
X117700000Y-176050000D03*
X117195600Y-111912400D03*
X114858800Y-111315500D03*
D15*
G36*
X159290000Y-179290000D02*
X40710000Y-179290000D01*
X40710000Y-176245069D01*
X116714830Y-176245069D01*
X116864471Y-176607229D01*
X117141314Y-176884555D01*
X117503212Y-177034828D01*
X117895069Y-177035170D01*
X118257229Y-176885529D01*
X118534555Y-176608686D01*
X118684828Y-176246788D01*
X118685170Y-175854931D01*
X118535529Y-175492771D01*
X118258686Y-175215445D01*
X117896788Y-175065172D01*
X117504931Y-175064830D01*
X117142771Y-175214471D01*
X116865445Y-175491314D01*
X116715172Y-175853212D01*
X116714830Y-176245069D01*
X40710000Y-176245069D01*
X40710000Y-170323795D01*
X48364716Y-170323795D01*
X48613106Y-170924943D01*
X49072637Y-171385278D01*
X49673352Y-171634716D01*
X50323795Y-171635284D01*
X50924943Y-171386894D01*
X51385278Y-170927363D01*
X51634716Y-170326648D01*
X51634718Y-170323795D01*
X53364716Y-170323795D01*
X53613106Y-170924943D01*
X54072637Y-171385278D01*
X54673352Y-171634716D01*
X55323795Y-171635284D01*
X55924943Y-171386894D01*
X56385278Y-170927363D01*
X56634716Y-170326648D01*
X56634718Y-170323795D01*
X63364716Y-170323795D01*
X63613106Y-170924943D01*
X64072637Y-171385278D01*
X64673352Y-171634716D01*
X65323795Y-171635284D01*
X65924943Y-171386894D01*
X66385278Y-170927363D01*
X66634716Y-170326648D01*
X66634718Y-170323795D01*
X68364716Y-170323795D01*
X68613106Y-170924943D01*
X69072637Y-171385278D01*
X69673352Y-171634716D01*
X70323795Y-171635284D01*
X70924943Y-171386894D01*
X71385278Y-170927363D01*
X71634716Y-170326648D01*
X71634718Y-170323795D01*
X78364716Y-170323795D01*
X78613106Y-170924943D01*
X79072637Y-171385278D01*
X79673352Y-171634716D01*
X80323795Y-171635284D01*
X80924943Y-171386894D01*
X81385278Y-170927363D01*
X81634716Y-170326648D01*
X81634718Y-170323795D01*
X83364716Y-170323795D01*
X83613106Y-170924943D01*
X84072637Y-171385278D01*
X84673352Y-171634716D01*
X85323795Y-171635284D01*
X85924943Y-171386894D01*
X86385278Y-170927363D01*
X86634716Y-170326648D01*
X86634718Y-170323795D01*
X93364716Y-170323795D01*
X93613106Y-170924943D01*
X94072637Y-171385278D01*
X94673352Y-171634716D01*
X95323795Y-171635284D01*
X95924943Y-171386894D01*
X96385278Y-170927363D01*
X96634716Y-170326648D01*
X96634718Y-170323795D01*
X98364716Y-170323795D01*
X98613106Y-170924943D01*
X99072637Y-171385278D01*
X99673352Y-171634716D01*
X100323795Y-171635284D01*
X100924943Y-171386894D01*
X101385278Y-170927363D01*
X101634716Y-170326648D01*
X101635284Y-169676205D01*
X101386894Y-169075057D01*
X100927363Y-168614722D01*
X100326648Y-168365284D01*
X99676205Y-168364716D01*
X99075057Y-168613106D01*
X98614722Y-169072637D01*
X98365284Y-169673352D01*
X98364716Y-170323795D01*
X96634718Y-170323795D01*
X96635284Y-169676205D01*
X96386894Y-169075057D01*
X95927363Y-168614722D01*
X95326648Y-168365284D01*
X94676205Y-168364716D01*
X94075057Y-168613106D01*
X93614722Y-169072637D01*
X93365284Y-169673352D01*
X93364716Y-170323795D01*
X86634718Y-170323795D01*
X86635284Y-169676205D01*
X86386894Y-169075057D01*
X85927363Y-168614722D01*
X85326648Y-168365284D01*
X84676205Y-168364716D01*
X84075057Y-168613106D01*
X83614722Y-169072637D01*
X83365284Y-169673352D01*
X83364716Y-170323795D01*
X81634718Y-170323795D01*
X81635284Y-169676205D01*
X81386894Y-169075057D01*
X80927363Y-168614722D01*
X80326648Y-168365284D01*
X79676205Y-168364716D01*
X79075057Y-168613106D01*
X78614722Y-169072637D01*
X78365284Y-169673352D01*
X78364716Y-170323795D01*
X71634718Y-170323795D01*
X71635284Y-169676205D01*
X71386894Y-169075057D01*
X70927363Y-168614722D01*
X70326648Y-168365284D01*
X69676205Y-168364716D01*
X69075057Y-168613106D01*
X68614722Y-169072637D01*
X68365284Y-169673352D01*
X68364716Y-170323795D01*
X66634718Y-170323795D01*
X66635284Y-169676205D01*
X66386894Y-169075057D01*
X65927363Y-168614722D01*
X65326648Y-168365284D01*
X64676205Y-168364716D01*
X64075057Y-168613106D01*
X63614722Y-169072637D01*
X63365284Y-169673352D01*
X63364716Y-170323795D01*
X56634718Y-170323795D01*
X56635284Y-169676205D01*
X56386894Y-169075057D01*
X55927363Y-168614722D01*
X55326648Y-168365284D01*
X54676205Y-168364716D01*
X54075057Y-168613106D01*
X53614722Y-169072637D01*
X53365284Y-169673352D01*
X53364716Y-170323795D01*
X51634718Y-170323795D01*
X51635284Y-169676205D01*
X51386894Y-169075057D01*
X50927363Y-168614722D01*
X50326648Y-168365284D01*
X49676205Y-168364716D01*
X49075057Y-168613106D01*
X48614722Y-169072637D01*
X48365284Y-169673352D01*
X48364716Y-170323795D01*
X40710000Y-170323795D01*
X40710000Y-167540000D01*
X108485907Y-167540000D01*
X108598946Y-168108285D01*
X108920853Y-168590054D01*
X109250026Y-168810000D01*
X108920853Y-169029946D01*
X108598946Y-169511715D01*
X108485907Y-170080000D01*
X108598946Y-170648285D01*
X108920853Y-171130054D01*
X109402622Y-171451961D01*
X109970907Y-171565000D01*
X110029093Y-171565000D01*
X110597378Y-171451961D01*
X111079147Y-171130054D01*
X111270000Y-170844422D01*
X111460853Y-171130054D01*
X111942622Y-171451961D01*
X112510907Y-171565000D01*
X112569093Y-171565000D01*
X113137378Y-171451961D01*
X113619147Y-171130054D01*
X113642523Y-171095069D01*
X114314830Y-171095069D01*
X114464471Y-171457229D01*
X114741314Y-171734555D01*
X115103212Y-171884828D01*
X115495069Y-171885170D01*
X115857229Y-171735529D01*
X116134555Y-171458686D01*
X116284828Y-171096788D01*
X116285170Y-170704931D01*
X116135529Y-170342771D01*
X115858686Y-170065445D01*
X115496788Y-169915172D01*
X115104931Y-169914830D01*
X114742771Y-170064471D01*
X114465445Y-170341314D01*
X114315172Y-170703212D01*
X114314830Y-171095069D01*
X113642523Y-171095069D01*
X113941054Y-170648285D01*
X114054093Y-170080000D01*
X113941054Y-169511715D01*
X113619147Y-169029946D01*
X113289974Y-168810000D01*
X113619147Y-168590054D01*
X113941054Y-168108285D01*
X114054093Y-167540000D01*
X118485907Y-167540000D01*
X118598946Y-168108285D01*
X118920853Y-168590054D01*
X119250026Y-168810000D01*
X118920853Y-169029946D01*
X118598946Y-169511715D01*
X118485907Y-170080000D01*
X118598946Y-170648285D01*
X118920853Y-171130054D01*
X119402622Y-171451961D01*
X119970907Y-171565000D01*
X120029093Y-171565000D01*
X120597378Y-171451961D01*
X121079147Y-171130054D01*
X121270000Y-170844422D01*
X121460853Y-171130054D01*
X121942622Y-171451961D01*
X122510907Y-171565000D01*
X122569093Y-171565000D01*
X122920659Y-171495069D01*
X125014830Y-171495069D01*
X125164471Y-171857229D01*
X125441314Y-172134555D01*
X125803212Y-172284828D01*
X126195069Y-172285170D01*
X126557229Y-172135529D01*
X126834555Y-171858686D01*
X126984828Y-171496788D01*
X126985170Y-171104931D01*
X126835529Y-170742771D01*
X126558686Y-170465445D01*
X126196788Y-170315172D01*
X125804931Y-170314830D01*
X125442771Y-170464471D01*
X125165445Y-170741314D01*
X125015172Y-171103212D01*
X125014830Y-171495069D01*
X122920659Y-171495069D01*
X123137378Y-171451961D01*
X123619147Y-171130054D01*
X123941054Y-170648285D01*
X124054093Y-170080000D01*
X123941054Y-169511715D01*
X123619147Y-169029946D01*
X123289974Y-168810000D01*
X123619147Y-168590054D01*
X123941054Y-168108285D01*
X124054093Y-167540000D01*
X128485907Y-167540000D01*
X128598946Y-168108285D01*
X128920853Y-168590054D01*
X129250026Y-168810000D01*
X128920853Y-169029946D01*
X128598946Y-169511715D01*
X128485907Y-170080000D01*
X128598946Y-170648285D01*
X128920853Y-171130054D01*
X129402622Y-171451961D01*
X129970907Y-171565000D01*
X130029093Y-171565000D01*
X130597378Y-171451961D01*
X131079147Y-171130054D01*
X131270000Y-170844422D01*
X131460853Y-171130054D01*
X131942622Y-171451961D01*
X132510907Y-171565000D01*
X132569093Y-171565000D01*
X133137378Y-171451961D01*
X133619147Y-171130054D01*
X133642523Y-171095069D01*
X134214830Y-171095069D01*
X134364471Y-171457229D01*
X134641314Y-171734555D01*
X135003212Y-171884828D01*
X135395069Y-171885170D01*
X135757229Y-171735529D01*
X136034555Y-171458686D01*
X136184828Y-171096788D01*
X136185170Y-170704931D01*
X136035529Y-170342771D01*
X135758686Y-170065445D01*
X135396788Y-169915172D01*
X135004931Y-169914830D01*
X134642771Y-170064471D01*
X134365445Y-170341314D01*
X134215172Y-170703212D01*
X134214830Y-171095069D01*
X133642523Y-171095069D01*
X133941054Y-170648285D01*
X134054093Y-170080000D01*
X133941054Y-169511715D01*
X133619147Y-169029946D01*
X133289974Y-168810000D01*
X133619147Y-168590054D01*
X133941054Y-168108285D01*
X134054093Y-167540000D01*
X133941054Y-166971715D01*
X133619147Y-166489946D01*
X133278447Y-166262298D01*
X133421358Y-166195183D01*
X133811645Y-165766924D01*
X133981476Y-165356890D01*
X133860155Y-165127000D01*
X132667000Y-165127000D01*
X132667000Y-165147000D01*
X132413000Y-165147000D01*
X132413000Y-165127000D01*
X132393000Y-165127000D01*
X132393000Y-164873000D01*
X132413000Y-164873000D01*
X132413000Y-163679181D01*
X132667000Y-163679181D01*
X132667000Y-164873000D01*
X133860155Y-164873000D01*
X133981476Y-164643110D01*
X133811645Y-164233076D01*
X133421358Y-163804817D01*
X132896892Y-163558514D01*
X132667000Y-163679181D01*
X132413000Y-163679181D01*
X132183108Y-163558514D01*
X131658642Y-163804817D01*
X131471192Y-164010504D01*
X131453162Y-163914683D01*
X131314090Y-163698559D01*
X131101890Y-163553569D01*
X130850000Y-163502560D01*
X129150000Y-163502560D01*
X128914683Y-163546838D01*
X128698559Y-163685910D01*
X128553569Y-163898110D01*
X128502560Y-164150000D01*
X128502560Y-165850000D01*
X128546838Y-166085317D01*
X128685910Y-166301441D01*
X128898110Y-166446431D01*
X128965541Y-166460086D01*
X128920853Y-166489946D01*
X128598946Y-166971715D01*
X128485907Y-167540000D01*
X124054093Y-167540000D01*
X123941054Y-166971715D01*
X123619147Y-166489946D01*
X123278447Y-166262298D01*
X123421358Y-166195183D01*
X123811645Y-165766924D01*
X123981476Y-165356890D01*
X123860155Y-165127000D01*
X122667000Y-165127000D01*
X122667000Y-165147000D01*
X122413000Y-165147000D01*
X122413000Y-165127000D01*
X122393000Y-165127000D01*
X122393000Y-164873000D01*
X122413000Y-164873000D01*
X122413000Y-163679181D01*
X122667000Y-163679181D01*
X122667000Y-164873000D01*
X123860155Y-164873000D01*
X123981476Y-164643110D01*
X123811645Y-164233076D01*
X123421358Y-163804817D01*
X122896892Y-163558514D01*
X122667000Y-163679181D01*
X122413000Y-163679181D01*
X122183108Y-163558514D01*
X121658642Y-163804817D01*
X121471192Y-164010504D01*
X121453162Y-163914683D01*
X121314090Y-163698559D01*
X121101890Y-163553569D01*
X120850000Y-163502560D01*
X119150000Y-163502560D01*
X118914683Y-163546838D01*
X118698559Y-163685910D01*
X118553569Y-163898110D01*
X118502560Y-164150000D01*
X118502560Y-165850000D01*
X118546838Y-166085317D01*
X118685910Y-166301441D01*
X118898110Y-166446431D01*
X118965541Y-166460086D01*
X118920853Y-166489946D01*
X118598946Y-166971715D01*
X118485907Y-167540000D01*
X114054093Y-167540000D01*
X113941054Y-166971715D01*
X113619147Y-166489946D01*
X113278447Y-166262298D01*
X113421358Y-166195183D01*
X113811645Y-165766924D01*
X113981476Y-165356890D01*
X113860155Y-165127000D01*
X112667000Y-165127000D01*
X112667000Y-165147000D01*
X112413000Y-165147000D01*
X112413000Y-165127000D01*
X112393000Y-165127000D01*
X112393000Y-164873000D01*
X112413000Y-164873000D01*
X112413000Y-163679181D01*
X112667000Y-163679181D01*
X112667000Y-164873000D01*
X113860155Y-164873000D01*
X113981476Y-164643110D01*
X113811645Y-164233076D01*
X113421358Y-163804817D01*
X112896892Y-163558514D01*
X112667000Y-163679181D01*
X112413000Y-163679181D01*
X112183108Y-163558514D01*
X111658642Y-163804817D01*
X111471192Y-164010504D01*
X111453162Y-163914683D01*
X111314090Y-163698559D01*
X111101890Y-163553569D01*
X110850000Y-163502560D01*
X109150000Y-163502560D01*
X108914683Y-163546838D01*
X108698559Y-163685910D01*
X108553569Y-163898110D01*
X108502560Y-164150000D01*
X108502560Y-165850000D01*
X108546838Y-166085317D01*
X108685910Y-166301441D01*
X108898110Y-166446431D01*
X108965541Y-166460086D01*
X108920853Y-166489946D01*
X108598946Y-166971715D01*
X108485907Y-167540000D01*
X40710000Y-167540000D01*
X40710000Y-165323795D01*
X48364716Y-165323795D01*
X48613106Y-165924943D01*
X49072637Y-166385278D01*
X49673352Y-166634716D01*
X50323795Y-166635284D01*
X50924943Y-166386894D01*
X51385278Y-165927363D01*
X51634716Y-165326648D01*
X51634718Y-165323795D01*
X53364716Y-165323795D01*
X53613106Y-165924943D01*
X54072637Y-166385278D01*
X54673352Y-166634716D01*
X55323795Y-166635284D01*
X55924943Y-166386894D01*
X56385278Y-165927363D01*
X56634716Y-165326648D01*
X56634718Y-165323795D01*
X63364716Y-165323795D01*
X63613106Y-165924943D01*
X64072637Y-166385278D01*
X64673352Y-166634716D01*
X65323795Y-166635284D01*
X65924943Y-166386894D01*
X66385278Y-165927363D01*
X66634716Y-165326648D01*
X66634718Y-165323795D01*
X68364716Y-165323795D01*
X68613106Y-165924943D01*
X69072637Y-166385278D01*
X69673352Y-166634716D01*
X70323795Y-166635284D01*
X70924943Y-166386894D01*
X71385278Y-165927363D01*
X71634716Y-165326648D01*
X71634830Y-165195069D01*
X73314830Y-165195069D01*
X73464471Y-165557229D01*
X73741314Y-165834555D01*
X74103212Y-165984828D01*
X74495069Y-165985170D01*
X74857229Y-165835529D01*
X75134555Y-165558686D01*
X75232090Y-165323795D01*
X78364716Y-165323795D01*
X78613106Y-165924943D01*
X79072637Y-166385278D01*
X79673352Y-166634716D01*
X80323795Y-166635284D01*
X80924943Y-166386894D01*
X81385278Y-165927363D01*
X81634716Y-165326648D01*
X81634718Y-165323795D01*
X83364716Y-165323795D01*
X83613106Y-165924943D01*
X84072637Y-166385278D01*
X84673352Y-166634716D01*
X85323795Y-166635284D01*
X85924943Y-166386894D01*
X86385278Y-165927363D01*
X86634716Y-165326648D01*
X86635092Y-164895069D01*
X88614830Y-164895069D01*
X88764471Y-165257229D01*
X89041314Y-165534555D01*
X89403212Y-165684828D01*
X89795069Y-165685170D01*
X90157229Y-165535529D01*
X90369332Y-165323795D01*
X93364716Y-165323795D01*
X93613106Y-165924943D01*
X94072637Y-166385278D01*
X94673352Y-166634716D01*
X95323795Y-166635284D01*
X95924943Y-166386894D01*
X96385278Y-165927363D01*
X96634716Y-165326648D01*
X96634718Y-165323795D01*
X98364716Y-165323795D01*
X98613106Y-165924943D01*
X99072637Y-166385278D01*
X99673352Y-166634716D01*
X100323795Y-166635284D01*
X100924943Y-166386894D01*
X101385278Y-165927363D01*
X101634716Y-165326648D01*
X101634830Y-165195069D01*
X103614830Y-165195069D01*
X103764471Y-165557229D01*
X104041314Y-165834555D01*
X104403212Y-165984828D01*
X104795069Y-165985170D01*
X105157229Y-165835529D01*
X105434555Y-165558686D01*
X105584828Y-165196788D01*
X105585170Y-164804931D01*
X105435529Y-164442771D01*
X105158686Y-164165445D01*
X104796788Y-164015172D01*
X104404931Y-164014830D01*
X104042771Y-164164471D01*
X103765445Y-164441314D01*
X103615172Y-164803212D01*
X103614830Y-165195069D01*
X101634830Y-165195069D01*
X101635284Y-164676205D01*
X101386894Y-164075057D01*
X100927363Y-163614722D01*
X100326648Y-163365284D01*
X99676205Y-163364716D01*
X99075057Y-163613106D01*
X98614722Y-164072637D01*
X98365284Y-164673352D01*
X98364716Y-165323795D01*
X96634718Y-165323795D01*
X96635284Y-164676205D01*
X96386894Y-164075057D01*
X95927363Y-163614722D01*
X95326648Y-163365284D01*
X94676205Y-163364716D01*
X94075057Y-163613106D01*
X93614722Y-164072637D01*
X93365284Y-164673352D01*
X93364716Y-165323795D01*
X90369332Y-165323795D01*
X90434555Y-165258686D01*
X90584828Y-164896788D01*
X90585170Y-164504931D01*
X90435529Y-164142771D01*
X90158686Y-163865445D01*
X89796788Y-163715172D01*
X89404931Y-163714830D01*
X89042771Y-163864471D01*
X88765445Y-164141314D01*
X88615172Y-164503212D01*
X88614830Y-164895069D01*
X86635092Y-164895069D01*
X86635284Y-164676205D01*
X86386894Y-164075057D01*
X85927363Y-163614722D01*
X85326648Y-163365284D01*
X84676205Y-163364716D01*
X84075057Y-163613106D01*
X83614722Y-164072637D01*
X83365284Y-164673352D01*
X83364716Y-165323795D01*
X81634718Y-165323795D01*
X81635284Y-164676205D01*
X81386894Y-164075057D01*
X80927363Y-163614722D01*
X80326648Y-163365284D01*
X79676205Y-163364716D01*
X79075057Y-163613106D01*
X78614722Y-164072637D01*
X78365284Y-164673352D01*
X78364716Y-165323795D01*
X75232090Y-165323795D01*
X75284828Y-165196788D01*
X75285170Y-164804931D01*
X75135529Y-164442771D01*
X74858686Y-164165445D01*
X74496788Y-164015172D01*
X74104931Y-164014830D01*
X73742771Y-164164471D01*
X73465445Y-164441314D01*
X73315172Y-164803212D01*
X73314830Y-165195069D01*
X71634830Y-165195069D01*
X71635284Y-164676205D01*
X71386894Y-164075057D01*
X70927363Y-163614722D01*
X70326648Y-163365284D01*
X69676205Y-163364716D01*
X69075057Y-163613106D01*
X68614722Y-164072637D01*
X68365284Y-164673352D01*
X68364716Y-165323795D01*
X66634718Y-165323795D01*
X66635284Y-164676205D01*
X66386894Y-164075057D01*
X65927363Y-163614722D01*
X65326648Y-163365284D01*
X64676205Y-163364716D01*
X64075057Y-163613106D01*
X63614722Y-164072637D01*
X63365284Y-164673352D01*
X63364716Y-165323795D01*
X56634718Y-165323795D01*
X56635284Y-164676205D01*
X56560440Y-164495069D01*
X58414830Y-164495069D01*
X58564471Y-164857229D01*
X58841314Y-165134555D01*
X59203212Y-165284828D01*
X59595069Y-165285170D01*
X59957229Y-165135529D01*
X60234555Y-164858686D01*
X60384828Y-164496788D01*
X60385170Y-164104931D01*
X60235529Y-163742771D01*
X59958686Y-163465445D01*
X59596788Y-163315172D01*
X59204931Y-163314830D01*
X58842771Y-163464471D01*
X58565445Y-163741314D01*
X58415172Y-164103212D01*
X58414830Y-164495069D01*
X56560440Y-164495069D01*
X56386894Y-164075057D01*
X55927363Y-163614722D01*
X55326648Y-163365284D01*
X54676205Y-163364716D01*
X54075057Y-163613106D01*
X53614722Y-164072637D01*
X53365284Y-164673352D01*
X53364716Y-165323795D01*
X51634718Y-165323795D01*
X51635284Y-164676205D01*
X51386894Y-164075057D01*
X50927363Y-163614722D01*
X50326648Y-163365284D01*
X49676205Y-163364716D01*
X49075057Y-163613106D01*
X48614722Y-164072637D01*
X48365284Y-164673352D01*
X48364716Y-165323795D01*
X40710000Y-165323795D01*
X40710000Y-163271069D01*
X137190830Y-163271069D01*
X137340471Y-163633229D01*
X137617314Y-163910555D01*
X137979212Y-164060828D01*
X138371069Y-164061170D01*
X138534198Y-163993767D01*
X138502560Y-164150000D01*
X138502560Y-165850000D01*
X138546838Y-166085317D01*
X138685910Y-166301441D01*
X138898110Y-166446431D01*
X138965541Y-166460086D01*
X138920853Y-166489946D01*
X138598946Y-166971715D01*
X138485907Y-167540000D01*
X138598946Y-168108285D01*
X138920853Y-168590054D01*
X139250026Y-168810000D01*
X138920853Y-169029946D01*
X138598946Y-169511715D01*
X138485907Y-170080000D01*
X138598946Y-170648285D01*
X138920853Y-171130054D01*
X139402622Y-171451961D01*
X139970907Y-171565000D01*
X140029093Y-171565000D01*
X140597378Y-171451961D01*
X141079147Y-171130054D01*
X141270000Y-170844422D01*
X141460853Y-171130054D01*
X141942622Y-171451961D01*
X142510907Y-171565000D01*
X142569093Y-171565000D01*
X143137378Y-171451961D01*
X143619147Y-171130054D01*
X143642523Y-171095069D01*
X144914830Y-171095069D01*
X145064471Y-171457229D01*
X145341314Y-171734555D01*
X145703212Y-171884828D01*
X146095069Y-171885170D01*
X146457229Y-171735529D01*
X146734555Y-171458686D01*
X146884828Y-171096788D01*
X146885170Y-170704931D01*
X146735529Y-170342771D01*
X146458686Y-170065445D01*
X146096788Y-169915172D01*
X145704931Y-169914830D01*
X145342771Y-170064471D01*
X145065445Y-170341314D01*
X144915172Y-170703212D01*
X144914830Y-171095069D01*
X143642523Y-171095069D01*
X143941054Y-170648285D01*
X144054093Y-170080000D01*
X143941054Y-169511715D01*
X143619147Y-169029946D01*
X143289974Y-168810000D01*
X143619147Y-168590054D01*
X143941054Y-168108285D01*
X144054093Y-167540000D01*
X148485907Y-167540000D01*
X148598946Y-168108285D01*
X148920853Y-168590054D01*
X149250026Y-168810000D01*
X148920853Y-169029946D01*
X148598946Y-169511715D01*
X148485907Y-170080000D01*
X148598946Y-170648285D01*
X148920853Y-171130054D01*
X149402622Y-171451961D01*
X149970907Y-171565000D01*
X150029093Y-171565000D01*
X150597378Y-171451961D01*
X151079147Y-171130054D01*
X151270000Y-170844422D01*
X151460853Y-171130054D01*
X151942622Y-171451961D01*
X152510907Y-171565000D01*
X152569093Y-171565000D01*
X153137378Y-171451961D01*
X153521844Y-171195069D01*
X154414830Y-171195069D01*
X154564471Y-171557229D01*
X154841314Y-171834555D01*
X155203212Y-171984828D01*
X155595069Y-171985170D01*
X155957229Y-171835529D01*
X156234555Y-171558686D01*
X156384828Y-171196788D01*
X156385170Y-170804931D01*
X156235529Y-170442771D01*
X155958686Y-170165445D01*
X155596788Y-170015172D01*
X155204931Y-170014830D01*
X154842771Y-170164471D01*
X154565445Y-170441314D01*
X154415172Y-170803212D01*
X154414830Y-171195069D01*
X153521844Y-171195069D01*
X153619147Y-171130054D01*
X153941054Y-170648285D01*
X154054093Y-170080000D01*
X153941054Y-169511715D01*
X153619147Y-169029946D01*
X153289974Y-168810000D01*
X153619147Y-168590054D01*
X153941054Y-168108285D01*
X154054093Y-167540000D01*
X153941054Y-166971715D01*
X153619147Y-166489946D01*
X153278447Y-166262298D01*
X153421358Y-166195183D01*
X153811645Y-165766924D01*
X153981476Y-165356890D01*
X153860155Y-165127000D01*
X152667000Y-165127000D01*
X152667000Y-165147000D01*
X152413000Y-165147000D01*
X152413000Y-165127000D01*
X152393000Y-165127000D01*
X152393000Y-164873000D01*
X152413000Y-164873000D01*
X152413000Y-163679181D01*
X152667000Y-163679181D01*
X152667000Y-164873000D01*
X153860155Y-164873000D01*
X153981476Y-164643110D01*
X153811645Y-164233076D01*
X153421358Y-163804817D01*
X152896892Y-163558514D01*
X152667000Y-163679181D01*
X152413000Y-163679181D01*
X152183108Y-163558514D01*
X151658642Y-163804817D01*
X151471192Y-164010504D01*
X151453162Y-163914683D01*
X151314090Y-163698559D01*
X151101890Y-163553569D01*
X150850000Y-163502560D01*
X149150000Y-163502560D01*
X148914683Y-163546838D01*
X148698559Y-163685910D01*
X148553569Y-163898110D01*
X148502560Y-164150000D01*
X148502560Y-165850000D01*
X148546838Y-166085317D01*
X148685910Y-166301441D01*
X148898110Y-166446431D01*
X148965541Y-166460086D01*
X148920853Y-166489946D01*
X148598946Y-166971715D01*
X148485907Y-167540000D01*
X144054093Y-167540000D01*
X143941054Y-166971715D01*
X143619147Y-166489946D01*
X143278447Y-166262298D01*
X143421358Y-166195183D01*
X143467028Y-166145069D01*
X144064830Y-166145069D01*
X144214471Y-166507229D01*
X144491314Y-166784555D01*
X144853212Y-166934828D01*
X145245069Y-166935170D01*
X145607229Y-166785529D01*
X145884555Y-166508686D01*
X146034828Y-166146788D01*
X146035170Y-165754931D01*
X145885529Y-165392771D01*
X145608686Y-165115445D01*
X145246788Y-164965172D01*
X144854931Y-164964830D01*
X144492771Y-165114471D01*
X144215445Y-165391314D01*
X144065172Y-165753212D01*
X144064830Y-166145069D01*
X143467028Y-166145069D01*
X143811645Y-165766924D01*
X143981476Y-165356890D01*
X143860155Y-165127000D01*
X142667000Y-165127000D01*
X142667000Y-165147000D01*
X142413000Y-165147000D01*
X142413000Y-165127000D01*
X142393000Y-165127000D01*
X142393000Y-164873000D01*
X142413000Y-164873000D01*
X142413000Y-163679181D01*
X142667000Y-163679181D01*
X142667000Y-164873000D01*
X143860155Y-164873000D01*
X143981476Y-164643110D01*
X143811645Y-164233076D01*
X143421358Y-163804817D01*
X142896892Y-163558514D01*
X142667000Y-163679181D01*
X142413000Y-163679181D01*
X142183108Y-163558514D01*
X141658642Y-163804817D01*
X141471192Y-164010504D01*
X141453162Y-163914683D01*
X141314090Y-163698559D01*
X141101890Y-163553569D01*
X140850000Y-163502560D01*
X139150000Y-163502560D01*
X139058250Y-163519824D01*
X139160828Y-163272788D01*
X139161170Y-162880931D01*
X139011529Y-162518771D01*
X138734686Y-162241445D01*
X138372788Y-162091172D01*
X137980931Y-162090830D01*
X137618771Y-162240471D01*
X137341445Y-162517314D01*
X137191172Y-162879212D01*
X137190830Y-163271069D01*
X40710000Y-163271069D01*
X40710000Y-162247069D01*
X134904830Y-162247069D01*
X135054471Y-162609229D01*
X135331314Y-162886555D01*
X135693212Y-163036828D01*
X136085069Y-163037170D01*
X136447229Y-162887529D01*
X136724555Y-162610686D01*
X136874828Y-162248788D01*
X136875170Y-161856931D01*
X136725529Y-161494771D01*
X136448686Y-161217445D01*
X136086788Y-161067172D01*
X135694931Y-161066830D01*
X135332771Y-161216471D01*
X135055445Y-161493314D01*
X134905172Y-161855212D01*
X134904830Y-162247069D01*
X40710000Y-162247069D01*
X40710000Y-157695069D01*
X53764830Y-157695069D01*
X53914471Y-158057229D01*
X54191314Y-158334555D01*
X54553212Y-158484828D01*
X54945069Y-158485170D01*
X55307229Y-158335529D01*
X55584555Y-158058686D01*
X55734828Y-157696788D01*
X55735047Y-157445069D01*
X69514830Y-157445069D01*
X69664471Y-157807229D01*
X69941314Y-158084555D01*
X70303212Y-158234828D01*
X70695069Y-158235170D01*
X71057229Y-158085529D01*
X71334555Y-157808686D01*
X71381732Y-157695069D01*
X84264830Y-157695069D01*
X84414471Y-158057229D01*
X84691314Y-158334555D01*
X85053212Y-158484828D01*
X85445069Y-158485170D01*
X85807229Y-158335529D01*
X86084555Y-158058686D01*
X86234828Y-157696788D01*
X86234829Y-157695069D01*
X99264830Y-157695069D01*
X99414471Y-158057229D01*
X99691314Y-158334555D01*
X100053212Y-158484828D01*
X100445069Y-158485170D01*
X100807229Y-158335529D01*
X101084555Y-158058686D01*
X101234828Y-157696788D01*
X101234829Y-157695069D01*
X111514830Y-157695069D01*
X111664471Y-158057229D01*
X111941314Y-158334555D01*
X112303212Y-158484828D01*
X112695069Y-158485170D01*
X113057229Y-158335529D01*
X113334555Y-158058686D01*
X113484828Y-157696788D01*
X113485170Y-157304931D01*
X113335529Y-156942771D01*
X113058686Y-156665445D01*
X112696788Y-156515172D01*
X112304931Y-156514830D01*
X111942771Y-156664471D01*
X111665445Y-156941314D01*
X111515172Y-157303212D01*
X111514830Y-157695069D01*
X101234829Y-157695069D01*
X101235170Y-157304931D01*
X101085529Y-156942771D01*
X100808686Y-156665445D01*
X100446788Y-156515172D01*
X100054931Y-156514830D01*
X99692771Y-156664471D01*
X99415445Y-156941314D01*
X99265172Y-157303212D01*
X99264830Y-157695069D01*
X86234829Y-157695069D01*
X86235170Y-157304931D01*
X86085529Y-156942771D01*
X85808686Y-156665445D01*
X85446788Y-156515172D01*
X85054931Y-156514830D01*
X84692771Y-156664471D01*
X84415445Y-156941314D01*
X84265172Y-157303212D01*
X84264830Y-157695069D01*
X71381732Y-157695069D01*
X71484828Y-157446788D01*
X71485170Y-157054931D01*
X71335529Y-156692771D01*
X71058686Y-156415445D01*
X70696788Y-156265172D01*
X70304931Y-156264830D01*
X69942771Y-156414471D01*
X69665445Y-156691314D01*
X69515172Y-157053212D01*
X69514830Y-157445069D01*
X55735047Y-157445069D01*
X55735170Y-157304931D01*
X55585529Y-156942771D01*
X55308686Y-156665445D01*
X54946788Y-156515172D01*
X54554931Y-156514830D01*
X54192771Y-156664471D01*
X53915445Y-156941314D01*
X53765172Y-157303212D01*
X53764830Y-157695069D01*
X40710000Y-157695069D01*
X40710000Y-152722069D01*
X130713830Y-152722069D01*
X130863471Y-153084229D01*
X131140314Y-153361555D01*
X131502212Y-153511828D01*
X131894069Y-153512170D01*
X132256229Y-153362529D01*
X132383911Y-153235069D01*
X134514830Y-153235069D01*
X134664471Y-153597229D01*
X134941314Y-153874555D01*
X135303212Y-154024828D01*
X135695069Y-154025170D01*
X136057229Y-153875529D01*
X136334555Y-153598686D01*
X136484828Y-153236788D01*
X136485170Y-152844931D01*
X136335529Y-152482771D01*
X136058686Y-152205445D01*
X135696788Y-152055172D01*
X135304931Y-152054830D01*
X134942771Y-152204471D01*
X134665445Y-152481314D01*
X134515172Y-152843212D01*
X134514830Y-153235069D01*
X132383911Y-153235069D01*
X132533555Y-153085686D01*
X132683828Y-152723788D01*
X132683972Y-152559166D01*
X132891229Y-152473529D01*
X133168555Y-152196686D01*
X133255151Y-151988139D01*
X133291069Y-151988170D01*
X133653229Y-151838529D01*
X133930555Y-151561686D01*
X134080828Y-151199788D01*
X134081170Y-150807931D01*
X133931529Y-150445771D01*
X133654686Y-150168445D01*
X133292788Y-150018172D01*
X132900931Y-150017830D01*
X132538771Y-150167471D01*
X132261445Y-150444314D01*
X132174849Y-150652861D01*
X132138931Y-150652830D01*
X131776771Y-150802471D01*
X131499445Y-151079314D01*
X131349172Y-151441212D01*
X131349028Y-151605834D01*
X131141771Y-151691471D01*
X130864445Y-151968314D01*
X130714172Y-152330212D01*
X130713830Y-152722069D01*
X40710000Y-152722069D01*
X40710000Y-150690069D01*
X96169830Y-150690069D01*
X96319471Y-151052229D01*
X96596314Y-151329555D01*
X96958212Y-151479828D01*
X97350069Y-151480170D01*
X97712229Y-151330529D01*
X97989555Y-151053686D01*
X98139828Y-150691788D01*
X98140170Y-150299931D01*
X97990529Y-149937771D01*
X97713686Y-149660445D01*
X97351788Y-149510172D01*
X96959931Y-149509830D01*
X96597771Y-149659471D01*
X96320445Y-149936314D01*
X96170172Y-150298212D01*
X96169830Y-150690069D01*
X40710000Y-150690069D01*
X40710000Y-146580071D01*
X95714830Y-146580071D01*
X95864471Y-146942231D01*
X96141314Y-147219557D01*
X96503212Y-147369830D01*
X96895069Y-147370172D01*
X97257229Y-147220531D01*
X97483084Y-146995069D01*
X107764830Y-146995069D01*
X107914471Y-147357229D01*
X108191314Y-147634555D01*
X108553212Y-147784828D01*
X108565013Y-147784838D01*
X108564830Y-147995069D01*
X108714471Y-148357229D01*
X108991314Y-148634555D01*
X109353212Y-148784828D01*
X109745069Y-148785170D01*
X110107229Y-148635529D01*
X110384555Y-148358686D01*
X110534828Y-147996788D01*
X110535170Y-147604931D01*
X110385529Y-147242771D01*
X110337911Y-147195069D01*
X119164830Y-147195069D01*
X119314471Y-147557229D01*
X119591314Y-147834555D01*
X119953212Y-147984828D01*
X120345069Y-147985170D01*
X120707229Y-147835529D01*
X120984555Y-147558686D01*
X121134828Y-147196788D01*
X121135170Y-146804931D01*
X120985529Y-146442771D01*
X120864393Y-146321424D01*
X121053212Y-146399828D01*
X121399559Y-146400130D01*
X121464471Y-146557229D01*
X121741314Y-146834555D01*
X122103212Y-146984828D01*
X122495069Y-146985170D01*
X122857229Y-146835529D01*
X123134555Y-146558686D01*
X123165201Y-146484882D01*
X123495069Y-146485170D01*
X123857229Y-146335529D01*
X124134555Y-146058686D01*
X124284828Y-145696788D01*
X124285170Y-145304931D01*
X124135529Y-144942771D01*
X123858686Y-144665445D01*
X123496788Y-144515172D01*
X123104931Y-144514830D01*
X122742771Y-144664471D01*
X122465445Y-144941314D01*
X122434799Y-145015118D01*
X122150441Y-145014870D01*
X122085529Y-144857771D01*
X121808686Y-144580445D01*
X121446788Y-144430172D01*
X121054931Y-144429830D01*
X120692771Y-144579471D01*
X120415445Y-144856314D01*
X120265172Y-145218212D01*
X120264830Y-145610069D01*
X120414471Y-145972229D01*
X120535607Y-146093576D01*
X120346788Y-146015172D01*
X119954931Y-146014830D01*
X119592771Y-146164471D01*
X119315445Y-146441314D01*
X119165172Y-146803212D01*
X119164830Y-147195069D01*
X110337911Y-147195069D01*
X110108686Y-146965445D01*
X109746788Y-146815172D01*
X109734987Y-146815162D01*
X109735170Y-146604931D01*
X109585529Y-146242771D01*
X109308686Y-145965445D01*
X108946788Y-145815172D01*
X108554931Y-145814830D01*
X108192771Y-145964471D01*
X107915445Y-146241314D01*
X107765172Y-146603212D01*
X107764830Y-146995069D01*
X97483084Y-146995069D01*
X97534555Y-146943688D01*
X97684828Y-146581790D01*
X97685170Y-146189933D01*
X97535529Y-145827773D01*
X97258686Y-145550447D01*
X96896788Y-145400174D01*
X96504931Y-145399832D01*
X96142771Y-145549473D01*
X95865445Y-145826316D01*
X95715172Y-146188214D01*
X95714830Y-146580071D01*
X40710000Y-146580071D01*
X40710000Y-143656892D01*
X132528514Y-143656892D01*
X132774817Y-144181358D01*
X133203076Y-144571645D01*
X133613110Y-144741476D01*
X133843000Y-144620155D01*
X133843000Y-143427000D01*
X132649181Y-143427000D01*
X132528514Y-143656892D01*
X40710000Y-143656892D01*
X40710000Y-142181069D01*
X95153830Y-142181069D01*
X95303471Y-142543229D01*
X95580314Y-142820555D01*
X95942212Y-142970828D01*
X96334069Y-142971170D01*
X96696229Y-142821529D01*
X96973555Y-142544686D01*
X97123828Y-142182788D01*
X97124170Y-141790931D01*
X96974529Y-141428771D01*
X96697686Y-141151445D01*
X96335788Y-141001172D01*
X95943931Y-141000830D01*
X95581771Y-141150471D01*
X95304445Y-141427314D01*
X95154172Y-141789212D01*
X95153830Y-142181069D01*
X40710000Y-142181069D01*
X40710000Y-140730907D01*
X132485000Y-140730907D01*
X132485000Y-140789093D01*
X132598039Y-141357378D01*
X132919946Y-141839147D01*
X133203101Y-142028345D01*
X133203076Y-142028355D01*
X132774817Y-142418642D01*
X132528514Y-142943108D01*
X132649181Y-143173000D01*
X133843000Y-143173000D01*
X133843000Y-143153000D01*
X134097000Y-143153000D01*
X134097000Y-143173000D01*
X134117000Y-143173000D01*
X134117000Y-143427000D01*
X134097000Y-143427000D01*
X134097000Y-144620155D01*
X134326890Y-144741476D01*
X134736924Y-144571645D01*
X135165183Y-144181358D01*
X135232298Y-144038447D01*
X135459946Y-144379147D01*
X135941715Y-144701054D01*
X136510000Y-144814093D01*
X137078285Y-144701054D01*
X137560054Y-144379147D01*
X137780000Y-144049974D01*
X137999946Y-144379147D01*
X138481715Y-144701054D01*
X139050000Y-144814093D01*
X139618285Y-144701054D01*
X140100054Y-144379147D01*
X140320000Y-144049974D01*
X140539946Y-144379147D01*
X141021715Y-144701054D01*
X141590000Y-144814093D01*
X142158285Y-144701054D01*
X142640054Y-144379147D01*
X142860000Y-144049974D01*
X143079946Y-144379147D01*
X143561715Y-144701054D01*
X144130000Y-144814093D01*
X144698285Y-144701054D01*
X145180054Y-144379147D01*
X145400000Y-144049974D01*
X145619946Y-144379147D01*
X146101715Y-144701054D01*
X146670000Y-144814093D01*
X147238285Y-144701054D01*
X147720054Y-144379147D01*
X147940000Y-144049974D01*
X148159946Y-144379147D01*
X148641715Y-144701054D01*
X149210000Y-144814093D01*
X149778285Y-144701054D01*
X150260054Y-144379147D01*
X150287850Y-144337548D01*
X150296838Y-144385317D01*
X150435910Y-144601441D01*
X150648110Y-144746431D01*
X150900000Y-144797440D01*
X152600000Y-144797440D01*
X152835317Y-144753162D01*
X153051441Y-144614090D01*
X153196431Y-144401890D01*
X153247440Y-144150000D01*
X153247440Y-142450000D01*
X153203162Y-142214683D01*
X153064090Y-141998559D01*
X152851890Y-141853569D01*
X152795546Y-141842159D01*
X152800054Y-141839147D01*
X153121961Y-141357378D01*
X153235000Y-140789093D01*
X153235000Y-140730907D01*
X153121961Y-140162622D01*
X152800054Y-139680853D01*
X152318285Y-139358946D01*
X151750000Y-139245907D01*
X151181715Y-139358946D01*
X150699946Y-139680853D01*
X150480000Y-140010026D01*
X150260054Y-139680853D01*
X149778285Y-139358946D01*
X149210000Y-139245907D01*
X148641715Y-139358946D01*
X148159946Y-139680853D01*
X147940000Y-140010026D01*
X147720054Y-139680853D01*
X147238285Y-139358946D01*
X146670000Y-139245907D01*
X146101715Y-139358946D01*
X145619946Y-139680853D01*
X145400000Y-140010026D01*
X145180054Y-139680853D01*
X144698285Y-139358946D01*
X144130000Y-139245907D01*
X143561715Y-139358946D01*
X143079946Y-139680853D01*
X142860000Y-140010026D01*
X142640054Y-139680853D01*
X142158285Y-139358946D01*
X141590000Y-139245907D01*
X141021715Y-139358946D01*
X140539946Y-139680853D01*
X140320000Y-140010026D01*
X140100054Y-139680853D01*
X139618285Y-139358946D01*
X139050000Y-139245907D01*
X138481715Y-139358946D01*
X137999946Y-139680853D01*
X137780000Y-140010026D01*
X137560054Y-139680853D01*
X137078285Y-139358946D01*
X136510000Y-139245907D01*
X135941715Y-139358946D01*
X135459946Y-139680853D01*
X135240000Y-140010026D01*
X135020054Y-139680853D01*
X134538285Y-139358946D01*
X133970000Y-139245907D01*
X133401715Y-139358946D01*
X132919946Y-139680853D01*
X132598039Y-140162622D01*
X132485000Y-140730907D01*
X40710000Y-140730907D01*
X40710000Y-137484367D01*
X89149532Y-137484367D01*
X89299173Y-137846527D01*
X89576016Y-138123853D01*
X89937914Y-138274126D01*
X90329771Y-138274468D01*
X90691931Y-138124827D01*
X90721740Y-138095069D01*
X132164830Y-138095069D01*
X132314471Y-138457229D01*
X132591314Y-138734555D01*
X132953212Y-138884828D01*
X133345069Y-138885170D01*
X133707229Y-138735529D01*
X133984555Y-138458686D01*
X134134828Y-138096788D01*
X134135170Y-137704931D01*
X133985529Y-137342771D01*
X133708686Y-137065445D01*
X133346788Y-136915172D01*
X132954931Y-136914830D01*
X132592771Y-137064471D01*
X132315445Y-137341314D01*
X132165172Y-137703212D01*
X132164830Y-138095069D01*
X90721740Y-138095069D01*
X90969257Y-137847984D01*
X91119530Y-137486086D01*
X91119872Y-137094229D01*
X90970231Y-136732069D01*
X90693388Y-136454743D01*
X90331490Y-136304470D01*
X89939633Y-136304128D01*
X89577473Y-136453769D01*
X89300147Y-136730612D01*
X89149874Y-137092510D01*
X89149532Y-137484367D01*
X40710000Y-137484367D01*
X40710000Y-135831069D01*
X127538830Y-135831069D01*
X127688471Y-136193229D01*
X127965314Y-136470555D01*
X128327212Y-136620828D01*
X128719069Y-136621170D01*
X128905726Y-136544045D01*
X129014471Y-136807229D01*
X129291314Y-137084555D01*
X129653212Y-137234828D01*
X130045069Y-137235170D01*
X130407229Y-137085529D01*
X130684555Y-136808686D01*
X130834828Y-136446788D01*
X130835170Y-136054931D01*
X130685529Y-135692771D01*
X130408686Y-135415445D01*
X130046788Y-135265172D01*
X129654931Y-135264830D01*
X129468274Y-135341955D01*
X129359529Y-135078771D01*
X129082686Y-134801445D01*
X128720788Y-134651172D01*
X128328931Y-134650830D01*
X127966771Y-134800471D01*
X127689445Y-135077314D01*
X127539172Y-135439212D01*
X127538830Y-135831069D01*
X40710000Y-135831069D01*
X40710000Y-134595069D01*
X92714830Y-134595069D01*
X92864471Y-134957229D01*
X93141314Y-135234555D01*
X93503212Y-135384828D01*
X93895069Y-135385170D01*
X94257229Y-135235529D01*
X94534555Y-134958686D01*
X94560971Y-134895069D01*
X95964830Y-134895069D01*
X96114471Y-135257229D01*
X96391314Y-135534555D01*
X96753212Y-135684828D01*
X97145069Y-135685170D01*
X97507229Y-135535529D01*
X97784555Y-135258686D01*
X97934828Y-134896788D01*
X97935170Y-134504931D01*
X97785529Y-134142771D01*
X97508686Y-133865445D01*
X97146788Y-133715172D01*
X96754931Y-133714830D01*
X96392771Y-133864471D01*
X96115445Y-134141314D01*
X95965172Y-134503212D01*
X95964830Y-134895069D01*
X94560971Y-134895069D01*
X94684828Y-134596788D01*
X94685170Y-134204931D01*
X94535529Y-133842771D01*
X94258686Y-133565445D01*
X93896788Y-133415172D01*
X93504931Y-133414830D01*
X93142771Y-133564471D01*
X92865445Y-133841314D01*
X92715172Y-134203212D01*
X92714830Y-134595069D01*
X40710000Y-134595069D01*
X40710000Y-114088669D01*
X112387730Y-114088669D01*
X112537371Y-114450829D01*
X112814214Y-114728155D01*
X113176112Y-114878428D01*
X113567969Y-114878770D01*
X113930129Y-114729129D01*
X114207455Y-114452286D01*
X114357728Y-114090388D01*
X114358070Y-113698531D01*
X114208429Y-113336371D01*
X113931586Y-113059045D01*
X113569688Y-112908772D01*
X113177831Y-112908430D01*
X112815671Y-113058071D01*
X112538345Y-113334914D01*
X112388072Y-113696812D01*
X112387730Y-114088669D01*
X40710000Y-114088669D01*
X40710000Y-106050000D01*
X102752560Y-106050000D01*
X102752560Y-107750000D01*
X102796838Y-107985317D01*
X102935910Y-108201441D01*
X103148110Y-108346431D01*
X103204454Y-108357841D01*
X103199946Y-108360853D01*
X102878039Y-108842622D01*
X102765000Y-109410907D01*
X102765000Y-109469093D01*
X102878039Y-110037378D01*
X103199946Y-110519147D01*
X103681715Y-110841054D01*
X104250000Y-110954093D01*
X104818285Y-110841054D01*
X105300054Y-110519147D01*
X105520000Y-110189974D01*
X105739946Y-110519147D01*
X106221715Y-110841054D01*
X106790000Y-110954093D01*
X107358285Y-110841054D01*
X107840054Y-110519147D01*
X108060000Y-110189974D01*
X108279946Y-110519147D01*
X108761715Y-110841054D01*
X109330000Y-110954093D01*
X109898285Y-110841054D01*
X110380054Y-110519147D01*
X110600000Y-110189974D01*
X110819946Y-110519147D01*
X111301715Y-110841054D01*
X111870000Y-110954093D01*
X112438285Y-110841054D01*
X112920054Y-110519147D01*
X113140000Y-110189974D01*
X113359946Y-110519147D01*
X113841715Y-110841054D01*
X113978008Y-110868164D01*
X113873972Y-111118712D01*
X113873630Y-111510569D01*
X114023271Y-111872729D01*
X114300114Y-112150055D01*
X114662012Y-112300328D01*
X115053869Y-112300670D01*
X115416029Y-112151029D01*
X115693355Y-111874186D01*
X115843628Y-111512288D01*
X115843970Y-111120431D01*
X115694329Y-110758271D01*
X115457395Y-110520924D01*
X115460054Y-110519147D01*
X115680000Y-110189974D01*
X115899946Y-110519147D01*
X116381715Y-110841054D01*
X116940224Y-110952148D01*
X116638371Y-111076871D01*
X116361045Y-111353714D01*
X116210772Y-111715612D01*
X116210430Y-112107469D01*
X116360071Y-112469629D01*
X116636914Y-112746955D01*
X116998812Y-112897228D01*
X117390669Y-112897570D01*
X117752829Y-112747929D01*
X118030155Y-112471086D01*
X118180428Y-112109188D01*
X118180770Y-111717331D01*
X118031129Y-111355171D01*
X117754286Y-111077845D01*
X117392388Y-110927572D01*
X117084680Y-110927303D01*
X117518285Y-110841054D01*
X118000054Y-110519147D01*
X118220000Y-110189974D01*
X118439946Y-110519147D01*
X118921715Y-110841054D01*
X119490000Y-110954093D01*
X120058285Y-110841054D01*
X120540054Y-110519147D01*
X120760000Y-110189974D01*
X120979946Y-110519147D01*
X121461715Y-110841054D01*
X122030000Y-110954093D01*
X122598285Y-110841054D01*
X123080054Y-110519147D01*
X123300000Y-110189974D01*
X123519946Y-110519147D01*
X124001715Y-110841054D01*
X124570000Y-110954093D01*
X125138285Y-110841054D01*
X125620054Y-110519147D01*
X125840000Y-110189974D01*
X126059946Y-110519147D01*
X126541715Y-110841054D01*
X127110000Y-110954093D01*
X127678285Y-110841054D01*
X128160054Y-110519147D01*
X128481961Y-110037378D01*
X128595000Y-109469093D01*
X128595000Y-109410907D01*
X128481961Y-108842622D01*
X128160054Y-108360853D01*
X127874422Y-108170000D01*
X128160054Y-107979147D01*
X128481961Y-107497378D01*
X128595000Y-106929093D01*
X128595000Y-106870907D01*
X128481961Y-106302622D01*
X128160054Y-105820853D01*
X127678285Y-105498946D01*
X127110000Y-105385907D01*
X126541715Y-105498946D01*
X126059946Y-105820853D01*
X125840000Y-106150026D01*
X125620054Y-105820853D01*
X125138285Y-105498946D01*
X124570000Y-105385907D01*
X124001715Y-105498946D01*
X123519946Y-105820853D01*
X123300000Y-106150026D01*
X123080054Y-105820853D01*
X122598285Y-105498946D01*
X122030000Y-105385907D01*
X121461715Y-105498946D01*
X120979946Y-105820853D01*
X120760000Y-106150026D01*
X120540054Y-105820853D01*
X120058285Y-105498946D01*
X119490000Y-105385907D01*
X118921715Y-105498946D01*
X118439946Y-105820853D01*
X118220000Y-106150026D01*
X118000054Y-105820853D01*
X117518285Y-105498946D01*
X116950000Y-105385907D01*
X116381715Y-105498946D01*
X115899946Y-105820853D01*
X115680000Y-106150026D01*
X115460054Y-105820853D01*
X114978285Y-105498946D01*
X114410000Y-105385907D01*
X113841715Y-105498946D01*
X113359946Y-105820853D01*
X113140000Y-106150026D01*
X112920054Y-105820853D01*
X112438285Y-105498946D01*
X111870000Y-105385907D01*
X111301715Y-105498946D01*
X110819946Y-105820853D01*
X110600000Y-106150026D01*
X110380054Y-105820853D01*
X109898285Y-105498946D01*
X109330000Y-105385907D01*
X108761715Y-105498946D01*
X108279946Y-105820853D01*
X108060000Y-106150026D01*
X107840054Y-105820853D01*
X107358285Y-105498946D01*
X106790000Y-105385907D01*
X106221715Y-105498946D01*
X105739946Y-105820853D01*
X105712150Y-105862452D01*
X105703162Y-105814683D01*
X105564090Y-105598559D01*
X105351890Y-105453569D01*
X105100000Y-105402560D01*
X103400000Y-105402560D01*
X103164683Y-105446838D01*
X102948559Y-105585910D01*
X102803569Y-105798110D01*
X102752560Y-106050000D01*
X40710000Y-106050000D01*
X40710000Y-41785750D01*
X102765000Y-41785750D01*
X102765000Y-42476309D01*
X102861673Y-42709698D01*
X103040301Y-42888327D01*
X103205858Y-42956903D01*
X103199946Y-42960853D01*
X102878039Y-43442622D01*
X102765000Y-44010907D01*
X102765000Y-44069093D01*
X102878039Y-44637378D01*
X103199946Y-45119147D01*
X103681715Y-45441054D01*
X104250000Y-45554093D01*
X104818285Y-45441054D01*
X105300054Y-45119147D01*
X105520000Y-44789974D01*
X105739946Y-45119147D01*
X106221715Y-45441054D01*
X106790000Y-45554093D01*
X107358285Y-45441054D01*
X107840054Y-45119147D01*
X108060000Y-44789974D01*
X108279946Y-45119147D01*
X108761715Y-45441054D01*
X109330000Y-45554093D01*
X109898285Y-45441054D01*
X110380054Y-45119147D01*
X110600000Y-44789974D01*
X110819946Y-45119147D01*
X111301715Y-45441054D01*
X111870000Y-45554093D01*
X112438285Y-45441054D01*
X112920054Y-45119147D01*
X113140000Y-44789974D01*
X113359946Y-45119147D01*
X113841715Y-45441054D01*
X114410000Y-45554093D01*
X114978285Y-45441054D01*
X115460054Y-45119147D01*
X115680000Y-44789974D01*
X115899946Y-45119147D01*
X116381715Y-45441054D01*
X116950000Y-45554093D01*
X117518285Y-45441054D01*
X118000054Y-45119147D01*
X118220000Y-44789974D01*
X118439946Y-45119147D01*
X118921715Y-45441054D01*
X119490000Y-45554093D01*
X120058285Y-45441054D01*
X120540054Y-45119147D01*
X120760000Y-44789974D01*
X120979946Y-45119147D01*
X121461715Y-45441054D01*
X122030000Y-45554093D01*
X122598285Y-45441054D01*
X123080054Y-45119147D01*
X123300000Y-44789974D01*
X123519946Y-45119147D01*
X124001715Y-45441054D01*
X124570000Y-45554093D01*
X125138285Y-45441054D01*
X125620054Y-45119147D01*
X125840000Y-44789974D01*
X126059946Y-45119147D01*
X126541715Y-45441054D01*
X127110000Y-45554093D01*
X127678285Y-45441054D01*
X128160054Y-45119147D01*
X128481961Y-44637378D01*
X128595000Y-44069093D01*
X128595000Y-44010907D01*
X128481961Y-43442622D01*
X128160054Y-42960853D01*
X127874422Y-42770000D01*
X128160054Y-42579147D01*
X128481961Y-42097378D01*
X128595000Y-41529093D01*
X128595000Y-41470907D01*
X128481961Y-40902622D01*
X128160054Y-40420853D01*
X127678285Y-40098946D01*
X127110000Y-39985907D01*
X126541715Y-40098946D01*
X126059946Y-40420853D01*
X125840000Y-40750026D01*
X125620054Y-40420853D01*
X125138285Y-40098946D01*
X124570000Y-39985907D01*
X124001715Y-40098946D01*
X123519946Y-40420853D01*
X123300000Y-40750026D01*
X123080054Y-40420853D01*
X122598285Y-40098946D01*
X122030000Y-39985907D01*
X121461715Y-40098946D01*
X120979946Y-40420853D01*
X120760000Y-40750026D01*
X120540054Y-40420853D01*
X120058285Y-40098946D01*
X119490000Y-39985907D01*
X118921715Y-40098946D01*
X118439946Y-40420853D01*
X118220000Y-40750026D01*
X118000054Y-40420853D01*
X117518285Y-40098946D01*
X116950000Y-39985907D01*
X116381715Y-40098946D01*
X115899946Y-40420853D01*
X115680000Y-40750026D01*
X115460054Y-40420853D01*
X114978285Y-40098946D01*
X114410000Y-39985907D01*
X113841715Y-40098946D01*
X113359946Y-40420853D01*
X113140000Y-40750026D01*
X112920054Y-40420853D01*
X112438285Y-40098946D01*
X111870000Y-39985907D01*
X111301715Y-40098946D01*
X110819946Y-40420853D01*
X110600000Y-40750026D01*
X110380054Y-40420853D01*
X109898285Y-40098946D01*
X109330000Y-39985907D01*
X108761715Y-40098946D01*
X108279946Y-40420853D01*
X108060000Y-40750026D01*
X107840054Y-40420853D01*
X107358285Y-40098946D01*
X106790000Y-39985907D01*
X106221715Y-40098946D01*
X105739946Y-40420853D01*
X105710597Y-40464777D01*
X105638327Y-40290302D01*
X105459699Y-40111673D01*
X105226310Y-40015000D01*
X104535750Y-40015000D01*
X104377000Y-40173750D01*
X104377000Y-41373000D01*
X104397000Y-41373000D01*
X104397000Y-41627000D01*
X104377000Y-41627000D01*
X104377000Y-41647000D01*
X104123000Y-41647000D01*
X104123000Y-41627000D01*
X102923750Y-41627000D01*
X102765000Y-41785750D01*
X40710000Y-41785750D01*
X40710000Y-40523691D01*
X102765000Y-40523691D01*
X102765000Y-41214250D01*
X102923750Y-41373000D01*
X104123000Y-41373000D01*
X104123000Y-40173750D01*
X103964250Y-40015000D01*
X103273690Y-40015000D01*
X103040301Y-40111673D01*
X102861673Y-40290302D01*
X102765000Y-40523691D01*
X40710000Y-40523691D01*
X40710000Y-38495069D01*
X106364830Y-38495069D01*
X106514471Y-38857229D01*
X106791314Y-39134555D01*
X107153212Y-39284828D01*
X107545069Y-39285170D01*
X107907229Y-39135529D01*
X108184555Y-38858686D01*
X108334828Y-38496788D01*
X108335170Y-38104931D01*
X108185529Y-37742771D01*
X107908686Y-37465445D01*
X107546788Y-37315172D01*
X107154931Y-37314830D01*
X106792771Y-37464471D01*
X106515445Y-37741314D01*
X106365172Y-38103212D01*
X106364830Y-38495069D01*
X40710000Y-38495069D01*
X40710000Y-30710000D01*
X159290000Y-30710000D01*
X159290000Y-179290000D01*
X159290000Y-179290000D01*
G37*
X159290000Y-179290000D02*
X40710000Y-179290000D01*
X40710000Y-176245069D01*
X116714830Y-176245069D01*
X116864471Y-176607229D01*
X117141314Y-176884555D01*
X117503212Y-177034828D01*
X117895069Y-177035170D01*
X118257229Y-176885529D01*
X118534555Y-176608686D01*
X118684828Y-176246788D01*
X118685170Y-175854931D01*
X118535529Y-175492771D01*
X118258686Y-175215445D01*
X117896788Y-175065172D01*
X117504931Y-175064830D01*
X117142771Y-175214471D01*
X116865445Y-175491314D01*
X116715172Y-175853212D01*
X116714830Y-176245069D01*
X40710000Y-176245069D01*
X40710000Y-170323795D01*
X48364716Y-170323795D01*
X48613106Y-170924943D01*
X49072637Y-171385278D01*
X49673352Y-171634716D01*
X50323795Y-171635284D01*
X50924943Y-171386894D01*
X51385278Y-170927363D01*
X51634716Y-170326648D01*
X51634718Y-170323795D01*
X53364716Y-170323795D01*
X53613106Y-170924943D01*
X54072637Y-171385278D01*
X54673352Y-171634716D01*
X55323795Y-171635284D01*
X55924943Y-171386894D01*
X56385278Y-170927363D01*
X56634716Y-170326648D01*
X56634718Y-170323795D01*
X63364716Y-170323795D01*
X63613106Y-170924943D01*
X64072637Y-171385278D01*
X64673352Y-171634716D01*
X65323795Y-171635284D01*
X65924943Y-171386894D01*
X66385278Y-170927363D01*
X66634716Y-170326648D01*
X66634718Y-170323795D01*
X68364716Y-170323795D01*
X68613106Y-170924943D01*
X69072637Y-171385278D01*
X69673352Y-171634716D01*
X70323795Y-171635284D01*
X70924943Y-171386894D01*
X71385278Y-170927363D01*
X71634716Y-170326648D01*
X71634718Y-170323795D01*
X78364716Y-170323795D01*
X78613106Y-170924943D01*
X79072637Y-171385278D01*
X79673352Y-171634716D01*
X80323795Y-171635284D01*
X80924943Y-171386894D01*
X81385278Y-170927363D01*
X81634716Y-170326648D01*
X81634718Y-170323795D01*
X83364716Y-170323795D01*
X83613106Y-170924943D01*
X84072637Y-171385278D01*
X84673352Y-171634716D01*
X85323795Y-171635284D01*
X85924943Y-171386894D01*
X86385278Y-170927363D01*
X86634716Y-170326648D01*
X86634718Y-170323795D01*
X93364716Y-170323795D01*
X93613106Y-170924943D01*
X94072637Y-171385278D01*
X94673352Y-171634716D01*
X95323795Y-171635284D01*
X95924943Y-171386894D01*
X96385278Y-170927363D01*
X96634716Y-170326648D01*
X96634718Y-170323795D01*
X98364716Y-170323795D01*
X98613106Y-170924943D01*
X99072637Y-171385278D01*
X99673352Y-171634716D01*
X100323795Y-171635284D01*
X100924943Y-171386894D01*
X101385278Y-170927363D01*
X101634716Y-170326648D01*
X101635284Y-169676205D01*
X101386894Y-169075057D01*
X100927363Y-168614722D01*
X100326648Y-168365284D01*
X99676205Y-168364716D01*
X99075057Y-168613106D01*
X98614722Y-169072637D01*
X98365284Y-169673352D01*
X98364716Y-170323795D01*
X96634718Y-170323795D01*
X96635284Y-169676205D01*
X96386894Y-169075057D01*
X95927363Y-168614722D01*
X95326648Y-168365284D01*
X94676205Y-168364716D01*
X94075057Y-168613106D01*
X93614722Y-169072637D01*
X93365284Y-169673352D01*
X93364716Y-170323795D01*
X86634718Y-170323795D01*
X86635284Y-169676205D01*
X86386894Y-169075057D01*
X85927363Y-168614722D01*
X85326648Y-168365284D01*
X84676205Y-168364716D01*
X84075057Y-168613106D01*
X83614722Y-169072637D01*
X83365284Y-169673352D01*
X83364716Y-170323795D01*
X81634718Y-170323795D01*
X81635284Y-169676205D01*
X81386894Y-169075057D01*
X80927363Y-168614722D01*
X80326648Y-168365284D01*
X79676205Y-168364716D01*
X79075057Y-168613106D01*
X78614722Y-169072637D01*
X78365284Y-169673352D01*
X78364716Y-170323795D01*
X71634718Y-170323795D01*
X71635284Y-169676205D01*
X71386894Y-169075057D01*
X70927363Y-168614722D01*
X70326648Y-168365284D01*
X69676205Y-168364716D01*
X69075057Y-168613106D01*
X68614722Y-169072637D01*
X68365284Y-169673352D01*
X68364716Y-170323795D01*
X66634718Y-170323795D01*
X66635284Y-169676205D01*
X66386894Y-169075057D01*
X65927363Y-168614722D01*
X65326648Y-168365284D01*
X64676205Y-168364716D01*
X64075057Y-168613106D01*
X63614722Y-169072637D01*
X63365284Y-169673352D01*
X63364716Y-170323795D01*
X56634718Y-170323795D01*
X56635284Y-169676205D01*
X56386894Y-169075057D01*
X55927363Y-168614722D01*
X55326648Y-168365284D01*
X54676205Y-168364716D01*
X54075057Y-168613106D01*
X53614722Y-169072637D01*
X53365284Y-169673352D01*
X53364716Y-170323795D01*
X51634718Y-170323795D01*
X51635284Y-169676205D01*
X51386894Y-169075057D01*
X50927363Y-168614722D01*
X50326648Y-168365284D01*
X49676205Y-168364716D01*
X49075057Y-168613106D01*
X48614722Y-169072637D01*
X48365284Y-169673352D01*
X48364716Y-170323795D01*
X40710000Y-170323795D01*
X40710000Y-167540000D01*
X108485907Y-167540000D01*
X108598946Y-168108285D01*
X108920853Y-168590054D01*
X109250026Y-168810000D01*
X108920853Y-169029946D01*
X108598946Y-169511715D01*
X108485907Y-170080000D01*
X108598946Y-170648285D01*
X108920853Y-171130054D01*
X109402622Y-171451961D01*
X109970907Y-171565000D01*
X110029093Y-171565000D01*
X110597378Y-171451961D01*
X111079147Y-171130054D01*
X111270000Y-170844422D01*
X111460853Y-171130054D01*
X111942622Y-171451961D01*
X112510907Y-171565000D01*
X112569093Y-171565000D01*
X113137378Y-171451961D01*
X113619147Y-171130054D01*
X113642523Y-171095069D01*
X114314830Y-171095069D01*
X114464471Y-171457229D01*
X114741314Y-171734555D01*
X115103212Y-171884828D01*
X115495069Y-171885170D01*
X115857229Y-171735529D01*
X116134555Y-171458686D01*
X116284828Y-171096788D01*
X116285170Y-170704931D01*
X116135529Y-170342771D01*
X115858686Y-170065445D01*
X115496788Y-169915172D01*
X115104931Y-169914830D01*
X114742771Y-170064471D01*
X114465445Y-170341314D01*
X114315172Y-170703212D01*
X114314830Y-171095069D01*
X113642523Y-171095069D01*
X113941054Y-170648285D01*
X114054093Y-170080000D01*
X113941054Y-169511715D01*
X113619147Y-169029946D01*
X113289974Y-168810000D01*
X113619147Y-168590054D01*
X113941054Y-168108285D01*
X114054093Y-167540000D01*
X118485907Y-167540000D01*
X118598946Y-168108285D01*
X118920853Y-168590054D01*
X119250026Y-168810000D01*
X118920853Y-169029946D01*
X118598946Y-169511715D01*
X118485907Y-170080000D01*
X118598946Y-170648285D01*
X118920853Y-171130054D01*
X119402622Y-171451961D01*
X119970907Y-171565000D01*
X120029093Y-171565000D01*
X120597378Y-171451961D01*
X121079147Y-171130054D01*
X121270000Y-170844422D01*
X121460853Y-171130054D01*
X121942622Y-171451961D01*
X122510907Y-171565000D01*
X122569093Y-171565000D01*
X122920659Y-171495069D01*
X125014830Y-171495069D01*
X125164471Y-171857229D01*
X125441314Y-172134555D01*
X125803212Y-172284828D01*
X126195069Y-172285170D01*
X126557229Y-172135529D01*
X126834555Y-171858686D01*
X126984828Y-171496788D01*
X126985170Y-171104931D01*
X126835529Y-170742771D01*
X126558686Y-170465445D01*
X126196788Y-170315172D01*
X125804931Y-170314830D01*
X125442771Y-170464471D01*
X125165445Y-170741314D01*
X125015172Y-171103212D01*
X125014830Y-171495069D01*
X122920659Y-171495069D01*
X123137378Y-171451961D01*
X123619147Y-171130054D01*
X123941054Y-170648285D01*
X124054093Y-170080000D01*
X123941054Y-169511715D01*
X123619147Y-169029946D01*
X123289974Y-168810000D01*
X123619147Y-168590054D01*
X123941054Y-168108285D01*
X124054093Y-167540000D01*
X128485907Y-167540000D01*
X128598946Y-168108285D01*
X128920853Y-168590054D01*
X129250026Y-168810000D01*
X128920853Y-169029946D01*
X128598946Y-169511715D01*
X128485907Y-170080000D01*
X128598946Y-170648285D01*
X128920853Y-171130054D01*
X129402622Y-171451961D01*
X129970907Y-171565000D01*
X130029093Y-171565000D01*
X130597378Y-171451961D01*
X131079147Y-171130054D01*
X131270000Y-170844422D01*
X131460853Y-171130054D01*
X131942622Y-171451961D01*
X132510907Y-171565000D01*
X132569093Y-171565000D01*
X133137378Y-171451961D01*
X133619147Y-171130054D01*
X133642523Y-171095069D01*
X134214830Y-171095069D01*
X134364471Y-171457229D01*
X134641314Y-171734555D01*
X135003212Y-171884828D01*
X135395069Y-171885170D01*
X135757229Y-171735529D01*
X136034555Y-171458686D01*
X136184828Y-171096788D01*
X136185170Y-170704931D01*
X136035529Y-170342771D01*
X135758686Y-170065445D01*
X135396788Y-169915172D01*
X135004931Y-169914830D01*
X134642771Y-170064471D01*
X134365445Y-170341314D01*
X134215172Y-170703212D01*
X134214830Y-171095069D01*
X133642523Y-171095069D01*
X133941054Y-170648285D01*
X134054093Y-170080000D01*
X133941054Y-169511715D01*
X133619147Y-169029946D01*
X133289974Y-168810000D01*
X133619147Y-168590054D01*
X133941054Y-168108285D01*
X134054093Y-167540000D01*
X133941054Y-166971715D01*
X133619147Y-166489946D01*
X133278447Y-166262298D01*
X133421358Y-166195183D01*
X133811645Y-165766924D01*
X133981476Y-165356890D01*
X133860155Y-165127000D01*
X132667000Y-165127000D01*
X132667000Y-165147000D01*
X132413000Y-165147000D01*
X132413000Y-165127000D01*
X132393000Y-165127000D01*
X132393000Y-164873000D01*
X132413000Y-164873000D01*
X132413000Y-163679181D01*
X132667000Y-163679181D01*
X132667000Y-164873000D01*
X133860155Y-164873000D01*
X133981476Y-164643110D01*
X133811645Y-164233076D01*
X133421358Y-163804817D01*
X132896892Y-163558514D01*
X132667000Y-163679181D01*
X132413000Y-163679181D01*
X132183108Y-163558514D01*
X131658642Y-163804817D01*
X131471192Y-164010504D01*
X131453162Y-163914683D01*
X131314090Y-163698559D01*
X131101890Y-163553569D01*
X130850000Y-163502560D01*
X129150000Y-163502560D01*
X128914683Y-163546838D01*
X128698559Y-163685910D01*
X128553569Y-163898110D01*
X128502560Y-164150000D01*
X128502560Y-165850000D01*
X128546838Y-166085317D01*
X128685910Y-166301441D01*
X128898110Y-166446431D01*
X128965541Y-166460086D01*
X128920853Y-166489946D01*
X128598946Y-166971715D01*
X128485907Y-167540000D01*
X124054093Y-167540000D01*
X123941054Y-166971715D01*
X123619147Y-166489946D01*
X123278447Y-166262298D01*
X123421358Y-166195183D01*
X123811645Y-165766924D01*
X123981476Y-165356890D01*
X123860155Y-165127000D01*
X122667000Y-165127000D01*
X122667000Y-165147000D01*
X122413000Y-165147000D01*
X122413000Y-165127000D01*
X122393000Y-165127000D01*
X122393000Y-164873000D01*
X122413000Y-164873000D01*
X122413000Y-163679181D01*
X122667000Y-163679181D01*
X122667000Y-164873000D01*
X123860155Y-164873000D01*
X123981476Y-164643110D01*
X123811645Y-164233076D01*
X123421358Y-163804817D01*
X122896892Y-163558514D01*
X122667000Y-163679181D01*
X122413000Y-163679181D01*
X122183108Y-163558514D01*
X121658642Y-163804817D01*
X121471192Y-164010504D01*
X121453162Y-163914683D01*
X121314090Y-163698559D01*
X121101890Y-163553569D01*
X120850000Y-163502560D01*
X119150000Y-163502560D01*
X118914683Y-163546838D01*
X118698559Y-163685910D01*
X118553569Y-163898110D01*
X118502560Y-164150000D01*
X118502560Y-165850000D01*
X118546838Y-166085317D01*
X118685910Y-166301441D01*
X118898110Y-166446431D01*
X118965541Y-166460086D01*
X118920853Y-166489946D01*
X118598946Y-166971715D01*
X118485907Y-167540000D01*
X114054093Y-167540000D01*
X113941054Y-166971715D01*
X113619147Y-166489946D01*
X113278447Y-166262298D01*
X113421358Y-166195183D01*
X113811645Y-165766924D01*
X113981476Y-165356890D01*
X113860155Y-165127000D01*
X112667000Y-165127000D01*
X112667000Y-165147000D01*
X112413000Y-165147000D01*
X112413000Y-165127000D01*
X112393000Y-165127000D01*
X112393000Y-164873000D01*
X112413000Y-164873000D01*
X112413000Y-163679181D01*
X112667000Y-163679181D01*
X112667000Y-164873000D01*
X113860155Y-164873000D01*
X113981476Y-164643110D01*
X113811645Y-164233076D01*
X113421358Y-163804817D01*
X112896892Y-163558514D01*
X112667000Y-163679181D01*
X112413000Y-163679181D01*
X112183108Y-163558514D01*
X111658642Y-163804817D01*
X111471192Y-164010504D01*
X111453162Y-163914683D01*
X111314090Y-163698559D01*
X111101890Y-163553569D01*
X110850000Y-163502560D01*
X109150000Y-163502560D01*
X108914683Y-163546838D01*
X108698559Y-163685910D01*
X108553569Y-163898110D01*
X108502560Y-164150000D01*
X108502560Y-165850000D01*
X108546838Y-166085317D01*
X108685910Y-166301441D01*
X108898110Y-166446431D01*
X108965541Y-166460086D01*
X108920853Y-166489946D01*
X108598946Y-166971715D01*
X108485907Y-167540000D01*
X40710000Y-167540000D01*
X40710000Y-165323795D01*
X48364716Y-165323795D01*
X48613106Y-165924943D01*
X49072637Y-166385278D01*
X49673352Y-166634716D01*
X50323795Y-166635284D01*
X50924943Y-166386894D01*
X51385278Y-165927363D01*
X51634716Y-165326648D01*
X51634718Y-165323795D01*
X53364716Y-165323795D01*
X53613106Y-165924943D01*
X54072637Y-166385278D01*
X54673352Y-166634716D01*
X55323795Y-166635284D01*
X55924943Y-166386894D01*
X56385278Y-165927363D01*
X56634716Y-165326648D01*
X56634718Y-165323795D01*
X63364716Y-165323795D01*
X63613106Y-165924943D01*
X64072637Y-166385278D01*
X64673352Y-166634716D01*
X65323795Y-166635284D01*
X65924943Y-166386894D01*
X66385278Y-165927363D01*
X66634716Y-165326648D01*
X66634718Y-165323795D01*
X68364716Y-165323795D01*
X68613106Y-165924943D01*
X69072637Y-166385278D01*
X69673352Y-166634716D01*
X70323795Y-166635284D01*
X70924943Y-166386894D01*
X71385278Y-165927363D01*
X71634716Y-165326648D01*
X71634830Y-165195069D01*
X73314830Y-165195069D01*
X73464471Y-165557229D01*
X73741314Y-165834555D01*
X74103212Y-165984828D01*
X74495069Y-165985170D01*
X74857229Y-165835529D01*
X75134555Y-165558686D01*
X75232090Y-165323795D01*
X78364716Y-165323795D01*
X78613106Y-165924943D01*
X79072637Y-166385278D01*
X79673352Y-166634716D01*
X80323795Y-166635284D01*
X80924943Y-166386894D01*
X81385278Y-165927363D01*
X81634716Y-165326648D01*
X81634718Y-165323795D01*
X83364716Y-165323795D01*
X83613106Y-165924943D01*
X84072637Y-166385278D01*
X84673352Y-166634716D01*
X85323795Y-166635284D01*
X85924943Y-166386894D01*
X86385278Y-165927363D01*
X86634716Y-165326648D01*
X86635092Y-164895069D01*
X88614830Y-164895069D01*
X88764471Y-165257229D01*
X89041314Y-165534555D01*
X89403212Y-165684828D01*
X89795069Y-165685170D01*
X90157229Y-165535529D01*
X90369332Y-165323795D01*
X93364716Y-165323795D01*
X93613106Y-165924943D01*
X94072637Y-166385278D01*
X94673352Y-166634716D01*
X95323795Y-166635284D01*
X95924943Y-166386894D01*
X96385278Y-165927363D01*
X96634716Y-165326648D01*
X96634718Y-165323795D01*
X98364716Y-165323795D01*
X98613106Y-165924943D01*
X99072637Y-166385278D01*
X99673352Y-166634716D01*
X100323795Y-166635284D01*
X100924943Y-166386894D01*
X101385278Y-165927363D01*
X101634716Y-165326648D01*
X101634830Y-165195069D01*
X103614830Y-165195069D01*
X103764471Y-165557229D01*
X104041314Y-165834555D01*
X104403212Y-165984828D01*
X104795069Y-165985170D01*
X105157229Y-165835529D01*
X105434555Y-165558686D01*
X105584828Y-165196788D01*
X105585170Y-164804931D01*
X105435529Y-164442771D01*
X105158686Y-164165445D01*
X104796788Y-164015172D01*
X104404931Y-164014830D01*
X104042771Y-164164471D01*
X103765445Y-164441314D01*
X103615172Y-164803212D01*
X103614830Y-165195069D01*
X101634830Y-165195069D01*
X101635284Y-164676205D01*
X101386894Y-164075057D01*
X100927363Y-163614722D01*
X100326648Y-163365284D01*
X99676205Y-163364716D01*
X99075057Y-163613106D01*
X98614722Y-164072637D01*
X98365284Y-164673352D01*
X98364716Y-165323795D01*
X96634718Y-165323795D01*
X96635284Y-164676205D01*
X96386894Y-164075057D01*
X95927363Y-163614722D01*
X95326648Y-163365284D01*
X94676205Y-163364716D01*
X94075057Y-163613106D01*
X93614722Y-164072637D01*
X93365284Y-164673352D01*
X93364716Y-165323795D01*
X90369332Y-165323795D01*
X90434555Y-165258686D01*
X90584828Y-164896788D01*
X90585170Y-164504931D01*
X90435529Y-164142771D01*
X90158686Y-163865445D01*
X89796788Y-163715172D01*
X89404931Y-163714830D01*
X89042771Y-163864471D01*
X88765445Y-164141314D01*
X88615172Y-164503212D01*
X88614830Y-164895069D01*
X86635092Y-164895069D01*
X86635284Y-164676205D01*
X86386894Y-164075057D01*
X85927363Y-163614722D01*
X85326648Y-163365284D01*
X84676205Y-163364716D01*
X84075057Y-163613106D01*
X83614722Y-164072637D01*
X83365284Y-164673352D01*
X83364716Y-165323795D01*
X81634718Y-165323795D01*
X81635284Y-164676205D01*
X81386894Y-164075057D01*
X80927363Y-163614722D01*
X80326648Y-163365284D01*
X79676205Y-163364716D01*
X79075057Y-163613106D01*
X78614722Y-164072637D01*
X78365284Y-164673352D01*
X78364716Y-165323795D01*
X75232090Y-165323795D01*
X75284828Y-165196788D01*
X75285170Y-164804931D01*
X75135529Y-164442771D01*
X74858686Y-164165445D01*
X74496788Y-164015172D01*
X74104931Y-164014830D01*
X73742771Y-164164471D01*
X73465445Y-164441314D01*
X73315172Y-164803212D01*
X73314830Y-165195069D01*
X71634830Y-165195069D01*
X71635284Y-164676205D01*
X71386894Y-164075057D01*
X70927363Y-163614722D01*
X70326648Y-163365284D01*
X69676205Y-163364716D01*
X69075057Y-163613106D01*
X68614722Y-164072637D01*
X68365284Y-164673352D01*
X68364716Y-165323795D01*
X66634718Y-165323795D01*
X66635284Y-164676205D01*
X66386894Y-164075057D01*
X65927363Y-163614722D01*
X65326648Y-163365284D01*
X64676205Y-163364716D01*
X64075057Y-163613106D01*
X63614722Y-164072637D01*
X63365284Y-164673352D01*
X63364716Y-165323795D01*
X56634718Y-165323795D01*
X56635284Y-164676205D01*
X56560440Y-164495069D01*
X58414830Y-164495069D01*
X58564471Y-164857229D01*
X58841314Y-165134555D01*
X59203212Y-165284828D01*
X59595069Y-165285170D01*
X59957229Y-165135529D01*
X60234555Y-164858686D01*
X60384828Y-164496788D01*
X60385170Y-164104931D01*
X60235529Y-163742771D01*
X59958686Y-163465445D01*
X59596788Y-163315172D01*
X59204931Y-163314830D01*
X58842771Y-163464471D01*
X58565445Y-163741314D01*
X58415172Y-164103212D01*
X58414830Y-164495069D01*
X56560440Y-164495069D01*
X56386894Y-164075057D01*
X55927363Y-163614722D01*
X55326648Y-163365284D01*
X54676205Y-163364716D01*
X54075057Y-163613106D01*
X53614722Y-164072637D01*
X53365284Y-164673352D01*
X53364716Y-165323795D01*
X51634718Y-165323795D01*
X51635284Y-164676205D01*
X51386894Y-164075057D01*
X50927363Y-163614722D01*
X50326648Y-163365284D01*
X49676205Y-163364716D01*
X49075057Y-163613106D01*
X48614722Y-164072637D01*
X48365284Y-164673352D01*
X48364716Y-165323795D01*
X40710000Y-165323795D01*
X40710000Y-163271069D01*
X137190830Y-163271069D01*
X137340471Y-163633229D01*
X137617314Y-163910555D01*
X137979212Y-164060828D01*
X138371069Y-164061170D01*
X138534198Y-163993767D01*
X138502560Y-164150000D01*
X138502560Y-165850000D01*
X138546838Y-166085317D01*
X138685910Y-166301441D01*
X138898110Y-166446431D01*
X138965541Y-166460086D01*
X138920853Y-166489946D01*
X138598946Y-166971715D01*
X138485907Y-167540000D01*
X138598946Y-168108285D01*
X138920853Y-168590054D01*
X139250026Y-168810000D01*
X138920853Y-169029946D01*
X138598946Y-169511715D01*
X138485907Y-170080000D01*
X138598946Y-170648285D01*
X138920853Y-171130054D01*
X139402622Y-171451961D01*
X139970907Y-171565000D01*
X140029093Y-171565000D01*
X140597378Y-171451961D01*
X141079147Y-171130054D01*
X141270000Y-170844422D01*
X141460853Y-171130054D01*
X141942622Y-171451961D01*
X142510907Y-171565000D01*
X142569093Y-171565000D01*
X143137378Y-171451961D01*
X143619147Y-171130054D01*
X143642523Y-171095069D01*
X144914830Y-171095069D01*
X145064471Y-171457229D01*
X145341314Y-171734555D01*
X145703212Y-171884828D01*
X146095069Y-171885170D01*
X146457229Y-171735529D01*
X146734555Y-171458686D01*
X146884828Y-171096788D01*
X146885170Y-170704931D01*
X146735529Y-170342771D01*
X146458686Y-170065445D01*
X146096788Y-169915172D01*
X145704931Y-169914830D01*
X145342771Y-170064471D01*
X145065445Y-170341314D01*
X144915172Y-170703212D01*
X144914830Y-171095069D01*
X143642523Y-171095069D01*
X143941054Y-170648285D01*
X144054093Y-170080000D01*
X143941054Y-169511715D01*
X143619147Y-169029946D01*
X143289974Y-168810000D01*
X143619147Y-168590054D01*
X143941054Y-168108285D01*
X144054093Y-167540000D01*
X148485907Y-167540000D01*
X148598946Y-168108285D01*
X148920853Y-168590054D01*
X149250026Y-168810000D01*
X148920853Y-169029946D01*
X148598946Y-169511715D01*
X148485907Y-170080000D01*
X148598946Y-170648285D01*
X148920853Y-171130054D01*
X149402622Y-171451961D01*
X149970907Y-171565000D01*
X150029093Y-171565000D01*
X150597378Y-171451961D01*
X151079147Y-171130054D01*
X151270000Y-170844422D01*
X151460853Y-171130054D01*
X151942622Y-171451961D01*
X152510907Y-171565000D01*
X152569093Y-171565000D01*
X153137378Y-171451961D01*
X153521844Y-171195069D01*
X154414830Y-171195069D01*
X154564471Y-171557229D01*
X154841314Y-171834555D01*
X155203212Y-171984828D01*
X155595069Y-171985170D01*
X155957229Y-171835529D01*
X156234555Y-171558686D01*
X156384828Y-171196788D01*
X156385170Y-170804931D01*
X156235529Y-170442771D01*
X155958686Y-170165445D01*
X155596788Y-170015172D01*
X155204931Y-170014830D01*
X154842771Y-170164471D01*
X154565445Y-170441314D01*
X154415172Y-170803212D01*
X154414830Y-171195069D01*
X153521844Y-171195069D01*
X153619147Y-171130054D01*
X153941054Y-170648285D01*
X154054093Y-170080000D01*
X153941054Y-169511715D01*
X153619147Y-169029946D01*
X153289974Y-168810000D01*
X153619147Y-168590054D01*
X153941054Y-168108285D01*
X154054093Y-167540000D01*
X153941054Y-166971715D01*
X153619147Y-166489946D01*
X153278447Y-166262298D01*
X153421358Y-166195183D01*
X153811645Y-165766924D01*
X153981476Y-165356890D01*
X153860155Y-165127000D01*
X152667000Y-165127000D01*
X152667000Y-165147000D01*
X152413000Y-165147000D01*
X152413000Y-165127000D01*
X152393000Y-165127000D01*
X152393000Y-164873000D01*
X152413000Y-164873000D01*
X152413000Y-163679181D01*
X152667000Y-163679181D01*
X152667000Y-164873000D01*
X153860155Y-164873000D01*
X153981476Y-164643110D01*
X153811645Y-164233076D01*
X153421358Y-163804817D01*
X152896892Y-163558514D01*
X152667000Y-163679181D01*
X152413000Y-163679181D01*
X152183108Y-163558514D01*
X151658642Y-163804817D01*
X151471192Y-164010504D01*
X151453162Y-163914683D01*
X151314090Y-163698559D01*
X151101890Y-163553569D01*
X150850000Y-163502560D01*
X149150000Y-163502560D01*
X148914683Y-163546838D01*
X148698559Y-163685910D01*
X148553569Y-163898110D01*
X148502560Y-164150000D01*
X148502560Y-165850000D01*
X148546838Y-166085317D01*
X148685910Y-166301441D01*
X148898110Y-166446431D01*
X148965541Y-166460086D01*
X148920853Y-166489946D01*
X148598946Y-166971715D01*
X148485907Y-167540000D01*
X144054093Y-167540000D01*
X143941054Y-166971715D01*
X143619147Y-166489946D01*
X143278447Y-166262298D01*
X143421358Y-166195183D01*
X143467028Y-166145069D01*
X144064830Y-166145069D01*
X144214471Y-166507229D01*
X144491314Y-166784555D01*
X144853212Y-166934828D01*
X145245069Y-166935170D01*
X145607229Y-166785529D01*
X145884555Y-166508686D01*
X146034828Y-166146788D01*
X146035170Y-165754931D01*
X145885529Y-165392771D01*
X145608686Y-165115445D01*
X145246788Y-164965172D01*
X144854931Y-164964830D01*
X144492771Y-165114471D01*
X144215445Y-165391314D01*
X144065172Y-165753212D01*
X144064830Y-166145069D01*
X143467028Y-166145069D01*
X143811645Y-165766924D01*
X143981476Y-165356890D01*
X143860155Y-165127000D01*
X142667000Y-165127000D01*
X142667000Y-165147000D01*
X142413000Y-165147000D01*
X142413000Y-165127000D01*
X142393000Y-165127000D01*
X142393000Y-164873000D01*
X142413000Y-164873000D01*
X142413000Y-163679181D01*
X142667000Y-163679181D01*
X142667000Y-164873000D01*
X143860155Y-164873000D01*
X143981476Y-164643110D01*
X143811645Y-164233076D01*
X143421358Y-163804817D01*
X142896892Y-163558514D01*
X142667000Y-163679181D01*
X142413000Y-163679181D01*
X142183108Y-163558514D01*
X141658642Y-163804817D01*
X141471192Y-164010504D01*
X141453162Y-163914683D01*
X141314090Y-163698559D01*
X141101890Y-163553569D01*
X140850000Y-163502560D01*
X139150000Y-163502560D01*
X139058250Y-163519824D01*
X139160828Y-163272788D01*
X139161170Y-162880931D01*
X139011529Y-162518771D01*
X138734686Y-162241445D01*
X138372788Y-162091172D01*
X137980931Y-162090830D01*
X137618771Y-162240471D01*
X137341445Y-162517314D01*
X137191172Y-162879212D01*
X137190830Y-163271069D01*
X40710000Y-163271069D01*
X40710000Y-162247069D01*
X134904830Y-162247069D01*
X135054471Y-162609229D01*
X135331314Y-162886555D01*
X135693212Y-163036828D01*
X136085069Y-163037170D01*
X136447229Y-162887529D01*
X136724555Y-162610686D01*
X136874828Y-162248788D01*
X136875170Y-161856931D01*
X136725529Y-161494771D01*
X136448686Y-161217445D01*
X136086788Y-161067172D01*
X135694931Y-161066830D01*
X135332771Y-161216471D01*
X135055445Y-161493314D01*
X134905172Y-161855212D01*
X134904830Y-162247069D01*
X40710000Y-162247069D01*
X40710000Y-157695069D01*
X53764830Y-157695069D01*
X53914471Y-158057229D01*
X54191314Y-158334555D01*
X54553212Y-158484828D01*
X54945069Y-158485170D01*
X55307229Y-158335529D01*
X55584555Y-158058686D01*
X55734828Y-157696788D01*
X55735047Y-157445069D01*
X69514830Y-157445069D01*
X69664471Y-157807229D01*
X69941314Y-158084555D01*
X70303212Y-158234828D01*
X70695069Y-158235170D01*
X71057229Y-158085529D01*
X71334555Y-157808686D01*
X71381732Y-157695069D01*
X84264830Y-157695069D01*
X84414471Y-158057229D01*
X84691314Y-158334555D01*
X85053212Y-158484828D01*
X85445069Y-158485170D01*
X85807229Y-158335529D01*
X86084555Y-158058686D01*
X86234828Y-157696788D01*
X86234829Y-157695069D01*
X99264830Y-157695069D01*
X99414471Y-158057229D01*
X99691314Y-158334555D01*
X100053212Y-158484828D01*
X100445069Y-158485170D01*
X100807229Y-158335529D01*
X101084555Y-158058686D01*
X101234828Y-157696788D01*
X101234829Y-157695069D01*
X111514830Y-157695069D01*
X111664471Y-158057229D01*
X111941314Y-158334555D01*
X112303212Y-158484828D01*
X112695069Y-158485170D01*
X113057229Y-158335529D01*
X113334555Y-158058686D01*
X113484828Y-157696788D01*
X113485170Y-157304931D01*
X113335529Y-156942771D01*
X113058686Y-156665445D01*
X112696788Y-156515172D01*
X112304931Y-156514830D01*
X111942771Y-156664471D01*
X111665445Y-156941314D01*
X111515172Y-157303212D01*
X111514830Y-157695069D01*
X101234829Y-157695069D01*
X101235170Y-157304931D01*
X101085529Y-156942771D01*
X100808686Y-156665445D01*
X100446788Y-156515172D01*
X100054931Y-156514830D01*
X99692771Y-156664471D01*
X99415445Y-156941314D01*
X99265172Y-157303212D01*
X99264830Y-157695069D01*
X86234829Y-157695069D01*
X86235170Y-157304931D01*
X86085529Y-156942771D01*
X85808686Y-156665445D01*
X85446788Y-156515172D01*
X85054931Y-156514830D01*
X84692771Y-156664471D01*
X84415445Y-156941314D01*
X84265172Y-157303212D01*
X84264830Y-157695069D01*
X71381732Y-157695069D01*
X71484828Y-157446788D01*
X71485170Y-157054931D01*
X71335529Y-156692771D01*
X71058686Y-156415445D01*
X70696788Y-156265172D01*
X70304931Y-156264830D01*
X69942771Y-156414471D01*
X69665445Y-156691314D01*
X69515172Y-157053212D01*
X69514830Y-157445069D01*
X55735047Y-157445069D01*
X55735170Y-157304931D01*
X55585529Y-156942771D01*
X55308686Y-156665445D01*
X54946788Y-156515172D01*
X54554931Y-156514830D01*
X54192771Y-156664471D01*
X53915445Y-156941314D01*
X53765172Y-157303212D01*
X53764830Y-157695069D01*
X40710000Y-157695069D01*
X40710000Y-152722069D01*
X130713830Y-152722069D01*
X130863471Y-153084229D01*
X131140314Y-153361555D01*
X131502212Y-153511828D01*
X131894069Y-153512170D01*
X132256229Y-153362529D01*
X132383911Y-153235069D01*
X134514830Y-153235069D01*
X134664471Y-153597229D01*
X134941314Y-153874555D01*
X135303212Y-154024828D01*
X135695069Y-154025170D01*
X136057229Y-153875529D01*
X136334555Y-153598686D01*
X136484828Y-153236788D01*
X136485170Y-152844931D01*
X136335529Y-152482771D01*
X136058686Y-152205445D01*
X135696788Y-152055172D01*
X135304931Y-152054830D01*
X134942771Y-152204471D01*
X134665445Y-152481314D01*
X134515172Y-152843212D01*
X134514830Y-153235069D01*
X132383911Y-153235069D01*
X132533555Y-153085686D01*
X132683828Y-152723788D01*
X132683972Y-152559166D01*
X132891229Y-152473529D01*
X133168555Y-152196686D01*
X133255151Y-151988139D01*
X133291069Y-151988170D01*
X133653229Y-151838529D01*
X133930555Y-151561686D01*
X134080828Y-151199788D01*
X134081170Y-150807931D01*
X133931529Y-150445771D01*
X133654686Y-150168445D01*
X133292788Y-150018172D01*
X132900931Y-150017830D01*
X132538771Y-150167471D01*
X132261445Y-150444314D01*
X132174849Y-150652861D01*
X132138931Y-150652830D01*
X131776771Y-150802471D01*
X131499445Y-151079314D01*
X131349172Y-151441212D01*
X131349028Y-151605834D01*
X131141771Y-151691471D01*
X130864445Y-151968314D01*
X130714172Y-152330212D01*
X130713830Y-152722069D01*
X40710000Y-152722069D01*
X40710000Y-150690069D01*
X96169830Y-150690069D01*
X96319471Y-151052229D01*
X96596314Y-151329555D01*
X96958212Y-151479828D01*
X97350069Y-151480170D01*
X97712229Y-151330529D01*
X97989555Y-151053686D01*
X98139828Y-150691788D01*
X98140170Y-150299931D01*
X97990529Y-149937771D01*
X97713686Y-149660445D01*
X97351788Y-149510172D01*
X96959931Y-149509830D01*
X96597771Y-149659471D01*
X96320445Y-149936314D01*
X96170172Y-150298212D01*
X96169830Y-150690069D01*
X40710000Y-150690069D01*
X40710000Y-146580071D01*
X95714830Y-146580071D01*
X95864471Y-146942231D01*
X96141314Y-147219557D01*
X96503212Y-147369830D01*
X96895069Y-147370172D01*
X97257229Y-147220531D01*
X97483084Y-146995069D01*
X107764830Y-146995069D01*
X107914471Y-147357229D01*
X108191314Y-147634555D01*
X108553212Y-147784828D01*
X108565013Y-147784838D01*
X108564830Y-147995069D01*
X108714471Y-148357229D01*
X108991314Y-148634555D01*
X109353212Y-148784828D01*
X109745069Y-148785170D01*
X110107229Y-148635529D01*
X110384555Y-148358686D01*
X110534828Y-147996788D01*
X110535170Y-147604931D01*
X110385529Y-147242771D01*
X110337911Y-147195069D01*
X119164830Y-147195069D01*
X119314471Y-147557229D01*
X119591314Y-147834555D01*
X119953212Y-147984828D01*
X120345069Y-147985170D01*
X120707229Y-147835529D01*
X120984555Y-147558686D01*
X121134828Y-147196788D01*
X121135170Y-146804931D01*
X120985529Y-146442771D01*
X120864393Y-146321424D01*
X121053212Y-146399828D01*
X121399559Y-146400130D01*
X121464471Y-146557229D01*
X121741314Y-146834555D01*
X122103212Y-146984828D01*
X122495069Y-146985170D01*
X122857229Y-146835529D01*
X123134555Y-146558686D01*
X123165201Y-146484882D01*
X123495069Y-146485170D01*
X123857229Y-146335529D01*
X124134555Y-146058686D01*
X124284828Y-145696788D01*
X124285170Y-145304931D01*
X124135529Y-144942771D01*
X123858686Y-144665445D01*
X123496788Y-144515172D01*
X123104931Y-144514830D01*
X122742771Y-144664471D01*
X122465445Y-144941314D01*
X122434799Y-145015118D01*
X122150441Y-145014870D01*
X122085529Y-144857771D01*
X121808686Y-144580445D01*
X121446788Y-144430172D01*
X121054931Y-144429830D01*
X120692771Y-144579471D01*
X120415445Y-144856314D01*
X120265172Y-145218212D01*
X120264830Y-145610069D01*
X120414471Y-145972229D01*
X120535607Y-146093576D01*
X120346788Y-146015172D01*
X119954931Y-146014830D01*
X119592771Y-146164471D01*
X119315445Y-146441314D01*
X119165172Y-146803212D01*
X119164830Y-147195069D01*
X110337911Y-147195069D01*
X110108686Y-146965445D01*
X109746788Y-146815172D01*
X109734987Y-146815162D01*
X109735170Y-146604931D01*
X109585529Y-146242771D01*
X109308686Y-145965445D01*
X108946788Y-145815172D01*
X108554931Y-145814830D01*
X108192771Y-145964471D01*
X107915445Y-146241314D01*
X107765172Y-146603212D01*
X107764830Y-146995069D01*
X97483084Y-146995069D01*
X97534555Y-146943688D01*
X97684828Y-146581790D01*
X97685170Y-146189933D01*
X97535529Y-145827773D01*
X97258686Y-145550447D01*
X96896788Y-145400174D01*
X96504931Y-145399832D01*
X96142771Y-145549473D01*
X95865445Y-145826316D01*
X95715172Y-146188214D01*
X95714830Y-146580071D01*
X40710000Y-146580071D01*
X40710000Y-143656892D01*
X132528514Y-143656892D01*
X132774817Y-144181358D01*
X133203076Y-144571645D01*
X133613110Y-144741476D01*
X133843000Y-144620155D01*
X133843000Y-143427000D01*
X132649181Y-143427000D01*
X132528514Y-143656892D01*
X40710000Y-143656892D01*
X40710000Y-142181069D01*
X95153830Y-142181069D01*
X95303471Y-142543229D01*
X95580314Y-142820555D01*
X95942212Y-142970828D01*
X96334069Y-142971170D01*
X96696229Y-142821529D01*
X96973555Y-142544686D01*
X97123828Y-142182788D01*
X97124170Y-141790931D01*
X96974529Y-141428771D01*
X96697686Y-141151445D01*
X96335788Y-141001172D01*
X95943931Y-141000830D01*
X95581771Y-141150471D01*
X95304445Y-141427314D01*
X95154172Y-141789212D01*
X95153830Y-142181069D01*
X40710000Y-142181069D01*
X40710000Y-140730907D01*
X132485000Y-140730907D01*
X132485000Y-140789093D01*
X132598039Y-141357378D01*
X132919946Y-141839147D01*
X133203101Y-142028345D01*
X133203076Y-142028355D01*
X132774817Y-142418642D01*
X132528514Y-142943108D01*
X132649181Y-143173000D01*
X133843000Y-143173000D01*
X133843000Y-143153000D01*
X134097000Y-143153000D01*
X134097000Y-143173000D01*
X134117000Y-143173000D01*
X134117000Y-143427000D01*
X134097000Y-143427000D01*
X134097000Y-144620155D01*
X134326890Y-144741476D01*
X134736924Y-144571645D01*
X135165183Y-144181358D01*
X135232298Y-144038447D01*
X135459946Y-144379147D01*
X135941715Y-144701054D01*
X136510000Y-144814093D01*
X137078285Y-144701054D01*
X137560054Y-144379147D01*
X137780000Y-144049974D01*
X137999946Y-144379147D01*
X138481715Y-144701054D01*
X139050000Y-144814093D01*
X139618285Y-144701054D01*
X140100054Y-144379147D01*
X140320000Y-144049974D01*
X140539946Y-144379147D01*
X141021715Y-144701054D01*
X141590000Y-144814093D01*
X142158285Y-144701054D01*
X142640054Y-144379147D01*
X142860000Y-144049974D01*
X143079946Y-144379147D01*
X143561715Y-144701054D01*
X144130000Y-144814093D01*
X144698285Y-144701054D01*
X145180054Y-144379147D01*
X145400000Y-144049974D01*
X145619946Y-144379147D01*
X146101715Y-144701054D01*
X146670000Y-144814093D01*
X147238285Y-144701054D01*
X147720054Y-144379147D01*
X147940000Y-144049974D01*
X148159946Y-144379147D01*
X148641715Y-144701054D01*
X149210000Y-144814093D01*
X149778285Y-144701054D01*
X150260054Y-144379147D01*
X150287850Y-144337548D01*
X150296838Y-144385317D01*
X150435910Y-144601441D01*
X150648110Y-144746431D01*
X150900000Y-144797440D01*
X152600000Y-144797440D01*
X152835317Y-144753162D01*
X153051441Y-144614090D01*
X153196431Y-144401890D01*
X153247440Y-144150000D01*
X153247440Y-142450000D01*
X153203162Y-142214683D01*
X153064090Y-141998559D01*
X152851890Y-141853569D01*
X152795546Y-141842159D01*
X152800054Y-141839147D01*
X153121961Y-141357378D01*
X153235000Y-140789093D01*
X153235000Y-140730907D01*
X153121961Y-140162622D01*
X152800054Y-139680853D01*
X152318285Y-139358946D01*
X151750000Y-139245907D01*
X151181715Y-139358946D01*
X150699946Y-139680853D01*
X150480000Y-140010026D01*
X150260054Y-139680853D01*
X149778285Y-139358946D01*
X149210000Y-139245907D01*
X148641715Y-139358946D01*
X148159946Y-139680853D01*
X147940000Y-140010026D01*
X147720054Y-139680853D01*
X147238285Y-139358946D01*
X146670000Y-139245907D01*
X146101715Y-139358946D01*
X145619946Y-139680853D01*
X145400000Y-140010026D01*
X145180054Y-139680853D01*
X144698285Y-139358946D01*
X144130000Y-139245907D01*
X143561715Y-139358946D01*
X143079946Y-139680853D01*
X142860000Y-140010026D01*
X142640054Y-139680853D01*
X142158285Y-139358946D01*
X141590000Y-139245907D01*
X141021715Y-139358946D01*
X140539946Y-139680853D01*
X140320000Y-140010026D01*
X140100054Y-139680853D01*
X139618285Y-139358946D01*
X139050000Y-139245907D01*
X138481715Y-139358946D01*
X137999946Y-139680853D01*
X137780000Y-140010026D01*
X137560054Y-139680853D01*
X137078285Y-139358946D01*
X136510000Y-139245907D01*
X135941715Y-139358946D01*
X135459946Y-139680853D01*
X135240000Y-140010026D01*
X135020054Y-139680853D01*
X134538285Y-139358946D01*
X133970000Y-139245907D01*
X133401715Y-139358946D01*
X132919946Y-139680853D01*
X132598039Y-140162622D01*
X132485000Y-140730907D01*
X40710000Y-140730907D01*
X40710000Y-137484367D01*
X89149532Y-137484367D01*
X89299173Y-137846527D01*
X89576016Y-138123853D01*
X89937914Y-138274126D01*
X90329771Y-138274468D01*
X90691931Y-138124827D01*
X90721740Y-138095069D01*
X132164830Y-138095069D01*
X132314471Y-138457229D01*
X132591314Y-138734555D01*
X132953212Y-138884828D01*
X133345069Y-138885170D01*
X133707229Y-138735529D01*
X133984555Y-138458686D01*
X134134828Y-138096788D01*
X134135170Y-137704931D01*
X133985529Y-137342771D01*
X133708686Y-137065445D01*
X133346788Y-136915172D01*
X132954931Y-136914830D01*
X132592771Y-137064471D01*
X132315445Y-137341314D01*
X132165172Y-137703212D01*
X132164830Y-138095069D01*
X90721740Y-138095069D01*
X90969257Y-137847984D01*
X91119530Y-137486086D01*
X91119872Y-137094229D01*
X90970231Y-136732069D01*
X90693388Y-136454743D01*
X90331490Y-136304470D01*
X89939633Y-136304128D01*
X89577473Y-136453769D01*
X89300147Y-136730612D01*
X89149874Y-137092510D01*
X89149532Y-137484367D01*
X40710000Y-137484367D01*
X40710000Y-135831069D01*
X127538830Y-135831069D01*
X127688471Y-136193229D01*
X127965314Y-136470555D01*
X128327212Y-136620828D01*
X128719069Y-136621170D01*
X128905726Y-136544045D01*
X129014471Y-136807229D01*
X129291314Y-137084555D01*
X129653212Y-137234828D01*
X130045069Y-137235170D01*
X130407229Y-137085529D01*
X130684555Y-136808686D01*
X130834828Y-136446788D01*
X130835170Y-136054931D01*
X130685529Y-135692771D01*
X130408686Y-135415445D01*
X130046788Y-135265172D01*
X129654931Y-135264830D01*
X129468274Y-135341955D01*
X129359529Y-135078771D01*
X129082686Y-134801445D01*
X128720788Y-134651172D01*
X128328931Y-134650830D01*
X127966771Y-134800471D01*
X127689445Y-135077314D01*
X127539172Y-135439212D01*
X127538830Y-135831069D01*
X40710000Y-135831069D01*
X40710000Y-134595069D01*
X92714830Y-134595069D01*
X92864471Y-134957229D01*
X93141314Y-135234555D01*
X93503212Y-135384828D01*
X93895069Y-135385170D01*
X94257229Y-135235529D01*
X94534555Y-134958686D01*
X94560971Y-134895069D01*
X95964830Y-134895069D01*
X96114471Y-135257229D01*
X96391314Y-135534555D01*
X96753212Y-135684828D01*
X97145069Y-135685170D01*
X97507229Y-135535529D01*
X97784555Y-135258686D01*
X97934828Y-134896788D01*
X97935170Y-134504931D01*
X97785529Y-134142771D01*
X97508686Y-133865445D01*
X97146788Y-133715172D01*
X96754931Y-133714830D01*
X96392771Y-133864471D01*
X96115445Y-134141314D01*
X95965172Y-134503212D01*
X95964830Y-134895069D01*
X94560971Y-134895069D01*
X94684828Y-134596788D01*
X94685170Y-134204931D01*
X94535529Y-133842771D01*
X94258686Y-133565445D01*
X93896788Y-133415172D01*
X93504931Y-133414830D01*
X93142771Y-133564471D01*
X92865445Y-133841314D01*
X92715172Y-134203212D01*
X92714830Y-134595069D01*
X40710000Y-134595069D01*
X40710000Y-114088669D01*
X112387730Y-114088669D01*
X112537371Y-114450829D01*
X112814214Y-114728155D01*
X113176112Y-114878428D01*
X113567969Y-114878770D01*
X113930129Y-114729129D01*
X114207455Y-114452286D01*
X114357728Y-114090388D01*
X114358070Y-113698531D01*
X114208429Y-113336371D01*
X113931586Y-113059045D01*
X113569688Y-112908772D01*
X113177831Y-112908430D01*
X112815671Y-113058071D01*
X112538345Y-113334914D01*
X112388072Y-113696812D01*
X112387730Y-114088669D01*
X40710000Y-114088669D01*
X40710000Y-106050000D01*
X102752560Y-106050000D01*
X102752560Y-107750000D01*
X102796838Y-107985317D01*
X102935910Y-108201441D01*
X103148110Y-108346431D01*
X103204454Y-108357841D01*
X103199946Y-108360853D01*
X102878039Y-108842622D01*
X102765000Y-109410907D01*
X102765000Y-109469093D01*
X102878039Y-110037378D01*
X103199946Y-110519147D01*
X103681715Y-110841054D01*
X104250000Y-110954093D01*
X104818285Y-110841054D01*
X105300054Y-110519147D01*
X105520000Y-110189974D01*
X105739946Y-110519147D01*
X106221715Y-110841054D01*
X106790000Y-110954093D01*
X107358285Y-110841054D01*
X107840054Y-110519147D01*
X108060000Y-110189974D01*
X108279946Y-110519147D01*
X108761715Y-110841054D01*
X109330000Y-110954093D01*
X109898285Y-110841054D01*
X110380054Y-110519147D01*
X110600000Y-110189974D01*
X110819946Y-110519147D01*
X111301715Y-110841054D01*
X111870000Y-110954093D01*
X112438285Y-110841054D01*
X112920054Y-110519147D01*
X113140000Y-110189974D01*
X113359946Y-110519147D01*
X113841715Y-110841054D01*
X113978008Y-110868164D01*
X113873972Y-111118712D01*
X113873630Y-111510569D01*
X114023271Y-111872729D01*
X114300114Y-112150055D01*
X114662012Y-112300328D01*
X115053869Y-112300670D01*
X115416029Y-112151029D01*
X115693355Y-111874186D01*
X115843628Y-111512288D01*
X115843970Y-111120431D01*
X115694329Y-110758271D01*
X115457395Y-110520924D01*
X115460054Y-110519147D01*
X115680000Y-110189974D01*
X115899946Y-110519147D01*
X116381715Y-110841054D01*
X116940224Y-110952148D01*
X116638371Y-111076871D01*
X116361045Y-111353714D01*
X116210772Y-111715612D01*
X116210430Y-112107469D01*
X116360071Y-112469629D01*
X116636914Y-112746955D01*
X116998812Y-112897228D01*
X117390669Y-112897570D01*
X117752829Y-112747929D01*
X118030155Y-112471086D01*
X118180428Y-112109188D01*
X118180770Y-111717331D01*
X118031129Y-111355171D01*
X117754286Y-111077845D01*
X117392388Y-110927572D01*
X117084680Y-110927303D01*
X117518285Y-110841054D01*
X118000054Y-110519147D01*
X118220000Y-110189974D01*
X118439946Y-110519147D01*
X118921715Y-110841054D01*
X119490000Y-110954093D01*
X120058285Y-110841054D01*
X120540054Y-110519147D01*
X120760000Y-110189974D01*
X120979946Y-110519147D01*
X121461715Y-110841054D01*
X122030000Y-110954093D01*
X122598285Y-110841054D01*
X123080054Y-110519147D01*
X123300000Y-110189974D01*
X123519946Y-110519147D01*
X124001715Y-110841054D01*
X124570000Y-110954093D01*
X125138285Y-110841054D01*
X125620054Y-110519147D01*
X125840000Y-110189974D01*
X126059946Y-110519147D01*
X126541715Y-110841054D01*
X127110000Y-110954093D01*
X127678285Y-110841054D01*
X128160054Y-110519147D01*
X128481961Y-110037378D01*
X128595000Y-109469093D01*
X128595000Y-109410907D01*
X128481961Y-108842622D01*
X128160054Y-108360853D01*
X127874422Y-108170000D01*
X128160054Y-107979147D01*
X128481961Y-107497378D01*
X128595000Y-106929093D01*
X128595000Y-106870907D01*
X128481961Y-106302622D01*
X128160054Y-105820853D01*
X127678285Y-105498946D01*
X127110000Y-105385907D01*
X126541715Y-105498946D01*
X126059946Y-105820853D01*
X125840000Y-106150026D01*
X125620054Y-105820853D01*
X125138285Y-105498946D01*
X124570000Y-105385907D01*
X124001715Y-105498946D01*
X123519946Y-105820853D01*
X123300000Y-106150026D01*
X123080054Y-105820853D01*
X122598285Y-105498946D01*
X122030000Y-105385907D01*
X121461715Y-105498946D01*
X120979946Y-105820853D01*
X120760000Y-106150026D01*
X120540054Y-105820853D01*
X120058285Y-105498946D01*
X119490000Y-105385907D01*
X118921715Y-105498946D01*
X118439946Y-105820853D01*
X118220000Y-106150026D01*
X118000054Y-105820853D01*
X117518285Y-105498946D01*
X116950000Y-105385907D01*
X116381715Y-105498946D01*
X115899946Y-105820853D01*
X115680000Y-106150026D01*
X115460054Y-105820853D01*
X114978285Y-105498946D01*
X114410000Y-105385907D01*
X113841715Y-105498946D01*
X113359946Y-105820853D01*
X113140000Y-106150026D01*
X112920054Y-105820853D01*
X112438285Y-105498946D01*
X111870000Y-105385907D01*
X111301715Y-105498946D01*
X110819946Y-105820853D01*
X110600000Y-106150026D01*
X110380054Y-105820853D01*
X109898285Y-105498946D01*
X109330000Y-105385907D01*
X108761715Y-105498946D01*
X108279946Y-105820853D01*
X108060000Y-106150026D01*
X107840054Y-105820853D01*
X107358285Y-105498946D01*
X106790000Y-105385907D01*
X106221715Y-105498946D01*
X105739946Y-105820853D01*
X105712150Y-105862452D01*
X105703162Y-105814683D01*
X105564090Y-105598559D01*
X105351890Y-105453569D01*
X105100000Y-105402560D01*
X103400000Y-105402560D01*
X103164683Y-105446838D01*
X102948559Y-105585910D01*
X102803569Y-105798110D01*
X102752560Y-106050000D01*
X40710000Y-106050000D01*
X40710000Y-41785750D01*
X102765000Y-41785750D01*
X102765000Y-42476309D01*
X102861673Y-42709698D01*
X103040301Y-42888327D01*
X103205858Y-42956903D01*
X103199946Y-42960853D01*
X102878039Y-43442622D01*
X102765000Y-44010907D01*
X102765000Y-44069093D01*
X102878039Y-44637378D01*
X103199946Y-45119147D01*
X103681715Y-45441054D01*
X104250000Y-45554093D01*
X104818285Y-45441054D01*
X105300054Y-45119147D01*
X105520000Y-44789974D01*
X105739946Y-45119147D01*
X106221715Y-45441054D01*
X106790000Y-45554093D01*
X107358285Y-45441054D01*
X107840054Y-45119147D01*
X108060000Y-44789974D01*
X108279946Y-45119147D01*
X108761715Y-45441054D01*
X109330000Y-45554093D01*
X109898285Y-45441054D01*
X110380054Y-45119147D01*
X110600000Y-44789974D01*
X110819946Y-45119147D01*
X111301715Y-45441054D01*
X111870000Y-45554093D01*
X112438285Y-45441054D01*
X112920054Y-45119147D01*
X113140000Y-44789974D01*
X113359946Y-45119147D01*
X113841715Y-45441054D01*
X114410000Y-45554093D01*
X114978285Y-45441054D01*
X115460054Y-45119147D01*
X115680000Y-44789974D01*
X115899946Y-45119147D01*
X116381715Y-45441054D01*
X116950000Y-45554093D01*
X117518285Y-45441054D01*
X118000054Y-45119147D01*
X118220000Y-44789974D01*
X118439946Y-45119147D01*
X118921715Y-45441054D01*
X119490000Y-45554093D01*
X120058285Y-45441054D01*
X120540054Y-45119147D01*
X120760000Y-44789974D01*
X120979946Y-45119147D01*
X121461715Y-45441054D01*
X122030000Y-45554093D01*
X122598285Y-45441054D01*
X123080054Y-45119147D01*
X123300000Y-44789974D01*
X123519946Y-45119147D01*
X124001715Y-45441054D01*
X124570000Y-45554093D01*
X125138285Y-45441054D01*
X125620054Y-45119147D01*
X125840000Y-44789974D01*
X126059946Y-45119147D01*
X126541715Y-45441054D01*
X127110000Y-45554093D01*
X127678285Y-45441054D01*
X128160054Y-45119147D01*
X128481961Y-44637378D01*
X128595000Y-44069093D01*
X128595000Y-44010907D01*
X128481961Y-43442622D01*
X128160054Y-42960853D01*
X127874422Y-42770000D01*
X128160054Y-42579147D01*
X128481961Y-42097378D01*
X128595000Y-41529093D01*
X128595000Y-41470907D01*
X128481961Y-40902622D01*
X128160054Y-40420853D01*
X127678285Y-40098946D01*
X127110000Y-39985907D01*
X126541715Y-40098946D01*
X126059946Y-40420853D01*
X125840000Y-40750026D01*
X125620054Y-40420853D01*
X125138285Y-40098946D01*
X124570000Y-39985907D01*
X124001715Y-40098946D01*
X123519946Y-40420853D01*
X123300000Y-40750026D01*
X123080054Y-40420853D01*
X122598285Y-40098946D01*
X122030000Y-39985907D01*
X121461715Y-40098946D01*
X120979946Y-40420853D01*
X120760000Y-40750026D01*
X120540054Y-40420853D01*
X120058285Y-40098946D01*
X119490000Y-39985907D01*
X118921715Y-40098946D01*
X118439946Y-40420853D01*
X118220000Y-40750026D01*
X118000054Y-40420853D01*
X117518285Y-40098946D01*
X116950000Y-39985907D01*
X116381715Y-40098946D01*
X115899946Y-40420853D01*
X115680000Y-40750026D01*
X115460054Y-40420853D01*
X114978285Y-40098946D01*
X114410000Y-39985907D01*
X113841715Y-40098946D01*
X113359946Y-40420853D01*
X113140000Y-40750026D01*
X112920054Y-40420853D01*
X112438285Y-40098946D01*
X111870000Y-39985907D01*
X111301715Y-40098946D01*
X110819946Y-40420853D01*
X110600000Y-40750026D01*
X110380054Y-40420853D01*
X109898285Y-40098946D01*
X109330000Y-39985907D01*
X108761715Y-40098946D01*
X108279946Y-40420853D01*
X108060000Y-40750026D01*
X107840054Y-40420853D01*
X107358285Y-40098946D01*
X106790000Y-39985907D01*
X106221715Y-40098946D01*
X105739946Y-40420853D01*
X105710597Y-40464777D01*
X105638327Y-40290302D01*
X105459699Y-40111673D01*
X105226310Y-40015000D01*
X104535750Y-40015000D01*
X104377000Y-40173750D01*
X104377000Y-41373000D01*
X104397000Y-41373000D01*
X104397000Y-41627000D01*
X104377000Y-41627000D01*
X104377000Y-41647000D01*
X104123000Y-41647000D01*
X104123000Y-41627000D01*
X102923750Y-41627000D01*
X102765000Y-41785750D01*
X40710000Y-41785750D01*
X40710000Y-40523691D01*
X102765000Y-40523691D01*
X102765000Y-41214250D01*
X102923750Y-41373000D01*
X104123000Y-41373000D01*
X104123000Y-40173750D01*
X103964250Y-40015000D01*
X103273690Y-40015000D01*
X103040301Y-40111673D01*
X102861673Y-40290302D01*
X102765000Y-40523691D01*
X40710000Y-40523691D01*
X40710000Y-38495069D01*
X106364830Y-38495069D01*
X106514471Y-38857229D01*
X106791314Y-39134555D01*
X107153212Y-39284828D01*
X107545069Y-39285170D01*
X107907229Y-39135529D01*
X108184555Y-38858686D01*
X108334828Y-38496788D01*
X108335170Y-38104931D01*
X108185529Y-37742771D01*
X107908686Y-37465445D01*
X107546788Y-37315172D01*
X107154931Y-37314830D01*
X106792771Y-37464471D01*
X106515445Y-37741314D01*
X106365172Y-38103212D01*
X106364830Y-38495069D01*
X40710000Y-38495069D01*
X40710000Y-30710000D01*
X159290000Y-30710000D01*
X159290000Y-179290000D01*
M02*
