G04 #@! TF.FileFunction,Copper,L1,Top,Signal*
%FSLAX46Y46*%
G04 Gerber Fmt 4.6, Leading zero omitted, Abs format (unit mm)*
G04 Created by KiCad (PCBNEW 4.0.6) date Friday, August 25, 2017 'AMt' 01:12:00 AM*
%MOMM*%
%LPD*%
G01*
G04 APERTURE LIST*
%ADD10C,0.100000*%
%ADD11R,0.600000X0.700000*%
%ADD12R,0.800000X0.800000*%
%ADD13R,1.700000X1.700000*%
%ADD14O,1.700000X1.700000*%
%ADD15R,0.500000X0.900000*%
%ADD16R,0.900000X0.500000*%
%ADD17C,2.000000*%
%ADD18C,0.700000*%
%ADD19C,0.250000*%
G04 APERTURE END LIST*
D10*
D11*
X51950000Y-157500000D03*
X53050000Y-157500000D03*
D12*
X66700000Y-157500000D03*
X68300000Y-157500000D03*
X109200000Y-157500000D03*
X110800000Y-157500000D03*
X81700000Y-157500000D03*
X83300000Y-157500000D03*
X96700000Y-157500000D03*
X98300000Y-157500000D03*
D13*
X151750000Y-143300000D03*
D14*
X151750000Y-140760000D03*
X149210000Y-143300000D03*
X149210000Y-140760000D03*
X146670000Y-143300000D03*
X146670000Y-140760000D03*
X144130000Y-143300000D03*
X144130000Y-140760000D03*
X141590000Y-143300000D03*
X141590000Y-140760000D03*
X139050000Y-143300000D03*
X139050000Y-140760000D03*
X136510000Y-143300000D03*
X136510000Y-140760000D03*
X133970000Y-143300000D03*
X133970000Y-140760000D03*
D13*
X104250000Y-41500000D03*
D14*
X104250000Y-44040000D03*
X106790000Y-41500000D03*
X106790000Y-44040000D03*
X109330000Y-41500000D03*
X109330000Y-44040000D03*
X111870000Y-41500000D03*
X111870000Y-44040000D03*
X114410000Y-41500000D03*
X114410000Y-44040000D03*
X116950000Y-41500000D03*
X116950000Y-44040000D03*
X119490000Y-41500000D03*
X119490000Y-44040000D03*
X122030000Y-41500000D03*
X122030000Y-44040000D03*
X124570000Y-41500000D03*
X124570000Y-44040000D03*
X127110000Y-41500000D03*
X127110000Y-44040000D03*
D13*
X104250000Y-106900000D03*
D14*
X104250000Y-109440000D03*
X106790000Y-106900000D03*
X106790000Y-109440000D03*
X109330000Y-106900000D03*
X109330000Y-109440000D03*
X111870000Y-106900000D03*
X111870000Y-109440000D03*
X114410000Y-106900000D03*
X114410000Y-109440000D03*
X116950000Y-106900000D03*
X116950000Y-109440000D03*
X119490000Y-106900000D03*
X119490000Y-109440000D03*
X122030000Y-106900000D03*
X122030000Y-109440000D03*
X124570000Y-106900000D03*
X124570000Y-109440000D03*
X127110000Y-106900000D03*
X127110000Y-109440000D03*
D13*
X120000000Y-165000000D03*
D14*
X122540000Y-165000000D03*
X120000000Y-167540000D03*
X122540000Y-167540000D03*
X120000000Y-170080000D03*
X122540000Y-170080000D03*
D13*
X140000000Y-165000000D03*
D14*
X142540000Y-165000000D03*
X140000000Y-167540000D03*
X142540000Y-167540000D03*
X140000000Y-170080000D03*
X142540000Y-170080000D03*
D13*
X150000000Y-165000000D03*
D14*
X152540000Y-165000000D03*
X150000000Y-167540000D03*
X152540000Y-167540000D03*
X150000000Y-170080000D03*
X152540000Y-170080000D03*
D13*
X110000000Y-165000000D03*
D14*
X112540000Y-165000000D03*
X110000000Y-167540000D03*
X112540000Y-167540000D03*
X110000000Y-170080000D03*
X112540000Y-170080000D03*
D13*
X130000000Y-165000000D03*
D14*
X132540000Y-165000000D03*
X130000000Y-167540000D03*
X132540000Y-167540000D03*
X130000000Y-170080000D03*
X132540000Y-170080000D03*
D15*
X46750000Y-157500000D03*
X48250000Y-157500000D03*
D16*
X45000000Y-154250000D03*
X45000000Y-155750000D03*
D15*
X61750000Y-157500000D03*
X63250000Y-157500000D03*
D16*
X60000000Y-154250000D03*
X60000000Y-155750000D03*
X107500000Y-154250000D03*
X107500000Y-155750000D03*
D15*
X76750000Y-157500000D03*
X78250000Y-157500000D03*
X91750000Y-157500000D03*
X93250000Y-157500000D03*
D16*
X75000000Y-154250000D03*
X75000000Y-155750000D03*
X90000000Y-154250000D03*
X90000000Y-155750000D03*
D17*
X50000000Y-165000000D03*
X55000000Y-165000000D03*
X55000000Y-170000000D03*
X50000000Y-170000000D03*
X65000000Y-165000000D03*
X70000000Y-165000000D03*
X70000000Y-170000000D03*
X65000000Y-170000000D03*
X80000000Y-165000000D03*
X85000000Y-165000000D03*
X85000000Y-170000000D03*
X80000000Y-170000000D03*
X95000000Y-165000000D03*
X100000000Y-165000000D03*
X100000000Y-170000000D03*
X95000000Y-170000000D03*
D18*
X133150000Y-137900000D03*
X107350000Y-38300000D03*
X112500000Y-157500000D03*
X100250000Y-157500000D03*
X85250000Y-157500000D03*
X70500000Y-157250000D03*
X54750000Y-157500000D03*
X145900000Y-170900000D03*
X155400000Y-171000000D03*
X135200000Y-170900000D03*
X126000000Y-171300000D03*
X115300000Y-170900000D03*
X104600000Y-165000000D03*
X89600000Y-164700000D03*
X74300000Y-165000000D03*
X59400000Y-164300000D03*
X90134702Y-137289298D03*
X93700000Y-134400000D03*
X96950000Y-134700000D03*
X96139000Y-141986000D03*
X138176000Y-163076000D03*
X135890000Y-162052000D03*
X131699000Y-152527000D03*
X135500000Y-153040000D03*
X122300000Y-146000000D03*
X133096000Y-151003000D03*
X121250000Y-145415000D03*
X109550000Y-147800000D03*
X108750000Y-146800000D03*
X97155000Y-150495000D03*
X129850000Y-136250000D03*
X128524000Y-135636000D03*
X96700000Y-146385002D03*
X134747000Y-164338000D03*
X124841000Y-163957000D03*
X114681000Y-164465000D03*
X132350000Y-145150000D03*
X103700000Y-38200000D03*
X107250000Y-153000000D03*
X90000000Y-153000000D03*
X75000000Y-152750000D03*
X60000000Y-153000000D03*
X46000000Y-153000000D03*
X155500000Y-163500000D03*
X145500000Y-164100000D03*
X120150000Y-147000000D03*
X145050000Y-165950000D03*
X132334000Y-151638000D03*
X123300000Y-145500000D03*
X113372900Y-113893600D03*
X117700000Y-176050000D03*
X117195600Y-111912400D03*
X114858800Y-111315500D03*
D19*
X48250000Y-157500000D02*
X51950000Y-157500000D01*
X133970000Y-140760000D02*
X133970000Y-138720000D01*
X133970000Y-138720000D02*
X133150000Y-137900000D01*
X106790000Y-41500000D02*
X106790000Y-38860000D01*
X106790000Y-38860000D02*
X107350000Y-38300000D01*
X110800000Y-157500000D02*
X112500000Y-157500000D01*
X98300000Y-157500000D02*
X100250000Y-157500000D01*
X83300000Y-157500000D02*
X85250000Y-157500000D01*
X68300000Y-157500000D02*
X70250000Y-157500000D01*
X70250000Y-157500000D02*
X70500000Y-157250000D01*
X53050000Y-157500000D02*
X54750000Y-157500000D01*
X145600000Y-171200000D02*
X145900000Y-170900000D01*
X145400000Y-171200000D02*
X145600000Y-171200000D01*
X145600000Y-171200000D02*
X145800000Y-171000000D01*
X155200000Y-170800000D02*
X155400000Y-171000000D01*
X155200000Y-170800000D02*
X155400000Y-171000000D01*
X154480000Y-170080000D02*
X155200000Y-170800000D01*
X152540000Y-170080000D02*
X154480000Y-170080000D01*
X142540000Y-170080000D02*
X144280000Y-170080000D01*
X145400000Y-171200000D02*
X145500000Y-171200000D01*
X144280000Y-170080000D02*
X145400000Y-171200000D01*
X132540000Y-170080000D02*
X134380000Y-170080000D01*
X134380000Y-170080000D02*
X135200000Y-170900000D01*
X122540000Y-170080000D02*
X124780000Y-170080000D01*
X124780000Y-170080000D02*
X126000000Y-171300000D01*
X112540000Y-170080000D02*
X114480000Y-170080000D01*
X114480000Y-170080000D02*
X115300000Y-170900000D01*
X100000000Y-170000000D02*
X100000000Y-165000000D01*
X100000000Y-165000000D02*
X104600000Y-165000000D01*
X85000000Y-170000000D02*
X85000000Y-165000000D01*
X85000000Y-165000000D02*
X85300000Y-164700000D01*
X85300000Y-164700000D02*
X89600000Y-164700000D01*
X70000000Y-170000000D02*
X70000000Y-165000000D01*
X70000000Y-165000000D02*
X74300000Y-165000000D01*
X55000000Y-170000000D02*
X55000000Y-165000000D01*
X55000000Y-165000000D02*
X55700000Y-164300000D01*
X55700000Y-164300000D02*
X59400000Y-164300000D01*
X63250000Y-157500000D02*
X66700000Y-157500000D01*
X107500000Y-155750000D02*
X108100000Y-155750000D01*
X108100000Y-155750000D02*
X109200000Y-156850000D01*
X109200000Y-156850000D02*
X109200000Y-157500000D01*
X78250000Y-157500000D02*
X81700000Y-157500000D01*
X93250000Y-157500000D02*
X96700000Y-157500000D01*
X156950000Y-59700000D02*
X156950000Y-134350000D01*
X156950000Y-134350000D02*
X156950000Y-135350000D01*
X151750000Y-143300000D02*
X152850000Y-143300000D01*
X152850000Y-143300000D02*
X156950000Y-139200000D01*
X156950000Y-139200000D02*
X156950000Y-134350000D01*
X136400000Y-39150000D02*
X156950000Y-59700000D01*
X126920000Y-39150000D02*
X136400000Y-39150000D01*
X124570000Y-41500000D02*
X126920000Y-39150000D01*
X154250000Y-60650000D02*
X154250000Y-134750000D01*
X154250000Y-134750000D02*
X154250000Y-135000000D01*
X151750000Y-140760000D02*
X152599999Y-139910001D01*
X152599999Y-139910001D02*
X152599999Y-136400001D01*
X152599999Y-136400001D02*
X154250000Y-134750000D01*
X135100000Y-41500000D02*
X154250000Y-60650000D01*
X127110000Y-41500000D02*
X135100000Y-41500000D01*
X90300000Y-137450000D02*
X90134702Y-137289298D01*
X90134702Y-137289298D02*
X82600000Y-129750000D01*
X103100000Y-150250000D02*
X90300000Y-137450000D01*
X96650000Y-134400000D02*
X93700000Y-134400000D01*
X96950000Y-134700000D02*
X96650000Y-134400000D01*
X118950000Y-101350000D02*
X120665001Y-103065001D01*
X120665001Y-103065001D02*
X120665001Y-108075001D01*
X120665001Y-108075001D02*
X121180001Y-108590001D01*
X121180001Y-108590001D02*
X122030000Y-109440000D01*
X82600000Y-101950000D02*
X83200000Y-101350000D01*
X83200000Y-101350000D02*
X118950000Y-101350000D01*
X82600000Y-129750000D02*
X82600000Y-101950000D01*
X107550000Y-150250000D02*
X103100000Y-150250000D01*
X107799990Y-150499990D02*
X107550000Y-150250000D01*
X121364999Y-163964999D02*
X107899990Y-150499990D01*
X107899990Y-150499990D02*
X107799990Y-150499990D01*
X120000000Y-167540000D02*
X121364999Y-166175001D01*
X121364999Y-166175001D02*
X121364999Y-163964999D01*
X95950000Y-142150000D02*
X95975000Y-142150000D01*
X95975000Y-142150000D02*
X96139000Y-141986000D01*
X103200000Y-149400000D02*
X95950000Y-142150000D01*
X95950000Y-142150000D02*
X83250000Y-129450000D01*
X122540000Y-167540000D02*
X123389999Y-166690001D01*
X123635001Y-166690001D02*
X126225001Y-164100001D01*
X123389999Y-166690001D02*
X123635001Y-166690001D01*
X126225001Y-164100001D02*
X126225001Y-163499999D01*
X126225001Y-163499999D02*
X125425002Y-162700000D01*
X125425002Y-162700000D02*
X121550000Y-162700000D01*
X121550000Y-162700000D02*
X108250000Y-149400000D01*
X108250000Y-149400000D02*
X103200000Y-149400000D01*
X83250000Y-129450000D02*
X83250000Y-104050000D01*
X85250000Y-102050000D02*
X118100000Y-102050000D01*
X83250000Y-104050000D02*
X85250000Y-102050000D01*
X118100000Y-102050000D02*
X119490000Y-103440000D01*
X119490000Y-103440000D02*
X119490000Y-106900000D01*
X138700000Y-163600000D02*
X138176000Y-163076000D01*
X138176000Y-163076000D02*
X137650000Y-162550000D01*
X137650000Y-162550000D02*
X132750000Y-157650000D01*
X126800000Y-144350000D02*
X126800000Y-119450000D01*
X126800000Y-119450000D02*
X125200000Y-117850000D01*
X126899990Y-144449990D02*
X126800000Y-144350000D01*
X132750000Y-157600000D02*
X126899990Y-151749990D01*
X126899990Y-151749990D02*
X126899990Y-144449990D01*
X132750000Y-157650000D02*
X132750000Y-157600000D01*
X138700000Y-166240000D02*
X138700000Y-163600000D01*
X125200000Y-117850000D02*
X119077919Y-117850000D01*
X119077919Y-117850000D02*
X111870000Y-110642081D01*
X111870000Y-110642081D02*
X111870000Y-109440000D01*
X140000000Y-167540000D02*
X138700000Y-166240000D01*
X135890000Y-162052000D02*
X126449981Y-152611981D01*
X126449981Y-152249981D02*
X126150000Y-151950000D01*
X126449981Y-152611981D02*
X126449981Y-152249981D01*
X136350000Y-162150000D02*
X135988000Y-162150000D01*
X135988000Y-162150000D02*
X135890000Y-162052000D01*
X137050000Y-162850000D02*
X136350000Y-162150000D01*
X142540000Y-167540000D02*
X141175001Y-168904999D01*
X126349991Y-140649991D02*
X126100000Y-140400000D01*
X141175001Y-168904999D02*
X139625997Y-168904999D01*
X126150000Y-151950000D02*
X126150000Y-150650000D01*
X139625997Y-168904999D02*
X137050000Y-166329002D01*
X137050000Y-166329002D02*
X137050000Y-162850000D01*
X126150000Y-150650000D02*
X124100000Y-148600000D01*
X110694999Y-110103490D02*
X110694999Y-108264999D01*
X124100000Y-148600000D02*
X124100000Y-147500000D01*
X124100000Y-147500000D02*
X126349991Y-145250009D01*
X126100000Y-140400000D02*
X126100000Y-121500000D01*
X126349991Y-145250009D02*
X126349991Y-140649991D01*
X126100000Y-121500000D02*
X122950000Y-118350000D01*
X122950000Y-118350000D02*
X118941509Y-118350000D01*
X118941509Y-118350000D02*
X110694999Y-110103490D01*
X110694999Y-108264999D02*
X110179999Y-107749999D01*
X110179999Y-107749999D02*
X109330000Y-106900000D01*
X133885247Y-152676369D02*
X131848369Y-152676369D01*
X131848369Y-152676369D02*
X131699000Y-152527000D01*
X150000000Y-167540000D02*
X135500000Y-153040000D01*
X135500000Y-153040000D02*
X135136369Y-152676369D01*
X122300000Y-125450000D02*
X121597919Y-125450000D01*
X121597919Y-125450000D02*
X106790000Y-110642081D01*
X106790000Y-110642081D02*
X106790000Y-109440000D01*
X122300000Y-146000000D02*
X122300000Y-125450000D01*
X135136369Y-152676369D02*
X133885247Y-152676369D01*
X133096000Y-151003000D02*
X133276286Y-151183286D01*
X133276286Y-151183286D02*
X133276286Y-151324999D01*
X121250000Y-126450000D02*
X121250000Y-145415000D01*
X151175001Y-166175001D02*
X151690001Y-166690001D01*
X133276286Y-151324999D02*
X138610001Y-151324999D01*
X138610001Y-151324999D02*
X151175001Y-163889999D01*
X151175001Y-163889999D02*
X151175001Y-166175001D01*
X151690001Y-166690001D02*
X152540000Y-167540000D01*
X105614999Y-110814999D02*
X121250000Y-126450000D01*
X104250000Y-106900000D02*
X105350000Y-106900000D01*
X105614999Y-107164999D02*
X105614999Y-110814999D01*
X105350000Y-106900000D02*
X105614999Y-107164999D01*
X122750000Y-161000000D02*
X129250000Y-161000000D01*
X129250000Y-161000000D02*
X131175001Y-162925001D01*
X131175001Y-162925001D02*
X131175001Y-166364999D01*
X131175001Y-166364999D02*
X130849999Y-166690001D01*
X130849999Y-166690001D02*
X130000000Y-167540000D01*
X109550000Y-147800000D02*
X122750000Y-161000000D01*
X103950000Y-147800000D02*
X109550000Y-147800000D01*
X84750000Y-128600000D02*
X103950000Y-147800000D01*
X84750000Y-104800000D02*
X84750000Y-128600000D01*
X114900000Y-103800000D02*
X85750000Y-103800000D01*
X85750000Y-103800000D02*
X84750000Y-104800000D01*
X115774999Y-104674999D02*
X114900000Y-103800000D01*
X116950000Y-109440000D02*
X115774999Y-108264999D01*
X115774999Y-108264999D02*
X115774999Y-104674999D01*
X109950000Y-146800000D02*
X108750000Y-146800000D01*
X108750000Y-146800000D02*
X104050000Y-146800000D01*
X87000000Y-104550000D02*
X112060000Y-104550000D01*
X132540000Y-167540000D02*
X133742081Y-167540000D01*
X103550000Y-145700000D02*
X85650000Y-127800000D01*
X133742081Y-167540000D02*
X135925001Y-165357080D01*
X135925001Y-165357080D02*
X135925001Y-163599999D01*
X112110000Y-104500000D02*
X112600000Y-104500000D01*
X135925001Y-163599999D02*
X132675002Y-160350000D01*
X132675002Y-160350000D02*
X123500000Y-160350000D01*
X123500000Y-160350000D02*
X109950000Y-146800000D01*
X104050000Y-146800000D02*
X103550000Y-146300000D01*
X85650000Y-127800000D02*
X85650000Y-105900000D01*
X103550000Y-146300000D02*
X103550000Y-145700000D01*
X113400000Y-104400000D02*
X114410000Y-105410000D01*
X85650000Y-105900000D02*
X87000000Y-104550000D01*
X112060000Y-104550000D02*
X112110000Y-104500000D01*
X112600000Y-104500000D02*
X112700000Y-104400000D01*
X112700000Y-104400000D02*
X113400000Y-104400000D01*
X114410000Y-105410000D02*
X114410000Y-106900000D01*
X108350000Y-162500000D02*
X97155000Y-150495000D01*
X97155000Y-150495000D02*
X79650000Y-133800000D01*
X135145001Y-137945001D02*
X133450000Y-136250000D01*
X133450000Y-136250000D02*
X129850000Y-136250000D01*
X139050000Y-143300000D02*
X137685001Y-141935001D01*
X137685001Y-141935001D02*
X135945999Y-141935001D01*
X135945999Y-141935001D02*
X135145001Y-141134003D01*
X135145001Y-141134003D02*
X135145001Y-137945001D01*
X125400000Y-98650000D02*
X125934999Y-99184999D01*
X125934999Y-99184999D02*
X125934999Y-108075001D01*
X125934999Y-108075001D02*
X125419999Y-108590001D01*
X125419999Y-108590001D02*
X124570000Y-109440000D01*
X124600000Y-98650000D02*
X125400000Y-98650000D01*
X81350000Y-98600000D02*
X124550000Y-98600000D01*
X124550000Y-98600000D02*
X124600000Y-98650000D01*
X79650000Y-100300000D02*
X81350000Y-98600000D01*
X79650000Y-133800000D02*
X79650000Y-100300000D01*
X109785002Y-162500000D02*
X108350000Y-162500000D01*
X110000000Y-167540000D02*
X111175001Y-166364999D01*
X111175001Y-166364999D02*
X111175001Y-163889999D01*
X111175001Y-163889999D02*
X109785002Y-162500000D01*
X133640000Y-135350000D02*
X128810000Y-135350000D01*
X128810000Y-135350000D02*
X128524000Y-135636000D01*
X111114998Y-160800000D02*
X96700000Y-146385002D01*
X96700000Y-146385002D02*
X83664998Y-133350000D01*
X139050000Y-140760000D02*
X133640000Y-135350000D01*
X112540000Y-167540000D02*
X113742081Y-167540000D01*
X113742081Y-167540000D02*
X115725001Y-165557080D01*
X115725001Y-165557080D02*
X115725001Y-163999999D01*
X82300000Y-99350000D02*
X124750000Y-99350000D01*
X115725001Y-163999999D02*
X112525002Y-160800000D01*
X112525002Y-160800000D02*
X111114998Y-160800000D01*
X81750000Y-133350000D02*
X80750000Y-132350000D01*
X83664998Y-133350000D02*
X81750000Y-133350000D01*
X80750000Y-100900000D02*
X82300000Y-99350000D01*
X80750000Y-132350000D02*
X80750000Y-100900000D01*
X124750000Y-99350000D02*
X124570000Y-99530000D01*
X124570000Y-99530000D02*
X124570000Y-106900000D01*
X104250000Y-44040000D02*
X104250000Y-72250000D01*
X139160000Y-145950000D02*
X136510000Y-143300000D01*
X141900000Y-145950000D02*
X139160000Y-145950000D01*
X142850000Y-145000000D02*
X141900000Y-145950000D01*
X142850000Y-110850000D02*
X142850000Y-145000000D01*
X104250000Y-72250000D02*
X142850000Y-110850000D01*
X134200000Y-165000000D02*
X134200000Y-164885000D01*
X134200000Y-164885000D02*
X134747000Y-164338000D01*
X124400000Y-165000000D02*
X124400000Y-164398000D01*
X124400000Y-164398000D02*
X124841000Y-163957000D01*
X114400000Y-165000000D02*
X114400000Y-164746000D01*
X114400000Y-164746000D02*
X114681000Y-164465000D01*
X133970000Y-143300000D02*
X132350000Y-144920000D01*
X132350000Y-144920000D02*
X132350000Y-145150000D01*
X104250000Y-41500000D02*
X104250000Y-38750000D01*
X104250000Y-38750000D02*
X103700000Y-38200000D01*
X107500000Y-154250000D02*
X107500000Y-153250000D01*
X107500000Y-153250000D02*
X107250000Y-153000000D01*
X90000000Y-154250000D02*
X90000000Y-153000000D01*
X75000000Y-154250000D02*
X75000000Y-152750000D01*
X60000000Y-154250000D02*
X60000000Y-153000000D01*
X45000000Y-154250000D02*
X45000000Y-154000000D01*
X45000000Y-154000000D02*
X46000000Y-153000000D01*
X152540000Y-165000000D02*
X154000000Y-165000000D01*
X154000000Y-165000000D02*
X155500000Y-163500000D01*
X142540000Y-165000000D02*
X144600000Y-165000000D01*
X144600000Y-165000000D02*
X145500000Y-164100000D01*
X132540000Y-165000000D02*
X134200000Y-165000000D01*
X124400000Y-165000000D02*
X122540000Y-165000000D01*
X112540000Y-165000000D02*
X114400000Y-165000000D01*
X120000000Y-126150000D02*
X119757919Y-126150000D01*
X119757919Y-126150000D02*
X104250000Y-110642081D01*
X120000000Y-145725002D02*
X120000000Y-126150000D01*
X119900000Y-145825002D02*
X120000000Y-145725002D01*
X120150000Y-147000000D02*
X121074998Y-147000000D01*
X121074998Y-147000000D02*
X119900000Y-145825002D01*
X104250000Y-110642081D02*
X104250000Y-109440000D01*
X150000000Y-170080000D02*
X145870000Y-165950000D01*
X145870000Y-165950000D02*
X145050000Y-165950000D01*
X76750000Y-157500000D02*
X76750000Y-157300000D01*
X76750000Y-157300000D02*
X75200000Y-155750000D01*
X75200000Y-155750000D02*
X75000000Y-155750000D01*
X76500000Y-161500000D02*
X76750000Y-161250000D01*
X76750000Y-161250000D02*
X76750000Y-157500000D01*
X80000000Y-165000000D02*
X76500000Y-161500000D01*
X80000000Y-170000000D02*
X80000000Y-165000000D01*
X133550000Y-151950000D02*
X132646000Y-151950000D01*
X132646000Y-151950000D02*
X132334000Y-151638000D01*
X123300000Y-145500000D02*
X123300000Y-125339000D01*
X123300000Y-125339000D02*
X107965001Y-110004001D01*
X107965001Y-110004001D02*
X107965001Y-108075001D01*
X107965001Y-108075001D02*
X107639999Y-107749999D01*
X107639999Y-107749999D02*
X106790000Y-106900000D01*
X150000000Y-165000000D02*
X148900000Y-165000000D01*
X148900000Y-165000000D02*
X135850000Y-151950000D01*
X135850000Y-151950000D02*
X133550000Y-151950000D01*
X109330000Y-109440000D02*
X113372900Y-113648536D01*
X113372900Y-113648536D02*
X113372900Y-113893600D01*
X140000000Y-170080000D02*
X134030000Y-176050000D01*
X134030000Y-176050000D02*
X130975002Y-176050000D01*
X130975002Y-176050000D02*
X117700000Y-176050000D01*
X65000000Y-165000000D02*
X65000000Y-163250000D01*
X61750000Y-160000000D02*
X61750000Y-157500000D01*
X65000000Y-163250000D02*
X61750000Y-160000000D01*
X65000000Y-170000000D02*
X65000000Y-165000000D01*
X60000000Y-155750000D02*
X61750000Y-157500000D01*
X128168400Y-117513100D02*
X118440200Y-116535200D01*
X118440200Y-116535200D02*
X113045001Y-111045001D01*
X113045001Y-111045001D02*
X113045001Y-108075001D01*
X113045001Y-108075001D02*
X112719999Y-107749999D01*
X112719999Y-107749999D02*
X111870000Y-106900000D01*
X127350000Y-151250000D02*
X128168400Y-117513100D01*
X140000000Y-165000000D02*
X140000000Y-163900000D01*
X140000000Y-163900000D02*
X127350000Y-151250000D01*
X114410000Y-109440000D02*
X117255600Y-111852400D01*
X117255600Y-111852400D02*
X117195600Y-111912400D01*
X118895001Y-168904999D02*
X112100000Y-175700000D01*
X112100000Y-175700000D02*
X100700000Y-175700000D01*
X100700000Y-175700000D02*
X95999999Y-170999999D01*
X95999999Y-170999999D02*
X95000000Y-170000000D01*
X130000000Y-170080000D02*
X128824999Y-168904999D01*
X128824999Y-168904999D02*
X118895001Y-168904999D01*
X90000000Y-155750000D02*
X90200000Y-155750000D01*
X90200000Y-155750000D02*
X91750000Y-157300000D01*
X91750000Y-157300000D02*
X91750000Y-157500000D01*
X95000000Y-165000000D02*
X95000000Y-163585787D01*
X95000000Y-163585787D02*
X91750000Y-160335787D01*
X91750000Y-160335787D02*
X91750000Y-157500000D01*
X95000000Y-170000000D02*
X95000000Y-168585787D01*
X95000000Y-168585787D02*
X95000000Y-165000000D01*
X130000000Y-165000000D02*
X128361412Y-165000000D01*
X128361412Y-165000000D02*
X125261412Y-161900000D01*
X84200000Y-104650000D02*
X85850000Y-103000000D01*
X116950000Y-104200000D02*
X116950000Y-106900000D01*
X125261412Y-161900000D02*
X122400000Y-161900000D01*
X85850000Y-103000000D02*
X115750000Y-103000000D01*
X122400000Y-161900000D02*
X109050000Y-148550000D01*
X103750000Y-148550000D02*
X84200000Y-129000000D01*
X109050000Y-148550000D02*
X103750000Y-148550000D01*
X84200000Y-129000000D02*
X84200000Y-104650000D01*
X115750000Y-103000000D02*
X116950000Y-104200000D01*
X116732081Y-113700000D02*
X114958800Y-111415500D01*
X115108800Y-111365500D02*
X115008800Y-111265500D01*
X119490000Y-109440000D02*
X120240000Y-110092081D01*
X120240000Y-110092081D02*
X116732081Y-113700000D01*
X117800000Y-172280000D02*
X112030000Y-178050000D01*
X120000000Y-170080000D02*
X117800000Y-172280000D01*
X112030000Y-178050000D02*
X58050000Y-178050000D01*
X58050000Y-178050000D02*
X50000000Y-170000000D01*
X50000000Y-165000000D02*
X50000000Y-164750000D01*
X50000000Y-164750000D02*
X46750000Y-161500000D01*
X46750000Y-161500000D02*
X46750000Y-157500000D01*
X50000000Y-170000000D02*
X50000000Y-165000000D01*
X45000000Y-155750000D02*
X46750000Y-157500000D01*
X120200000Y-100200000D02*
X122030000Y-102030000D01*
X122030000Y-102030000D02*
X122030000Y-106900000D01*
X119400000Y-100200000D02*
X120200000Y-100200000D01*
X119300000Y-100100000D02*
X119400000Y-100200000D01*
X83100000Y-100100000D02*
X119300000Y-100100000D01*
X81650000Y-101550000D02*
X83100000Y-100100000D01*
X81650000Y-130150000D02*
X81650000Y-101550000D01*
X102450000Y-150950000D02*
X81650000Y-130150000D01*
X107050000Y-150950000D02*
X102450000Y-150950000D01*
X120000000Y-165000000D02*
X120000000Y-163900000D01*
X120000000Y-163900000D02*
X107050000Y-150950000D01*
X127500000Y-97800000D02*
X127110000Y-98190000D01*
X127110000Y-98190000D02*
X127110000Y-106900000D01*
X80700000Y-97800000D02*
X127500000Y-97800000D01*
X78650000Y-99850000D02*
X80700000Y-97800000D01*
X78650000Y-134750000D02*
X78650000Y-99850000D01*
X110000000Y-165000000D02*
X108900000Y-165000000D01*
X108900000Y-165000000D02*
X78650000Y-134750000D01*
M02*
