M48
;DRILL file {KiCad 4.0.6} date Monday, August 21, 2017 'PMt' 07:16:50 PM
;FORMAT={2:4/ absolute / inch / suppress leading zeros}
FMAT,2
INCH,TZ
T1C0.016
T2C0.039
T3C0.043
%
G90
G05
M72
T1
X18110Y-60236
X21555Y-62008
X23386Y-64685
X23622Y-60236
X27756Y-61909
X29252Y-64961
X29528Y-60138
X33563Y-62008
X35276Y-64843
X35433Y-60236
X35551Y-54114
X36890Y-52913
X37776Y-55965
X38071Y-57632
X38169Y-53031
X38250Y-59250
X39469Y-62008
X40827Y-15039
X41181Y-64961
X42224Y-60236
X42264Y-15079
X42815Y-57795
X43130Y-58189
X44291Y-62008
X44635Y-44840
X45220Y-43825
X45315Y-64685
X45394Y-67283
X46140Y-44060
X46339Y-69311
X47303Y-57874
X47736Y-57579
X48150Y-57480
X48543Y-57283
X49449Y-64488
X49606Y-67441
X51102Y-53287
X51122Y-53642
X52106Y-57146
X52421Y-54291
X52537Y-59511
X52579Y-59823
X52711Y-60109
X53228Y-67283
X53268Y-64528
X53346Y-60252
X53681Y-63839
X54193Y-63996
X57106Y-65335
X57283Y-64606
X57441Y-67283
X61181Y-67323
X61220Y-64370
T2
X41043Y-16339
X41043Y-17339
X41043Y-42087
X41043Y-43087
X42043Y-16339
X42043Y-17339
X42043Y-42087
X42043Y-43087
X43043Y-16339
X43043Y-17339
X43043Y-42087
X43043Y-43087
X43307Y-64961
X43307Y-65961
X43307Y-66961
X44043Y-16339
X44043Y-17339
X44043Y-42087
X44043Y-43087
X44307Y-64961
X44307Y-65961
X44307Y-66961
X45043Y-16339
X45043Y-17339
X45043Y-42087
X45043Y-43087
X46043Y-16339
X46043Y-17339
X46043Y-42087
X46043Y-43087
X47043Y-16339
X47043Y-17339
X47043Y-42087
X47043Y-43087
X47244Y-64961
X47244Y-65961
X47244Y-66961
X48043Y-16339
X48043Y-17339
X48043Y-42087
X48043Y-43087
X48244Y-64961
X48244Y-65961
X48244Y-66961
X49043Y-16339
X49043Y-17339
X49043Y-42087
X49043Y-43087
X50043Y-16339
X50043Y-17339
X50043Y-42087
X50043Y-43087
X51181Y-64961
X51181Y-65961
X51181Y-66961
X52181Y-64961
X52181Y-65961
X52181Y-66961
X52744Y-55417
X52744Y-56417
X53744Y-55417
X53744Y-56417
X54744Y-55417
X54744Y-56417
X55118Y-64961
X55118Y-65961
X55118Y-66961
X55744Y-55417
X55744Y-56417
X56118Y-64961
X56118Y-65961
X56118Y-66961
X56744Y-55417
X56744Y-56417
X57744Y-55417
X57744Y-56417
X58744Y-55417
X58744Y-56417
X59055Y-64961
X59055Y-65961
X59055Y-66961
X59744Y-55417
X59744Y-56417
X60055Y-64961
X60055Y-65961
X60055Y-66961
T3
X19685Y-64961
X19685Y-66929
X21654Y-64961
X21654Y-66929
X25591Y-64961
X25591Y-66929
X27559Y-64961
X27559Y-66929
X31496Y-64961
X31496Y-66929
X33465Y-64961
X33465Y-66929
X37402Y-64961
X37402Y-66929
X39370Y-64961
X39370Y-66929
T0
M30
