G04 #@! TF.FileFunction,Copper,L3,Inr,Plane*
%FSLAX46Y46*%
G04 Gerber Fmt 4.6, Leading zero omitted, Abs format (unit mm)*
G04 Created by KiCad (PCBNEW 4.0.6) date Monday, August 21, 2017 'PMt' 07:16:47 PM*
%MOMM*%
%LPD*%
G01*
G04 APERTURE LIST*
%ADD10C,0.100000*%
%ADD11R,1.700000X1.700000*%
%ADD12O,1.700000X1.700000*%
%ADD13C,2.000000*%
%ADD14C,0.600000*%
%ADD15C,0.254000*%
G04 APERTURE END LIST*
D10*
D11*
X151750000Y-143300000D03*
D12*
X151750000Y-140760000D03*
X149210000Y-143300000D03*
X149210000Y-140760000D03*
X146670000Y-143300000D03*
X146670000Y-140760000D03*
X144130000Y-143300000D03*
X144130000Y-140760000D03*
X141590000Y-143300000D03*
X141590000Y-140760000D03*
X139050000Y-143300000D03*
X139050000Y-140760000D03*
X136510000Y-143300000D03*
X136510000Y-140760000D03*
X133970000Y-143300000D03*
X133970000Y-140760000D03*
D11*
X104250000Y-41500000D03*
D12*
X104250000Y-44040000D03*
X106790000Y-41500000D03*
X106790000Y-44040000D03*
X109330000Y-41500000D03*
X109330000Y-44040000D03*
X111870000Y-41500000D03*
X111870000Y-44040000D03*
X114410000Y-41500000D03*
X114410000Y-44040000D03*
X116950000Y-41500000D03*
X116950000Y-44040000D03*
X119490000Y-41500000D03*
X119490000Y-44040000D03*
X122030000Y-41500000D03*
X122030000Y-44040000D03*
X124570000Y-41500000D03*
X124570000Y-44040000D03*
X127110000Y-41500000D03*
X127110000Y-44040000D03*
D11*
X104250000Y-106900000D03*
D12*
X104250000Y-109440000D03*
X106790000Y-106900000D03*
X106790000Y-109440000D03*
X109330000Y-106900000D03*
X109330000Y-109440000D03*
X111870000Y-106900000D03*
X111870000Y-109440000D03*
X114410000Y-106900000D03*
X114410000Y-109440000D03*
X116950000Y-106900000D03*
X116950000Y-109440000D03*
X119490000Y-106900000D03*
X119490000Y-109440000D03*
X122030000Y-106900000D03*
X122030000Y-109440000D03*
X124570000Y-106900000D03*
X124570000Y-109440000D03*
X127110000Y-106900000D03*
X127110000Y-109440000D03*
D11*
X120000000Y-165000000D03*
D12*
X122540000Y-165000000D03*
X120000000Y-167540000D03*
X122540000Y-167540000D03*
X120000000Y-170080000D03*
X122540000Y-170080000D03*
D11*
X140000000Y-165000000D03*
D12*
X142540000Y-165000000D03*
X140000000Y-167540000D03*
X142540000Y-167540000D03*
X140000000Y-170080000D03*
X142540000Y-170080000D03*
D11*
X150000000Y-165000000D03*
D12*
X152540000Y-165000000D03*
X150000000Y-167540000D03*
X152540000Y-167540000D03*
X150000000Y-170080000D03*
X152540000Y-170080000D03*
D11*
X110000000Y-165000000D03*
D12*
X112540000Y-165000000D03*
X110000000Y-167540000D03*
X112540000Y-167540000D03*
X110000000Y-170080000D03*
X112540000Y-170080000D03*
D11*
X130000000Y-165000000D03*
D12*
X132540000Y-165000000D03*
X130000000Y-167540000D03*
X132540000Y-167540000D03*
X130000000Y-170080000D03*
X132540000Y-170080000D03*
D13*
X50000000Y-165000000D03*
X55000000Y-165000000D03*
X55000000Y-170000000D03*
X50000000Y-170000000D03*
X65000000Y-165000000D03*
X70000000Y-165000000D03*
X70000000Y-170000000D03*
X65000000Y-170000000D03*
X80000000Y-165000000D03*
X85000000Y-165000000D03*
X85000000Y-170000000D03*
X80000000Y-170000000D03*
X95000000Y-165000000D03*
X100000000Y-165000000D03*
X100000000Y-170000000D03*
X95000000Y-170000000D03*
D14*
X133150000Y-137900000D03*
X107350000Y-38300000D03*
X112500000Y-157500000D03*
X100250000Y-157500000D03*
X85250000Y-157500000D03*
X70500000Y-157250000D03*
X54750000Y-157500000D03*
X145900000Y-170900000D03*
X155400000Y-171000000D03*
X135200000Y-170900000D03*
X126000000Y-171300000D03*
X115300000Y-170900000D03*
X104600000Y-165000000D03*
X89600000Y-164700000D03*
X74300000Y-165000000D03*
X59400000Y-164300000D03*
X90300000Y-137450000D03*
X93700000Y-134400000D03*
X96950000Y-134700000D03*
X95950000Y-142150000D03*
X137650000Y-162550000D03*
X136350000Y-162150000D03*
X135500000Y-153040000D03*
X122300000Y-146000000D03*
X133885247Y-152676369D03*
X133444269Y-151157016D03*
X121250000Y-146250000D03*
X109550000Y-147800000D03*
X108750000Y-146800000D03*
X97155000Y-150495000D03*
X129850000Y-136250000D03*
X96700000Y-146385002D03*
X129800000Y-135350000D03*
X132350000Y-145150000D03*
X103700000Y-38200000D03*
X107250000Y-153000000D03*
X90000000Y-153000000D03*
X75000000Y-152750000D03*
X60000000Y-153000000D03*
X46000000Y-153000000D03*
X155500000Y-163500000D03*
X145500000Y-164100000D03*
X135300000Y-163900000D03*
X125600000Y-163800000D03*
X115100000Y-164300000D03*
X120150000Y-147000000D03*
X145050000Y-165950000D03*
X123300000Y-145500000D03*
X133550000Y-151950000D03*
X113372900Y-113893600D03*
X117700000Y-176050000D03*
X117195600Y-111912400D03*
X114858800Y-111315500D03*
D15*
G36*
X159290000Y-179290000D02*
X40710000Y-179290000D01*
X40710000Y-176235167D01*
X116764838Y-176235167D01*
X116906883Y-176578943D01*
X117169673Y-176842192D01*
X117513201Y-176984838D01*
X117885167Y-176985162D01*
X118228943Y-176843117D01*
X118492192Y-176580327D01*
X118634838Y-176236799D01*
X118635162Y-175864833D01*
X118493117Y-175521057D01*
X118230327Y-175257808D01*
X117886799Y-175115162D01*
X117514833Y-175114838D01*
X117171057Y-175256883D01*
X116907808Y-175519673D01*
X116765162Y-175863201D01*
X116764838Y-176235167D01*
X40710000Y-176235167D01*
X40710000Y-170323795D01*
X48364716Y-170323795D01*
X48613106Y-170924943D01*
X49072637Y-171385278D01*
X49673352Y-171634716D01*
X50323795Y-171635284D01*
X50924943Y-171386894D01*
X51385278Y-170927363D01*
X51634716Y-170326648D01*
X51634718Y-170323795D01*
X53364716Y-170323795D01*
X53613106Y-170924943D01*
X54072637Y-171385278D01*
X54673352Y-171634716D01*
X55323795Y-171635284D01*
X55924943Y-171386894D01*
X56385278Y-170927363D01*
X56634716Y-170326648D01*
X56634718Y-170323795D01*
X63364716Y-170323795D01*
X63613106Y-170924943D01*
X64072637Y-171385278D01*
X64673352Y-171634716D01*
X65323795Y-171635284D01*
X65924943Y-171386894D01*
X66385278Y-170927363D01*
X66634716Y-170326648D01*
X66634718Y-170323795D01*
X68364716Y-170323795D01*
X68613106Y-170924943D01*
X69072637Y-171385278D01*
X69673352Y-171634716D01*
X70323795Y-171635284D01*
X70924943Y-171386894D01*
X71385278Y-170927363D01*
X71634716Y-170326648D01*
X71634718Y-170323795D01*
X78364716Y-170323795D01*
X78613106Y-170924943D01*
X79072637Y-171385278D01*
X79673352Y-171634716D01*
X80323795Y-171635284D01*
X80924943Y-171386894D01*
X81385278Y-170927363D01*
X81634716Y-170326648D01*
X81634718Y-170323795D01*
X83364716Y-170323795D01*
X83613106Y-170924943D01*
X84072637Y-171385278D01*
X84673352Y-171634716D01*
X85323795Y-171635284D01*
X85924943Y-171386894D01*
X86385278Y-170927363D01*
X86634716Y-170326648D01*
X86634718Y-170323795D01*
X93364716Y-170323795D01*
X93613106Y-170924943D01*
X94072637Y-171385278D01*
X94673352Y-171634716D01*
X95323795Y-171635284D01*
X95924943Y-171386894D01*
X96385278Y-170927363D01*
X96634716Y-170326648D01*
X96634718Y-170323795D01*
X98364716Y-170323795D01*
X98613106Y-170924943D01*
X99072637Y-171385278D01*
X99673352Y-171634716D01*
X100323795Y-171635284D01*
X100924943Y-171386894D01*
X101385278Y-170927363D01*
X101634716Y-170326648D01*
X101635284Y-169676205D01*
X101386894Y-169075057D01*
X100927363Y-168614722D01*
X100326648Y-168365284D01*
X99676205Y-168364716D01*
X99075057Y-168613106D01*
X98614722Y-169072637D01*
X98365284Y-169673352D01*
X98364716Y-170323795D01*
X96634718Y-170323795D01*
X96635284Y-169676205D01*
X96386894Y-169075057D01*
X95927363Y-168614722D01*
X95326648Y-168365284D01*
X94676205Y-168364716D01*
X94075057Y-168613106D01*
X93614722Y-169072637D01*
X93365284Y-169673352D01*
X93364716Y-170323795D01*
X86634718Y-170323795D01*
X86635284Y-169676205D01*
X86386894Y-169075057D01*
X85927363Y-168614722D01*
X85326648Y-168365284D01*
X84676205Y-168364716D01*
X84075057Y-168613106D01*
X83614722Y-169072637D01*
X83365284Y-169673352D01*
X83364716Y-170323795D01*
X81634718Y-170323795D01*
X81635284Y-169676205D01*
X81386894Y-169075057D01*
X80927363Y-168614722D01*
X80326648Y-168365284D01*
X79676205Y-168364716D01*
X79075057Y-168613106D01*
X78614722Y-169072637D01*
X78365284Y-169673352D01*
X78364716Y-170323795D01*
X71634718Y-170323795D01*
X71635284Y-169676205D01*
X71386894Y-169075057D01*
X70927363Y-168614722D01*
X70326648Y-168365284D01*
X69676205Y-168364716D01*
X69075057Y-168613106D01*
X68614722Y-169072637D01*
X68365284Y-169673352D01*
X68364716Y-170323795D01*
X66634718Y-170323795D01*
X66635284Y-169676205D01*
X66386894Y-169075057D01*
X65927363Y-168614722D01*
X65326648Y-168365284D01*
X64676205Y-168364716D01*
X64075057Y-168613106D01*
X63614722Y-169072637D01*
X63365284Y-169673352D01*
X63364716Y-170323795D01*
X56634718Y-170323795D01*
X56635284Y-169676205D01*
X56386894Y-169075057D01*
X55927363Y-168614722D01*
X55326648Y-168365284D01*
X54676205Y-168364716D01*
X54075057Y-168613106D01*
X53614722Y-169072637D01*
X53365284Y-169673352D01*
X53364716Y-170323795D01*
X51634718Y-170323795D01*
X51635284Y-169676205D01*
X51386894Y-169075057D01*
X50927363Y-168614722D01*
X50326648Y-168365284D01*
X49676205Y-168364716D01*
X49075057Y-168613106D01*
X48614722Y-169072637D01*
X48365284Y-169673352D01*
X48364716Y-170323795D01*
X40710000Y-170323795D01*
X40710000Y-167540000D01*
X108485907Y-167540000D01*
X108598946Y-168108285D01*
X108920853Y-168590054D01*
X109250026Y-168810000D01*
X108920853Y-169029946D01*
X108598946Y-169511715D01*
X108485907Y-170080000D01*
X108598946Y-170648285D01*
X108920853Y-171130054D01*
X109402622Y-171451961D01*
X109970907Y-171565000D01*
X110029093Y-171565000D01*
X110597378Y-171451961D01*
X111079147Y-171130054D01*
X111270000Y-170844422D01*
X111460853Y-171130054D01*
X111942622Y-171451961D01*
X112510907Y-171565000D01*
X112569093Y-171565000D01*
X113137378Y-171451961D01*
X113619147Y-171130054D01*
X113649139Y-171085167D01*
X114364838Y-171085167D01*
X114506883Y-171428943D01*
X114769673Y-171692192D01*
X115113201Y-171834838D01*
X115485167Y-171835162D01*
X115828943Y-171693117D01*
X116092192Y-171430327D01*
X116234838Y-171086799D01*
X116235162Y-170714833D01*
X116093117Y-170371057D01*
X115830327Y-170107808D01*
X115486799Y-169965162D01*
X115114833Y-169964838D01*
X114771057Y-170106883D01*
X114507808Y-170369673D01*
X114365162Y-170713201D01*
X114364838Y-171085167D01*
X113649139Y-171085167D01*
X113941054Y-170648285D01*
X114054093Y-170080000D01*
X113941054Y-169511715D01*
X113619147Y-169029946D01*
X113289974Y-168810000D01*
X113619147Y-168590054D01*
X113941054Y-168108285D01*
X114054093Y-167540000D01*
X118485907Y-167540000D01*
X118598946Y-168108285D01*
X118920853Y-168590054D01*
X119250026Y-168810000D01*
X118920853Y-169029946D01*
X118598946Y-169511715D01*
X118485907Y-170080000D01*
X118598946Y-170648285D01*
X118920853Y-171130054D01*
X119402622Y-171451961D01*
X119970907Y-171565000D01*
X120029093Y-171565000D01*
X120597378Y-171451961D01*
X121079147Y-171130054D01*
X121270000Y-170844422D01*
X121460853Y-171130054D01*
X121942622Y-171451961D01*
X122510907Y-171565000D01*
X122569093Y-171565000D01*
X122970440Y-171485167D01*
X125064838Y-171485167D01*
X125206883Y-171828943D01*
X125469673Y-172092192D01*
X125813201Y-172234838D01*
X126185167Y-172235162D01*
X126528943Y-172093117D01*
X126792192Y-171830327D01*
X126934838Y-171486799D01*
X126935162Y-171114833D01*
X126793117Y-170771057D01*
X126530327Y-170507808D01*
X126186799Y-170365162D01*
X125814833Y-170364838D01*
X125471057Y-170506883D01*
X125207808Y-170769673D01*
X125065162Y-171113201D01*
X125064838Y-171485167D01*
X122970440Y-171485167D01*
X123137378Y-171451961D01*
X123619147Y-171130054D01*
X123941054Y-170648285D01*
X124054093Y-170080000D01*
X123941054Y-169511715D01*
X123619147Y-169029946D01*
X123289974Y-168810000D01*
X123619147Y-168590054D01*
X123941054Y-168108285D01*
X124054093Y-167540000D01*
X128485907Y-167540000D01*
X128598946Y-168108285D01*
X128920853Y-168590054D01*
X129250026Y-168810000D01*
X128920853Y-169029946D01*
X128598946Y-169511715D01*
X128485907Y-170080000D01*
X128598946Y-170648285D01*
X128920853Y-171130054D01*
X129402622Y-171451961D01*
X129970907Y-171565000D01*
X130029093Y-171565000D01*
X130597378Y-171451961D01*
X131079147Y-171130054D01*
X131270000Y-170844422D01*
X131460853Y-171130054D01*
X131942622Y-171451961D01*
X132510907Y-171565000D01*
X132569093Y-171565000D01*
X133137378Y-171451961D01*
X133619147Y-171130054D01*
X133649139Y-171085167D01*
X134264838Y-171085167D01*
X134406883Y-171428943D01*
X134669673Y-171692192D01*
X135013201Y-171834838D01*
X135385167Y-171835162D01*
X135728943Y-171693117D01*
X135992192Y-171430327D01*
X136134838Y-171086799D01*
X136135162Y-170714833D01*
X135993117Y-170371057D01*
X135730327Y-170107808D01*
X135386799Y-169965162D01*
X135014833Y-169964838D01*
X134671057Y-170106883D01*
X134407808Y-170369673D01*
X134265162Y-170713201D01*
X134264838Y-171085167D01*
X133649139Y-171085167D01*
X133941054Y-170648285D01*
X134054093Y-170080000D01*
X133941054Y-169511715D01*
X133619147Y-169029946D01*
X133289974Y-168810000D01*
X133619147Y-168590054D01*
X133941054Y-168108285D01*
X134054093Y-167540000D01*
X138485907Y-167540000D01*
X138598946Y-168108285D01*
X138920853Y-168590054D01*
X139250026Y-168810000D01*
X138920853Y-169029946D01*
X138598946Y-169511715D01*
X138485907Y-170080000D01*
X138598946Y-170648285D01*
X138920853Y-171130054D01*
X139402622Y-171451961D01*
X139970907Y-171565000D01*
X140029093Y-171565000D01*
X140597378Y-171451961D01*
X141079147Y-171130054D01*
X141270000Y-170844422D01*
X141460853Y-171130054D01*
X141942622Y-171451961D01*
X142510907Y-171565000D01*
X142569093Y-171565000D01*
X143137378Y-171451961D01*
X143619147Y-171130054D01*
X143649139Y-171085167D01*
X144964838Y-171085167D01*
X145106883Y-171428943D01*
X145369673Y-171692192D01*
X145713201Y-171834838D01*
X146085167Y-171835162D01*
X146428943Y-171693117D01*
X146692192Y-171430327D01*
X146834838Y-171086799D01*
X146835162Y-170714833D01*
X146693117Y-170371057D01*
X146430327Y-170107808D01*
X146086799Y-169965162D01*
X145714833Y-169964838D01*
X145371057Y-170106883D01*
X145107808Y-170369673D01*
X144965162Y-170713201D01*
X144964838Y-171085167D01*
X143649139Y-171085167D01*
X143941054Y-170648285D01*
X144054093Y-170080000D01*
X143941054Y-169511715D01*
X143619147Y-169029946D01*
X143289974Y-168810000D01*
X143619147Y-168590054D01*
X143941054Y-168108285D01*
X144054093Y-167540000D01*
X148485907Y-167540000D01*
X148598946Y-168108285D01*
X148920853Y-168590054D01*
X149250026Y-168810000D01*
X148920853Y-169029946D01*
X148598946Y-169511715D01*
X148485907Y-170080000D01*
X148598946Y-170648285D01*
X148920853Y-171130054D01*
X149402622Y-171451961D01*
X149970907Y-171565000D01*
X150029093Y-171565000D01*
X150597378Y-171451961D01*
X151079147Y-171130054D01*
X151270000Y-170844422D01*
X151460853Y-171130054D01*
X151942622Y-171451961D01*
X152510907Y-171565000D01*
X152569093Y-171565000D01*
X153137378Y-171451961D01*
X153536664Y-171185167D01*
X154464838Y-171185167D01*
X154606883Y-171528943D01*
X154869673Y-171792192D01*
X155213201Y-171934838D01*
X155585167Y-171935162D01*
X155928943Y-171793117D01*
X156192192Y-171530327D01*
X156334838Y-171186799D01*
X156335162Y-170814833D01*
X156193117Y-170471057D01*
X155930327Y-170207808D01*
X155586799Y-170065162D01*
X155214833Y-170064838D01*
X154871057Y-170206883D01*
X154607808Y-170469673D01*
X154465162Y-170813201D01*
X154464838Y-171185167D01*
X153536664Y-171185167D01*
X153619147Y-171130054D01*
X153941054Y-170648285D01*
X154054093Y-170080000D01*
X153941054Y-169511715D01*
X153619147Y-169029946D01*
X153289974Y-168810000D01*
X153619147Y-168590054D01*
X153941054Y-168108285D01*
X154054093Y-167540000D01*
X153941054Y-166971715D01*
X153619147Y-166489946D01*
X153278447Y-166262298D01*
X153421358Y-166195183D01*
X153811645Y-165766924D01*
X153981476Y-165356890D01*
X153860155Y-165127000D01*
X152667000Y-165127000D01*
X152667000Y-165147000D01*
X152413000Y-165147000D01*
X152413000Y-165127000D01*
X152393000Y-165127000D01*
X152393000Y-164873000D01*
X152413000Y-164873000D01*
X152413000Y-163679181D01*
X152667000Y-163679181D01*
X152667000Y-164873000D01*
X153860155Y-164873000D01*
X153981476Y-164643110D01*
X153811645Y-164233076D01*
X153421358Y-163804817D01*
X152896892Y-163558514D01*
X152667000Y-163679181D01*
X152413000Y-163679181D01*
X152183108Y-163558514D01*
X151658642Y-163804817D01*
X151471192Y-164010504D01*
X151453162Y-163914683D01*
X151314090Y-163698559D01*
X151101890Y-163553569D01*
X150850000Y-163502560D01*
X149150000Y-163502560D01*
X148914683Y-163546838D01*
X148698559Y-163685910D01*
X148553569Y-163898110D01*
X148502560Y-164150000D01*
X148502560Y-165850000D01*
X148546838Y-166085317D01*
X148685910Y-166301441D01*
X148898110Y-166446431D01*
X148965541Y-166460086D01*
X148920853Y-166489946D01*
X148598946Y-166971715D01*
X148485907Y-167540000D01*
X144054093Y-167540000D01*
X143941054Y-166971715D01*
X143619147Y-166489946D01*
X143278447Y-166262298D01*
X143421358Y-166195183D01*
X143476052Y-166135167D01*
X144114838Y-166135167D01*
X144256883Y-166478943D01*
X144519673Y-166742192D01*
X144863201Y-166884838D01*
X145235167Y-166885162D01*
X145578943Y-166743117D01*
X145842192Y-166480327D01*
X145984838Y-166136799D01*
X145985162Y-165764833D01*
X145843117Y-165421057D01*
X145580327Y-165157808D01*
X145236799Y-165015162D01*
X144864833Y-165014838D01*
X144521057Y-165156883D01*
X144257808Y-165419673D01*
X144115162Y-165763201D01*
X144114838Y-166135167D01*
X143476052Y-166135167D01*
X143811645Y-165766924D01*
X143981476Y-165356890D01*
X143860155Y-165127000D01*
X142667000Y-165127000D01*
X142667000Y-165147000D01*
X142413000Y-165147000D01*
X142413000Y-165127000D01*
X142393000Y-165127000D01*
X142393000Y-164873000D01*
X142413000Y-164873000D01*
X142413000Y-163679181D01*
X142667000Y-163679181D01*
X142667000Y-164873000D01*
X143860155Y-164873000D01*
X143981476Y-164643110D01*
X143811645Y-164233076D01*
X143421358Y-163804817D01*
X142896892Y-163558514D01*
X142667000Y-163679181D01*
X142413000Y-163679181D01*
X142183108Y-163558514D01*
X141658642Y-163804817D01*
X141471192Y-164010504D01*
X141453162Y-163914683D01*
X141314090Y-163698559D01*
X141101890Y-163553569D01*
X140850000Y-163502560D01*
X139150000Y-163502560D01*
X138914683Y-163546838D01*
X138698559Y-163685910D01*
X138553569Y-163898110D01*
X138502560Y-164150000D01*
X138502560Y-165850000D01*
X138546838Y-166085317D01*
X138685910Y-166301441D01*
X138898110Y-166446431D01*
X138965541Y-166460086D01*
X138920853Y-166489946D01*
X138598946Y-166971715D01*
X138485907Y-167540000D01*
X134054093Y-167540000D01*
X133941054Y-166971715D01*
X133619147Y-166489946D01*
X133278447Y-166262298D01*
X133421358Y-166195183D01*
X133811645Y-165766924D01*
X133981476Y-165356890D01*
X133860155Y-165127000D01*
X132667000Y-165127000D01*
X132667000Y-165147000D01*
X132413000Y-165147000D01*
X132413000Y-165127000D01*
X132393000Y-165127000D01*
X132393000Y-164873000D01*
X132413000Y-164873000D01*
X132413000Y-163679181D01*
X132667000Y-163679181D01*
X132667000Y-164873000D01*
X133860155Y-164873000D01*
X133981476Y-164643110D01*
X133811645Y-164233076D01*
X133421358Y-163804817D01*
X132896892Y-163558514D01*
X132667000Y-163679181D01*
X132413000Y-163679181D01*
X132183108Y-163558514D01*
X131658642Y-163804817D01*
X131471192Y-164010504D01*
X131453162Y-163914683D01*
X131314090Y-163698559D01*
X131101890Y-163553569D01*
X130850000Y-163502560D01*
X129150000Y-163502560D01*
X128914683Y-163546838D01*
X128698559Y-163685910D01*
X128553569Y-163898110D01*
X128502560Y-164150000D01*
X128502560Y-165850000D01*
X128546838Y-166085317D01*
X128685910Y-166301441D01*
X128898110Y-166446431D01*
X128965541Y-166460086D01*
X128920853Y-166489946D01*
X128598946Y-166971715D01*
X128485907Y-167540000D01*
X124054093Y-167540000D01*
X123941054Y-166971715D01*
X123619147Y-166489946D01*
X123278447Y-166262298D01*
X123421358Y-166195183D01*
X123811645Y-165766924D01*
X123981476Y-165356890D01*
X123860155Y-165127000D01*
X122667000Y-165127000D01*
X122667000Y-165147000D01*
X122413000Y-165147000D01*
X122413000Y-165127000D01*
X122393000Y-165127000D01*
X122393000Y-164873000D01*
X122413000Y-164873000D01*
X122413000Y-163679181D01*
X122667000Y-163679181D01*
X122667000Y-164873000D01*
X123860155Y-164873000D01*
X123981476Y-164643110D01*
X123811645Y-164233076D01*
X123421358Y-163804817D01*
X122896892Y-163558514D01*
X122667000Y-163679181D01*
X122413000Y-163679181D01*
X122183108Y-163558514D01*
X121658642Y-163804817D01*
X121471192Y-164010504D01*
X121453162Y-163914683D01*
X121314090Y-163698559D01*
X121101890Y-163553569D01*
X120850000Y-163502560D01*
X119150000Y-163502560D01*
X118914683Y-163546838D01*
X118698559Y-163685910D01*
X118553569Y-163898110D01*
X118502560Y-164150000D01*
X118502560Y-165850000D01*
X118546838Y-166085317D01*
X118685910Y-166301441D01*
X118898110Y-166446431D01*
X118965541Y-166460086D01*
X118920853Y-166489946D01*
X118598946Y-166971715D01*
X118485907Y-167540000D01*
X114054093Y-167540000D01*
X113941054Y-166971715D01*
X113619147Y-166489946D01*
X113278447Y-166262298D01*
X113421358Y-166195183D01*
X113811645Y-165766924D01*
X113981476Y-165356890D01*
X113860155Y-165127000D01*
X112667000Y-165127000D01*
X112667000Y-165147000D01*
X112413000Y-165147000D01*
X112413000Y-165127000D01*
X112393000Y-165127000D01*
X112393000Y-164873000D01*
X112413000Y-164873000D01*
X112413000Y-163679181D01*
X112667000Y-163679181D01*
X112667000Y-164873000D01*
X113860155Y-164873000D01*
X113981476Y-164643110D01*
X113811645Y-164233076D01*
X113421358Y-163804817D01*
X112896892Y-163558514D01*
X112667000Y-163679181D01*
X112413000Y-163679181D01*
X112183108Y-163558514D01*
X111658642Y-163804817D01*
X111471192Y-164010504D01*
X111453162Y-163914683D01*
X111314090Y-163698559D01*
X111101890Y-163553569D01*
X110850000Y-163502560D01*
X109150000Y-163502560D01*
X108914683Y-163546838D01*
X108698559Y-163685910D01*
X108553569Y-163898110D01*
X108502560Y-164150000D01*
X108502560Y-165850000D01*
X108546838Y-166085317D01*
X108685910Y-166301441D01*
X108898110Y-166446431D01*
X108965541Y-166460086D01*
X108920853Y-166489946D01*
X108598946Y-166971715D01*
X108485907Y-167540000D01*
X40710000Y-167540000D01*
X40710000Y-165323795D01*
X48364716Y-165323795D01*
X48613106Y-165924943D01*
X49072637Y-166385278D01*
X49673352Y-166634716D01*
X50323795Y-166635284D01*
X50924943Y-166386894D01*
X51385278Y-165927363D01*
X51634716Y-165326648D01*
X51634718Y-165323795D01*
X53364716Y-165323795D01*
X53613106Y-165924943D01*
X54072637Y-166385278D01*
X54673352Y-166634716D01*
X55323795Y-166635284D01*
X55924943Y-166386894D01*
X56385278Y-165927363D01*
X56634716Y-165326648D01*
X56634718Y-165323795D01*
X63364716Y-165323795D01*
X63613106Y-165924943D01*
X64072637Y-166385278D01*
X64673352Y-166634716D01*
X65323795Y-166635284D01*
X65924943Y-166386894D01*
X66385278Y-165927363D01*
X66634716Y-165326648D01*
X66634718Y-165323795D01*
X68364716Y-165323795D01*
X68613106Y-165924943D01*
X69072637Y-166385278D01*
X69673352Y-166634716D01*
X70323795Y-166635284D01*
X70924943Y-166386894D01*
X71385278Y-165927363D01*
X71634716Y-165326648D01*
X71634839Y-165185167D01*
X73364838Y-165185167D01*
X73506883Y-165528943D01*
X73769673Y-165792192D01*
X74113201Y-165934838D01*
X74485167Y-165935162D01*
X74828943Y-165793117D01*
X75092192Y-165530327D01*
X75177952Y-165323795D01*
X78364716Y-165323795D01*
X78613106Y-165924943D01*
X79072637Y-166385278D01*
X79673352Y-166634716D01*
X80323795Y-166635284D01*
X80924943Y-166386894D01*
X81385278Y-165927363D01*
X81634716Y-165326648D01*
X81634718Y-165323795D01*
X83364716Y-165323795D01*
X83613106Y-165924943D01*
X84072637Y-166385278D01*
X84673352Y-166634716D01*
X85323795Y-166635284D01*
X85924943Y-166386894D01*
X86385278Y-165927363D01*
X86634716Y-165326648D01*
X86635101Y-164885167D01*
X88664838Y-164885167D01*
X88806883Y-165228943D01*
X89069673Y-165492192D01*
X89413201Y-165634838D01*
X89785167Y-165635162D01*
X90128943Y-165493117D01*
X90298560Y-165323795D01*
X93364716Y-165323795D01*
X93613106Y-165924943D01*
X94072637Y-166385278D01*
X94673352Y-166634716D01*
X95323795Y-166635284D01*
X95924943Y-166386894D01*
X96385278Y-165927363D01*
X96634716Y-165326648D01*
X96634718Y-165323795D01*
X98364716Y-165323795D01*
X98613106Y-165924943D01*
X99072637Y-166385278D01*
X99673352Y-166634716D01*
X100323795Y-166635284D01*
X100924943Y-166386894D01*
X101385278Y-165927363D01*
X101634716Y-165326648D01*
X101634839Y-165185167D01*
X103664838Y-165185167D01*
X103806883Y-165528943D01*
X104069673Y-165792192D01*
X104413201Y-165934838D01*
X104785167Y-165935162D01*
X105128943Y-165793117D01*
X105392192Y-165530327D01*
X105534838Y-165186799D01*
X105535162Y-164814833D01*
X105393117Y-164471057D01*
X105130327Y-164207808D01*
X104786799Y-164065162D01*
X104414833Y-164064838D01*
X104071057Y-164206883D01*
X103807808Y-164469673D01*
X103665162Y-164813201D01*
X103664838Y-165185167D01*
X101634839Y-165185167D01*
X101635284Y-164676205D01*
X101386894Y-164075057D01*
X100927363Y-163614722D01*
X100326648Y-163365284D01*
X99676205Y-163364716D01*
X99075057Y-163613106D01*
X98614722Y-164072637D01*
X98365284Y-164673352D01*
X98364716Y-165323795D01*
X96634718Y-165323795D01*
X96635284Y-164676205D01*
X96386894Y-164075057D01*
X95927363Y-163614722D01*
X95326648Y-163365284D01*
X94676205Y-163364716D01*
X94075057Y-163613106D01*
X93614722Y-164072637D01*
X93365284Y-164673352D01*
X93364716Y-165323795D01*
X90298560Y-165323795D01*
X90392192Y-165230327D01*
X90534838Y-164886799D01*
X90535162Y-164514833D01*
X90393117Y-164171057D01*
X90130327Y-163907808D01*
X89786799Y-163765162D01*
X89414833Y-163764838D01*
X89071057Y-163906883D01*
X88807808Y-164169673D01*
X88665162Y-164513201D01*
X88664838Y-164885167D01*
X86635101Y-164885167D01*
X86635284Y-164676205D01*
X86386894Y-164075057D01*
X85927363Y-163614722D01*
X85326648Y-163365284D01*
X84676205Y-163364716D01*
X84075057Y-163613106D01*
X83614722Y-164072637D01*
X83365284Y-164673352D01*
X83364716Y-165323795D01*
X81634718Y-165323795D01*
X81635284Y-164676205D01*
X81386894Y-164075057D01*
X80927363Y-163614722D01*
X80326648Y-163365284D01*
X79676205Y-163364716D01*
X79075057Y-163613106D01*
X78614722Y-164072637D01*
X78365284Y-164673352D01*
X78364716Y-165323795D01*
X75177952Y-165323795D01*
X75234838Y-165186799D01*
X75235162Y-164814833D01*
X75093117Y-164471057D01*
X74830327Y-164207808D01*
X74486799Y-164065162D01*
X74114833Y-164064838D01*
X73771057Y-164206883D01*
X73507808Y-164469673D01*
X73365162Y-164813201D01*
X73364838Y-165185167D01*
X71634839Y-165185167D01*
X71635284Y-164676205D01*
X71386894Y-164075057D01*
X70927363Y-163614722D01*
X70326648Y-163365284D01*
X69676205Y-163364716D01*
X69075057Y-163613106D01*
X68614722Y-164072637D01*
X68365284Y-164673352D01*
X68364716Y-165323795D01*
X66634718Y-165323795D01*
X66635284Y-164676205D01*
X66386894Y-164075057D01*
X65927363Y-163614722D01*
X65326648Y-163365284D01*
X64676205Y-163364716D01*
X64075057Y-163613106D01*
X63614722Y-164072637D01*
X63365284Y-164673352D01*
X63364716Y-165323795D01*
X56634718Y-165323795D01*
X56635284Y-164676205D01*
X56556349Y-164485167D01*
X58464838Y-164485167D01*
X58606883Y-164828943D01*
X58869673Y-165092192D01*
X59213201Y-165234838D01*
X59585167Y-165235162D01*
X59928943Y-165093117D01*
X60192192Y-164830327D01*
X60334838Y-164486799D01*
X60335162Y-164114833D01*
X60193117Y-163771057D01*
X59930327Y-163507808D01*
X59586799Y-163365162D01*
X59214833Y-163364838D01*
X58871057Y-163506883D01*
X58607808Y-163769673D01*
X58465162Y-164113201D01*
X58464838Y-164485167D01*
X56556349Y-164485167D01*
X56386894Y-164075057D01*
X55927363Y-163614722D01*
X55326648Y-163365284D01*
X54676205Y-163364716D01*
X54075057Y-163613106D01*
X53614722Y-164072637D01*
X53365284Y-164673352D01*
X53364716Y-165323795D01*
X51634718Y-165323795D01*
X51635284Y-164676205D01*
X51386894Y-164075057D01*
X50927363Y-163614722D01*
X50326648Y-163365284D01*
X49676205Y-163364716D01*
X49075057Y-163613106D01*
X48614722Y-164072637D01*
X48365284Y-164673352D01*
X48364716Y-165323795D01*
X40710000Y-165323795D01*
X40710000Y-162335167D01*
X135414838Y-162335167D01*
X135556883Y-162678943D01*
X135819673Y-162942192D01*
X136163201Y-163084838D01*
X136535167Y-163085162D01*
X136812162Y-162970710D01*
X136856883Y-163078943D01*
X137119673Y-163342192D01*
X137463201Y-163484838D01*
X137835167Y-163485162D01*
X138178943Y-163343117D01*
X138442192Y-163080327D01*
X138584838Y-162736799D01*
X138585162Y-162364833D01*
X138443117Y-162021057D01*
X138180327Y-161757808D01*
X137836799Y-161615162D01*
X137464833Y-161614838D01*
X137187838Y-161729290D01*
X137143117Y-161621057D01*
X136880327Y-161357808D01*
X136536799Y-161215162D01*
X136164833Y-161214838D01*
X135821057Y-161356883D01*
X135557808Y-161619673D01*
X135415162Y-161963201D01*
X135414838Y-162335167D01*
X40710000Y-162335167D01*
X40710000Y-157685167D01*
X53814838Y-157685167D01*
X53956883Y-158028943D01*
X54219673Y-158292192D01*
X54563201Y-158434838D01*
X54935167Y-158435162D01*
X55278943Y-158293117D01*
X55542192Y-158030327D01*
X55684838Y-157686799D01*
X55685057Y-157435167D01*
X69564838Y-157435167D01*
X69706883Y-157778943D01*
X69969673Y-158042192D01*
X70313201Y-158184838D01*
X70685167Y-158185162D01*
X71028943Y-158043117D01*
X71292192Y-157780327D01*
X71331706Y-157685167D01*
X84314838Y-157685167D01*
X84456883Y-158028943D01*
X84719673Y-158292192D01*
X85063201Y-158434838D01*
X85435167Y-158435162D01*
X85778943Y-158293117D01*
X86042192Y-158030327D01*
X86184838Y-157686799D01*
X86184839Y-157685167D01*
X99314838Y-157685167D01*
X99456883Y-158028943D01*
X99719673Y-158292192D01*
X100063201Y-158434838D01*
X100435167Y-158435162D01*
X100778943Y-158293117D01*
X101042192Y-158030327D01*
X101184838Y-157686799D01*
X101184839Y-157685167D01*
X111564838Y-157685167D01*
X111706883Y-158028943D01*
X111969673Y-158292192D01*
X112313201Y-158434838D01*
X112685167Y-158435162D01*
X113028943Y-158293117D01*
X113292192Y-158030327D01*
X113434838Y-157686799D01*
X113435162Y-157314833D01*
X113293117Y-156971057D01*
X113030327Y-156707808D01*
X112686799Y-156565162D01*
X112314833Y-156564838D01*
X111971057Y-156706883D01*
X111707808Y-156969673D01*
X111565162Y-157313201D01*
X111564838Y-157685167D01*
X101184839Y-157685167D01*
X101185162Y-157314833D01*
X101043117Y-156971057D01*
X100780327Y-156707808D01*
X100436799Y-156565162D01*
X100064833Y-156564838D01*
X99721057Y-156706883D01*
X99457808Y-156969673D01*
X99315162Y-157313201D01*
X99314838Y-157685167D01*
X86184839Y-157685167D01*
X86185162Y-157314833D01*
X86043117Y-156971057D01*
X85780327Y-156707808D01*
X85436799Y-156565162D01*
X85064833Y-156564838D01*
X84721057Y-156706883D01*
X84457808Y-156969673D01*
X84315162Y-157313201D01*
X84314838Y-157685167D01*
X71331706Y-157685167D01*
X71434838Y-157436799D01*
X71435162Y-157064833D01*
X71293117Y-156721057D01*
X71030327Y-156457808D01*
X70686799Y-156315162D01*
X70314833Y-156314838D01*
X69971057Y-156456883D01*
X69707808Y-156719673D01*
X69565162Y-157063201D01*
X69564838Y-157435167D01*
X55685057Y-157435167D01*
X55685162Y-157314833D01*
X55543117Y-156971057D01*
X55280327Y-156707808D01*
X54936799Y-156565162D01*
X54564833Y-156564838D01*
X54221057Y-156706883D01*
X53957808Y-156969673D01*
X53815162Y-157313201D01*
X53814838Y-157685167D01*
X40710000Y-157685167D01*
X40710000Y-150680167D01*
X96219838Y-150680167D01*
X96361883Y-151023943D01*
X96624673Y-151287192D01*
X96968201Y-151429838D01*
X97340167Y-151430162D01*
X97553092Y-151342183D01*
X132509107Y-151342183D01*
X132649199Y-151681232D01*
X132615162Y-151763201D01*
X132614838Y-152135167D01*
X132756883Y-152478943D01*
X132950250Y-152672647D01*
X132950085Y-152861536D01*
X133092130Y-153205312D01*
X133354920Y-153468561D01*
X133698448Y-153611207D01*
X134070414Y-153611531D01*
X134414190Y-153469486D01*
X134592316Y-153291670D01*
X134706883Y-153568943D01*
X134969673Y-153832192D01*
X135313201Y-153974838D01*
X135685167Y-153975162D01*
X136028943Y-153833117D01*
X136292192Y-153570327D01*
X136434838Y-153226799D01*
X136435162Y-152854833D01*
X136293117Y-152511057D01*
X136030327Y-152247808D01*
X135686799Y-152105162D01*
X135314833Y-152104838D01*
X134971057Y-152246883D01*
X134792931Y-152424699D01*
X134678364Y-152147426D01*
X134484997Y-151953722D01*
X134485162Y-151764833D01*
X134345070Y-151425784D01*
X134379107Y-151343815D01*
X134379431Y-150971849D01*
X134237386Y-150628073D01*
X133974596Y-150364824D01*
X133631068Y-150222178D01*
X133259102Y-150221854D01*
X132915326Y-150363899D01*
X132652077Y-150626689D01*
X132509431Y-150970217D01*
X132509107Y-151342183D01*
X97553092Y-151342183D01*
X97683943Y-151288117D01*
X97947192Y-151025327D01*
X98089838Y-150681799D01*
X98090162Y-150309833D01*
X97948117Y-149966057D01*
X97685327Y-149702808D01*
X97341799Y-149560162D01*
X96969833Y-149559838D01*
X96626057Y-149701883D01*
X96362808Y-149964673D01*
X96220162Y-150308201D01*
X96219838Y-150680167D01*
X40710000Y-150680167D01*
X40710000Y-146570169D01*
X95764838Y-146570169D01*
X95906883Y-146913945D01*
X96169673Y-147177194D01*
X96513201Y-147319840D01*
X96885167Y-147320164D01*
X97228943Y-147178119D01*
X97422232Y-146985167D01*
X107814838Y-146985167D01*
X107956883Y-147328943D01*
X108219673Y-147592192D01*
X108563201Y-147734838D01*
X108615056Y-147734883D01*
X108614838Y-147985167D01*
X108756883Y-148328943D01*
X109019673Y-148592192D01*
X109363201Y-148734838D01*
X109735167Y-148735162D01*
X110078943Y-148593117D01*
X110342192Y-148330327D01*
X110484838Y-147986799D01*
X110485162Y-147614833D01*
X110343117Y-147271057D01*
X110257377Y-147185167D01*
X119214838Y-147185167D01*
X119356883Y-147528943D01*
X119619673Y-147792192D01*
X119963201Y-147934838D01*
X120335167Y-147935162D01*
X120678943Y-147793117D01*
X120942192Y-147530327D01*
X121084838Y-147186799D01*
X121084840Y-147184857D01*
X121435167Y-147185162D01*
X121778943Y-147043117D01*
X121953741Y-146868624D01*
X122113201Y-146934838D01*
X122485167Y-146935162D01*
X122828943Y-146793117D01*
X123092192Y-146530327D01*
X123131836Y-146434854D01*
X123485167Y-146435162D01*
X123828943Y-146293117D01*
X124092192Y-146030327D01*
X124234838Y-145686799D01*
X124235162Y-145314833D01*
X124093117Y-144971057D01*
X123830327Y-144707808D01*
X123486799Y-144565162D01*
X123114833Y-144564838D01*
X122771057Y-144706883D01*
X122507808Y-144969673D01*
X122468164Y-145065146D01*
X122114833Y-145064838D01*
X121771057Y-145206883D01*
X121596259Y-145381376D01*
X121436799Y-145315162D01*
X121064833Y-145314838D01*
X120721057Y-145456883D01*
X120457808Y-145719673D01*
X120315162Y-146063201D01*
X120315160Y-146065143D01*
X119964833Y-146064838D01*
X119621057Y-146206883D01*
X119357808Y-146469673D01*
X119215162Y-146813201D01*
X119214838Y-147185167D01*
X110257377Y-147185167D01*
X110080327Y-147007808D01*
X109736799Y-146865162D01*
X109684944Y-146865117D01*
X109685162Y-146614833D01*
X109543117Y-146271057D01*
X109280327Y-146007808D01*
X108936799Y-145865162D01*
X108564833Y-145864838D01*
X108221057Y-146006883D01*
X107957808Y-146269673D01*
X107815162Y-146613201D01*
X107814838Y-146985167D01*
X97422232Y-146985167D01*
X97492192Y-146915329D01*
X97634838Y-146571801D01*
X97635162Y-146199835D01*
X97493117Y-145856059D01*
X97230327Y-145592810D01*
X96886799Y-145450164D01*
X96514833Y-145449840D01*
X96171057Y-145591885D01*
X95907808Y-145854675D01*
X95765162Y-146198203D01*
X95764838Y-146570169D01*
X40710000Y-146570169D01*
X40710000Y-143656892D01*
X132528514Y-143656892D01*
X132774817Y-144181358D01*
X133203076Y-144571645D01*
X133613110Y-144741476D01*
X133843000Y-144620155D01*
X133843000Y-143427000D01*
X132649181Y-143427000D01*
X132528514Y-143656892D01*
X40710000Y-143656892D01*
X40710000Y-142335167D01*
X95014838Y-142335167D01*
X95156883Y-142678943D01*
X95419673Y-142942192D01*
X95763201Y-143084838D01*
X96135167Y-143085162D01*
X96478943Y-142943117D01*
X96742192Y-142680327D01*
X96884838Y-142336799D01*
X96885162Y-141964833D01*
X96743117Y-141621057D01*
X96480327Y-141357808D01*
X96136799Y-141215162D01*
X95764833Y-141214838D01*
X95421057Y-141356883D01*
X95157808Y-141619673D01*
X95015162Y-141963201D01*
X95014838Y-142335167D01*
X40710000Y-142335167D01*
X40710000Y-140730907D01*
X132485000Y-140730907D01*
X132485000Y-140789093D01*
X132598039Y-141357378D01*
X132919946Y-141839147D01*
X133203101Y-142028345D01*
X133203076Y-142028355D01*
X132774817Y-142418642D01*
X132528514Y-142943108D01*
X132649181Y-143173000D01*
X133843000Y-143173000D01*
X133843000Y-143153000D01*
X134097000Y-143153000D01*
X134097000Y-143173000D01*
X134117000Y-143173000D01*
X134117000Y-143427000D01*
X134097000Y-143427000D01*
X134097000Y-144620155D01*
X134326890Y-144741476D01*
X134736924Y-144571645D01*
X135165183Y-144181358D01*
X135232298Y-144038447D01*
X135459946Y-144379147D01*
X135941715Y-144701054D01*
X136510000Y-144814093D01*
X137078285Y-144701054D01*
X137560054Y-144379147D01*
X137780000Y-144049974D01*
X137999946Y-144379147D01*
X138481715Y-144701054D01*
X139050000Y-144814093D01*
X139618285Y-144701054D01*
X140100054Y-144379147D01*
X140320000Y-144049974D01*
X140539946Y-144379147D01*
X141021715Y-144701054D01*
X141590000Y-144814093D01*
X142158285Y-144701054D01*
X142640054Y-144379147D01*
X142860000Y-144049974D01*
X143079946Y-144379147D01*
X143561715Y-144701054D01*
X144130000Y-144814093D01*
X144698285Y-144701054D01*
X145180054Y-144379147D01*
X145400000Y-144049974D01*
X145619946Y-144379147D01*
X146101715Y-144701054D01*
X146670000Y-144814093D01*
X147238285Y-144701054D01*
X147720054Y-144379147D01*
X147940000Y-144049974D01*
X148159946Y-144379147D01*
X148641715Y-144701054D01*
X149210000Y-144814093D01*
X149778285Y-144701054D01*
X150260054Y-144379147D01*
X150287850Y-144337548D01*
X150296838Y-144385317D01*
X150435910Y-144601441D01*
X150648110Y-144746431D01*
X150900000Y-144797440D01*
X152600000Y-144797440D01*
X152835317Y-144753162D01*
X153051441Y-144614090D01*
X153196431Y-144401890D01*
X153247440Y-144150000D01*
X153247440Y-142450000D01*
X153203162Y-142214683D01*
X153064090Y-141998559D01*
X152851890Y-141853569D01*
X152795546Y-141842159D01*
X152800054Y-141839147D01*
X153121961Y-141357378D01*
X153235000Y-140789093D01*
X153235000Y-140730907D01*
X153121961Y-140162622D01*
X152800054Y-139680853D01*
X152318285Y-139358946D01*
X151750000Y-139245907D01*
X151181715Y-139358946D01*
X150699946Y-139680853D01*
X150480000Y-140010026D01*
X150260054Y-139680853D01*
X149778285Y-139358946D01*
X149210000Y-139245907D01*
X148641715Y-139358946D01*
X148159946Y-139680853D01*
X147940000Y-140010026D01*
X147720054Y-139680853D01*
X147238285Y-139358946D01*
X146670000Y-139245907D01*
X146101715Y-139358946D01*
X145619946Y-139680853D01*
X145400000Y-140010026D01*
X145180054Y-139680853D01*
X144698285Y-139358946D01*
X144130000Y-139245907D01*
X143561715Y-139358946D01*
X143079946Y-139680853D01*
X142860000Y-140010026D01*
X142640054Y-139680853D01*
X142158285Y-139358946D01*
X141590000Y-139245907D01*
X141021715Y-139358946D01*
X140539946Y-139680853D01*
X140320000Y-140010026D01*
X140100054Y-139680853D01*
X139618285Y-139358946D01*
X139050000Y-139245907D01*
X138481715Y-139358946D01*
X137999946Y-139680853D01*
X137780000Y-140010026D01*
X137560054Y-139680853D01*
X137078285Y-139358946D01*
X136510000Y-139245907D01*
X135941715Y-139358946D01*
X135459946Y-139680853D01*
X135240000Y-140010026D01*
X135020054Y-139680853D01*
X134538285Y-139358946D01*
X133970000Y-139245907D01*
X133401715Y-139358946D01*
X132919946Y-139680853D01*
X132598039Y-140162622D01*
X132485000Y-140730907D01*
X40710000Y-140730907D01*
X40710000Y-137635167D01*
X89364838Y-137635167D01*
X89506883Y-137978943D01*
X89769673Y-138242192D01*
X90113201Y-138384838D01*
X90485167Y-138385162D01*
X90828943Y-138243117D01*
X90987168Y-138085167D01*
X132214838Y-138085167D01*
X132356883Y-138428943D01*
X132619673Y-138692192D01*
X132963201Y-138834838D01*
X133335167Y-138835162D01*
X133678943Y-138693117D01*
X133942192Y-138430327D01*
X134084838Y-138086799D01*
X134085162Y-137714833D01*
X133943117Y-137371057D01*
X133680327Y-137107808D01*
X133336799Y-136965162D01*
X132964833Y-136964838D01*
X132621057Y-137106883D01*
X132357808Y-137369673D01*
X132215162Y-137713201D01*
X132214838Y-138085167D01*
X90987168Y-138085167D01*
X91092192Y-137980327D01*
X91234838Y-137636799D01*
X91235162Y-137264833D01*
X91093117Y-136921057D01*
X90830327Y-136657808D01*
X90486799Y-136515162D01*
X90114833Y-136514838D01*
X89771057Y-136656883D01*
X89507808Y-136919673D01*
X89365162Y-137263201D01*
X89364838Y-137635167D01*
X40710000Y-137635167D01*
X40710000Y-134585167D01*
X92764838Y-134585167D01*
X92906883Y-134928943D01*
X93169673Y-135192192D01*
X93513201Y-135334838D01*
X93885167Y-135335162D01*
X94228943Y-135193117D01*
X94492192Y-134930327D01*
X94510944Y-134885167D01*
X96014838Y-134885167D01*
X96156883Y-135228943D01*
X96419673Y-135492192D01*
X96763201Y-135634838D01*
X97135167Y-135635162D01*
X97377173Y-135535167D01*
X128864838Y-135535167D01*
X128999297Y-135860583D01*
X128915162Y-136063201D01*
X128914838Y-136435167D01*
X129056883Y-136778943D01*
X129319673Y-137042192D01*
X129663201Y-137184838D01*
X130035167Y-137185162D01*
X130378943Y-137043117D01*
X130642192Y-136780327D01*
X130784838Y-136436799D01*
X130785162Y-136064833D01*
X130650703Y-135739417D01*
X130734838Y-135536799D01*
X130735162Y-135164833D01*
X130593117Y-134821057D01*
X130330327Y-134557808D01*
X129986799Y-134415162D01*
X129614833Y-134414838D01*
X129271057Y-134556883D01*
X129007808Y-134819673D01*
X128865162Y-135163201D01*
X128864838Y-135535167D01*
X97377173Y-135535167D01*
X97478943Y-135493117D01*
X97742192Y-135230327D01*
X97884838Y-134886799D01*
X97885162Y-134514833D01*
X97743117Y-134171057D01*
X97480327Y-133907808D01*
X97136799Y-133765162D01*
X96764833Y-133764838D01*
X96421057Y-133906883D01*
X96157808Y-134169673D01*
X96015162Y-134513201D01*
X96014838Y-134885167D01*
X94510944Y-134885167D01*
X94634838Y-134586799D01*
X94635162Y-134214833D01*
X94493117Y-133871057D01*
X94230327Y-133607808D01*
X93886799Y-133465162D01*
X93514833Y-133464838D01*
X93171057Y-133606883D01*
X92907808Y-133869673D01*
X92765162Y-134213201D01*
X92764838Y-134585167D01*
X40710000Y-134585167D01*
X40710000Y-114078767D01*
X112437738Y-114078767D01*
X112579783Y-114422543D01*
X112842573Y-114685792D01*
X113186101Y-114828438D01*
X113558067Y-114828762D01*
X113901843Y-114686717D01*
X114165092Y-114423927D01*
X114307738Y-114080399D01*
X114308062Y-113708433D01*
X114166017Y-113364657D01*
X113903227Y-113101408D01*
X113559699Y-112958762D01*
X113187733Y-112958438D01*
X112843957Y-113100483D01*
X112580708Y-113363273D01*
X112438062Y-113706801D01*
X112437738Y-114078767D01*
X40710000Y-114078767D01*
X40710000Y-106050000D01*
X102752560Y-106050000D01*
X102752560Y-107750000D01*
X102796838Y-107985317D01*
X102935910Y-108201441D01*
X103148110Y-108346431D01*
X103204454Y-108357841D01*
X103199946Y-108360853D01*
X102878039Y-108842622D01*
X102765000Y-109410907D01*
X102765000Y-109469093D01*
X102878039Y-110037378D01*
X103199946Y-110519147D01*
X103681715Y-110841054D01*
X104250000Y-110954093D01*
X104818285Y-110841054D01*
X105300054Y-110519147D01*
X105520000Y-110189974D01*
X105739946Y-110519147D01*
X106221715Y-110841054D01*
X106790000Y-110954093D01*
X107358285Y-110841054D01*
X107840054Y-110519147D01*
X108060000Y-110189974D01*
X108279946Y-110519147D01*
X108761715Y-110841054D01*
X109330000Y-110954093D01*
X109898285Y-110841054D01*
X110380054Y-110519147D01*
X110600000Y-110189974D01*
X110819946Y-110519147D01*
X111301715Y-110841054D01*
X111870000Y-110954093D01*
X112438285Y-110841054D01*
X112920054Y-110519147D01*
X113140000Y-110189974D01*
X113359946Y-110519147D01*
X113841715Y-110841054D01*
X114028016Y-110878112D01*
X113923962Y-111128701D01*
X113923638Y-111500667D01*
X114065683Y-111844443D01*
X114328473Y-112107692D01*
X114672001Y-112250338D01*
X115043967Y-112250662D01*
X115387743Y-112108617D01*
X115398812Y-112097567D01*
X116260438Y-112097567D01*
X116402483Y-112441343D01*
X116665273Y-112704592D01*
X117008801Y-112847238D01*
X117380767Y-112847562D01*
X117724543Y-112705517D01*
X117987792Y-112442727D01*
X118130438Y-112099199D01*
X118130762Y-111727233D01*
X117988717Y-111383457D01*
X117725927Y-111120208D01*
X117382399Y-110977562D01*
X117010433Y-110977238D01*
X116666657Y-111119283D01*
X116403408Y-111382073D01*
X116260762Y-111725601D01*
X116260438Y-112097567D01*
X115398812Y-112097567D01*
X115650992Y-111845827D01*
X115793638Y-111502299D01*
X115793962Y-111130333D01*
X115651917Y-110786557D01*
X115415015Y-110549241D01*
X115460054Y-110519147D01*
X115680000Y-110189974D01*
X115899946Y-110519147D01*
X116381715Y-110841054D01*
X116950000Y-110954093D01*
X117518285Y-110841054D01*
X118000054Y-110519147D01*
X118220000Y-110189974D01*
X118439946Y-110519147D01*
X118921715Y-110841054D01*
X119490000Y-110954093D01*
X120058285Y-110841054D01*
X120540054Y-110519147D01*
X120760000Y-110189974D01*
X120979946Y-110519147D01*
X121461715Y-110841054D01*
X122030000Y-110954093D01*
X122598285Y-110841054D01*
X123080054Y-110519147D01*
X123300000Y-110189974D01*
X123519946Y-110519147D01*
X124001715Y-110841054D01*
X124570000Y-110954093D01*
X125138285Y-110841054D01*
X125620054Y-110519147D01*
X125840000Y-110189974D01*
X126059946Y-110519147D01*
X126541715Y-110841054D01*
X127110000Y-110954093D01*
X127678285Y-110841054D01*
X128160054Y-110519147D01*
X128481961Y-110037378D01*
X128595000Y-109469093D01*
X128595000Y-109410907D01*
X128481961Y-108842622D01*
X128160054Y-108360853D01*
X127874422Y-108170000D01*
X128160054Y-107979147D01*
X128481961Y-107497378D01*
X128595000Y-106929093D01*
X128595000Y-106870907D01*
X128481961Y-106302622D01*
X128160054Y-105820853D01*
X127678285Y-105498946D01*
X127110000Y-105385907D01*
X126541715Y-105498946D01*
X126059946Y-105820853D01*
X125840000Y-106150026D01*
X125620054Y-105820853D01*
X125138285Y-105498946D01*
X124570000Y-105385907D01*
X124001715Y-105498946D01*
X123519946Y-105820853D01*
X123300000Y-106150026D01*
X123080054Y-105820853D01*
X122598285Y-105498946D01*
X122030000Y-105385907D01*
X121461715Y-105498946D01*
X120979946Y-105820853D01*
X120760000Y-106150026D01*
X120540054Y-105820853D01*
X120058285Y-105498946D01*
X119490000Y-105385907D01*
X118921715Y-105498946D01*
X118439946Y-105820853D01*
X118220000Y-106150026D01*
X118000054Y-105820853D01*
X117518285Y-105498946D01*
X116950000Y-105385907D01*
X116381715Y-105498946D01*
X115899946Y-105820853D01*
X115680000Y-106150026D01*
X115460054Y-105820853D01*
X114978285Y-105498946D01*
X114410000Y-105385907D01*
X113841715Y-105498946D01*
X113359946Y-105820853D01*
X113140000Y-106150026D01*
X112920054Y-105820853D01*
X112438285Y-105498946D01*
X111870000Y-105385907D01*
X111301715Y-105498946D01*
X110819946Y-105820853D01*
X110600000Y-106150026D01*
X110380054Y-105820853D01*
X109898285Y-105498946D01*
X109330000Y-105385907D01*
X108761715Y-105498946D01*
X108279946Y-105820853D01*
X108060000Y-106150026D01*
X107840054Y-105820853D01*
X107358285Y-105498946D01*
X106790000Y-105385907D01*
X106221715Y-105498946D01*
X105739946Y-105820853D01*
X105712150Y-105862452D01*
X105703162Y-105814683D01*
X105564090Y-105598559D01*
X105351890Y-105453569D01*
X105100000Y-105402560D01*
X103400000Y-105402560D01*
X103164683Y-105446838D01*
X102948559Y-105585910D01*
X102803569Y-105798110D01*
X102752560Y-106050000D01*
X40710000Y-106050000D01*
X40710000Y-41785750D01*
X102765000Y-41785750D01*
X102765000Y-42476309D01*
X102861673Y-42709698D01*
X103040301Y-42888327D01*
X103205858Y-42956903D01*
X103199946Y-42960853D01*
X102878039Y-43442622D01*
X102765000Y-44010907D01*
X102765000Y-44069093D01*
X102878039Y-44637378D01*
X103199946Y-45119147D01*
X103681715Y-45441054D01*
X104250000Y-45554093D01*
X104818285Y-45441054D01*
X105300054Y-45119147D01*
X105520000Y-44789974D01*
X105739946Y-45119147D01*
X106221715Y-45441054D01*
X106790000Y-45554093D01*
X107358285Y-45441054D01*
X107840054Y-45119147D01*
X108060000Y-44789974D01*
X108279946Y-45119147D01*
X108761715Y-45441054D01*
X109330000Y-45554093D01*
X109898285Y-45441054D01*
X110380054Y-45119147D01*
X110600000Y-44789974D01*
X110819946Y-45119147D01*
X111301715Y-45441054D01*
X111870000Y-45554093D01*
X112438285Y-45441054D01*
X112920054Y-45119147D01*
X113140000Y-44789974D01*
X113359946Y-45119147D01*
X113841715Y-45441054D01*
X114410000Y-45554093D01*
X114978285Y-45441054D01*
X115460054Y-45119147D01*
X115680000Y-44789974D01*
X115899946Y-45119147D01*
X116381715Y-45441054D01*
X116950000Y-45554093D01*
X117518285Y-45441054D01*
X118000054Y-45119147D01*
X118220000Y-44789974D01*
X118439946Y-45119147D01*
X118921715Y-45441054D01*
X119490000Y-45554093D01*
X120058285Y-45441054D01*
X120540054Y-45119147D01*
X120760000Y-44789974D01*
X120979946Y-45119147D01*
X121461715Y-45441054D01*
X122030000Y-45554093D01*
X122598285Y-45441054D01*
X123080054Y-45119147D01*
X123300000Y-44789974D01*
X123519946Y-45119147D01*
X124001715Y-45441054D01*
X124570000Y-45554093D01*
X125138285Y-45441054D01*
X125620054Y-45119147D01*
X125840000Y-44789974D01*
X126059946Y-45119147D01*
X126541715Y-45441054D01*
X127110000Y-45554093D01*
X127678285Y-45441054D01*
X128160054Y-45119147D01*
X128481961Y-44637378D01*
X128595000Y-44069093D01*
X128595000Y-44010907D01*
X128481961Y-43442622D01*
X128160054Y-42960853D01*
X127874422Y-42770000D01*
X128160054Y-42579147D01*
X128481961Y-42097378D01*
X128595000Y-41529093D01*
X128595000Y-41470907D01*
X128481961Y-40902622D01*
X128160054Y-40420853D01*
X127678285Y-40098946D01*
X127110000Y-39985907D01*
X126541715Y-40098946D01*
X126059946Y-40420853D01*
X125840000Y-40750026D01*
X125620054Y-40420853D01*
X125138285Y-40098946D01*
X124570000Y-39985907D01*
X124001715Y-40098946D01*
X123519946Y-40420853D01*
X123300000Y-40750026D01*
X123080054Y-40420853D01*
X122598285Y-40098946D01*
X122030000Y-39985907D01*
X121461715Y-40098946D01*
X120979946Y-40420853D01*
X120760000Y-40750026D01*
X120540054Y-40420853D01*
X120058285Y-40098946D01*
X119490000Y-39985907D01*
X118921715Y-40098946D01*
X118439946Y-40420853D01*
X118220000Y-40750026D01*
X118000054Y-40420853D01*
X117518285Y-40098946D01*
X116950000Y-39985907D01*
X116381715Y-40098946D01*
X115899946Y-40420853D01*
X115680000Y-40750026D01*
X115460054Y-40420853D01*
X114978285Y-40098946D01*
X114410000Y-39985907D01*
X113841715Y-40098946D01*
X113359946Y-40420853D01*
X113140000Y-40750026D01*
X112920054Y-40420853D01*
X112438285Y-40098946D01*
X111870000Y-39985907D01*
X111301715Y-40098946D01*
X110819946Y-40420853D01*
X110600000Y-40750026D01*
X110380054Y-40420853D01*
X109898285Y-40098946D01*
X109330000Y-39985907D01*
X108761715Y-40098946D01*
X108279946Y-40420853D01*
X108060000Y-40750026D01*
X107840054Y-40420853D01*
X107358285Y-40098946D01*
X106790000Y-39985907D01*
X106221715Y-40098946D01*
X105739946Y-40420853D01*
X105710597Y-40464777D01*
X105638327Y-40290302D01*
X105459699Y-40111673D01*
X105226310Y-40015000D01*
X104535750Y-40015000D01*
X104377000Y-40173750D01*
X104377000Y-41373000D01*
X104397000Y-41373000D01*
X104397000Y-41627000D01*
X104377000Y-41627000D01*
X104377000Y-41647000D01*
X104123000Y-41647000D01*
X104123000Y-41627000D01*
X102923750Y-41627000D01*
X102765000Y-41785750D01*
X40710000Y-41785750D01*
X40710000Y-40523691D01*
X102765000Y-40523691D01*
X102765000Y-41214250D01*
X102923750Y-41373000D01*
X104123000Y-41373000D01*
X104123000Y-40173750D01*
X103964250Y-40015000D01*
X103273690Y-40015000D01*
X103040301Y-40111673D01*
X102861673Y-40290302D01*
X102765000Y-40523691D01*
X40710000Y-40523691D01*
X40710000Y-38485167D01*
X106414838Y-38485167D01*
X106556883Y-38828943D01*
X106819673Y-39092192D01*
X107163201Y-39234838D01*
X107535167Y-39235162D01*
X107878943Y-39093117D01*
X108142192Y-38830327D01*
X108284838Y-38486799D01*
X108285162Y-38114833D01*
X108143117Y-37771057D01*
X107880327Y-37507808D01*
X107536799Y-37365162D01*
X107164833Y-37364838D01*
X106821057Y-37506883D01*
X106557808Y-37769673D01*
X106415162Y-38113201D01*
X106414838Y-38485167D01*
X40710000Y-38485167D01*
X40710000Y-30710000D01*
X159290000Y-30710000D01*
X159290000Y-179290000D01*
X159290000Y-179290000D01*
G37*
X159290000Y-179290000D02*
X40710000Y-179290000D01*
X40710000Y-176235167D01*
X116764838Y-176235167D01*
X116906883Y-176578943D01*
X117169673Y-176842192D01*
X117513201Y-176984838D01*
X117885167Y-176985162D01*
X118228943Y-176843117D01*
X118492192Y-176580327D01*
X118634838Y-176236799D01*
X118635162Y-175864833D01*
X118493117Y-175521057D01*
X118230327Y-175257808D01*
X117886799Y-175115162D01*
X117514833Y-175114838D01*
X117171057Y-175256883D01*
X116907808Y-175519673D01*
X116765162Y-175863201D01*
X116764838Y-176235167D01*
X40710000Y-176235167D01*
X40710000Y-170323795D01*
X48364716Y-170323795D01*
X48613106Y-170924943D01*
X49072637Y-171385278D01*
X49673352Y-171634716D01*
X50323795Y-171635284D01*
X50924943Y-171386894D01*
X51385278Y-170927363D01*
X51634716Y-170326648D01*
X51634718Y-170323795D01*
X53364716Y-170323795D01*
X53613106Y-170924943D01*
X54072637Y-171385278D01*
X54673352Y-171634716D01*
X55323795Y-171635284D01*
X55924943Y-171386894D01*
X56385278Y-170927363D01*
X56634716Y-170326648D01*
X56634718Y-170323795D01*
X63364716Y-170323795D01*
X63613106Y-170924943D01*
X64072637Y-171385278D01*
X64673352Y-171634716D01*
X65323795Y-171635284D01*
X65924943Y-171386894D01*
X66385278Y-170927363D01*
X66634716Y-170326648D01*
X66634718Y-170323795D01*
X68364716Y-170323795D01*
X68613106Y-170924943D01*
X69072637Y-171385278D01*
X69673352Y-171634716D01*
X70323795Y-171635284D01*
X70924943Y-171386894D01*
X71385278Y-170927363D01*
X71634716Y-170326648D01*
X71634718Y-170323795D01*
X78364716Y-170323795D01*
X78613106Y-170924943D01*
X79072637Y-171385278D01*
X79673352Y-171634716D01*
X80323795Y-171635284D01*
X80924943Y-171386894D01*
X81385278Y-170927363D01*
X81634716Y-170326648D01*
X81634718Y-170323795D01*
X83364716Y-170323795D01*
X83613106Y-170924943D01*
X84072637Y-171385278D01*
X84673352Y-171634716D01*
X85323795Y-171635284D01*
X85924943Y-171386894D01*
X86385278Y-170927363D01*
X86634716Y-170326648D01*
X86634718Y-170323795D01*
X93364716Y-170323795D01*
X93613106Y-170924943D01*
X94072637Y-171385278D01*
X94673352Y-171634716D01*
X95323795Y-171635284D01*
X95924943Y-171386894D01*
X96385278Y-170927363D01*
X96634716Y-170326648D01*
X96634718Y-170323795D01*
X98364716Y-170323795D01*
X98613106Y-170924943D01*
X99072637Y-171385278D01*
X99673352Y-171634716D01*
X100323795Y-171635284D01*
X100924943Y-171386894D01*
X101385278Y-170927363D01*
X101634716Y-170326648D01*
X101635284Y-169676205D01*
X101386894Y-169075057D01*
X100927363Y-168614722D01*
X100326648Y-168365284D01*
X99676205Y-168364716D01*
X99075057Y-168613106D01*
X98614722Y-169072637D01*
X98365284Y-169673352D01*
X98364716Y-170323795D01*
X96634718Y-170323795D01*
X96635284Y-169676205D01*
X96386894Y-169075057D01*
X95927363Y-168614722D01*
X95326648Y-168365284D01*
X94676205Y-168364716D01*
X94075057Y-168613106D01*
X93614722Y-169072637D01*
X93365284Y-169673352D01*
X93364716Y-170323795D01*
X86634718Y-170323795D01*
X86635284Y-169676205D01*
X86386894Y-169075057D01*
X85927363Y-168614722D01*
X85326648Y-168365284D01*
X84676205Y-168364716D01*
X84075057Y-168613106D01*
X83614722Y-169072637D01*
X83365284Y-169673352D01*
X83364716Y-170323795D01*
X81634718Y-170323795D01*
X81635284Y-169676205D01*
X81386894Y-169075057D01*
X80927363Y-168614722D01*
X80326648Y-168365284D01*
X79676205Y-168364716D01*
X79075057Y-168613106D01*
X78614722Y-169072637D01*
X78365284Y-169673352D01*
X78364716Y-170323795D01*
X71634718Y-170323795D01*
X71635284Y-169676205D01*
X71386894Y-169075057D01*
X70927363Y-168614722D01*
X70326648Y-168365284D01*
X69676205Y-168364716D01*
X69075057Y-168613106D01*
X68614722Y-169072637D01*
X68365284Y-169673352D01*
X68364716Y-170323795D01*
X66634718Y-170323795D01*
X66635284Y-169676205D01*
X66386894Y-169075057D01*
X65927363Y-168614722D01*
X65326648Y-168365284D01*
X64676205Y-168364716D01*
X64075057Y-168613106D01*
X63614722Y-169072637D01*
X63365284Y-169673352D01*
X63364716Y-170323795D01*
X56634718Y-170323795D01*
X56635284Y-169676205D01*
X56386894Y-169075057D01*
X55927363Y-168614722D01*
X55326648Y-168365284D01*
X54676205Y-168364716D01*
X54075057Y-168613106D01*
X53614722Y-169072637D01*
X53365284Y-169673352D01*
X53364716Y-170323795D01*
X51634718Y-170323795D01*
X51635284Y-169676205D01*
X51386894Y-169075057D01*
X50927363Y-168614722D01*
X50326648Y-168365284D01*
X49676205Y-168364716D01*
X49075057Y-168613106D01*
X48614722Y-169072637D01*
X48365284Y-169673352D01*
X48364716Y-170323795D01*
X40710000Y-170323795D01*
X40710000Y-167540000D01*
X108485907Y-167540000D01*
X108598946Y-168108285D01*
X108920853Y-168590054D01*
X109250026Y-168810000D01*
X108920853Y-169029946D01*
X108598946Y-169511715D01*
X108485907Y-170080000D01*
X108598946Y-170648285D01*
X108920853Y-171130054D01*
X109402622Y-171451961D01*
X109970907Y-171565000D01*
X110029093Y-171565000D01*
X110597378Y-171451961D01*
X111079147Y-171130054D01*
X111270000Y-170844422D01*
X111460853Y-171130054D01*
X111942622Y-171451961D01*
X112510907Y-171565000D01*
X112569093Y-171565000D01*
X113137378Y-171451961D01*
X113619147Y-171130054D01*
X113649139Y-171085167D01*
X114364838Y-171085167D01*
X114506883Y-171428943D01*
X114769673Y-171692192D01*
X115113201Y-171834838D01*
X115485167Y-171835162D01*
X115828943Y-171693117D01*
X116092192Y-171430327D01*
X116234838Y-171086799D01*
X116235162Y-170714833D01*
X116093117Y-170371057D01*
X115830327Y-170107808D01*
X115486799Y-169965162D01*
X115114833Y-169964838D01*
X114771057Y-170106883D01*
X114507808Y-170369673D01*
X114365162Y-170713201D01*
X114364838Y-171085167D01*
X113649139Y-171085167D01*
X113941054Y-170648285D01*
X114054093Y-170080000D01*
X113941054Y-169511715D01*
X113619147Y-169029946D01*
X113289974Y-168810000D01*
X113619147Y-168590054D01*
X113941054Y-168108285D01*
X114054093Y-167540000D01*
X118485907Y-167540000D01*
X118598946Y-168108285D01*
X118920853Y-168590054D01*
X119250026Y-168810000D01*
X118920853Y-169029946D01*
X118598946Y-169511715D01*
X118485907Y-170080000D01*
X118598946Y-170648285D01*
X118920853Y-171130054D01*
X119402622Y-171451961D01*
X119970907Y-171565000D01*
X120029093Y-171565000D01*
X120597378Y-171451961D01*
X121079147Y-171130054D01*
X121270000Y-170844422D01*
X121460853Y-171130054D01*
X121942622Y-171451961D01*
X122510907Y-171565000D01*
X122569093Y-171565000D01*
X122970440Y-171485167D01*
X125064838Y-171485167D01*
X125206883Y-171828943D01*
X125469673Y-172092192D01*
X125813201Y-172234838D01*
X126185167Y-172235162D01*
X126528943Y-172093117D01*
X126792192Y-171830327D01*
X126934838Y-171486799D01*
X126935162Y-171114833D01*
X126793117Y-170771057D01*
X126530327Y-170507808D01*
X126186799Y-170365162D01*
X125814833Y-170364838D01*
X125471057Y-170506883D01*
X125207808Y-170769673D01*
X125065162Y-171113201D01*
X125064838Y-171485167D01*
X122970440Y-171485167D01*
X123137378Y-171451961D01*
X123619147Y-171130054D01*
X123941054Y-170648285D01*
X124054093Y-170080000D01*
X123941054Y-169511715D01*
X123619147Y-169029946D01*
X123289974Y-168810000D01*
X123619147Y-168590054D01*
X123941054Y-168108285D01*
X124054093Y-167540000D01*
X128485907Y-167540000D01*
X128598946Y-168108285D01*
X128920853Y-168590054D01*
X129250026Y-168810000D01*
X128920853Y-169029946D01*
X128598946Y-169511715D01*
X128485907Y-170080000D01*
X128598946Y-170648285D01*
X128920853Y-171130054D01*
X129402622Y-171451961D01*
X129970907Y-171565000D01*
X130029093Y-171565000D01*
X130597378Y-171451961D01*
X131079147Y-171130054D01*
X131270000Y-170844422D01*
X131460853Y-171130054D01*
X131942622Y-171451961D01*
X132510907Y-171565000D01*
X132569093Y-171565000D01*
X133137378Y-171451961D01*
X133619147Y-171130054D01*
X133649139Y-171085167D01*
X134264838Y-171085167D01*
X134406883Y-171428943D01*
X134669673Y-171692192D01*
X135013201Y-171834838D01*
X135385167Y-171835162D01*
X135728943Y-171693117D01*
X135992192Y-171430327D01*
X136134838Y-171086799D01*
X136135162Y-170714833D01*
X135993117Y-170371057D01*
X135730327Y-170107808D01*
X135386799Y-169965162D01*
X135014833Y-169964838D01*
X134671057Y-170106883D01*
X134407808Y-170369673D01*
X134265162Y-170713201D01*
X134264838Y-171085167D01*
X133649139Y-171085167D01*
X133941054Y-170648285D01*
X134054093Y-170080000D01*
X133941054Y-169511715D01*
X133619147Y-169029946D01*
X133289974Y-168810000D01*
X133619147Y-168590054D01*
X133941054Y-168108285D01*
X134054093Y-167540000D01*
X138485907Y-167540000D01*
X138598946Y-168108285D01*
X138920853Y-168590054D01*
X139250026Y-168810000D01*
X138920853Y-169029946D01*
X138598946Y-169511715D01*
X138485907Y-170080000D01*
X138598946Y-170648285D01*
X138920853Y-171130054D01*
X139402622Y-171451961D01*
X139970907Y-171565000D01*
X140029093Y-171565000D01*
X140597378Y-171451961D01*
X141079147Y-171130054D01*
X141270000Y-170844422D01*
X141460853Y-171130054D01*
X141942622Y-171451961D01*
X142510907Y-171565000D01*
X142569093Y-171565000D01*
X143137378Y-171451961D01*
X143619147Y-171130054D01*
X143649139Y-171085167D01*
X144964838Y-171085167D01*
X145106883Y-171428943D01*
X145369673Y-171692192D01*
X145713201Y-171834838D01*
X146085167Y-171835162D01*
X146428943Y-171693117D01*
X146692192Y-171430327D01*
X146834838Y-171086799D01*
X146835162Y-170714833D01*
X146693117Y-170371057D01*
X146430327Y-170107808D01*
X146086799Y-169965162D01*
X145714833Y-169964838D01*
X145371057Y-170106883D01*
X145107808Y-170369673D01*
X144965162Y-170713201D01*
X144964838Y-171085167D01*
X143649139Y-171085167D01*
X143941054Y-170648285D01*
X144054093Y-170080000D01*
X143941054Y-169511715D01*
X143619147Y-169029946D01*
X143289974Y-168810000D01*
X143619147Y-168590054D01*
X143941054Y-168108285D01*
X144054093Y-167540000D01*
X148485907Y-167540000D01*
X148598946Y-168108285D01*
X148920853Y-168590054D01*
X149250026Y-168810000D01*
X148920853Y-169029946D01*
X148598946Y-169511715D01*
X148485907Y-170080000D01*
X148598946Y-170648285D01*
X148920853Y-171130054D01*
X149402622Y-171451961D01*
X149970907Y-171565000D01*
X150029093Y-171565000D01*
X150597378Y-171451961D01*
X151079147Y-171130054D01*
X151270000Y-170844422D01*
X151460853Y-171130054D01*
X151942622Y-171451961D01*
X152510907Y-171565000D01*
X152569093Y-171565000D01*
X153137378Y-171451961D01*
X153536664Y-171185167D01*
X154464838Y-171185167D01*
X154606883Y-171528943D01*
X154869673Y-171792192D01*
X155213201Y-171934838D01*
X155585167Y-171935162D01*
X155928943Y-171793117D01*
X156192192Y-171530327D01*
X156334838Y-171186799D01*
X156335162Y-170814833D01*
X156193117Y-170471057D01*
X155930327Y-170207808D01*
X155586799Y-170065162D01*
X155214833Y-170064838D01*
X154871057Y-170206883D01*
X154607808Y-170469673D01*
X154465162Y-170813201D01*
X154464838Y-171185167D01*
X153536664Y-171185167D01*
X153619147Y-171130054D01*
X153941054Y-170648285D01*
X154054093Y-170080000D01*
X153941054Y-169511715D01*
X153619147Y-169029946D01*
X153289974Y-168810000D01*
X153619147Y-168590054D01*
X153941054Y-168108285D01*
X154054093Y-167540000D01*
X153941054Y-166971715D01*
X153619147Y-166489946D01*
X153278447Y-166262298D01*
X153421358Y-166195183D01*
X153811645Y-165766924D01*
X153981476Y-165356890D01*
X153860155Y-165127000D01*
X152667000Y-165127000D01*
X152667000Y-165147000D01*
X152413000Y-165147000D01*
X152413000Y-165127000D01*
X152393000Y-165127000D01*
X152393000Y-164873000D01*
X152413000Y-164873000D01*
X152413000Y-163679181D01*
X152667000Y-163679181D01*
X152667000Y-164873000D01*
X153860155Y-164873000D01*
X153981476Y-164643110D01*
X153811645Y-164233076D01*
X153421358Y-163804817D01*
X152896892Y-163558514D01*
X152667000Y-163679181D01*
X152413000Y-163679181D01*
X152183108Y-163558514D01*
X151658642Y-163804817D01*
X151471192Y-164010504D01*
X151453162Y-163914683D01*
X151314090Y-163698559D01*
X151101890Y-163553569D01*
X150850000Y-163502560D01*
X149150000Y-163502560D01*
X148914683Y-163546838D01*
X148698559Y-163685910D01*
X148553569Y-163898110D01*
X148502560Y-164150000D01*
X148502560Y-165850000D01*
X148546838Y-166085317D01*
X148685910Y-166301441D01*
X148898110Y-166446431D01*
X148965541Y-166460086D01*
X148920853Y-166489946D01*
X148598946Y-166971715D01*
X148485907Y-167540000D01*
X144054093Y-167540000D01*
X143941054Y-166971715D01*
X143619147Y-166489946D01*
X143278447Y-166262298D01*
X143421358Y-166195183D01*
X143476052Y-166135167D01*
X144114838Y-166135167D01*
X144256883Y-166478943D01*
X144519673Y-166742192D01*
X144863201Y-166884838D01*
X145235167Y-166885162D01*
X145578943Y-166743117D01*
X145842192Y-166480327D01*
X145984838Y-166136799D01*
X145985162Y-165764833D01*
X145843117Y-165421057D01*
X145580327Y-165157808D01*
X145236799Y-165015162D01*
X144864833Y-165014838D01*
X144521057Y-165156883D01*
X144257808Y-165419673D01*
X144115162Y-165763201D01*
X144114838Y-166135167D01*
X143476052Y-166135167D01*
X143811645Y-165766924D01*
X143981476Y-165356890D01*
X143860155Y-165127000D01*
X142667000Y-165127000D01*
X142667000Y-165147000D01*
X142413000Y-165147000D01*
X142413000Y-165127000D01*
X142393000Y-165127000D01*
X142393000Y-164873000D01*
X142413000Y-164873000D01*
X142413000Y-163679181D01*
X142667000Y-163679181D01*
X142667000Y-164873000D01*
X143860155Y-164873000D01*
X143981476Y-164643110D01*
X143811645Y-164233076D01*
X143421358Y-163804817D01*
X142896892Y-163558514D01*
X142667000Y-163679181D01*
X142413000Y-163679181D01*
X142183108Y-163558514D01*
X141658642Y-163804817D01*
X141471192Y-164010504D01*
X141453162Y-163914683D01*
X141314090Y-163698559D01*
X141101890Y-163553569D01*
X140850000Y-163502560D01*
X139150000Y-163502560D01*
X138914683Y-163546838D01*
X138698559Y-163685910D01*
X138553569Y-163898110D01*
X138502560Y-164150000D01*
X138502560Y-165850000D01*
X138546838Y-166085317D01*
X138685910Y-166301441D01*
X138898110Y-166446431D01*
X138965541Y-166460086D01*
X138920853Y-166489946D01*
X138598946Y-166971715D01*
X138485907Y-167540000D01*
X134054093Y-167540000D01*
X133941054Y-166971715D01*
X133619147Y-166489946D01*
X133278447Y-166262298D01*
X133421358Y-166195183D01*
X133811645Y-165766924D01*
X133981476Y-165356890D01*
X133860155Y-165127000D01*
X132667000Y-165127000D01*
X132667000Y-165147000D01*
X132413000Y-165147000D01*
X132413000Y-165127000D01*
X132393000Y-165127000D01*
X132393000Y-164873000D01*
X132413000Y-164873000D01*
X132413000Y-163679181D01*
X132667000Y-163679181D01*
X132667000Y-164873000D01*
X133860155Y-164873000D01*
X133981476Y-164643110D01*
X133811645Y-164233076D01*
X133421358Y-163804817D01*
X132896892Y-163558514D01*
X132667000Y-163679181D01*
X132413000Y-163679181D01*
X132183108Y-163558514D01*
X131658642Y-163804817D01*
X131471192Y-164010504D01*
X131453162Y-163914683D01*
X131314090Y-163698559D01*
X131101890Y-163553569D01*
X130850000Y-163502560D01*
X129150000Y-163502560D01*
X128914683Y-163546838D01*
X128698559Y-163685910D01*
X128553569Y-163898110D01*
X128502560Y-164150000D01*
X128502560Y-165850000D01*
X128546838Y-166085317D01*
X128685910Y-166301441D01*
X128898110Y-166446431D01*
X128965541Y-166460086D01*
X128920853Y-166489946D01*
X128598946Y-166971715D01*
X128485907Y-167540000D01*
X124054093Y-167540000D01*
X123941054Y-166971715D01*
X123619147Y-166489946D01*
X123278447Y-166262298D01*
X123421358Y-166195183D01*
X123811645Y-165766924D01*
X123981476Y-165356890D01*
X123860155Y-165127000D01*
X122667000Y-165127000D01*
X122667000Y-165147000D01*
X122413000Y-165147000D01*
X122413000Y-165127000D01*
X122393000Y-165127000D01*
X122393000Y-164873000D01*
X122413000Y-164873000D01*
X122413000Y-163679181D01*
X122667000Y-163679181D01*
X122667000Y-164873000D01*
X123860155Y-164873000D01*
X123981476Y-164643110D01*
X123811645Y-164233076D01*
X123421358Y-163804817D01*
X122896892Y-163558514D01*
X122667000Y-163679181D01*
X122413000Y-163679181D01*
X122183108Y-163558514D01*
X121658642Y-163804817D01*
X121471192Y-164010504D01*
X121453162Y-163914683D01*
X121314090Y-163698559D01*
X121101890Y-163553569D01*
X120850000Y-163502560D01*
X119150000Y-163502560D01*
X118914683Y-163546838D01*
X118698559Y-163685910D01*
X118553569Y-163898110D01*
X118502560Y-164150000D01*
X118502560Y-165850000D01*
X118546838Y-166085317D01*
X118685910Y-166301441D01*
X118898110Y-166446431D01*
X118965541Y-166460086D01*
X118920853Y-166489946D01*
X118598946Y-166971715D01*
X118485907Y-167540000D01*
X114054093Y-167540000D01*
X113941054Y-166971715D01*
X113619147Y-166489946D01*
X113278447Y-166262298D01*
X113421358Y-166195183D01*
X113811645Y-165766924D01*
X113981476Y-165356890D01*
X113860155Y-165127000D01*
X112667000Y-165127000D01*
X112667000Y-165147000D01*
X112413000Y-165147000D01*
X112413000Y-165127000D01*
X112393000Y-165127000D01*
X112393000Y-164873000D01*
X112413000Y-164873000D01*
X112413000Y-163679181D01*
X112667000Y-163679181D01*
X112667000Y-164873000D01*
X113860155Y-164873000D01*
X113981476Y-164643110D01*
X113811645Y-164233076D01*
X113421358Y-163804817D01*
X112896892Y-163558514D01*
X112667000Y-163679181D01*
X112413000Y-163679181D01*
X112183108Y-163558514D01*
X111658642Y-163804817D01*
X111471192Y-164010504D01*
X111453162Y-163914683D01*
X111314090Y-163698559D01*
X111101890Y-163553569D01*
X110850000Y-163502560D01*
X109150000Y-163502560D01*
X108914683Y-163546838D01*
X108698559Y-163685910D01*
X108553569Y-163898110D01*
X108502560Y-164150000D01*
X108502560Y-165850000D01*
X108546838Y-166085317D01*
X108685910Y-166301441D01*
X108898110Y-166446431D01*
X108965541Y-166460086D01*
X108920853Y-166489946D01*
X108598946Y-166971715D01*
X108485907Y-167540000D01*
X40710000Y-167540000D01*
X40710000Y-165323795D01*
X48364716Y-165323795D01*
X48613106Y-165924943D01*
X49072637Y-166385278D01*
X49673352Y-166634716D01*
X50323795Y-166635284D01*
X50924943Y-166386894D01*
X51385278Y-165927363D01*
X51634716Y-165326648D01*
X51634718Y-165323795D01*
X53364716Y-165323795D01*
X53613106Y-165924943D01*
X54072637Y-166385278D01*
X54673352Y-166634716D01*
X55323795Y-166635284D01*
X55924943Y-166386894D01*
X56385278Y-165927363D01*
X56634716Y-165326648D01*
X56634718Y-165323795D01*
X63364716Y-165323795D01*
X63613106Y-165924943D01*
X64072637Y-166385278D01*
X64673352Y-166634716D01*
X65323795Y-166635284D01*
X65924943Y-166386894D01*
X66385278Y-165927363D01*
X66634716Y-165326648D01*
X66634718Y-165323795D01*
X68364716Y-165323795D01*
X68613106Y-165924943D01*
X69072637Y-166385278D01*
X69673352Y-166634716D01*
X70323795Y-166635284D01*
X70924943Y-166386894D01*
X71385278Y-165927363D01*
X71634716Y-165326648D01*
X71634839Y-165185167D01*
X73364838Y-165185167D01*
X73506883Y-165528943D01*
X73769673Y-165792192D01*
X74113201Y-165934838D01*
X74485167Y-165935162D01*
X74828943Y-165793117D01*
X75092192Y-165530327D01*
X75177952Y-165323795D01*
X78364716Y-165323795D01*
X78613106Y-165924943D01*
X79072637Y-166385278D01*
X79673352Y-166634716D01*
X80323795Y-166635284D01*
X80924943Y-166386894D01*
X81385278Y-165927363D01*
X81634716Y-165326648D01*
X81634718Y-165323795D01*
X83364716Y-165323795D01*
X83613106Y-165924943D01*
X84072637Y-166385278D01*
X84673352Y-166634716D01*
X85323795Y-166635284D01*
X85924943Y-166386894D01*
X86385278Y-165927363D01*
X86634716Y-165326648D01*
X86635101Y-164885167D01*
X88664838Y-164885167D01*
X88806883Y-165228943D01*
X89069673Y-165492192D01*
X89413201Y-165634838D01*
X89785167Y-165635162D01*
X90128943Y-165493117D01*
X90298560Y-165323795D01*
X93364716Y-165323795D01*
X93613106Y-165924943D01*
X94072637Y-166385278D01*
X94673352Y-166634716D01*
X95323795Y-166635284D01*
X95924943Y-166386894D01*
X96385278Y-165927363D01*
X96634716Y-165326648D01*
X96634718Y-165323795D01*
X98364716Y-165323795D01*
X98613106Y-165924943D01*
X99072637Y-166385278D01*
X99673352Y-166634716D01*
X100323795Y-166635284D01*
X100924943Y-166386894D01*
X101385278Y-165927363D01*
X101634716Y-165326648D01*
X101634839Y-165185167D01*
X103664838Y-165185167D01*
X103806883Y-165528943D01*
X104069673Y-165792192D01*
X104413201Y-165934838D01*
X104785167Y-165935162D01*
X105128943Y-165793117D01*
X105392192Y-165530327D01*
X105534838Y-165186799D01*
X105535162Y-164814833D01*
X105393117Y-164471057D01*
X105130327Y-164207808D01*
X104786799Y-164065162D01*
X104414833Y-164064838D01*
X104071057Y-164206883D01*
X103807808Y-164469673D01*
X103665162Y-164813201D01*
X103664838Y-165185167D01*
X101634839Y-165185167D01*
X101635284Y-164676205D01*
X101386894Y-164075057D01*
X100927363Y-163614722D01*
X100326648Y-163365284D01*
X99676205Y-163364716D01*
X99075057Y-163613106D01*
X98614722Y-164072637D01*
X98365284Y-164673352D01*
X98364716Y-165323795D01*
X96634718Y-165323795D01*
X96635284Y-164676205D01*
X96386894Y-164075057D01*
X95927363Y-163614722D01*
X95326648Y-163365284D01*
X94676205Y-163364716D01*
X94075057Y-163613106D01*
X93614722Y-164072637D01*
X93365284Y-164673352D01*
X93364716Y-165323795D01*
X90298560Y-165323795D01*
X90392192Y-165230327D01*
X90534838Y-164886799D01*
X90535162Y-164514833D01*
X90393117Y-164171057D01*
X90130327Y-163907808D01*
X89786799Y-163765162D01*
X89414833Y-163764838D01*
X89071057Y-163906883D01*
X88807808Y-164169673D01*
X88665162Y-164513201D01*
X88664838Y-164885167D01*
X86635101Y-164885167D01*
X86635284Y-164676205D01*
X86386894Y-164075057D01*
X85927363Y-163614722D01*
X85326648Y-163365284D01*
X84676205Y-163364716D01*
X84075057Y-163613106D01*
X83614722Y-164072637D01*
X83365284Y-164673352D01*
X83364716Y-165323795D01*
X81634718Y-165323795D01*
X81635284Y-164676205D01*
X81386894Y-164075057D01*
X80927363Y-163614722D01*
X80326648Y-163365284D01*
X79676205Y-163364716D01*
X79075057Y-163613106D01*
X78614722Y-164072637D01*
X78365284Y-164673352D01*
X78364716Y-165323795D01*
X75177952Y-165323795D01*
X75234838Y-165186799D01*
X75235162Y-164814833D01*
X75093117Y-164471057D01*
X74830327Y-164207808D01*
X74486799Y-164065162D01*
X74114833Y-164064838D01*
X73771057Y-164206883D01*
X73507808Y-164469673D01*
X73365162Y-164813201D01*
X73364838Y-165185167D01*
X71634839Y-165185167D01*
X71635284Y-164676205D01*
X71386894Y-164075057D01*
X70927363Y-163614722D01*
X70326648Y-163365284D01*
X69676205Y-163364716D01*
X69075057Y-163613106D01*
X68614722Y-164072637D01*
X68365284Y-164673352D01*
X68364716Y-165323795D01*
X66634718Y-165323795D01*
X66635284Y-164676205D01*
X66386894Y-164075057D01*
X65927363Y-163614722D01*
X65326648Y-163365284D01*
X64676205Y-163364716D01*
X64075057Y-163613106D01*
X63614722Y-164072637D01*
X63365284Y-164673352D01*
X63364716Y-165323795D01*
X56634718Y-165323795D01*
X56635284Y-164676205D01*
X56556349Y-164485167D01*
X58464838Y-164485167D01*
X58606883Y-164828943D01*
X58869673Y-165092192D01*
X59213201Y-165234838D01*
X59585167Y-165235162D01*
X59928943Y-165093117D01*
X60192192Y-164830327D01*
X60334838Y-164486799D01*
X60335162Y-164114833D01*
X60193117Y-163771057D01*
X59930327Y-163507808D01*
X59586799Y-163365162D01*
X59214833Y-163364838D01*
X58871057Y-163506883D01*
X58607808Y-163769673D01*
X58465162Y-164113201D01*
X58464838Y-164485167D01*
X56556349Y-164485167D01*
X56386894Y-164075057D01*
X55927363Y-163614722D01*
X55326648Y-163365284D01*
X54676205Y-163364716D01*
X54075057Y-163613106D01*
X53614722Y-164072637D01*
X53365284Y-164673352D01*
X53364716Y-165323795D01*
X51634718Y-165323795D01*
X51635284Y-164676205D01*
X51386894Y-164075057D01*
X50927363Y-163614722D01*
X50326648Y-163365284D01*
X49676205Y-163364716D01*
X49075057Y-163613106D01*
X48614722Y-164072637D01*
X48365284Y-164673352D01*
X48364716Y-165323795D01*
X40710000Y-165323795D01*
X40710000Y-162335167D01*
X135414838Y-162335167D01*
X135556883Y-162678943D01*
X135819673Y-162942192D01*
X136163201Y-163084838D01*
X136535167Y-163085162D01*
X136812162Y-162970710D01*
X136856883Y-163078943D01*
X137119673Y-163342192D01*
X137463201Y-163484838D01*
X137835167Y-163485162D01*
X138178943Y-163343117D01*
X138442192Y-163080327D01*
X138584838Y-162736799D01*
X138585162Y-162364833D01*
X138443117Y-162021057D01*
X138180327Y-161757808D01*
X137836799Y-161615162D01*
X137464833Y-161614838D01*
X137187838Y-161729290D01*
X137143117Y-161621057D01*
X136880327Y-161357808D01*
X136536799Y-161215162D01*
X136164833Y-161214838D01*
X135821057Y-161356883D01*
X135557808Y-161619673D01*
X135415162Y-161963201D01*
X135414838Y-162335167D01*
X40710000Y-162335167D01*
X40710000Y-157685167D01*
X53814838Y-157685167D01*
X53956883Y-158028943D01*
X54219673Y-158292192D01*
X54563201Y-158434838D01*
X54935167Y-158435162D01*
X55278943Y-158293117D01*
X55542192Y-158030327D01*
X55684838Y-157686799D01*
X55685057Y-157435167D01*
X69564838Y-157435167D01*
X69706883Y-157778943D01*
X69969673Y-158042192D01*
X70313201Y-158184838D01*
X70685167Y-158185162D01*
X71028943Y-158043117D01*
X71292192Y-157780327D01*
X71331706Y-157685167D01*
X84314838Y-157685167D01*
X84456883Y-158028943D01*
X84719673Y-158292192D01*
X85063201Y-158434838D01*
X85435167Y-158435162D01*
X85778943Y-158293117D01*
X86042192Y-158030327D01*
X86184838Y-157686799D01*
X86184839Y-157685167D01*
X99314838Y-157685167D01*
X99456883Y-158028943D01*
X99719673Y-158292192D01*
X100063201Y-158434838D01*
X100435167Y-158435162D01*
X100778943Y-158293117D01*
X101042192Y-158030327D01*
X101184838Y-157686799D01*
X101184839Y-157685167D01*
X111564838Y-157685167D01*
X111706883Y-158028943D01*
X111969673Y-158292192D01*
X112313201Y-158434838D01*
X112685167Y-158435162D01*
X113028943Y-158293117D01*
X113292192Y-158030327D01*
X113434838Y-157686799D01*
X113435162Y-157314833D01*
X113293117Y-156971057D01*
X113030327Y-156707808D01*
X112686799Y-156565162D01*
X112314833Y-156564838D01*
X111971057Y-156706883D01*
X111707808Y-156969673D01*
X111565162Y-157313201D01*
X111564838Y-157685167D01*
X101184839Y-157685167D01*
X101185162Y-157314833D01*
X101043117Y-156971057D01*
X100780327Y-156707808D01*
X100436799Y-156565162D01*
X100064833Y-156564838D01*
X99721057Y-156706883D01*
X99457808Y-156969673D01*
X99315162Y-157313201D01*
X99314838Y-157685167D01*
X86184839Y-157685167D01*
X86185162Y-157314833D01*
X86043117Y-156971057D01*
X85780327Y-156707808D01*
X85436799Y-156565162D01*
X85064833Y-156564838D01*
X84721057Y-156706883D01*
X84457808Y-156969673D01*
X84315162Y-157313201D01*
X84314838Y-157685167D01*
X71331706Y-157685167D01*
X71434838Y-157436799D01*
X71435162Y-157064833D01*
X71293117Y-156721057D01*
X71030327Y-156457808D01*
X70686799Y-156315162D01*
X70314833Y-156314838D01*
X69971057Y-156456883D01*
X69707808Y-156719673D01*
X69565162Y-157063201D01*
X69564838Y-157435167D01*
X55685057Y-157435167D01*
X55685162Y-157314833D01*
X55543117Y-156971057D01*
X55280327Y-156707808D01*
X54936799Y-156565162D01*
X54564833Y-156564838D01*
X54221057Y-156706883D01*
X53957808Y-156969673D01*
X53815162Y-157313201D01*
X53814838Y-157685167D01*
X40710000Y-157685167D01*
X40710000Y-150680167D01*
X96219838Y-150680167D01*
X96361883Y-151023943D01*
X96624673Y-151287192D01*
X96968201Y-151429838D01*
X97340167Y-151430162D01*
X97553092Y-151342183D01*
X132509107Y-151342183D01*
X132649199Y-151681232D01*
X132615162Y-151763201D01*
X132614838Y-152135167D01*
X132756883Y-152478943D01*
X132950250Y-152672647D01*
X132950085Y-152861536D01*
X133092130Y-153205312D01*
X133354920Y-153468561D01*
X133698448Y-153611207D01*
X134070414Y-153611531D01*
X134414190Y-153469486D01*
X134592316Y-153291670D01*
X134706883Y-153568943D01*
X134969673Y-153832192D01*
X135313201Y-153974838D01*
X135685167Y-153975162D01*
X136028943Y-153833117D01*
X136292192Y-153570327D01*
X136434838Y-153226799D01*
X136435162Y-152854833D01*
X136293117Y-152511057D01*
X136030327Y-152247808D01*
X135686799Y-152105162D01*
X135314833Y-152104838D01*
X134971057Y-152246883D01*
X134792931Y-152424699D01*
X134678364Y-152147426D01*
X134484997Y-151953722D01*
X134485162Y-151764833D01*
X134345070Y-151425784D01*
X134379107Y-151343815D01*
X134379431Y-150971849D01*
X134237386Y-150628073D01*
X133974596Y-150364824D01*
X133631068Y-150222178D01*
X133259102Y-150221854D01*
X132915326Y-150363899D01*
X132652077Y-150626689D01*
X132509431Y-150970217D01*
X132509107Y-151342183D01*
X97553092Y-151342183D01*
X97683943Y-151288117D01*
X97947192Y-151025327D01*
X98089838Y-150681799D01*
X98090162Y-150309833D01*
X97948117Y-149966057D01*
X97685327Y-149702808D01*
X97341799Y-149560162D01*
X96969833Y-149559838D01*
X96626057Y-149701883D01*
X96362808Y-149964673D01*
X96220162Y-150308201D01*
X96219838Y-150680167D01*
X40710000Y-150680167D01*
X40710000Y-146570169D01*
X95764838Y-146570169D01*
X95906883Y-146913945D01*
X96169673Y-147177194D01*
X96513201Y-147319840D01*
X96885167Y-147320164D01*
X97228943Y-147178119D01*
X97422232Y-146985167D01*
X107814838Y-146985167D01*
X107956883Y-147328943D01*
X108219673Y-147592192D01*
X108563201Y-147734838D01*
X108615056Y-147734883D01*
X108614838Y-147985167D01*
X108756883Y-148328943D01*
X109019673Y-148592192D01*
X109363201Y-148734838D01*
X109735167Y-148735162D01*
X110078943Y-148593117D01*
X110342192Y-148330327D01*
X110484838Y-147986799D01*
X110485162Y-147614833D01*
X110343117Y-147271057D01*
X110257377Y-147185167D01*
X119214838Y-147185167D01*
X119356883Y-147528943D01*
X119619673Y-147792192D01*
X119963201Y-147934838D01*
X120335167Y-147935162D01*
X120678943Y-147793117D01*
X120942192Y-147530327D01*
X121084838Y-147186799D01*
X121084840Y-147184857D01*
X121435167Y-147185162D01*
X121778943Y-147043117D01*
X121953741Y-146868624D01*
X122113201Y-146934838D01*
X122485167Y-146935162D01*
X122828943Y-146793117D01*
X123092192Y-146530327D01*
X123131836Y-146434854D01*
X123485167Y-146435162D01*
X123828943Y-146293117D01*
X124092192Y-146030327D01*
X124234838Y-145686799D01*
X124235162Y-145314833D01*
X124093117Y-144971057D01*
X123830327Y-144707808D01*
X123486799Y-144565162D01*
X123114833Y-144564838D01*
X122771057Y-144706883D01*
X122507808Y-144969673D01*
X122468164Y-145065146D01*
X122114833Y-145064838D01*
X121771057Y-145206883D01*
X121596259Y-145381376D01*
X121436799Y-145315162D01*
X121064833Y-145314838D01*
X120721057Y-145456883D01*
X120457808Y-145719673D01*
X120315162Y-146063201D01*
X120315160Y-146065143D01*
X119964833Y-146064838D01*
X119621057Y-146206883D01*
X119357808Y-146469673D01*
X119215162Y-146813201D01*
X119214838Y-147185167D01*
X110257377Y-147185167D01*
X110080327Y-147007808D01*
X109736799Y-146865162D01*
X109684944Y-146865117D01*
X109685162Y-146614833D01*
X109543117Y-146271057D01*
X109280327Y-146007808D01*
X108936799Y-145865162D01*
X108564833Y-145864838D01*
X108221057Y-146006883D01*
X107957808Y-146269673D01*
X107815162Y-146613201D01*
X107814838Y-146985167D01*
X97422232Y-146985167D01*
X97492192Y-146915329D01*
X97634838Y-146571801D01*
X97635162Y-146199835D01*
X97493117Y-145856059D01*
X97230327Y-145592810D01*
X96886799Y-145450164D01*
X96514833Y-145449840D01*
X96171057Y-145591885D01*
X95907808Y-145854675D01*
X95765162Y-146198203D01*
X95764838Y-146570169D01*
X40710000Y-146570169D01*
X40710000Y-143656892D01*
X132528514Y-143656892D01*
X132774817Y-144181358D01*
X133203076Y-144571645D01*
X133613110Y-144741476D01*
X133843000Y-144620155D01*
X133843000Y-143427000D01*
X132649181Y-143427000D01*
X132528514Y-143656892D01*
X40710000Y-143656892D01*
X40710000Y-142335167D01*
X95014838Y-142335167D01*
X95156883Y-142678943D01*
X95419673Y-142942192D01*
X95763201Y-143084838D01*
X96135167Y-143085162D01*
X96478943Y-142943117D01*
X96742192Y-142680327D01*
X96884838Y-142336799D01*
X96885162Y-141964833D01*
X96743117Y-141621057D01*
X96480327Y-141357808D01*
X96136799Y-141215162D01*
X95764833Y-141214838D01*
X95421057Y-141356883D01*
X95157808Y-141619673D01*
X95015162Y-141963201D01*
X95014838Y-142335167D01*
X40710000Y-142335167D01*
X40710000Y-140730907D01*
X132485000Y-140730907D01*
X132485000Y-140789093D01*
X132598039Y-141357378D01*
X132919946Y-141839147D01*
X133203101Y-142028345D01*
X133203076Y-142028355D01*
X132774817Y-142418642D01*
X132528514Y-142943108D01*
X132649181Y-143173000D01*
X133843000Y-143173000D01*
X133843000Y-143153000D01*
X134097000Y-143153000D01*
X134097000Y-143173000D01*
X134117000Y-143173000D01*
X134117000Y-143427000D01*
X134097000Y-143427000D01*
X134097000Y-144620155D01*
X134326890Y-144741476D01*
X134736924Y-144571645D01*
X135165183Y-144181358D01*
X135232298Y-144038447D01*
X135459946Y-144379147D01*
X135941715Y-144701054D01*
X136510000Y-144814093D01*
X137078285Y-144701054D01*
X137560054Y-144379147D01*
X137780000Y-144049974D01*
X137999946Y-144379147D01*
X138481715Y-144701054D01*
X139050000Y-144814093D01*
X139618285Y-144701054D01*
X140100054Y-144379147D01*
X140320000Y-144049974D01*
X140539946Y-144379147D01*
X141021715Y-144701054D01*
X141590000Y-144814093D01*
X142158285Y-144701054D01*
X142640054Y-144379147D01*
X142860000Y-144049974D01*
X143079946Y-144379147D01*
X143561715Y-144701054D01*
X144130000Y-144814093D01*
X144698285Y-144701054D01*
X145180054Y-144379147D01*
X145400000Y-144049974D01*
X145619946Y-144379147D01*
X146101715Y-144701054D01*
X146670000Y-144814093D01*
X147238285Y-144701054D01*
X147720054Y-144379147D01*
X147940000Y-144049974D01*
X148159946Y-144379147D01*
X148641715Y-144701054D01*
X149210000Y-144814093D01*
X149778285Y-144701054D01*
X150260054Y-144379147D01*
X150287850Y-144337548D01*
X150296838Y-144385317D01*
X150435910Y-144601441D01*
X150648110Y-144746431D01*
X150900000Y-144797440D01*
X152600000Y-144797440D01*
X152835317Y-144753162D01*
X153051441Y-144614090D01*
X153196431Y-144401890D01*
X153247440Y-144150000D01*
X153247440Y-142450000D01*
X153203162Y-142214683D01*
X153064090Y-141998559D01*
X152851890Y-141853569D01*
X152795546Y-141842159D01*
X152800054Y-141839147D01*
X153121961Y-141357378D01*
X153235000Y-140789093D01*
X153235000Y-140730907D01*
X153121961Y-140162622D01*
X152800054Y-139680853D01*
X152318285Y-139358946D01*
X151750000Y-139245907D01*
X151181715Y-139358946D01*
X150699946Y-139680853D01*
X150480000Y-140010026D01*
X150260054Y-139680853D01*
X149778285Y-139358946D01*
X149210000Y-139245907D01*
X148641715Y-139358946D01*
X148159946Y-139680853D01*
X147940000Y-140010026D01*
X147720054Y-139680853D01*
X147238285Y-139358946D01*
X146670000Y-139245907D01*
X146101715Y-139358946D01*
X145619946Y-139680853D01*
X145400000Y-140010026D01*
X145180054Y-139680853D01*
X144698285Y-139358946D01*
X144130000Y-139245907D01*
X143561715Y-139358946D01*
X143079946Y-139680853D01*
X142860000Y-140010026D01*
X142640054Y-139680853D01*
X142158285Y-139358946D01*
X141590000Y-139245907D01*
X141021715Y-139358946D01*
X140539946Y-139680853D01*
X140320000Y-140010026D01*
X140100054Y-139680853D01*
X139618285Y-139358946D01*
X139050000Y-139245907D01*
X138481715Y-139358946D01*
X137999946Y-139680853D01*
X137780000Y-140010026D01*
X137560054Y-139680853D01*
X137078285Y-139358946D01*
X136510000Y-139245907D01*
X135941715Y-139358946D01*
X135459946Y-139680853D01*
X135240000Y-140010026D01*
X135020054Y-139680853D01*
X134538285Y-139358946D01*
X133970000Y-139245907D01*
X133401715Y-139358946D01*
X132919946Y-139680853D01*
X132598039Y-140162622D01*
X132485000Y-140730907D01*
X40710000Y-140730907D01*
X40710000Y-137635167D01*
X89364838Y-137635167D01*
X89506883Y-137978943D01*
X89769673Y-138242192D01*
X90113201Y-138384838D01*
X90485167Y-138385162D01*
X90828943Y-138243117D01*
X90987168Y-138085167D01*
X132214838Y-138085167D01*
X132356883Y-138428943D01*
X132619673Y-138692192D01*
X132963201Y-138834838D01*
X133335167Y-138835162D01*
X133678943Y-138693117D01*
X133942192Y-138430327D01*
X134084838Y-138086799D01*
X134085162Y-137714833D01*
X133943117Y-137371057D01*
X133680327Y-137107808D01*
X133336799Y-136965162D01*
X132964833Y-136964838D01*
X132621057Y-137106883D01*
X132357808Y-137369673D01*
X132215162Y-137713201D01*
X132214838Y-138085167D01*
X90987168Y-138085167D01*
X91092192Y-137980327D01*
X91234838Y-137636799D01*
X91235162Y-137264833D01*
X91093117Y-136921057D01*
X90830327Y-136657808D01*
X90486799Y-136515162D01*
X90114833Y-136514838D01*
X89771057Y-136656883D01*
X89507808Y-136919673D01*
X89365162Y-137263201D01*
X89364838Y-137635167D01*
X40710000Y-137635167D01*
X40710000Y-134585167D01*
X92764838Y-134585167D01*
X92906883Y-134928943D01*
X93169673Y-135192192D01*
X93513201Y-135334838D01*
X93885167Y-135335162D01*
X94228943Y-135193117D01*
X94492192Y-134930327D01*
X94510944Y-134885167D01*
X96014838Y-134885167D01*
X96156883Y-135228943D01*
X96419673Y-135492192D01*
X96763201Y-135634838D01*
X97135167Y-135635162D01*
X97377173Y-135535167D01*
X128864838Y-135535167D01*
X128999297Y-135860583D01*
X128915162Y-136063201D01*
X128914838Y-136435167D01*
X129056883Y-136778943D01*
X129319673Y-137042192D01*
X129663201Y-137184838D01*
X130035167Y-137185162D01*
X130378943Y-137043117D01*
X130642192Y-136780327D01*
X130784838Y-136436799D01*
X130785162Y-136064833D01*
X130650703Y-135739417D01*
X130734838Y-135536799D01*
X130735162Y-135164833D01*
X130593117Y-134821057D01*
X130330327Y-134557808D01*
X129986799Y-134415162D01*
X129614833Y-134414838D01*
X129271057Y-134556883D01*
X129007808Y-134819673D01*
X128865162Y-135163201D01*
X128864838Y-135535167D01*
X97377173Y-135535167D01*
X97478943Y-135493117D01*
X97742192Y-135230327D01*
X97884838Y-134886799D01*
X97885162Y-134514833D01*
X97743117Y-134171057D01*
X97480327Y-133907808D01*
X97136799Y-133765162D01*
X96764833Y-133764838D01*
X96421057Y-133906883D01*
X96157808Y-134169673D01*
X96015162Y-134513201D01*
X96014838Y-134885167D01*
X94510944Y-134885167D01*
X94634838Y-134586799D01*
X94635162Y-134214833D01*
X94493117Y-133871057D01*
X94230327Y-133607808D01*
X93886799Y-133465162D01*
X93514833Y-133464838D01*
X93171057Y-133606883D01*
X92907808Y-133869673D01*
X92765162Y-134213201D01*
X92764838Y-134585167D01*
X40710000Y-134585167D01*
X40710000Y-114078767D01*
X112437738Y-114078767D01*
X112579783Y-114422543D01*
X112842573Y-114685792D01*
X113186101Y-114828438D01*
X113558067Y-114828762D01*
X113901843Y-114686717D01*
X114165092Y-114423927D01*
X114307738Y-114080399D01*
X114308062Y-113708433D01*
X114166017Y-113364657D01*
X113903227Y-113101408D01*
X113559699Y-112958762D01*
X113187733Y-112958438D01*
X112843957Y-113100483D01*
X112580708Y-113363273D01*
X112438062Y-113706801D01*
X112437738Y-114078767D01*
X40710000Y-114078767D01*
X40710000Y-106050000D01*
X102752560Y-106050000D01*
X102752560Y-107750000D01*
X102796838Y-107985317D01*
X102935910Y-108201441D01*
X103148110Y-108346431D01*
X103204454Y-108357841D01*
X103199946Y-108360853D01*
X102878039Y-108842622D01*
X102765000Y-109410907D01*
X102765000Y-109469093D01*
X102878039Y-110037378D01*
X103199946Y-110519147D01*
X103681715Y-110841054D01*
X104250000Y-110954093D01*
X104818285Y-110841054D01*
X105300054Y-110519147D01*
X105520000Y-110189974D01*
X105739946Y-110519147D01*
X106221715Y-110841054D01*
X106790000Y-110954093D01*
X107358285Y-110841054D01*
X107840054Y-110519147D01*
X108060000Y-110189974D01*
X108279946Y-110519147D01*
X108761715Y-110841054D01*
X109330000Y-110954093D01*
X109898285Y-110841054D01*
X110380054Y-110519147D01*
X110600000Y-110189974D01*
X110819946Y-110519147D01*
X111301715Y-110841054D01*
X111870000Y-110954093D01*
X112438285Y-110841054D01*
X112920054Y-110519147D01*
X113140000Y-110189974D01*
X113359946Y-110519147D01*
X113841715Y-110841054D01*
X114028016Y-110878112D01*
X113923962Y-111128701D01*
X113923638Y-111500667D01*
X114065683Y-111844443D01*
X114328473Y-112107692D01*
X114672001Y-112250338D01*
X115043967Y-112250662D01*
X115387743Y-112108617D01*
X115398812Y-112097567D01*
X116260438Y-112097567D01*
X116402483Y-112441343D01*
X116665273Y-112704592D01*
X117008801Y-112847238D01*
X117380767Y-112847562D01*
X117724543Y-112705517D01*
X117987792Y-112442727D01*
X118130438Y-112099199D01*
X118130762Y-111727233D01*
X117988717Y-111383457D01*
X117725927Y-111120208D01*
X117382399Y-110977562D01*
X117010433Y-110977238D01*
X116666657Y-111119283D01*
X116403408Y-111382073D01*
X116260762Y-111725601D01*
X116260438Y-112097567D01*
X115398812Y-112097567D01*
X115650992Y-111845827D01*
X115793638Y-111502299D01*
X115793962Y-111130333D01*
X115651917Y-110786557D01*
X115415015Y-110549241D01*
X115460054Y-110519147D01*
X115680000Y-110189974D01*
X115899946Y-110519147D01*
X116381715Y-110841054D01*
X116950000Y-110954093D01*
X117518285Y-110841054D01*
X118000054Y-110519147D01*
X118220000Y-110189974D01*
X118439946Y-110519147D01*
X118921715Y-110841054D01*
X119490000Y-110954093D01*
X120058285Y-110841054D01*
X120540054Y-110519147D01*
X120760000Y-110189974D01*
X120979946Y-110519147D01*
X121461715Y-110841054D01*
X122030000Y-110954093D01*
X122598285Y-110841054D01*
X123080054Y-110519147D01*
X123300000Y-110189974D01*
X123519946Y-110519147D01*
X124001715Y-110841054D01*
X124570000Y-110954093D01*
X125138285Y-110841054D01*
X125620054Y-110519147D01*
X125840000Y-110189974D01*
X126059946Y-110519147D01*
X126541715Y-110841054D01*
X127110000Y-110954093D01*
X127678285Y-110841054D01*
X128160054Y-110519147D01*
X128481961Y-110037378D01*
X128595000Y-109469093D01*
X128595000Y-109410907D01*
X128481961Y-108842622D01*
X128160054Y-108360853D01*
X127874422Y-108170000D01*
X128160054Y-107979147D01*
X128481961Y-107497378D01*
X128595000Y-106929093D01*
X128595000Y-106870907D01*
X128481961Y-106302622D01*
X128160054Y-105820853D01*
X127678285Y-105498946D01*
X127110000Y-105385907D01*
X126541715Y-105498946D01*
X126059946Y-105820853D01*
X125840000Y-106150026D01*
X125620054Y-105820853D01*
X125138285Y-105498946D01*
X124570000Y-105385907D01*
X124001715Y-105498946D01*
X123519946Y-105820853D01*
X123300000Y-106150026D01*
X123080054Y-105820853D01*
X122598285Y-105498946D01*
X122030000Y-105385907D01*
X121461715Y-105498946D01*
X120979946Y-105820853D01*
X120760000Y-106150026D01*
X120540054Y-105820853D01*
X120058285Y-105498946D01*
X119490000Y-105385907D01*
X118921715Y-105498946D01*
X118439946Y-105820853D01*
X118220000Y-106150026D01*
X118000054Y-105820853D01*
X117518285Y-105498946D01*
X116950000Y-105385907D01*
X116381715Y-105498946D01*
X115899946Y-105820853D01*
X115680000Y-106150026D01*
X115460054Y-105820853D01*
X114978285Y-105498946D01*
X114410000Y-105385907D01*
X113841715Y-105498946D01*
X113359946Y-105820853D01*
X113140000Y-106150026D01*
X112920054Y-105820853D01*
X112438285Y-105498946D01*
X111870000Y-105385907D01*
X111301715Y-105498946D01*
X110819946Y-105820853D01*
X110600000Y-106150026D01*
X110380054Y-105820853D01*
X109898285Y-105498946D01*
X109330000Y-105385907D01*
X108761715Y-105498946D01*
X108279946Y-105820853D01*
X108060000Y-106150026D01*
X107840054Y-105820853D01*
X107358285Y-105498946D01*
X106790000Y-105385907D01*
X106221715Y-105498946D01*
X105739946Y-105820853D01*
X105712150Y-105862452D01*
X105703162Y-105814683D01*
X105564090Y-105598559D01*
X105351890Y-105453569D01*
X105100000Y-105402560D01*
X103400000Y-105402560D01*
X103164683Y-105446838D01*
X102948559Y-105585910D01*
X102803569Y-105798110D01*
X102752560Y-106050000D01*
X40710000Y-106050000D01*
X40710000Y-41785750D01*
X102765000Y-41785750D01*
X102765000Y-42476309D01*
X102861673Y-42709698D01*
X103040301Y-42888327D01*
X103205858Y-42956903D01*
X103199946Y-42960853D01*
X102878039Y-43442622D01*
X102765000Y-44010907D01*
X102765000Y-44069093D01*
X102878039Y-44637378D01*
X103199946Y-45119147D01*
X103681715Y-45441054D01*
X104250000Y-45554093D01*
X104818285Y-45441054D01*
X105300054Y-45119147D01*
X105520000Y-44789974D01*
X105739946Y-45119147D01*
X106221715Y-45441054D01*
X106790000Y-45554093D01*
X107358285Y-45441054D01*
X107840054Y-45119147D01*
X108060000Y-44789974D01*
X108279946Y-45119147D01*
X108761715Y-45441054D01*
X109330000Y-45554093D01*
X109898285Y-45441054D01*
X110380054Y-45119147D01*
X110600000Y-44789974D01*
X110819946Y-45119147D01*
X111301715Y-45441054D01*
X111870000Y-45554093D01*
X112438285Y-45441054D01*
X112920054Y-45119147D01*
X113140000Y-44789974D01*
X113359946Y-45119147D01*
X113841715Y-45441054D01*
X114410000Y-45554093D01*
X114978285Y-45441054D01*
X115460054Y-45119147D01*
X115680000Y-44789974D01*
X115899946Y-45119147D01*
X116381715Y-45441054D01*
X116950000Y-45554093D01*
X117518285Y-45441054D01*
X118000054Y-45119147D01*
X118220000Y-44789974D01*
X118439946Y-45119147D01*
X118921715Y-45441054D01*
X119490000Y-45554093D01*
X120058285Y-45441054D01*
X120540054Y-45119147D01*
X120760000Y-44789974D01*
X120979946Y-45119147D01*
X121461715Y-45441054D01*
X122030000Y-45554093D01*
X122598285Y-45441054D01*
X123080054Y-45119147D01*
X123300000Y-44789974D01*
X123519946Y-45119147D01*
X124001715Y-45441054D01*
X124570000Y-45554093D01*
X125138285Y-45441054D01*
X125620054Y-45119147D01*
X125840000Y-44789974D01*
X126059946Y-45119147D01*
X126541715Y-45441054D01*
X127110000Y-45554093D01*
X127678285Y-45441054D01*
X128160054Y-45119147D01*
X128481961Y-44637378D01*
X128595000Y-44069093D01*
X128595000Y-44010907D01*
X128481961Y-43442622D01*
X128160054Y-42960853D01*
X127874422Y-42770000D01*
X128160054Y-42579147D01*
X128481961Y-42097378D01*
X128595000Y-41529093D01*
X128595000Y-41470907D01*
X128481961Y-40902622D01*
X128160054Y-40420853D01*
X127678285Y-40098946D01*
X127110000Y-39985907D01*
X126541715Y-40098946D01*
X126059946Y-40420853D01*
X125840000Y-40750026D01*
X125620054Y-40420853D01*
X125138285Y-40098946D01*
X124570000Y-39985907D01*
X124001715Y-40098946D01*
X123519946Y-40420853D01*
X123300000Y-40750026D01*
X123080054Y-40420853D01*
X122598285Y-40098946D01*
X122030000Y-39985907D01*
X121461715Y-40098946D01*
X120979946Y-40420853D01*
X120760000Y-40750026D01*
X120540054Y-40420853D01*
X120058285Y-40098946D01*
X119490000Y-39985907D01*
X118921715Y-40098946D01*
X118439946Y-40420853D01*
X118220000Y-40750026D01*
X118000054Y-40420853D01*
X117518285Y-40098946D01*
X116950000Y-39985907D01*
X116381715Y-40098946D01*
X115899946Y-40420853D01*
X115680000Y-40750026D01*
X115460054Y-40420853D01*
X114978285Y-40098946D01*
X114410000Y-39985907D01*
X113841715Y-40098946D01*
X113359946Y-40420853D01*
X113140000Y-40750026D01*
X112920054Y-40420853D01*
X112438285Y-40098946D01*
X111870000Y-39985907D01*
X111301715Y-40098946D01*
X110819946Y-40420853D01*
X110600000Y-40750026D01*
X110380054Y-40420853D01*
X109898285Y-40098946D01*
X109330000Y-39985907D01*
X108761715Y-40098946D01*
X108279946Y-40420853D01*
X108060000Y-40750026D01*
X107840054Y-40420853D01*
X107358285Y-40098946D01*
X106790000Y-39985907D01*
X106221715Y-40098946D01*
X105739946Y-40420853D01*
X105710597Y-40464777D01*
X105638327Y-40290302D01*
X105459699Y-40111673D01*
X105226310Y-40015000D01*
X104535750Y-40015000D01*
X104377000Y-40173750D01*
X104377000Y-41373000D01*
X104397000Y-41373000D01*
X104397000Y-41627000D01*
X104377000Y-41627000D01*
X104377000Y-41647000D01*
X104123000Y-41647000D01*
X104123000Y-41627000D01*
X102923750Y-41627000D01*
X102765000Y-41785750D01*
X40710000Y-41785750D01*
X40710000Y-40523691D01*
X102765000Y-40523691D01*
X102765000Y-41214250D01*
X102923750Y-41373000D01*
X104123000Y-41373000D01*
X104123000Y-40173750D01*
X103964250Y-40015000D01*
X103273690Y-40015000D01*
X103040301Y-40111673D01*
X102861673Y-40290302D01*
X102765000Y-40523691D01*
X40710000Y-40523691D01*
X40710000Y-38485167D01*
X106414838Y-38485167D01*
X106556883Y-38828943D01*
X106819673Y-39092192D01*
X107163201Y-39234838D01*
X107535167Y-39235162D01*
X107878943Y-39093117D01*
X108142192Y-38830327D01*
X108284838Y-38486799D01*
X108285162Y-38114833D01*
X108143117Y-37771057D01*
X107880327Y-37507808D01*
X107536799Y-37365162D01*
X107164833Y-37364838D01*
X106821057Y-37506883D01*
X106557808Y-37769673D01*
X106415162Y-38113201D01*
X106414838Y-38485167D01*
X40710000Y-38485167D01*
X40710000Y-30710000D01*
X159290000Y-30710000D01*
X159290000Y-179290000D01*
M02*
