G04 #@! TF.FileFunction,Copper,L2,Inr,Plane*
%FSLAX46Y46*%
G04 Gerber Fmt 4.6, Leading zero omitted, Abs format (unit mm)*
G04 Created by KiCad (PCBNEW 4.0.6) date Friday, August 25, 2017 'AMt' 01:12:00 AM*
%MOMM*%
%LPD*%
G01*
G04 APERTURE LIST*
%ADD10C,0.100000*%
%ADD11R,1.700000X1.700000*%
%ADD12O,1.700000X1.700000*%
%ADD13C,2.000000*%
%ADD14C,0.700000*%
%ADD15C,0.254000*%
G04 APERTURE END LIST*
D10*
D11*
X151750000Y-143300000D03*
D12*
X151750000Y-140760000D03*
X149210000Y-143300000D03*
X149210000Y-140760000D03*
X146670000Y-143300000D03*
X146670000Y-140760000D03*
X144130000Y-143300000D03*
X144130000Y-140760000D03*
X141590000Y-143300000D03*
X141590000Y-140760000D03*
X139050000Y-143300000D03*
X139050000Y-140760000D03*
X136510000Y-143300000D03*
X136510000Y-140760000D03*
X133970000Y-143300000D03*
X133970000Y-140760000D03*
D11*
X104250000Y-41500000D03*
D12*
X104250000Y-44040000D03*
X106790000Y-41500000D03*
X106790000Y-44040000D03*
X109330000Y-41500000D03*
X109330000Y-44040000D03*
X111870000Y-41500000D03*
X111870000Y-44040000D03*
X114410000Y-41500000D03*
X114410000Y-44040000D03*
X116950000Y-41500000D03*
X116950000Y-44040000D03*
X119490000Y-41500000D03*
X119490000Y-44040000D03*
X122030000Y-41500000D03*
X122030000Y-44040000D03*
X124570000Y-41500000D03*
X124570000Y-44040000D03*
X127110000Y-41500000D03*
X127110000Y-44040000D03*
D11*
X104250000Y-106900000D03*
D12*
X104250000Y-109440000D03*
X106790000Y-106900000D03*
X106790000Y-109440000D03*
X109330000Y-106900000D03*
X109330000Y-109440000D03*
X111870000Y-106900000D03*
X111870000Y-109440000D03*
X114410000Y-106900000D03*
X114410000Y-109440000D03*
X116950000Y-106900000D03*
X116950000Y-109440000D03*
X119490000Y-106900000D03*
X119490000Y-109440000D03*
X122030000Y-106900000D03*
X122030000Y-109440000D03*
X124570000Y-106900000D03*
X124570000Y-109440000D03*
X127110000Y-106900000D03*
X127110000Y-109440000D03*
D11*
X120000000Y-165000000D03*
D12*
X122540000Y-165000000D03*
X120000000Y-167540000D03*
X122540000Y-167540000D03*
X120000000Y-170080000D03*
X122540000Y-170080000D03*
D11*
X140000000Y-165000000D03*
D12*
X142540000Y-165000000D03*
X140000000Y-167540000D03*
X142540000Y-167540000D03*
X140000000Y-170080000D03*
X142540000Y-170080000D03*
D11*
X150000000Y-165000000D03*
D12*
X152540000Y-165000000D03*
X150000000Y-167540000D03*
X152540000Y-167540000D03*
X150000000Y-170080000D03*
X152540000Y-170080000D03*
D11*
X110000000Y-165000000D03*
D12*
X112540000Y-165000000D03*
X110000000Y-167540000D03*
X112540000Y-167540000D03*
X110000000Y-170080000D03*
X112540000Y-170080000D03*
D11*
X130000000Y-165000000D03*
D12*
X132540000Y-165000000D03*
X130000000Y-167540000D03*
X132540000Y-167540000D03*
X130000000Y-170080000D03*
X132540000Y-170080000D03*
D13*
X50000000Y-165000000D03*
X55000000Y-165000000D03*
X55000000Y-170000000D03*
X50000000Y-170000000D03*
X65000000Y-165000000D03*
X70000000Y-165000000D03*
X70000000Y-170000000D03*
X65000000Y-170000000D03*
X80000000Y-165000000D03*
X85000000Y-165000000D03*
X85000000Y-170000000D03*
X80000000Y-170000000D03*
X95000000Y-165000000D03*
X100000000Y-165000000D03*
X100000000Y-170000000D03*
X95000000Y-170000000D03*
D14*
X133150000Y-137900000D03*
X107350000Y-38300000D03*
X112500000Y-157500000D03*
X100250000Y-157500000D03*
X85250000Y-157500000D03*
X70500000Y-157250000D03*
X54750000Y-157500000D03*
X145900000Y-170900000D03*
X155400000Y-171000000D03*
X135200000Y-170900000D03*
X126000000Y-171300000D03*
X115300000Y-170900000D03*
X104600000Y-165000000D03*
X89600000Y-164700000D03*
X74300000Y-165000000D03*
X59400000Y-164300000D03*
X90134702Y-137289298D03*
X93700000Y-134400000D03*
X96950000Y-134700000D03*
X96139000Y-141986000D03*
X138176000Y-163076000D03*
X135890000Y-162052000D03*
X131699000Y-152527000D03*
X135500000Y-153040000D03*
X122300000Y-146000000D03*
X133096000Y-151003000D03*
X121250000Y-145415000D03*
X109550000Y-147800000D03*
X108750000Y-146800000D03*
X97155000Y-150495000D03*
X129850000Y-136250000D03*
X128524000Y-135636000D03*
X96700000Y-146385002D03*
X134747000Y-164338000D03*
X124841000Y-163957000D03*
X114681000Y-164465000D03*
X132350000Y-145150000D03*
X103700000Y-38200000D03*
X107250000Y-153000000D03*
X90000000Y-153000000D03*
X75000000Y-152750000D03*
X60000000Y-153000000D03*
X46000000Y-153000000D03*
X155500000Y-163500000D03*
X145500000Y-164100000D03*
X120150000Y-147000000D03*
X145050000Y-165950000D03*
X132334000Y-151638000D03*
X123300000Y-145500000D03*
X113372900Y-113893600D03*
X117700000Y-176050000D03*
X117195600Y-111912400D03*
X114858800Y-111315500D03*
D15*
G36*
X159290000Y-179290000D02*
X40710000Y-179290000D01*
X40710000Y-176245069D01*
X116714830Y-176245069D01*
X116864471Y-176607229D01*
X117141314Y-176884555D01*
X117503212Y-177034828D01*
X117895069Y-177035170D01*
X118257229Y-176885529D01*
X118534555Y-176608686D01*
X118684828Y-176246788D01*
X118685170Y-175854931D01*
X118535529Y-175492771D01*
X118258686Y-175215445D01*
X117896788Y-175065172D01*
X117504931Y-175064830D01*
X117142771Y-175214471D01*
X116865445Y-175491314D01*
X116715172Y-175853212D01*
X116714830Y-176245069D01*
X40710000Y-176245069D01*
X40710000Y-170323795D01*
X48364716Y-170323795D01*
X48613106Y-170924943D01*
X49072637Y-171385278D01*
X49673352Y-171634716D01*
X50323795Y-171635284D01*
X50924943Y-171386894D01*
X51159715Y-171152532D01*
X54027073Y-171152532D01*
X54125736Y-171419387D01*
X54735461Y-171645908D01*
X55385460Y-171621856D01*
X55874264Y-171419387D01*
X55972927Y-171152532D01*
X55000000Y-170179605D01*
X54027073Y-171152532D01*
X51159715Y-171152532D01*
X51385278Y-170927363D01*
X51634716Y-170326648D01*
X51635232Y-169735461D01*
X53354092Y-169735461D01*
X53378144Y-170385460D01*
X53580613Y-170874264D01*
X53847468Y-170972927D01*
X54820395Y-170000000D01*
X55179605Y-170000000D01*
X56152532Y-170972927D01*
X56419387Y-170874264D01*
X56623893Y-170323795D01*
X63364716Y-170323795D01*
X63613106Y-170924943D01*
X64072637Y-171385278D01*
X64673352Y-171634716D01*
X65323795Y-171635284D01*
X65924943Y-171386894D01*
X66159715Y-171152532D01*
X69027073Y-171152532D01*
X69125736Y-171419387D01*
X69735461Y-171645908D01*
X70385460Y-171621856D01*
X70874264Y-171419387D01*
X70972927Y-171152532D01*
X70000000Y-170179605D01*
X69027073Y-171152532D01*
X66159715Y-171152532D01*
X66385278Y-170927363D01*
X66634716Y-170326648D01*
X66635232Y-169735461D01*
X68354092Y-169735461D01*
X68378144Y-170385460D01*
X68580613Y-170874264D01*
X68847468Y-170972927D01*
X69820395Y-170000000D01*
X70179605Y-170000000D01*
X71152532Y-170972927D01*
X71419387Y-170874264D01*
X71623893Y-170323795D01*
X78364716Y-170323795D01*
X78613106Y-170924943D01*
X79072637Y-171385278D01*
X79673352Y-171634716D01*
X80323795Y-171635284D01*
X80924943Y-171386894D01*
X81159715Y-171152532D01*
X84027073Y-171152532D01*
X84125736Y-171419387D01*
X84735461Y-171645908D01*
X85385460Y-171621856D01*
X85874264Y-171419387D01*
X85972927Y-171152532D01*
X85000000Y-170179605D01*
X84027073Y-171152532D01*
X81159715Y-171152532D01*
X81385278Y-170927363D01*
X81634716Y-170326648D01*
X81635232Y-169735461D01*
X83354092Y-169735461D01*
X83378144Y-170385460D01*
X83580613Y-170874264D01*
X83847468Y-170972927D01*
X84820395Y-170000000D01*
X85179605Y-170000000D01*
X86152532Y-170972927D01*
X86419387Y-170874264D01*
X86623893Y-170323795D01*
X93364716Y-170323795D01*
X93613106Y-170924943D01*
X94072637Y-171385278D01*
X94673352Y-171634716D01*
X95323795Y-171635284D01*
X95924943Y-171386894D01*
X96159715Y-171152532D01*
X99027073Y-171152532D01*
X99125736Y-171419387D01*
X99735461Y-171645908D01*
X100385460Y-171621856D01*
X100874264Y-171419387D01*
X100972927Y-171152532D01*
X100000000Y-170179605D01*
X99027073Y-171152532D01*
X96159715Y-171152532D01*
X96385278Y-170927363D01*
X96634716Y-170326648D01*
X96635232Y-169735461D01*
X98354092Y-169735461D01*
X98378144Y-170385460D01*
X98580613Y-170874264D01*
X98847468Y-170972927D01*
X99820395Y-170000000D01*
X100179605Y-170000000D01*
X101152532Y-170972927D01*
X101419387Y-170874264D01*
X101645908Y-170264539D01*
X101621856Y-169614540D01*
X101419387Y-169125736D01*
X101152532Y-169027073D01*
X100179605Y-170000000D01*
X99820395Y-170000000D01*
X98847468Y-169027073D01*
X98580613Y-169125736D01*
X98354092Y-169735461D01*
X96635232Y-169735461D01*
X96635284Y-169676205D01*
X96386894Y-169075057D01*
X96159703Y-168847468D01*
X99027073Y-168847468D01*
X100000000Y-169820395D01*
X100972927Y-168847468D01*
X100874264Y-168580613D01*
X100264539Y-168354092D01*
X99614540Y-168378144D01*
X99125736Y-168580613D01*
X99027073Y-168847468D01*
X96159703Y-168847468D01*
X95927363Y-168614722D01*
X95326648Y-168365284D01*
X94676205Y-168364716D01*
X94075057Y-168613106D01*
X93614722Y-169072637D01*
X93365284Y-169673352D01*
X93364716Y-170323795D01*
X86623893Y-170323795D01*
X86645908Y-170264539D01*
X86621856Y-169614540D01*
X86419387Y-169125736D01*
X86152532Y-169027073D01*
X85179605Y-170000000D01*
X84820395Y-170000000D01*
X83847468Y-169027073D01*
X83580613Y-169125736D01*
X83354092Y-169735461D01*
X81635232Y-169735461D01*
X81635284Y-169676205D01*
X81386894Y-169075057D01*
X81159703Y-168847468D01*
X84027073Y-168847468D01*
X85000000Y-169820395D01*
X85972927Y-168847468D01*
X85874264Y-168580613D01*
X85264539Y-168354092D01*
X84614540Y-168378144D01*
X84125736Y-168580613D01*
X84027073Y-168847468D01*
X81159703Y-168847468D01*
X80927363Y-168614722D01*
X80326648Y-168365284D01*
X79676205Y-168364716D01*
X79075057Y-168613106D01*
X78614722Y-169072637D01*
X78365284Y-169673352D01*
X78364716Y-170323795D01*
X71623893Y-170323795D01*
X71645908Y-170264539D01*
X71621856Y-169614540D01*
X71419387Y-169125736D01*
X71152532Y-169027073D01*
X70179605Y-170000000D01*
X69820395Y-170000000D01*
X68847468Y-169027073D01*
X68580613Y-169125736D01*
X68354092Y-169735461D01*
X66635232Y-169735461D01*
X66635284Y-169676205D01*
X66386894Y-169075057D01*
X66159703Y-168847468D01*
X69027073Y-168847468D01*
X70000000Y-169820395D01*
X70972927Y-168847468D01*
X70874264Y-168580613D01*
X70264539Y-168354092D01*
X69614540Y-168378144D01*
X69125736Y-168580613D01*
X69027073Y-168847468D01*
X66159703Y-168847468D01*
X65927363Y-168614722D01*
X65326648Y-168365284D01*
X64676205Y-168364716D01*
X64075057Y-168613106D01*
X63614722Y-169072637D01*
X63365284Y-169673352D01*
X63364716Y-170323795D01*
X56623893Y-170323795D01*
X56645908Y-170264539D01*
X56621856Y-169614540D01*
X56419387Y-169125736D01*
X56152532Y-169027073D01*
X55179605Y-170000000D01*
X54820395Y-170000000D01*
X53847468Y-169027073D01*
X53580613Y-169125736D01*
X53354092Y-169735461D01*
X51635232Y-169735461D01*
X51635284Y-169676205D01*
X51386894Y-169075057D01*
X51159703Y-168847468D01*
X54027073Y-168847468D01*
X55000000Y-169820395D01*
X55972927Y-168847468D01*
X55874264Y-168580613D01*
X55264539Y-168354092D01*
X54614540Y-168378144D01*
X54125736Y-168580613D01*
X54027073Y-168847468D01*
X51159703Y-168847468D01*
X50927363Y-168614722D01*
X50326648Y-168365284D01*
X49676205Y-168364716D01*
X49075057Y-168613106D01*
X48614722Y-169072637D01*
X48365284Y-169673352D01*
X48364716Y-170323795D01*
X40710000Y-170323795D01*
X40710000Y-167540000D01*
X108485907Y-167540000D01*
X108598946Y-168108285D01*
X108920853Y-168590054D01*
X109250026Y-168810000D01*
X108920853Y-169029946D01*
X108598946Y-169511715D01*
X108485907Y-170080000D01*
X108598946Y-170648285D01*
X108920853Y-171130054D01*
X109402622Y-171451961D01*
X109970907Y-171565000D01*
X110029093Y-171565000D01*
X110597378Y-171451961D01*
X111079147Y-171130054D01*
X111268345Y-170846899D01*
X111268355Y-170846924D01*
X111658642Y-171275183D01*
X112183108Y-171521486D01*
X112413000Y-171400819D01*
X112413000Y-170207000D01*
X112667000Y-170207000D01*
X112667000Y-171400819D01*
X112896892Y-171521486D01*
X113421358Y-171275183D01*
X113811645Y-170846924D01*
X113981476Y-170436890D01*
X113860155Y-170207000D01*
X112667000Y-170207000D01*
X112413000Y-170207000D01*
X112393000Y-170207000D01*
X112393000Y-169953000D01*
X112413000Y-169953000D01*
X112413000Y-169933000D01*
X112667000Y-169933000D01*
X112667000Y-169953000D01*
X113860155Y-169953000D01*
X113981476Y-169723110D01*
X113811645Y-169313076D01*
X113421358Y-168884817D01*
X113278447Y-168817702D01*
X113619147Y-168590054D01*
X113941054Y-168108285D01*
X114054093Y-167540000D01*
X118485907Y-167540000D01*
X118598946Y-168108285D01*
X118920853Y-168590054D01*
X119250026Y-168810000D01*
X118920853Y-169029946D01*
X118598946Y-169511715D01*
X118485907Y-170080000D01*
X118598946Y-170648285D01*
X118920853Y-171130054D01*
X119402622Y-171451961D01*
X119970907Y-171565000D01*
X120029093Y-171565000D01*
X120597378Y-171451961D01*
X121079147Y-171130054D01*
X121268345Y-170846899D01*
X121268355Y-170846924D01*
X121658642Y-171275183D01*
X122183108Y-171521486D01*
X122413000Y-171400819D01*
X122413000Y-170207000D01*
X122667000Y-170207000D01*
X122667000Y-171400819D01*
X122896892Y-171521486D01*
X123421358Y-171275183D01*
X123811645Y-170846924D01*
X123981476Y-170436890D01*
X123860155Y-170207000D01*
X122667000Y-170207000D01*
X122413000Y-170207000D01*
X122393000Y-170207000D01*
X122393000Y-169953000D01*
X122413000Y-169953000D01*
X122413000Y-169933000D01*
X122667000Y-169933000D01*
X122667000Y-169953000D01*
X123860155Y-169953000D01*
X123981476Y-169723110D01*
X123811645Y-169313076D01*
X123421358Y-168884817D01*
X123278447Y-168817702D01*
X123619147Y-168590054D01*
X123941054Y-168108285D01*
X124054093Y-167540000D01*
X128485907Y-167540000D01*
X128598946Y-168108285D01*
X128920853Y-168590054D01*
X129250026Y-168810000D01*
X128920853Y-169029946D01*
X128598946Y-169511715D01*
X128485907Y-170080000D01*
X128598946Y-170648285D01*
X128920853Y-171130054D01*
X129402622Y-171451961D01*
X129970907Y-171565000D01*
X130029093Y-171565000D01*
X130597378Y-171451961D01*
X131079147Y-171130054D01*
X131268345Y-170846899D01*
X131268355Y-170846924D01*
X131658642Y-171275183D01*
X132183108Y-171521486D01*
X132413000Y-171400819D01*
X132413000Y-170207000D01*
X132667000Y-170207000D01*
X132667000Y-171400819D01*
X132896892Y-171521486D01*
X133421358Y-171275183D01*
X133811645Y-170846924D01*
X133981476Y-170436890D01*
X133860155Y-170207000D01*
X132667000Y-170207000D01*
X132413000Y-170207000D01*
X132393000Y-170207000D01*
X132393000Y-169953000D01*
X132413000Y-169953000D01*
X132413000Y-169933000D01*
X132667000Y-169933000D01*
X132667000Y-169953000D01*
X133860155Y-169953000D01*
X133981476Y-169723110D01*
X133811645Y-169313076D01*
X133421358Y-168884817D01*
X133278447Y-168817702D01*
X133619147Y-168590054D01*
X133941054Y-168108285D01*
X134054093Y-167540000D01*
X133941054Y-166971715D01*
X133619147Y-166489946D01*
X133289974Y-166270000D01*
X133619147Y-166050054D01*
X133941054Y-165568285D01*
X134047774Y-165031769D01*
X134188314Y-165172555D01*
X134550212Y-165322828D01*
X134942069Y-165323170D01*
X135304229Y-165173529D01*
X135581555Y-164896686D01*
X135731828Y-164534788D01*
X135732170Y-164142931D01*
X135582529Y-163780771D01*
X135305686Y-163503445D01*
X134943788Y-163353172D01*
X134551931Y-163352830D01*
X134189771Y-163502471D01*
X133912445Y-163779314D01*
X133762172Y-164141212D01*
X133762152Y-164163969D01*
X133619147Y-163949946D01*
X133137378Y-163628039D01*
X132569093Y-163515000D01*
X132510907Y-163515000D01*
X131942622Y-163628039D01*
X131460853Y-163949946D01*
X131460029Y-163951179D01*
X131453162Y-163914683D01*
X131314090Y-163698559D01*
X131101890Y-163553569D01*
X130850000Y-163502560D01*
X129150000Y-163502560D01*
X128914683Y-163546838D01*
X128698559Y-163685910D01*
X128553569Y-163898110D01*
X128502560Y-164150000D01*
X128502560Y-165850000D01*
X128546838Y-166085317D01*
X128685910Y-166301441D01*
X128898110Y-166446431D01*
X128965541Y-166460086D01*
X128920853Y-166489946D01*
X128598946Y-166971715D01*
X128485907Y-167540000D01*
X124054093Y-167540000D01*
X123941054Y-166971715D01*
X123619147Y-166489946D01*
X123289974Y-166270000D01*
X123619147Y-166050054D01*
X123941054Y-165568285D01*
X124054093Y-165000000D01*
X123941054Y-164431715D01*
X123754201Y-164152069D01*
X123855830Y-164152069D01*
X124005471Y-164514229D01*
X124282314Y-164791555D01*
X124644212Y-164941828D01*
X125036069Y-164942170D01*
X125398229Y-164792529D01*
X125675555Y-164515686D01*
X125825828Y-164153788D01*
X125826170Y-163761931D01*
X125676529Y-163399771D01*
X125548052Y-163271069D01*
X137190830Y-163271069D01*
X137340471Y-163633229D01*
X137617314Y-163910555D01*
X137979212Y-164060828D01*
X138371069Y-164061170D01*
X138534198Y-163993767D01*
X138502560Y-164150000D01*
X138502560Y-165850000D01*
X138546838Y-166085317D01*
X138685910Y-166301441D01*
X138898110Y-166446431D01*
X138965541Y-166460086D01*
X138920853Y-166489946D01*
X138598946Y-166971715D01*
X138485907Y-167540000D01*
X138598946Y-168108285D01*
X138920853Y-168590054D01*
X139250026Y-168810000D01*
X138920853Y-169029946D01*
X138598946Y-169511715D01*
X138485907Y-170080000D01*
X138598946Y-170648285D01*
X138920853Y-171130054D01*
X139402622Y-171451961D01*
X139970907Y-171565000D01*
X140029093Y-171565000D01*
X140597378Y-171451961D01*
X141079147Y-171130054D01*
X141268345Y-170846899D01*
X141268355Y-170846924D01*
X141658642Y-171275183D01*
X142183108Y-171521486D01*
X142413000Y-171400819D01*
X142413000Y-170207000D01*
X142667000Y-170207000D01*
X142667000Y-171400819D01*
X142896892Y-171521486D01*
X143421358Y-171275183D01*
X143811645Y-170846924D01*
X143981476Y-170436890D01*
X143860155Y-170207000D01*
X142667000Y-170207000D01*
X142413000Y-170207000D01*
X142393000Y-170207000D01*
X142393000Y-169953000D01*
X142413000Y-169953000D01*
X142413000Y-169933000D01*
X142667000Y-169933000D01*
X142667000Y-169953000D01*
X143860155Y-169953000D01*
X143981476Y-169723110D01*
X143811645Y-169313076D01*
X143421358Y-168884817D01*
X143278447Y-168817702D01*
X143619147Y-168590054D01*
X143941054Y-168108285D01*
X144054093Y-167540000D01*
X148485907Y-167540000D01*
X148598946Y-168108285D01*
X148920853Y-168590054D01*
X149250026Y-168810000D01*
X148920853Y-169029946D01*
X148598946Y-169511715D01*
X148485907Y-170080000D01*
X148598946Y-170648285D01*
X148920853Y-171130054D01*
X149402622Y-171451961D01*
X149970907Y-171565000D01*
X150029093Y-171565000D01*
X150597378Y-171451961D01*
X151079147Y-171130054D01*
X151268345Y-170846899D01*
X151268355Y-170846924D01*
X151658642Y-171275183D01*
X152183108Y-171521486D01*
X152413000Y-171400819D01*
X152413000Y-170207000D01*
X152667000Y-170207000D01*
X152667000Y-171400819D01*
X152896892Y-171521486D01*
X153421358Y-171275183D01*
X153811645Y-170846924D01*
X153981476Y-170436890D01*
X153860155Y-170207000D01*
X152667000Y-170207000D01*
X152413000Y-170207000D01*
X152393000Y-170207000D01*
X152393000Y-169953000D01*
X152413000Y-169953000D01*
X152413000Y-169933000D01*
X152667000Y-169933000D01*
X152667000Y-169953000D01*
X153860155Y-169953000D01*
X153981476Y-169723110D01*
X153811645Y-169313076D01*
X153421358Y-168884817D01*
X153278447Y-168817702D01*
X153619147Y-168590054D01*
X153941054Y-168108285D01*
X154054093Y-167540000D01*
X153941054Y-166971715D01*
X153619147Y-166489946D01*
X153289974Y-166270000D01*
X153619147Y-166050054D01*
X153941054Y-165568285D01*
X154054093Y-165000000D01*
X153941054Y-164431715D01*
X153619147Y-163949946D01*
X153237696Y-163695069D01*
X154514830Y-163695069D01*
X154664471Y-164057229D01*
X154941314Y-164334555D01*
X155303212Y-164484828D01*
X155695069Y-164485170D01*
X156057229Y-164335529D01*
X156334555Y-164058686D01*
X156484828Y-163696788D01*
X156485170Y-163304931D01*
X156335529Y-162942771D01*
X156058686Y-162665445D01*
X155696788Y-162515172D01*
X155304931Y-162514830D01*
X154942771Y-162664471D01*
X154665445Y-162941314D01*
X154515172Y-163303212D01*
X154514830Y-163695069D01*
X153237696Y-163695069D01*
X153137378Y-163628039D01*
X152569093Y-163515000D01*
X152510907Y-163515000D01*
X151942622Y-163628039D01*
X151460853Y-163949946D01*
X151460029Y-163951179D01*
X151453162Y-163914683D01*
X151314090Y-163698559D01*
X151101890Y-163553569D01*
X150850000Y-163502560D01*
X149150000Y-163502560D01*
X148914683Y-163546838D01*
X148698559Y-163685910D01*
X148553569Y-163898110D01*
X148502560Y-164150000D01*
X148502560Y-165850000D01*
X148546838Y-166085317D01*
X148685910Y-166301441D01*
X148898110Y-166446431D01*
X148965541Y-166460086D01*
X148920853Y-166489946D01*
X148598946Y-166971715D01*
X148485907Y-167540000D01*
X144054093Y-167540000D01*
X143941054Y-166971715D01*
X143619147Y-166489946D01*
X143289974Y-166270000D01*
X143476946Y-166145069D01*
X144064830Y-166145069D01*
X144214471Y-166507229D01*
X144491314Y-166784555D01*
X144853212Y-166934828D01*
X145245069Y-166935170D01*
X145607229Y-166785529D01*
X145884555Y-166508686D01*
X146034828Y-166146788D01*
X146035170Y-165754931D01*
X145885529Y-165392771D01*
X145608686Y-165115445D01*
X145535440Y-165085031D01*
X145695069Y-165085170D01*
X146057229Y-164935529D01*
X146334555Y-164658686D01*
X146484828Y-164296788D01*
X146485170Y-163904931D01*
X146335529Y-163542771D01*
X146058686Y-163265445D01*
X145696788Y-163115172D01*
X145304931Y-163114830D01*
X144942771Y-163264471D01*
X144665445Y-163541314D01*
X144515172Y-163903212D01*
X144514830Y-164295069D01*
X144664471Y-164657229D01*
X144941314Y-164934555D01*
X145014560Y-164964969D01*
X144854931Y-164964830D01*
X144492771Y-165114471D01*
X144215445Y-165391314D01*
X144065172Y-165753212D01*
X144064830Y-166145069D01*
X143476946Y-166145069D01*
X143619147Y-166050054D01*
X143941054Y-165568285D01*
X144054093Y-165000000D01*
X143941054Y-164431715D01*
X143619147Y-163949946D01*
X143137378Y-163628039D01*
X142569093Y-163515000D01*
X142510907Y-163515000D01*
X141942622Y-163628039D01*
X141460853Y-163949946D01*
X141460029Y-163951179D01*
X141453162Y-163914683D01*
X141314090Y-163698559D01*
X141101890Y-163553569D01*
X140850000Y-163502560D01*
X139150000Y-163502560D01*
X139058250Y-163519824D01*
X139160828Y-163272788D01*
X139161170Y-162880931D01*
X139011529Y-162518771D01*
X138734686Y-162241445D01*
X138372788Y-162091172D01*
X137980931Y-162090830D01*
X137618771Y-162240471D01*
X137341445Y-162517314D01*
X137191172Y-162879212D01*
X137190830Y-163271069D01*
X125548052Y-163271069D01*
X125399686Y-163122445D01*
X125037788Y-162972172D01*
X124645931Y-162971830D01*
X124283771Y-163121471D01*
X124006445Y-163398314D01*
X123856172Y-163760212D01*
X123855830Y-164152069D01*
X123754201Y-164152069D01*
X123619147Y-163949946D01*
X123137378Y-163628039D01*
X122569093Y-163515000D01*
X122510907Y-163515000D01*
X121942622Y-163628039D01*
X121460853Y-163949946D01*
X121460029Y-163951179D01*
X121453162Y-163914683D01*
X121314090Y-163698559D01*
X121101890Y-163553569D01*
X120850000Y-163502560D01*
X119150000Y-163502560D01*
X118914683Y-163546838D01*
X118698559Y-163685910D01*
X118553569Y-163898110D01*
X118502560Y-164150000D01*
X118502560Y-165850000D01*
X118546838Y-166085317D01*
X118685910Y-166301441D01*
X118898110Y-166446431D01*
X118965541Y-166460086D01*
X118920853Y-166489946D01*
X118598946Y-166971715D01*
X118485907Y-167540000D01*
X114054093Y-167540000D01*
X113941054Y-166971715D01*
X113619147Y-166489946D01*
X113289974Y-166270000D01*
X113619147Y-166050054D01*
X113941054Y-165568285D01*
X114015743Y-165192798D01*
X114122314Y-165299555D01*
X114484212Y-165449828D01*
X114876069Y-165450170D01*
X115238229Y-165300529D01*
X115515555Y-165023686D01*
X115665828Y-164661788D01*
X115666170Y-164269931D01*
X115516529Y-163907771D01*
X115239686Y-163630445D01*
X114877788Y-163480172D01*
X114485931Y-163479830D01*
X114123771Y-163629471D01*
X113846445Y-163906314D01*
X113748156Y-164143021D01*
X113619147Y-163949946D01*
X113137378Y-163628039D01*
X112569093Y-163515000D01*
X112510907Y-163515000D01*
X111942622Y-163628039D01*
X111460853Y-163949946D01*
X111460029Y-163951179D01*
X111453162Y-163914683D01*
X111314090Y-163698559D01*
X111101890Y-163553569D01*
X110850000Y-163502560D01*
X109150000Y-163502560D01*
X108914683Y-163546838D01*
X108698559Y-163685910D01*
X108553569Y-163898110D01*
X108502560Y-164150000D01*
X108502560Y-165850000D01*
X108546838Y-166085317D01*
X108685910Y-166301441D01*
X108898110Y-166446431D01*
X108965541Y-166460086D01*
X108920853Y-166489946D01*
X108598946Y-166971715D01*
X108485907Y-167540000D01*
X40710000Y-167540000D01*
X40710000Y-165323795D01*
X48364716Y-165323795D01*
X48613106Y-165924943D01*
X49072637Y-166385278D01*
X49673352Y-166634716D01*
X50323795Y-166635284D01*
X50924943Y-166386894D01*
X51159715Y-166152532D01*
X54027073Y-166152532D01*
X54125736Y-166419387D01*
X54735461Y-166645908D01*
X55385460Y-166621856D01*
X55874264Y-166419387D01*
X55972927Y-166152532D01*
X55000000Y-165179605D01*
X54027073Y-166152532D01*
X51159715Y-166152532D01*
X51385278Y-165927363D01*
X51634716Y-165326648D01*
X51635232Y-164735461D01*
X53354092Y-164735461D01*
X53378144Y-165385460D01*
X53580613Y-165874264D01*
X53847468Y-165972927D01*
X54820395Y-165000000D01*
X55179605Y-165000000D01*
X56152532Y-165972927D01*
X56419387Y-165874264D01*
X56623893Y-165323795D01*
X63364716Y-165323795D01*
X63613106Y-165924943D01*
X64072637Y-166385278D01*
X64673352Y-166634716D01*
X65323795Y-166635284D01*
X65924943Y-166386894D01*
X66159715Y-166152532D01*
X69027073Y-166152532D01*
X69125736Y-166419387D01*
X69735461Y-166645908D01*
X70385460Y-166621856D01*
X70874264Y-166419387D01*
X70972927Y-166152532D01*
X70000000Y-165179605D01*
X69027073Y-166152532D01*
X66159715Y-166152532D01*
X66385278Y-165927363D01*
X66634716Y-165326648D01*
X66635232Y-164735461D01*
X68354092Y-164735461D01*
X68378144Y-165385460D01*
X68580613Y-165874264D01*
X68847468Y-165972927D01*
X69820395Y-165000000D01*
X70179605Y-165000000D01*
X71152532Y-165972927D01*
X71419387Y-165874264D01*
X71623893Y-165323795D01*
X78364716Y-165323795D01*
X78613106Y-165924943D01*
X79072637Y-166385278D01*
X79673352Y-166634716D01*
X80323795Y-166635284D01*
X80924943Y-166386894D01*
X81159715Y-166152532D01*
X84027073Y-166152532D01*
X84125736Y-166419387D01*
X84735461Y-166645908D01*
X85385460Y-166621856D01*
X85874264Y-166419387D01*
X85972927Y-166152532D01*
X85000000Y-165179605D01*
X84027073Y-166152532D01*
X81159715Y-166152532D01*
X81385278Y-165927363D01*
X81634716Y-165326648D01*
X81635232Y-164735461D01*
X83354092Y-164735461D01*
X83378144Y-165385460D01*
X83580613Y-165874264D01*
X83847468Y-165972927D01*
X84820395Y-165000000D01*
X85179605Y-165000000D01*
X86152532Y-165972927D01*
X86419387Y-165874264D01*
X86623893Y-165323795D01*
X93364716Y-165323795D01*
X93613106Y-165924943D01*
X94072637Y-166385278D01*
X94673352Y-166634716D01*
X95323795Y-166635284D01*
X95924943Y-166386894D01*
X96159715Y-166152532D01*
X99027073Y-166152532D01*
X99125736Y-166419387D01*
X99735461Y-166645908D01*
X100385460Y-166621856D01*
X100874264Y-166419387D01*
X100972927Y-166152532D01*
X100000000Y-165179605D01*
X99027073Y-166152532D01*
X96159715Y-166152532D01*
X96385278Y-165927363D01*
X96634716Y-165326648D01*
X96635232Y-164735461D01*
X98354092Y-164735461D01*
X98378144Y-165385460D01*
X98580613Y-165874264D01*
X98847468Y-165972927D01*
X99820395Y-165000000D01*
X100179605Y-165000000D01*
X101152532Y-165972927D01*
X101419387Y-165874264D01*
X101645908Y-165264539D01*
X101621856Y-164614540D01*
X101419387Y-164125736D01*
X101152532Y-164027073D01*
X100179605Y-165000000D01*
X99820395Y-165000000D01*
X98847468Y-164027073D01*
X98580613Y-164125736D01*
X98354092Y-164735461D01*
X96635232Y-164735461D01*
X96635284Y-164676205D01*
X96386894Y-164075057D01*
X96159703Y-163847468D01*
X99027073Y-163847468D01*
X100000000Y-164820395D01*
X100972927Y-163847468D01*
X100874264Y-163580613D01*
X100264539Y-163354092D01*
X99614540Y-163378144D01*
X99125736Y-163580613D01*
X99027073Y-163847468D01*
X96159703Y-163847468D01*
X95927363Y-163614722D01*
X95326648Y-163365284D01*
X94676205Y-163364716D01*
X94075057Y-163613106D01*
X93614722Y-164072637D01*
X93365284Y-164673352D01*
X93364716Y-165323795D01*
X86623893Y-165323795D01*
X86645908Y-165264539D01*
X86621856Y-164614540D01*
X86419387Y-164125736D01*
X86152532Y-164027073D01*
X85179605Y-165000000D01*
X84820395Y-165000000D01*
X83847468Y-164027073D01*
X83580613Y-164125736D01*
X83354092Y-164735461D01*
X81635232Y-164735461D01*
X81635284Y-164676205D01*
X81386894Y-164075057D01*
X81159703Y-163847468D01*
X84027073Y-163847468D01*
X85000000Y-164820395D01*
X85972927Y-163847468D01*
X85874264Y-163580613D01*
X85264539Y-163354092D01*
X84614540Y-163378144D01*
X84125736Y-163580613D01*
X84027073Y-163847468D01*
X81159703Y-163847468D01*
X80927363Y-163614722D01*
X80326648Y-163365284D01*
X79676205Y-163364716D01*
X79075057Y-163613106D01*
X78614722Y-164072637D01*
X78365284Y-164673352D01*
X78364716Y-165323795D01*
X71623893Y-165323795D01*
X71645908Y-165264539D01*
X71621856Y-164614540D01*
X71419387Y-164125736D01*
X71152532Y-164027073D01*
X70179605Y-165000000D01*
X69820395Y-165000000D01*
X68847468Y-164027073D01*
X68580613Y-164125736D01*
X68354092Y-164735461D01*
X66635232Y-164735461D01*
X66635284Y-164676205D01*
X66386894Y-164075057D01*
X66159703Y-163847468D01*
X69027073Y-163847468D01*
X70000000Y-164820395D01*
X70972927Y-163847468D01*
X70874264Y-163580613D01*
X70264539Y-163354092D01*
X69614540Y-163378144D01*
X69125736Y-163580613D01*
X69027073Y-163847468D01*
X66159703Y-163847468D01*
X65927363Y-163614722D01*
X65326648Y-163365284D01*
X64676205Y-163364716D01*
X64075057Y-163613106D01*
X63614722Y-164072637D01*
X63365284Y-164673352D01*
X63364716Y-165323795D01*
X56623893Y-165323795D01*
X56645908Y-165264539D01*
X56621856Y-164614540D01*
X56419387Y-164125736D01*
X56152532Y-164027073D01*
X55179605Y-165000000D01*
X54820395Y-165000000D01*
X53847468Y-164027073D01*
X53580613Y-164125736D01*
X53354092Y-164735461D01*
X51635232Y-164735461D01*
X51635284Y-164676205D01*
X51386894Y-164075057D01*
X51159703Y-163847468D01*
X54027073Y-163847468D01*
X55000000Y-164820395D01*
X55972927Y-163847468D01*
X55874264Y-163580613D01*
X55264539Y-163354092D01*
X54614540Y-163378144D01*
X54125736Y-163580613D01*
X54027073Y-163847468D01*
X51159703Y-163847468D01*
X50927363Y-163614722D01*
X50326648Y-163365284D01*
X49676205Y-163364716D01*
X49075057Y-163613106D01*
X48614722Y-164072637D01*
X48365284Y-164673352D01*
X48364716Y-165323795D01*
X40710000Y-165323795D01*
X40710000Y-162247069D01*
X134904830Y-162247069D01*
X135054471Y-162609229D01*
X135331314Y-162886555D01*
X135693212Y-163036828D01*
X136085069Y-163037170D01*
X136447229Y-162887529D01*
X136724555Y-162610686D01*
X136874828Y-162248788D01*
X136875170Y-161856931D01*
X136725529Y-161494771D01*
X136448686Y-161217445D01*
X136086788Y-161067172D01*
X135694931Y-161066830D01*
X135332771Y-161216471D01*
X135055445Y-161493314D01*
X134905172Y-161855212D01*
X134904830Y-162247069D01*
X40710000Y-162247069D01*
X40710000Y-153195069D01*
X45014830Y-153195069D01*
X45164471Y-153557229D01*
X45441314Y-153834555D01*
X45803212Y-153984828D01*
X46195069Y-153985170D01*
X46557229Y-153835529D01*
X46834555Y-153558686D01*
X46984828Y-153196788D01*
X46984829Y-153195069D01*
X59014830Y-153195069D01*
X59164471Y-153557229D01*
X59441314Y-153834555D01*
X59803212Y-153984828D01*
X60195069Y-153985170D01*
X60557229Y-153835529D01*
X60834555Y-153558686D01*
X60984828Y-153196788D01*
X60985047Y-152945069D01*
X74014830Y-152945069D01*
X74164471Y-153307229D01*
X74441314Y-153584555D01*
X74803212Y-153734828D01*
X75195069Y-153735170D01*
X75557229Y-153585529D01*
X75834555Y-153308686D01*
X75881732Y-153195069D01*
X89014830Y-153195069D01*
X89164471Y-153557229D01*
X89441314Y-153834555D01*
X89803212Y-153984828D01*
X90195069Y-153985170D01*
X90557229Y-153835529D01*
X90834555Y-153558686D01*
X90984828Y-153196788D01*
X90984829Y-153195069D01*
X106264830Y-153195069D01*
X106414471Y-153557229D01*
X106691314Y-153834555D01*
X107053212Y-153984828D01*
X107445069Y-153985170D01*
X107807229Y-153835529D01*
X108084555Y-153558686D01*
X108234828Y-153196788D01*
X108235170Y-152804931D01*
X108200933Y-152722069D01*
X130713830Y-152722069D01*
X130863471Y-153084229D01*
X131140314Y-153361555D01*
X131502212Y-153511828D01*
X131894069Y-153512170D01*
X132256229Y-153362529D01*
X132383911Y-153235069D01*
X134514830Y-153235069D01*
X134664471Y-153597229D01*
X134941314Y-153874555D01*
X135303212Y-154024828D01*
X135695069Y-154025170D01*
X136057229Y-153875529D01*
X136334555Y-153598686D01*
X136484828Y-153236788D01*
X136485170Y-152844931D01*
X136335529Y-152482771D01*
X136058686Y-152205445D01*
X135696788Y-152055172D01*
X135304931Y-152054830D01*
X134942771Y-152204471D01*
X134665445Y-152481314D01*
X134515172Y-152843212D01*
X134514830Y-153235069D01*
X132383911Y-153235069D01*
X132533555Y-153085686D01*
X132683828Y-152723788D01*
X132683972Y-152559166D01*
X132891229Y-152473529D01*
X133168555Y-152196686D01*
X133255151Y-151988139D01*
X133291069Y-151988170D01*
X133653229Y-151838529D01*
X133930555Y-151561686D01*
X134080828Y-151199788D01*
X134081170Y-150807931D01*
X133931529Y-150445771D01*
X133654686Y-150168445D01*
X133292788Y-150018172D01*
X132900931Y-150017830D01*
X132538771Y-150167471D01*
X132261445Y-150444314D01*
X132174849Y-150652861D01*
X132138931Y-150652830D01*
X131776771Y-150802471D01*
X131499445Y-151079314D01*
X131349172Y-151441212D01*
X131349028Y-151605834D01*
X131141771Y-151691471D01*
X130864445Y-151968314D01*
X130714172Y-152330212D01*
X130713830Y-152722069D01*
X108200933Y-152722069D01*
X108085529Y-152442771D01*
X107808686Y-152165445D01*
X107446788Y-152015172D01*
X107054931Y-152014830D01*
X106692771Y-152164471D01*
X106415445Y-152441314D01*
X106265172Y-152803212D01*
X106264830Y-153195069D01*
X90984829Y-153195069D01*
X90985170Y-152804931D01*
X90835529Y-152442771D01*
X90558686Y-152165445D01*
X90196788Y-152015172D01*
X89804931Y-152014830D01*
X89442771Y-152164471D01*
X89165445Y-152441314D01*
X89015172Y-152803212D01*
X89014830Y-153195069D01*
X75881732Y-153195069D01*
X75984828Y-152946788D01*
X75985170Y-152554931D01*
X75835529Y-152192771D01*
X75558686Y-151915445D01*
X75196788Y-151765172D01*
X74804931Y-151764830D01*
X74442771Y-151914471D01*
X74165445Y-152191314D01*
X74015172Y-152553212D01*
X74014830Y-152945069D01*
X60985047Y-152945069D01*
X60985170Y-152804931D01*
X60835529Y-152442771D01*
X60558686Y-152165445D01*
X60196788Y-152015172D01*
X59804931Y-152014830D01*
X59442771Y-152164471D01*
X59165445Y-152441314D01*
X59015172Y-152803212D01*
X59014830Y-153195069D01*
X46984829Y-153195069D01*
X46985170Y-152804931D01*
X46835529Y-152442771D01*
X46558686Y-152165445D01*
X46196788Y-152015172D01*
X45804931Y-152014830D01*
X45442771Y-152164471D01*
X45165445Y-152441314D01*
X45015172Y-152803212D01*
X45014830Y-153195069D01*
X40710000Y-153195069D01*
X40710000Y-150690069D01*
X96169830Y-150690069D01*
X96319471Y-151052229D01*
X96596314Y-151329555D01*
X96958212Y-151479828D01*
X97350069Y-151480170D01*
X97712229Y-151330529D01*
X97989555Y-151053686D01*
X98139828Y-150691788D01*
X98140170Y-150299931D01*
X97990529Y-149937771D01*
X97713686Y-149660445D01*
X97351788Y-149510172D01*
X96959931Y-149509830D01*
X96597771Y-149659471D01*
X96320445Y-149936314D01*
X96170172Y-150298212D01*
X96169830Y-150690069D01*
X40710000Y-150690069D01*
X40710000Y-146580071D01*
X95714830Y-146580071D01*
X95864471Y-146942231D01*
X96141314Y-147219557D01*
X96503212Y-147369830D01*
X96895069Y-147370172D01*
X97257229Y-147220531D01*
X97483084Y-146995069D01*
X107764830Y-146995069D01*
X107914471Y-147357229D01*
X108191314Y-147634555D01*
X108553212Y-147784828D01*
X108565013Y-147784838D01*
X108564830Y-147995069D01*
X108714471Y-148357229D01*
X108991314Y-148634555D01*
X109353212Y-148784828D01*
X109745069Y-148785170D01*
X110107229Y-148635529D01*
X110384555Y-148358686D01*
X110534828Y-147996788D01*
X110535170Y-147604931D01*
X110385529Y-147242771D01*
X110337911Y-147195069D01*
X119164830Y-147195069D01*
X119314471Y-147557229D01*
X119591314Y-147834555D01*
X119953212Y-147984828D01*
X120345069Y-147985170D01*
X120707229Y-147835529D01*
X120984555Y-147558686D01*
X121134828Y-147196788D01*
X121135170Y-146804931D01*
X120985529Y-146442771D01*
X120864393Y-146321424D01*
X121053212Y-146399828D01*
X121399559Y-146400130D01*
X121464471Y-146557229D01*
X121741314Y-146834555D01*
X122103212Y-146984828D01*
X122495069Y-146985170D01*
X122857229Y-146835529D01*
X123134555Y-146558686D01*
X123165201Y-146484882D01*
X123495069Y-146485170D01*
X123857229Y-146335529D01*
X124134555Y-146058686D01*
X124284828Y-145696788D01*
X124285134Y-145345069D01*
X131364830Y-145345069D01*
X131514471Y-145707229D01*
X131791314Y-145984555D01*
X132153212Y-146134828D01*
X132545069Y-146135170D01*
X132907229Y-145985529D01*
X133184555Y-145708686D01*
X133334828Y-145346788D01*
X133335170Y-144954931D01*
X133185529Y-144592771D01*
X133077103Y-144484155D01*
X133401715Y-144701054D01*
X133970000Y-144814093D01*
X134538285Y-144701054D01*
X135020054Y-144379147D01*
X135240000Y-144049974D01*
X135459946Y-144379147D01*
X135941715Y-144701054D01*
X136510000Y-144814093D01*
X137078285Y-144701054D01*
X137560054Y-144379147D01*
X137780000Y-144049974D01*
X137999946Y-144379147D01*
X138481715Y-144701054D01*
X139050000Y-144814093D01*
X139618285Y-144701054D01*
X140100054Y-144379147D01*
X140320000Y-144049974D01*
X140539946Y-144379147D01*
X141021715Y-144701054D01*
X141590000Y-144814093D01*
X142158285Y-144701054D01*
X142640054Y-144379147D01*
X142860000Y-144049974D01*
X143079946Y-144379147D01*
X143561715Y-144701054D01*
X144130000Y-144814093D01*
X144698285Y-144701054D01*
X145180054Y-144379147D01*
X145400000Y-144049974D01*
X145619946Y-144379147D01*
X146101715Y-144701054D01*
X146670000Y-144814093D01*
X147238285Y-144701054D01*
X147720054Y-144379147D01*
X147940000Y-144049974D01*
X148159946Y-144379147D01*
X148641715Y-144701054D01*
X149210000Y-144814093D01*
X149778285Y-144701054D01*
X150260054Y-144379147D01*
X150287850Y-144337548D01*
X150296838Y-144385317D01*
X150435910Y-144601441D01*
X150648110Y-144746431D01*
X150900000Y-144797440D01*
X152600000Y-144797440D01*
X152835317Y-144753162D01*
X153051441Y-144614090D01*
X153196431Y-144401890D01*
X153247440Y-144150000D01*
X153247440Y-142450000D01*
X153203162Y-142214683D01*
X153064090Y-141998559D01*
X152851890Y-141853569D01*
X152795546Y-141842159D01*
X152800054Y-141839147D01*
X153121961Y-141357378D01*
X153235000Y-140789093D01*
X153235000Y-140730907D01*
X153121961Y-140162622D01*
X152800054Y-139680853D01*
X152318285Y-139358946D01*
X151750000Y-139245907D01*
X151181715Y-139358946D01*
X150699946Y-139680853D01*
X150480000Y-140010026D01*
X150260054Y-139680853D01*
X149778285Y-139358946D01*
X149210000Y-139245907D01*
X148641715Y-139358946D01*
X148159946Y-139680853D01*
X147940000Y-140010026D01*
X147720054Y-139680853D01*
X147238285Y-139358946D01*
X146670000Y-139245907D01*
X146101715Y-139358946D01*
X145619946Y-139680853D01*
X145400000Y-140010026D01*
X145180054Y-139680853D01*
X144698285Y-139358946D01*
X144130000Y-139245907D01*
X143561715Y-139358946D01*
X143079946Y-139680853D01*
X142860000Y-140010026D01*
X142640054Y-139680853D01*
X142158285Y-139358946D01*
X141590000Y-139245907D01*
X141021715Y-139358946D01*
X140539946Y-139680853D01*
X140320000Y-140010026D01*
X140100054Y-139680853D01*
X139618285Y-139358946D01*
X139050000Y-139245907D01*
X138481715Y-139358946D01*
X137999946Y-139680853D01*
X137780000Y-140010026D01*
X137560054Y-139680853D01*
X137078285Y-139358946D01*
X136510000Y-139245907D01*
X135941715Y-139358946D01*
X135459946Y-139680853D01*
X135232298Y-140021553D01*
X135165183Y-139878642D01*
X134736924Y-139488355D01*
X134326890Y-139318524D01*
X134097000Y-139439845D01*
X134097000Y-140633000D01*
X134117000Y-140633000D01*
X134117000Y-140887000D01*
X134097000Y-140887000D01*
X134097000Y-140907000D01*
X133843000Y-140907000D01*
X133843000Y-140887000D01*
X132649181Y-140887000D01*
X132528514Y-141116892D01*
X132774817Y-141641358D01*
X133203076Y-142031645D01*
X133203101Y-142031655D01*
X132919946Y-142220853D01*
X132598039Y-142702622D01*
X132485000Y-143270907D01*
X132485000Y-143329093D01*
X132598039Y-143897378D01*
X132865361Y-144297455D01*
X132546788Y-144165172D01*
X132154931Y-144164830D01*
X131792771Y-144314471D01*
X131515445Y-144591314D01*
X131365172Y-144953212D01*
X131364830Y-145345069D01*
X124285134Y-145345069D01*
X124285170Y-145304931D01*
X124135529Y-144942771D01*
X123858686Y-144665445D01*
X123496788Y-144515172D01*
X123104931Y-144514830D01*
X122742771Y-144664471D01*
X122465445Y-144941314D01*
X122434799Y-145015118D01*
X122150441Y-145014870D01*
X122085529Y-144857771D01*
X121808686Y-144580445D01*
X121446788Y-144430172D01*
X121054931Y-144429830D01*
X120692771Y-144579471D01*
X120415445Y-144856314D01*
X120265172Y-145218212D01*
X120264830Y-145610069D01*
X120414471Y-145972229D01*
X120535607Y-146093576D01*
X120346788Y-146015172D01*
X119954931Y-146014830D01*
X119592771Y-146164471D01*
X119315445Y-146441314D01*
X119165172Y-146803212D01*
X119164830Y-147195069D01*
X110337911Y-147195069D01*
X110108686Y-146965445D01*
X109746788Y-146815172D01*
X109734987Y-146815162D01*
X109735170Y-146604931D01*
X109585529Y-146242771D01*
X109308686Y-145965445D01*
X108946788Y-145815172D01*
X108554931Y-145814830D01*
X108192771Y-145964471D01*
X107915445Y-146241314D01*
X107765172Y-146603212D01*
X107764830Y-146995069D01*
X97483084Y-146995069D01*
X97534555Y-146943688D01*
X97684828Y-146581790D01*
X97685170Y-146189933D01*
X97535529Y-145827773D01*
X97258686Y-145550447D01*
X96896788Y-145400174D01*
X96504931Y-145399832D01*
X96142771Y-145549473D01*
X95865445Y-145826316D01*
X95715172Y-146188214D01*
X95714830Y-146580071D01*
X40710000Y-146580071D01*
X40710000Y-142181069D01*
X95153830Y-142181069D01*
X95303471Y-142543229D01*
X95580314Y-142820555D01*
X95942212Y-142970828D01*
X96334069Y-142971170D01*
X96696229Y-142821529D01*
X96973555Y-142544686D01*
X97123828Y-142182788D01*
X97124170Y-141790931D01*
X96974529Y-141428771D01*
X96697686Y-141151445D01*
X96335788Y-141001172D01*
X95943931Y-141000830D01*
X95581771Y-141150471D01*
X95304445Y-141427314D01*
X95154172Y-141789212D01*
X95153830Y-142181069D01*
X40710000Y-142181069D01*
X40710000Y-140403108D01*
X132528514Y-140403108D01*
X132649181Y-140633000D01*
X133843000Y-140633000D01*
X133843000Y-139439845D01*
X133613110Y-139318524D01*
X133203076Y-139488355D01*
X132774817Y-139878642D01*
X132528514Y-140403108D01*
X40710000Y-140403108D01*
X40710000Y-137484367D01*
X89149532Y-137484367D01*
X89299173Y-137846527D01*
X89576016Y-138123853D01*
X89937914Y-138274126D01*
X90329771Y-138274468D01*
X90691931Y-138124827D01*
X90969257Y-137847984D01*
X91119530Y-137486086D01*
X91119872Y-137094229D01*
X90970231Y-136732069D01*
X90693388Y-136454743D01*
X90331490Y-136304470D01*
X89939633Y-136304128D01*
X89577473Y-136453769D01*
X89300147Y-136730612D01*
X89149874Y-137092510D01*
X89149532Y-137484367D01*
X40710000Y-137484367D01*
X40710000Y-135831069D01*
X127538830Y-135831069D01*
X127688471Y-136193229D01*
X127965314Y-136470555D01*
X128327212Y-136620828D01*
X128719069Y-136621170D01*
X128905726Y-136544045D01*
X129014471Y-136807229D01*
X129291314Y-137084555D01*
X129653212Y-137234828D01*
X130045069Y-137235170D01*
X130407229Y-137085529D01*
X130684555Y-136808686D01*
X130834828Y-136446788D01*
X130835170Y-136054931D01*
X130685529Y-135692771D01*
X130408686Y-135415445D01*
X130046788Y-135265172D01*
X129654931Y-135264830D01*
X129468274Y-135341955D01*
X129359529Y-135078771D01*
X129082686Y-134801445D01*
X128720788Y-134651172D01*
X128328931Y-134650830D01*
X127966771Y-134800471D01*
X127689445Y-135077314D01*
X127539172Y-135439212D01*
X127538830Y-135831069D01*
X40710000Y-135831069D01*
X40710000Y-134595069D01*
X92714830Y-134595069D01*
X92864471Y-134957229D01*
X93141314Y-135234555D01*
X93503212Y-135384828D01*
X93895069Y-135385170D01*
X94257229Y-135235529D01*
X94534555Y-134958686D01*
X94560971Y-134895069D01*
X95964830Y-134895069D01*
X96114471Y-135257229D01*
X96391314Y-135534555D01*
X96753212Y-135684828D01*
X97145069Y-135685170D01*
X97507229Y-135535529D01*
X97784555Y-135258686D01*
X97934828Y-134896788D01*
X97935170Y-134504931D01*
X97785529Y-134142771D01*
X97508686Y-133865445D01*
X97146788Y-133715172D01*
X96754931Y-133714830D01*
X96392771Y-133864471D01*
X96115445Y-134141314D01*
X95965172Y-134503212D01*
X95964830Y-134895069D01*
X94560971Y-134895069D01*
X94684828Y-134596788D01*
X94685170Y-134204931D01*
X94535529Y-133842771D01*
X94258686Y-133565445D01*
X93896788Y-133415172D01*
X93504931Y-133414830D01*
X93142771Y-133564471D01*
X92865445Y-133841314D01*
X92715172Y-134203212D01*
X92714830Y-134595069D01*
X40710000Y-134595069D01*
X40710000Y-114088669D01*
X112387730Y-114088669D01*
X112537371Y-114450829D01*
X112814214Y-114728155D01*
X113176112Y-114878428D01*
X113567969Y-114878770D01*
X113930129Y-114729129D01*
X114207455Y-114452286D01*
X114357728Y-114090388D01*
X114358070Y-113698531D01*
X114208429Y-113336371D01*
X113931586Y-113059045D01*
X113569688Y-112908772D01*
X113177831Y-112908430D01*
X112815671Y-113058071D01*
X112538345Y-113334914D01*
X112388072Y-113696812D01*
X112387730Y-114088669D01*
X40710000Y-114088669D01*
X40710000Y-106050000D01*
X102752560Y-106050000D01*
X102752560Y-107750000D01*
X102796838Y-107985317D01*
X102935910Y-108201441D01*
X103148110Y-108346431D01*
X103204454Y-108357841D01*
X103199946Y-108360853D01*
X102878039Y-108842622D01*
X102765000Y-109410907D01*
X102765000Y-109469093D01*
X102878039Y-110037378D01*
X103199946Y-110519147D01*
X103681715Y-110841054D01*
X104250000Y-110954093D01*
X104818285Y-110841054D01*
X105300054Y-110519147D01*
X105520000Y-110189974D01*
X105739946Y-110519147D01*
X106221715Y-110841054D01*
X106790000Y-110954093D01*
X107358285Y-110841054D01*
X107840054Y-110519147D01*
X108060000Y-110189974D01*
X108279946Y-110519147D01*
X108761715Y-110841054D01*
X109330000Y-110954093D01*
X109898285Y-110841054D01*
X110380054Y-110519147D01*
X110600000Y-110189974D01*
X110819946Y-110519147D01*
X111301715Y-110841054D01*
X111870000Y-110954093D01*
X112438285Y-110841054D01*
X112920054Y-110519147D01*
X113140000Y-110189974D01*
X113359946Y-110519147D01*
X113841715Y-110841054D01*
X113978008Y-110868164D01*
X113873972Y-111118712D01*
X113873630Y-111510569D01*
X114023271Y-111872729D01*
X114300114Y-112150055D01*
X114662012Y-112300328D01*
X115053869Y-112300670D01*
X115416029Y-112151029D01*
X115693355Y-111874186D01*
X115843628Y-111512288D01*
X115843970Y-111120431D01*
X115694329Y-110758271D01*
X115457395Y-110520924D01*
X115460054Y-110519147D01*
X115680000Y-110189974D01*
X115899946Y-110519147D01*
X116381715Y-110841054D01*
X116940224Y-110952148D01*
X116638371Y-111076871D01*
X116361045Y-111353714D01*
X116210772Y-111715612D01*
X116210430Y-112107469D01*
X116360071Y-112469629D01*
X116636914Y-112746955D01*
X116998812Y-112897228D01*
X117390669Y-112897570D01*
X117752829Y-112747929D01*
X118030155Y-112471086D01*
X118180428Y-112109188D01*
X118180770Y-111717331D01*
X118031129Y-111355171D01*
X117754286Y-111077845D01*
X117392388Y-110927572D01*
X117084680Y-110927303D01*
X117518285Y-110841054D01*
X118000054Y-110519147D01*
X118220000Y-110189974D01*
X118439946Y-110519147D01*
X118921715Y-110841054D01*
X119490000Y-110954093D01*
X120058285Y-110841054D01*
X120540054Y-110519147D01*
X120760000Y-110189974D01*
X120979946Y-110519147D01*
X121461715Y-110841054D01*
X122030000Y-110954093D01*
X122598285Y-110841054D01*
X123080054Y-110519147D01*
X123300000Y-110189974D01*
X123519946Y-110519147D01*
X124001715Y-110841054D01*
X124570000Y-110954093D01*
X125138285Y-110841054D01*
X125620054Y-110519147D01*
X125840000Y-110189974D01*
X126059946Y-110519147D01*
X126541715Y-110841054D01*
X127110000Y-110954093D01*
X127678285Y-110841054D01*
X128160054Y-110519147D01*
X128481961Y-110037378D01*
X128595000Y-109469093D01*
X128595000Y-109410907D01*
X128481961Y-108842622D01*
X128160054Y-108360853D01*
X127874422Y-108170000D01*
X128160054Y-107979147D01*
X128481961Y-107497378D01*
X128595000Y-106929093D01*
X128595000Y-106870907D01*
X128481961Y-106302622D01*
X128160054Y-105820853D01*
X127678285Y-105498946D01*
X127110000Y-105385907D01*
X126541715Y-105498946D01*
X126059946Y-105820853D01*
X125840000Y-106150026D01*
X125620054Y-105820853D01*
X125138285Y-105498946D01*
X124570000Y-105385907D01*
X124001715Y-105498946D01*
X123519946Y-105820853D01*
X123300000Y-106150026D01*
X123080054Y-105820853D01*
X122598285Y-105498946D01*
X122030000Y-105385907D01*
X121461715Y-105498946D01*
X120979946Y-105820853D01*
X120760000Y-106150026D01*
X120540054Y-105820853D01*
X120058285Y-105498946D01*
X119490000Y-105385907D01*
X118921715Y-105498946D01*
X118439946Y-105820853D01*
X118220000Y-106150026D01*
X118000054Y-105820853D01*
X117518285Y-105498946D01*
X116950000Y-105385907D01*
X116381715Y-105498946D01*
X115899946Y-105820853D01*
X115680000Y-106150026D01*
X115460054Y-105820853D01*
X114978285Y-105498946D01*
X114410000Y-105385907D01*
X113841715Y-105498946D01*
X113359946Y-105820853D01*
X113140000Y-106150026D01*
X112920054Y-105820853D01*
X112438285Y-105498946D01*
X111870000Y-105385907D01*
X111301715Y-105498946D01*
X110819946Y-105820853D01*
X110600000Y-106150026D01*
X110380054Y-105820853D01*
X109898285Y-105498946D01*
X109330000Y-105385907D01*
X108761715Y-105498946D01*
X108279946Y-105820853D01*
X108060000Y-106150026D01*
X107840054Y-105820853D01*
X107358285Y-105498946D01*
X106790000Y-105385907D01*
X106221715Y-105498946D01*
X105739946Y-105820853D01*
X105712150Y-105862452D01*
X105703162Y-105814683D01*
X105564090Y-105598559D01*
X105351890Y-105453569D01*
X105100000Y-105402560D01*
X103400000Y-105402560D01*
X103164683Y-105446838D01*
X102948559Y-105585910D01*
X102803569Y-105798110D01*
X102752560Y-106050000D01*
X40710000Y-106050000D01*
X40710000Y-40650000D01*
X102752560Y-40650000D01*
X102752560Y-42350000D01*
X102796838Y-42585317D01*
X102935910Y-42801441D01*
X103148110Y-42946431D01*
X103204454Y-42957841D01*
X103199946Y-42960853D01*
X102878039Y-43442622D01*
X102765000Y-44010907D01*
X102765000Y-44069093D01*
X102878039Y-44637378D01*
X103199946Y-45119147D01*
X103681715Y-45441054D01*
X104250000Y-45554093D01*
X104818285Y-45441054D01*
X105300054Y-45119147D01*
X105520000Y-44789974D01*
X105739946Y-45119147D01*
X106221715Y-45441054D01*
X106790000Y-45554093D01*
X107358285Y-45441054D01*
X107840054Y-45119147D01*
X108060000Y-44789974D01*
X108279946Y-45119147D01*
X108761715Y-45441054D01*
X109330000Y-45554093D01*
X109898285Y-45441054D01*
X110380054Y-45119147D01*
X110600000Y-44789974D01*
X110819946Y-45119147D01*
X111301715Y-45441054D01*
X111870000Y-45554093D01*
X112438285Y-45441054D01*
X112920054Y-45119147D01*
X113140000Y-44789974D01*
X113359946Y-45119147D01*
X113841715Y-45441054D01*
X114410000Y-45554093D01*
X114978285Y-45441054D01*
X115460054Y-45119147D01*
X115680000Y-44789974D01*
X115899946Y-45119147D01*
X116381715Y-45441054D01*
X116950000Y-45554093D01*
X117518285Y-45441054D01*
X118000054Y-45119147D01*
X118220000Y-44789974D01*
X118439946Y-45119147D01*
X118921715Y-45441054D01*
X119490000Y-45554093D01*
X120058285Y-45441054D01*
X120540054Y-45119147D01*
X120760000Y-44789974D01*
X120979946Y-45119147D01*
X121461715Y-45441054D01*
X122030000Y-45554093D01*
X122598285Y-45441054D01*
X123080054Y-45119147D01*
X123300000Y-44789974D01*
X123519946Y-45119147D01*
X124001715Y-45441054D01*
X124570000Y-45554093D01*
X125138285Y-45441054D01*
X125620054Y-45119147D01*
X125840000Y-44789974D01*
X126059946Y-45119147D01*
X126541715Y-45441054D01*
X127110000Y-45554093D01*
X127678285Y-45441054D01*
X128160054Y-45119147D01*
X128481961Y-44637378D01*
X128595000Y-44069093D01*
X128595000Y-44010907D01*
X128481961Y-43442622D01*
X128160054Y-42960853D01*
X127874422Y-42770000D01*
X128160054Y-42579147D01*
X128481961Y-42097378D01*
X128595000Y-41529093D01*
X128595000Y-41470907D01*
X128481961Y-40902622D01*
X128160054Y-40420853D01*
X127678285Y-40098946D01*
X127110000Y-39985907D01*
X126541715Y-40098946D01*
X126059946Y-40420853D01*
X125840000Y-40750026D01*
X125620054Y-40420853D01*
X125138285Y-40098946D01*
X124570000Y-39985907D01*
X124001715Y-40098946D01*
X123519946Y-40420853D01*
X123300000Y-40750026D01*
X123080054Y-40420853D01*
X122598285Y-40098946D01*
X122030000Y-39985907D01*
X121461715Y-40098946D01*
X120979946Y-40420853D01*
X120760000Y-40750026D01*
X120540054Y-40420853D01*
X120058285Y-40098946D01*
X119490000Y-39985907D01*
X118921715Y-40098946D01*
X118439946Y-40420853D01*
X118220000Y-40750026D01*
X118000054Y-40420853D01*
X117518285Y-40098946D01*
X116950000Y-39985907D01*
X116381715Y-40098946D01*
X115899946Y-40420853D01*
X115680000Y-40750026D01*
X115460054Y-40420853D01*
X114978285Y-40098946D01*
X114410000Y-39985907D01*
X113841715Y-40098946D01*
X113359946Y-40420853D01*
X113140000Y-40750026D01*
X112920054Y-40420853D01*
X112438285Y-40098946D01*
X111870000Y-39985907D01*
X111301715Y-40098946D01*
X110819946Y-40420853D01*
X110600000Y-40750026D01*
X110380054Y-40420853D01*
X109898285Y-40098946D01*
X109330000Y-39985907D01*
X108761715Y-40098946D01*
X108279946Y-40420853D01*
X108052298Y-40761553D01*
X107985183Y-40618642D01*
X107556924Y-40228355D01*
X107146890Y-40058524D01*
X106917000Y-40179845D01*
X106917000Y-41373000D01*
X106937000Y-41373000D01*
X106937000Y-41627000D01*
X106917000Y-41627000D01*
X106917000Y-41647000D01*
X106663000Y-41647000D01*
X106663000Y-41627000D01*
X106643000Y-41627000D01*
X106643000Y-41373000D01*
X106663000Y-41373000D01*
X106663000Y-40179845D01*
X106433110Y-40058524D01*
X106023076Y-40228355D01*
X105720063Y-40504501D01*
X105703162Y-40414683D01*
X105564090Y-40198559D01*
X105351890Y-40053569D01*
X105100000Y-40002560D01*
X103400000Y-40002560D01*
X103164683Y-40046838D01*
X102948559Y-40185910D01*
X102803569Y-40398110D01*
X102752560Y-40650000D01*
X40710000Y-40650000D01*
X40710000Y-38395069D01*
X102714830Y-38395069D01*
X102864471Y-38757229D01*
X103141314Y-39034555D01*
X103503212Y-39184828D01*
X103895069Y-39185170D01*
X104257229Y-39035529D01*
X104534555Y-38758686D01*
X104684828Y-38396788D01*
X104685170Y-38004931D01*
X104535529Y-37642771D01*
X104258686Y-37365445D01*
X103896788Y-37215172D01*
X103504931Y-37214830D01*
X103142771Y-37364471D01*
X102865445Y-37641314D01*
X102715172Y-38003212D01*
X102714830Y-38395069D01*
X40710000Y-38395069D01*
X40710000Y-30710000D01*
X159290000Y-30710000D01*
X159290000Y-179290000D01*
X159290000Y-179290000D01*
G37*
X159290000Y-179290000D02*
X40710000Y-179290000D01*
X40710000Y-176245069D01*
X116714830Y-176245069D01*
X116864471Y-176607229D01*
X117141314Y-176884555D01*
X117503212Y-177034828D01*
X117895069Y-177035170D01*
X118257229Y-176885529D01*
X118534555Y-176608686D01*
X118684828Y-176246788D01*
X118685170Y-175854931D01*
X118535529Y-175492771D01*
X118258686Y-175215445D01*
X117896788Y-175065172D01*
X117504931Y-175064830D01*
X117142771Y-175214471D01*
X116865445Y-175491314D01*
X116715172Y-175853212D01*
X116714830Y-176245069D01*
X40710000Y-176245069D01*
X40710000Y-170323795D01*
X48364716Y-170323795D01*
X48613106Y-170924943D01*
X49072637Y-171385278D01*
X49673352Y-171634716D01*
X50323795Y-171635284D01*
X50924943Y-171386894D01*
X51159715Y-171152532D01*
X54027073Y-171152532D01*
X54125736Y-171419387D01*
X54735461Y-171645908D01*
X55385460Y-171621856D01*
X55874264Y-171419387D01*
X55972927Y-171152532D01*
X55000000Y-170179605D01*
X54027073Y-171152532D01*
X51159715Y-171152532D01*
X51385278Y-170927363D01*
X51634716Y-170326648D01*
X51635232Y-169735461D01*
X53354092Y-169735461D01*
X53378144Y-170385460D01*
X53580613Y-170874264D01*
X53847468Y-170972927D01*
X54820395Y-170000000D01*
X55179605Y-170000000D01*
X56152532Y-170972927D01*
X56419387Y-170874264D01*
X56623893Y-170323795D01*
X63364716Y-170323795D01*
X63613106Y-170924943D01*
X64072637Y-171385278D01*
X64673352Y-171634716D01*
X65323795Y-171635284D01*
X65924943Y-171386894D01*
X66159715Y-171152532D01*
X69027073Y-171152532D01*
X69125736Y-171419387D01*
X69735461Y-171645908D01*
X70385460Y-171621856D01*
X70874264Y-171419387D01*
X70972927Y-171152532D01*
X70000000Y-170179605D01*
X69027073Y-171152532D01*
X66159715Y-171152532D01*
X66385278Y-170927363D01*
X66634716Y-170326648D01*
X66635232Y-169735461D01*
X68354092Y-169735461D01*
X68378144Y-170385460D01*
X68580613Y-170874264D01*
X68847468Y-170972927D01*
X69820395Y-170000000D01*
X70179605Y-170000000D01*
X71152532Y-170972927D01*
X71419387Y-170874264D01*
X71623893Y-170323795D01*
X78364716Y-170323795D01*
X78613106Y-170924943D01*
X79072637Y-171385278D01*
X79673352Y-171634716D01*
X80323795Y-171635284D01*
X80924943Y-171386894D01*
X81159715Y-171152532D01*
X84027073Y-171152532D01*
X84125736Y-171419387D01*
X84735461Y-171645908D01*
X85385460Y-171621856D01*
X85874264Y-171419387D01*
X85972927Y-171152532D01*
X85000000Y-170179605D01*
X84027073Y-171152532D01*
X81159715Y-171152532D01*
X81385278Y-170927363D01*
X81634716Y-170326648D01*
X81635232Y-169735461D01*
X83354092Y-169735461D01*
X83378144Y-170385460D01*
X83580613Y-170874264D01*
X83847468Y-170972927D01*
X84820395Y-170000000D01*
X85179605Y-170000000D01*
X86152532Y-170972927D01*
X86419387Y-170874264D01*
X86623893Y-170323795D01*
X93364716Y-170323795D01*
X93613106Y-170924943D01*
X94072637Y-171385278D01*
X94673352Y-171634716D01*
X95323795Y-171635284D01*
X95924943Y-171386894D01*
X96159715Y-171152532D01*
X99027073Y-171152532D01*
X99125736Y-171419387D01*
X99735461Y-171645908D01*
X100385460Y-171621856D01*
X100874264Y-171419387D01*
X100972927Y-171152532D01*
X100000000Y-170179605D01*
X99027073Y-171152532D01*
X96159715Y-171152532D01*
X96385278Y-170927363D01*
X96634716Y-170326648D01*
X96635232Y-169735461D01*
X98354092Y-169735461D01*
X98378144Y-170385460D01*
X98580613Y-170874264D01*
X98847468Y-170972927D01*
X99820395Y-170000000D01*
X100179605Y-170000000D01*
X101152532Y-170972927D01*
X101419387Y-170874264D01*
X101645908Y-170264539D01*
X101621856Y-169614540D01*
X101419387Y-169125736D01*
X101152532Y-169027073D01*
X100179605Y-170000000D01*
X99820395Y-170000000D01*
X98847468Y-169027073D01*
X98580613Y-169125736D01*
X98354092Y-169735461D01*
X96635232Y-169735461D01*
X96635284Y-169676205D01*
X96386894Y-169075057D01*
X96159703Y-168847468D01*
X99027073Y-168847468D01*
X100000000Y-169820395D01*
X100972927Y-168847468D01*
X100874264Y-168580613D01*
X100264539Y-168354092D01*
X99614540Y-168378144D01*
X99125736Y-168580613D01*
X99027073Y-168847468D01*
X96159703Y-168847468D01*
X95927363Y-168614722D01*
X95326648Y-168365284D01*
X94676205Y-168364716D01*
X94075057Y-168613106D01*
X93614722Y-169072637D01*
X93365284Y-169673352D01*
X93364716Y-170323795D01*
X86623893Y-170323795D01*
X86645908Y-170264539D01*
X86621856Y-169614540D01*
X86419387Y-169125736D01*
X86152532Y-169027073D01*
X85179605Y-170000000D01*
X84820395Y-170000000D01*
X83847468Y-169027073D01*
X83580613Y-169125736D01*
X83354092Y-169735461D01*
X81635232Y-169735461D01*
X81635284Y-169676205D01*
X81386894Y-169075057D01*
X81159703Y-168847468D01*
X84027073Y-168847468D01*
X85000000Y-169820395D01*
X85972927Y-168847468D01*
X85874264Y-168580613D01*
X85264539Y-168354092D01*
X84614540Y-168378144D01*
X84125736Y-168580613D01*
X84027073Y-168847468D01*
X81159703Y-168847468D01*
X80927363Y-168614722D01*
X80326648Y-168365284D01*
X79676205Y-168364716D01*
X79075057Y-168613106D01*
X78614722Y-169072637D01*
X78365284Y-169673352D01*
X78364716Y-170323795D01*
X71623893Y-170323795D01*
X71645908Y-170264539D01*
X71621856Y-169614540D01*
X71419387Y-169125736D01*
X71152532Y-169027073D01*
X70179605Y-170000000D01*
X69820395Y-170000000D01*
X68847468Y-169027073D01*
X68580613Y-169125736D01*
X68354092Y-169735461D01*
X66635232Y-169735461D01*
X66635284Y-169676205D01*
X66386894Y-169075057D01*
X66159703Y-168847468D01*
X69027073Y-168847468D01*
X70000000Y-169820395D01*
X70972927Y-168847468D01*
X70874264Y-168580613D01*
X70264539Y-168354092D01*
X69614540Y-168378144D01*
X69125736Y-168580613D01*
X69027073Y-168847468D01*
X66159703Y-168847468D01*
X65927363Y-168614722D01*
X65326648Y-168365284D01*
X64676205Y-168364716D01*
X64075057Y-168613106D01*
X63614722Y-169072637D01*
X63365284Y-169673352D01*
X63364716Y-170323795D01*
X56623893Y-170323795D01*
X56645908Y-170264539D01*
X56621856Y-169614540D01*
X56419387Y-169125736D01*
X56152532Y-169027073D01*
X55179605Y-170000000D01*
X54820395Y-170000000D01*
X53847468Y-169027073D01*
X53580613Y-169125736D01*
X53354092Y-169735461D01*
X51635232Y-169735461D01*
X51635284Y-169676205D01*
X51386894Y-169075057D01*
X51159703Y-168847468D01*
X54027073Y-168847468D01*
X55000000Y-169820395D01*
X55972927Y-168847468D01*
X55874264Y-168580613D01*
X55264539Y-168354092D01*
X54614540Y-168378144D01*
X54125736Y-168580613D01*
X54027073Y-168847468D01*
X51159703Y-168847468D01*
X50927363Y-168614722D01*
X50326648Y-168365284D01*
X49676205Y-168364716D01*
X49075057Y-168613106D01*
X48614722Y-169072637D01*
X48365284Y-169673352D01*
X48364716Y-170323795D01*
X40710000Y-170323795D01*
X40710000Y-167540000D01*
X108485907Y-167540000D01*
X108598946Y-168108285D01*
X108920853Y-168590054D01*
X109250026Y-168810000D01*
X108920853Y-169029946D01*
X108598946Y-169511715D01*
X108485907Y-170080000D01*
X108598946Y-170648285D01*
X108920853Y-171130054D01*
X109402622Y-171451961D01*
X109970907Y-171565000D01*
X110029093Y-171565000D01*
X110597378Y-171451961D01*
X111079147Y-171130054D01*
X111268345Y-170846899D01*
X111268355Y-170846924D01*
X111658642Y-171275183D01*
X112183108Y-171521486D01*
X112413000Y-171400819D01*
X112413000Y-170207000D01*
X112667000Y-170207000D01*
X112667000Y-171400819D01*
X112896892Y-171521486D01*
X113421358Y-171275183D01*
X113811645Y-170846924D01*
X113981476Y-170436890D01*
X113860155Y-170207000D01*
X112667000Y-170207000D01*
X112413000Y-170207000D01*
X112393000Y-170207000D01*
X112393000Y-169953000D01*
X112413000Y-169953000D01*
X112413000Y-169933000D01*
X112667000Y-169933000D01*
X112667000Y-169953000D01*
X113860155Y-169953000D01*
X113981476Y-169723110D01*
X113811645Y-169313076D01*
X113421358Y-168884817D01*
X113278447Y-168817702D01*
X113619147Y-168590054D01*
X113941054Y-168108285D01*
X114054093Y-167540000D01*
X118485907Y-167540000D01*
X118598946Y-168108285D01*
X118920853Y-168590054D01*
X119250026Y-168810000D01*
X118920853Y-169029946D01*
X118598946Y-169511715D01*
X118485907Y-170080000D01*
X118598946Y-170648285D01*
X118920853Y-171130054D01*
X119402622Y-171451961D01*
X119970907Y-171565000D01*
X120029093Y-171565000D01*
X120597378Y-171451961D01*
X121079147Y-171130054D01*
X121268345Y-170846899D01*
X121268355Y-170846924D01*
X121658642Y-171275183D01*
X122183108Y-171521486D01*
X122413000Y-171400819D01*
X122413000Y-170207000D01*
X122667000Y-170207000D01*
X122667000Y-171400819D01*
X122896892Y-171521486D01*
X123421358Y-171275183D01*
X123811645Y-170846924D01*
X123981476Y-170436890D01*
X123860155Y-170207000D01*
X122667000Y-170207000D01*
X122413000Y-170207000D01*
X122393000Y-170207000D01*
X122393000Y-169953000D01*
X122413000Y-169953000D01*
X122413000Y-169933000D01*
X122667000Y-169933000D01*
X122667000Y-169953000D01*
X123860155Y-169953000D01*
X123981476Y-169723110D01*
X123811645Y-169313076D01*
X123421358Y-168884817D01*
X123278447Y-168817702D01*
X123619147Y-168590054D01*
X123941054Y-168108285D01*
X124054093Y-167540000D01*
X128485907Y-167540000D01*
X128598946Y-168108285D01*
X128920853Y-168590054D01*
X129250026Y-168810000D01*
X128920853Y-169029946D01*
X128598946Y-169511715D01*
X128485907Y-170080000D01*
X128598946Y-170648285D01*
X128920853Y-171130054D01*
X129402622Y-171451961D01*
X129970907Y-171565000D01*
X130029093Y-171565000D01*
X130597378Y-171451961D01*
X131079147Y-171130054D01*
X131268345Y-170846899D01*
X131268355Y-170846924D01*
X131658642Y-171275183D01*
X132183108Y-171521486D01*
X132413000Y-171400819D01*
X132413000Y-170207000D01*
X132667000Y-170207000D01*
X132667000Y-171400819D01*
X132896892Y-171521486D01*
X133421358Y-171275183D01*
X133811645Y-170846924D01*
X133981476Y-170436890D01*
X133860155Y-170207000D01*
X132667000Y-170207000D01*
X132413000Y-170207000D01*
X132393000Y-170207000D01*
X132393000Y-169953000D01*
X132413000Y-169953000D01*
X132413000Y-169933000D01*
X132667000Y-169933000D01*
X132667000Y-169953000D01*
X133860155Y-169953000D01*
X133981476Y-169723110D01*
X133811645Y-169313076D01*
X133421358Y-168884817D01*
X133278447Y-168817702D01*
X133619147Y-168590054D01*
X133941054Y-168108285D01*
X134054093Y-167540000D01*
X133941054Y-166971715D01*
X133619147Y-166489946D01*
X133289974Y-166270000D01*
X133619147Y-166050054D01*
X133941054Y-165568285D01*
X134047774Y-165031769D01*
X134188314Y-165172555D01*
X134550212Y-165322828D01*
X134942069Y-165323170D01*
X135304229Y-165173529D01*
X135581555Y-164896686D01*
X135731828Y-164534788D01*
X135732170Y-164142931D01*
X135582529Y-163780771D01*
X135305686Y-163503445D01*
X134943788Y-163353172D01*
X134551931Y-163352830D01*
X134189771Y-163502471D01*
X133912445Y-163779314D01*
X133762172Y-164141212D01*
X133762152Y-164163969D01*
X133619147Y-163949946D01*
X133137378Y-163628039D01*
X132569093Y-163515000D01*
X132510907Y-163515000D01*
X131942622Y-163628039D01*
X131460853Y-163949946D01*
X131460029Y-163951179D01*
X131453162Y-163914683D01*
X131314090Y-163698559D01*
X131101890Y-163553569D01*
X130850000Y-163502560D01*
X129150000Y-163502560D01*
X128914683Y-163546838D01*
X128698559Y-163685910D01*
X128553569Y-163898110D01*
X128502560Y-164150000D01*
X128502560Y-165850000D01*
X128546838Y-166085317D01*
X128685910Y-166301441D01*
X128898110Y-166446431D01*
X128965541Y-166460086D01*
X128920853Y-166489946D01*
X128598946Y-166971715D01*
X128485907Y-167540000D01*
X124054093Y-167540000D01*
X123941054Y-166971715D01*
X123619147Y-166489946D01*
X123289974Y-166270000D01*
X123619147Y-166050054D01*
X123941054Y-165568285D01*
X124054093Y-165000000D01*
X123941054Y-164431715D01*
X123754201Y-164152069D01*
X123855830Y-164152069D01*
X124005471Y-164514229D01*
X124282314Y-164791555D01*
X124644212Y-164941828D01*
X125036069Y-164942170D01*
X125398229Y-164792529D01*
X125675555Y-164515686D01*
X125825828Y-164153788D01*
X125826170Y-163761931D01*
X125676529Y-163399771D01*
X125548052Y-163271069D01*
X137190830Y-163271069D01*
X137340471Y-163633229D01*
X137617314Y-163910555D01*
X137979212Y-164060828D01*
X138371069Y-164061170D01*
X138534198Y-163993767D01*
X138502560Y-164150000D01*
X138502560Y-165850000D01*
X138546838Y-166085317D01*
X138685910Y-166301441D01*
X138898110Y-166446431D01*
X138965541Y-166460086D01*
X138920853Y-166489946D01*
X138598946Y-166971715D01*
X138485907Y-167540000D01*
X138598946Y-168108285D01*
X138920853Y-168590054D01*
X139250026Y-168810000D01*
X138920853Y-169029946D01*
X138598946Y-169511715D01*
X138485907Y-170080000D01*
X138598946Y-170648285D01*
X138920853Y-171130054D01*
X139402622Y-171451961D01*
X139970907Y-171565000D01*
X140029093Y-171565000D01*
X140597378Y-171451961D01*
X141079147Y-171130054D01*
X141268345Y-170846899D01*
X141268355Y-170846924D01*
X141658642Y-171275183D01*
X142183108Y-171521486D01*
X142413000Y-171400819D01*
X142413000Y-170207000D01*
X142667000Y-170207000D01*
X142667000Y-171400819D01*
X142896892Y-171521486D01*
X143421358Y-171275183D01*
X143811645Y-170846924D01*
X143981476Y-170436890D01*
X143860155Y-170207000D01*
X142667000Y-170207000D01*
X142413000Y-170207000D01*
X142393000Y-170207000D01*
X142393000Y-169953000D01*
X142413000Y-169953000D01*
X142413000Y-169933000D01*
X142667000Y-169933000D01*
X142667000Y-169953000D01*
X143860155Y-169953000D01*
X143981476Y-169723110D01*
X143811645Y-169313076D01*
X143421358Y-168884817D01*
X143278447Y-168817702D01*
X143619147Y-168590054D01*
X143941054Y-168108285D01*
X144054093Y-167540000D01*
X148485907Y-167540000D01*
X148598946Y-168108285D01*
X148920853Y-168590054D01*
X149250026Y-168810000D01*
X148920853Y-169029946D01*
X148598946Y-169511715D01*
X148485907Y-170080000D01*
X148598946Y-170648285D01*
X148920853Y-171130054D01*
X149402622Y-171451961D01*
X149970907Y-171565000D01*
X150029093Y-171565000D01*
X150597378Y-171451961D01*
X151079147Y-171130054D01*
X151268345Y-170846899D01*
X151268355Y-170846924D01*
X151658642Y-171275183D01*
X152183108Y-171521486D01*
X152413000Y-171400819D01*
X152413000Y-170207000D01*
X152667000Y-170207000D01*
X152667000Y-171400819D01*
X152896892Y-171521486D01*
X153421358Y-171275183D01*
X153811645Y-170846924D01*
X153981476Y-170436890D01*
X153860155Y-170207000D01*
X152667000Y-170207000D01*
X152413000Y-170207000D01*
X152393000Y-170207000D01*
X152393000Y-169953000D01*
X152413000Y-169953000D01*
X152413000Y-169933000D01*
X152667000Y-169933000D01*
X152667000Y-169953000D01*
X153860155Y-169953000D01*
X153981476Y-169723110D01*
X153811645Y-169313076D01*
X153421358Y-168884817D01*
X153278447Y-168817702D01*
X153619147Y-168590054D01*
X153941054Y-168108285D01*
X154054093Y-167540000D01*
X153941054Y-166971715D01*
X153619147Y-166489946D01*
X153289974Y-166270000D01*
X153619147Y-166050054D01*
X153941054Y-165568285D01*
X154054093Y-165000000D01*
X153941054Y-164431715D01*
X153619147Y-163949946D01*
X153237696Y-163695069D01*
X154514830Y-163695069D01*
X154664471Y-164057229D01*
X154941314Y-164334555D01*
X155303212Y-164484828D01*
X155695069Y-164485170D01*
X156057229Y-164335529D01*
X156334555Y-164058686D01*
X156484828Y-163696788D01*
X156485170Y-163304931D01*
X156335529Y-162942771D01*
X156058686Y-162665445D01*
X155696788Y-162515172D01*
X155304931Y-162514830D01*
X154942771Y-162664471D01*
X154665445Y-162941314D01*
X154515172Y-163303212D01*
X154514830Y-163695069D01*
X153237696Y-163695069D01*
X153137378Y-163628039D01*
X152569093Y-163515000D01*
X152510907Y-163515000D01*
X151942622Y-163628039D01*
X151460853Y-163949946D01*
X151460029Y-163951179D01*
X151453162Y-163914683D01*
X151314090Y-163698559D01*
X151101890Y-163553569D01*
X150850000Y-163502560D01*
X149150000Y-163502560D01*
X148914683Y-163546838D01*
X148698559Y-163685910D01*
X148553569Y-163898110D01*
X148502560Y-164150000D01*
X148502560Y-165850000D01*
X148546838Y-166085317D01*
X148685910Y-166301441D01*
X148898110Y-166446431D01*
X148965541Y-166460086D01*
X148920853Y-166489946D01*
X148598946Y-166971715D01*
X148485907Y-167540000D01*
X144054093Y-167540000D01*
X143941054Y-166971715D01*
X143619147Y-166489946D01*
X143289974Y-166270000D01*
X143476946Y-166145069D01*
X144064830Y-166145069D01*
X144214471Y-166507229D01*
X144491314Y-166784555D01*
X144853212Y-166934828D01*
X145245069Y-166935170D01*
X145607229Y-166785529D01*
X145884555Y-166508686D01*
X146034828Y-166146788D01*
X146035170Y-165754931D01*
X145885529Y-165392771D01*
X145608686Y-165115445D01*
X145535440Y-165085031D01*
X145695069Y-165085170D01*
X146057229Y-164935529D01*
X146334555Y-164658686D01*
X146484828Y-164296788D01*
X146485170Y-163904931D01*
X146335529Y-163542771D01*
X146058686Y-163265445D01*
X145696788Y-163115172D01*
X145304931Y-163114830D01*
X144942771Y-163264471D01*
X144665445Y-163541314D01*
X144515172Y-163903212D01*
X144514830Y-164295069D01*
X144664471Y-164657229D01*
X144941314Y-164934555D01*
X145014560Y-164964969D01*
X144854931Y-164964830D01*
X144492771Y-165114471D01*
X144215445Y-165391314D01*
X144065172Y-165753212D01*
X144064830Y-166145069D01*
X143476946Y-166145069D01*
X143619147Y-166050054D01*
X143941054Y-165568285D01*
X144054093Y-165000000D01*
X143941054Y-164431715D01*
X143619147Y-163949946D01*
X143137378Y-163628039D01*
X142569093Y-163515000D01*
X142510907Y-163515000D01*
X141942622Y-163628039D01*
X141460853Y-163949946D01*
X141460029Y-163951179D01*
X141453162Y-163914683D01*
X141314090Y-163698559D01*
X141101890Y-163553569D01*
X140850000Y-163502560D01*
X139150000Y-163502560D01*
X139058250Y-163519824D01*
X139160828Y-163272788D01*
X139161170Y-162880931D01*
X139011529Y-162518771D01*
X138734686Y-162241445D01*
X138372788Y-162091172D01*
X137980931Y-162090830D01*
X137618771Y-162240471D01*
X137341445Y-162517314D01*
X137191172Y-162879212D01*
X137190830Y-163271069D01*
X125548052Y-163271069D01*
X125399686Y-163122445D01*
X125037788Y-162972172D01*
X124645931Y-162971830D01*
X124283771Y-163121471D01*
X124006445Y-163398314D01*
X123856172Y-163760212D01*
X123855830Y-164152069D01*
X123754201Y-164152069D01*
X123619147Y-163949946D01*
X123137378Y-163628039D01*
X122569093Y-163515000D01*
X122510907Y-163515000D01*
X121942622Y-163628039D01*
X121460853Y-163949946D01*
X121460029Y-163951179D01*
X121453162Y-163914683D01*
X121314090Y-163698559D01*
X121101890Y-163553569D01*
X120850000Y-163502560D01*
X119150000Y-163502560D01*
X118914683Y-163546838D01*
X118698559Y-163685910D01*
X118553569Y-163898110D01*
X118502560Y-164150000D01*
X118502560Y-165850000D01*
X118546838Y-166085317D01*
X118685910Y-166301441D01*
X118898110Y-166446431D01*
X118965541Y-166460086D01*
X118920853Y-166489946D01*
X118598946Y-166971715D01*
X118485907Y-167540000D01*
X114054093Y-167540000D01*
X113941054Y-166971715D01*
X113619147Y-166489946D01*
X113289974Y-166270000D01*
X113619147Y-166050054D01*
X113941054Y-165568285D01*
X114015743Y-165192798D01*
X114122314Y-165299555D01*
X114484212Y-165449828D01*
X114876069Y-165450170D01*
X115238229Y-165300529D01*
X115515555Y-165023686D01*
X115665828Y-164661788D01*
X115666170Y-164269931D01*
X115516529Y-163907771D01*
X115239686Y-163630445D01*
X114877788Y-163480172D01*
X114485931Y-163479830D01*
X114123771Y-163629471D01*
X113846445Y-163906314D01*
X113748156Y-164143021D01*
X113619147Y-163949946D01*
X113137378Y-163628039D01*
X112569093Y-163515000D01*
X112510907Y-163515000D01*
X111942622Y-163628039D01*
X111460853Y-163949946D01*
X111460029Y-163951179D01*
X111453162Y-163914683D01*
X111314090Y-163698559D01*
X111101890Y-163553569D01*
X110850000Y-163502560D01*
X109150000Y-163502560D01*
X108914683Y-163546838D01*
X108698559Y-163685910D01*
X108553569Y-163898110D01*
X108502560Y-164150000D01*
X108502560Y-165850000D01*
X108546838Y-166085317D01*
X108685910Y-166301441D01*
X108898110Y-166446431D01*
X108965541Y-166460086D01*
X108920853Y-166489946D01*
X108598946Y-166971715D01*
X108485907Y-167540000D01*
X40710000Y-167540000D01*
X40710000Y-165323795D01*
X48364716Y-165323795D01*
X48613106Y-165924943D01*
X49072637Y-166385278D01*
X49673352Y-166634716D01*
X50323795Y-166635284D01*
X50924943Y-166386894D01*
X51159715Y-166152532D01*
X54027073Y-166152532D01*
X54125736Y-166419387D01*
X54735461Y-166645908D01*
X55385460Y-166621856D01*
X55874264Y-166419387D01*
X55972927Y-166152532D01*
X55000000Y-165179605D01*
X54027073Y-166152532D01*
X51159715Y-166152532D01*
X51385278Y-165927363D01*
X51634716Y-165326648D01*
X51635232Y-164735461D01*
X53354092Y-164735461D01*
X53378144Y-165385460D01*
X53580613Y-165874264D01*
X53847468Y-165972927D01*
X54820395Y-165000000D01*
X55179605Y-165000000D01*
X56152532Y-165972927D01*
X56419387Y-165874264D01*
X56623893Y-165323795D01*
X63364716Y-165323795D01*
X63613106Y-165924943D01*
X64072637Y-166385278D01*
X64673352Y-166634716D01*
X65323795Y-166635284D01*
X65924943Y-166386894D01*
X66159715Y-166152532D01*
X69027073Y-166152532D01*
X69125736Y-166419387D01*
X69735461Y-166645908D01*
X70385460Y-166621856D01*
X70874264Y-166419387D01*
X70972927Y-166152532D01*
X70000000Y-165179605D01*
X69027073Y-166152532D01*
X66159715Y-166152532D01*
X66385278Y-165927363D01*
X66634716Y-165326648D01*
X66635232Y-164735461D01*
X68354092Y-164735461D01*
X68378144Y-165385460D01*
X68580613Y-165874264D01*
X68847468Y-165972927D01*
X69820395Y-165000000D01*
X70179605Y-165000000D01*
X71152532Y-165972927D01*
X71419387Y-165874264D01*
X71623893Y-165323795D01*
X78364716Y-165323795D01*
X78613106Y-165924943D01*
X79072637Y-166385278D01*
X79673352Y-166634716D01*
X80323795Y-166635284D01*
X80924943Y-166386894D01*
X81159715Y-166152532D01*
X84027073Y-166152532D01*
X84125736Y-166419387D01*
X84735461Y-166645908D01*
X85385460Y-166621856D01*
X85874264Y-166419387D01*
X85972927Y-166152532D01*
X85000000Y-165179605D01*
X84027073Y-166152532D01*
X81159715Y-166152532D01*
X81385278Y-165927363D01*
X81634716Y-165326648D01*
X81635232Y-164735461D01*
X83354092Y-164735461D01*
X83378144Y-165385460D01*
X83580613Y-165874264D01*
X83847468Y-165972927D01*
X84820395Y-165000000D01*
X85179605Y-165000000D01*
X86152532Y-165972927D01*
X86419387Y-165874264D01*
X86623893Y-165323795D01*
X93364716Y-165323795D01*
X93613106Y-165924943D01*
X94072637Y-166385278D01*
X94673352Y-166634716D01*
X95323795Y-166635284D01*
X95924943Y-166386894D01*
X96159715Y-166152532D01*
X99027073Y-166152532D01*
X99125736Y-166419387D01*
X99735461Y-166645908D01*
X100385460Y-166621856D01*
X100874264Y-166419387D01*
X100972927Y-166152532D01*
X100000000Y-165179605D01*
X99027073Y-166152532D01*
X96159715Y-166152532D01*
X96385278Y-165927363D01*
X96634716Y-165326648D01*
X96635232Y-164735461D01*
X98354092Y-164735461D01*
X98378144Y-165385460D01*
X98580613Y-165874264D01*
X98847468Y-165972927D01*
X99820395Y-165000000D01*
X100179605Y-165000000D01*
X101152532Y-165972927D01*
X101419387Y-165874264D01*
X101645908Y-165264539D01*
X101621856Y-164614540D01*
X101419387Y-164125736D01*
X101152532Y-164027073D01*
X100179605Y-165000000D01*
X99820395Y-165000000D01*
X98847468Y-164027073D01*
X98580613Y-164125736D01*
X98354092Y-164735461D01*
X96635232Y-164735461D01*
X96635284Y-164676205D01*
X96386894Y-164075057D01*
X96159703Y-163847468D01*
X99027073Y-163847468D01*
X100000000Y-164820395D01*
X100972927Y-163847468D01*
X100874264Y-163580613D01*
X100264539Y-163354092D01*
X99614540Y-163378144D01*
X99125736Y-163580613D01*
X99027073Y-163847468D01*
X96159703Y-163847468D01*
X95927363Y-163614722D01*
X95326648Y-163365284D01*
X94676205Y-163364716D01*
X94075057Y-163613106D01*
X93614722Y-164072637D01*
X93365284Y-164673352D01*
X93364716Y-165323795D01*
X86623893Y-165323795D01*
X86645908Y-165264539D01*
X86621856Y-164614540D01*
X86419387Y-164125736D01*
X86152532Y-164027073D01*
X85179605Y-165000000D01*
X84820395Y-165000000D01*
X83847468Y-164027073D01*
X83580613Y-164125736D01*
X83354092Y-164735461D01*
X81635232Y-164735461D01*
X81635284Y-164676205D01*
X81386894Y-164075057D01*
X81159703Y-163847468D01*
X84027073Y-163847468D01*
X85000000Y-164820395D01*
X85972927Y-163847468D01*
X85874264Y-163580613D01*
X85264539Y-163354092D01*
X84614540Y-163378144D01*
X84125736Y-163580613D01*
X84027073Y-163847468D01*
X81159703Y-163847468D01*
X80927363Y-163614722D01*
X80326648Y-163365284D01*
X79676205Y-163364716D01*
X79075057Y-163613106D01*
X78614722Y-164072637D01*
X78365284Y-164673352D01*
X78364716Y-165323795D01*
X71623893Y-165323795D01*
X71645908Y-165264539D01*
X71621856Y-164614540D01*
X71419387Y-164125736D01*
X71152532Y-164027073D01*
X70179605Y-165000000D01*
X69820395Y-165000000D01*
X68847468Y-164027073D01*
X68580613Y-164125736D01*
X68354092Y-164735461D01*
X66635232Y-164735461D01*
X66635284Y-164676205D01*
X66386894Y-164075057D01*
X66159703Y-163847468D01*
X69027073Y-163847468D01*
X70000000Y-164820395D01*
X70972927Y-163847468D01*
X70874264Y-163580613D01*
X70264539Y-163354092D01*
X69614540Y-163378144D01*
X69125736Y-163580613D01*
X69027073Y-163847468D01*
X66159703Y-163847468D01*
X65927363Y-163614722D01*
X65326648Y-163365284D01*
X64676205Y-163364716D01*
X64075057Y-163613106D01*
X63614722Y-164072637D01*
X63365284Y-164673352D01*
X63364716Y-165323795D01*
X56623893Y-165323795D01*
X56645908Y-165264539D01*
X56621856Y-164614540D01*
X56419387Y-164125736D01*
X56152532Y-164027073D01*
X55179605Y-165000000D01*
X54820395Y-165000000D01*
X53847468Y-164027073D01*
X53580613Y-164125736D01*
X53354092Y-164735461D01*
X51635232Y-164735461D01*
X51635284Y-164676205D01*
X51386894Y-164075057D01*
X51159703Y-163847468D01*
X54027073Y-163847468D01*
X55000000Y-164820395D01*
X55972927Y-163847468D01*
X55874264Y-163580613D01*
X55264539Y-163354092D01*
X54614540Y-163378144D01*
X54125736Y-163580613D01*
X54027073Y-163847468D01*
X51159703Y-163847468D01*
X50927363Y-163614722D01*
X50326648Y-163365284D01*
X49676205Y-163364716D01*
X49075057Y-163613106D01*
X48614722Y-164072637D01*
X48365284Y-164673352D01*
X48364716Y-165323795D01*
X40710000Y-165323795D01*
X40710000Y-162247069D01*
X134904830Y-162247069D01*
X135054471Y-162609229D01*
X135331314Y-162886555D01*
X135693212Y-163036828D01*
X136085069Y-163037170D01*
X136447229Y-162887529D01*
X136724555Y-162610686D01*
X136874828Y-162248788D01*
X136875170Y-161856931D01*
X136725529Y-161494771D01*
X136448686Y-161217445D01*
X136086788Y-161067172D01*
X135694931Y-161066830D01*
X135332771Y-161216471D01*
X135055445Y-161493314D01*
X134905172Y-161855212D01*
X134904830Y-162247069D01*
X40710000Y-162247069D01*
X40710000Y-153195069D01*
X45014830Y-153195069D01*
X45164471Y-153557229D01*
X45441314Y-153834555D01*
X45803212Y-153984828D01*
X46195069Y-153985170D01*
X46557229Y-153835529D01*
X46834555Y-153558686D01*
X46984828Y-153196788D01*
X46984829Y-153195069D01*
X59014830Y-153195069D01*
X59164471Y-153557229D01*
X59441314Y-153834555D01*
X59803212Y-153984828D01*
X60195069Y-153985170D01*
X60557229Y-153835529D01*
X60834555Y-153558686D01*
X60984828Y-153196788D01*
X60985047Y-152945069D01*
X74014830Y-152945069D01*
X74164471Y-153307229D01*
X74441314Y-153584555D01*
X74803212Y-153734828D01*
X75195069Y-153735170D01*
X75557229Y-153585529D01*
X75834555Y-153308686D01*
X75881732Y-153195069D01*
X89014830Y-153195069D01*
X89164471Y-153557229D01*
X89441314Y-153834555D01*
X89803212Y-153984828D01*
X90195069Y-153985170D01*
X90557229Y-153835529D01*
X90834555Y-153558686D01*
X90984828Y-153196788D01*
X90984829Y-153195069D01*
X106264830Y-153195069D01*
X106414471Y-153557229D01*
X106691314Y-153834555D01*
X107053212Y-153984828D01*
X107445069Y-153985170D01*
X107807229Y-153835529D01*
X108084555Y-153558686D01*
X108234828Y-153196788D01*
X108235170Y-152804931D01*
X108200933Y-152722069D01*
X130713830Y-152722069D01*
X130863471Y-153084229D01*
X131140314Y-153361555D01*
X131502212Y-153511828D01*
X131894069Y-153512170D01*
X132256229Y-153362529D01*
X132383911Y-153235069D01*
X134514830Y-153235069D01*
X134664471Y-153597229D01*
X134941314Y-153874555D01*
X135303212Y-154024828D01*
X135695069Y-154025170D01*
X136057229Y-153875529D01*
X136334555Y-153598686D01*
X136484828Y-153236788D01*
X136485170Y-152844931D01*
X136335529Y-152482771D01*
X136058686Y-152205445D01*
X135696788Y-152055172D01*
X135304931Y-152054830D01*
X134942771Y-152204471D01*
X134665445Y-152481314D01*
X134515172Y-152843212D01*
X134514830Y-153235069D01*
X132383911Y-153235069D01*
X132533555Y-153085686D01*
X132683828Y-152723788D01*
X132683972Y-152559166D01*
X132891229Y-152473529D01*
X133168555Y-152196686D01*
X133255151Y-151988139D01*
X133291069Y-151988170D01*
X133653229Y-151838529D01*
X133930555Y-151561686D01*
X134080828Y-151199788D01*
X134081170Y-150807931D01*
X133931529Y-150445771D01*
X133654686Y-150168445D01*
X133292788Y-150018172D01*
X132900931Y-150017830D01*
X132538771Y-150167471D01*
X132261445Y-150444314D01*
X132174849Y-150652861D01*
X132138931Y-150652830D01*
X131776771Y-150802471D01*
X131499445Y-151079314D01*
X131349172Y-151441212D01*
X131349028Y-151605834D01*
X131141771Y-151691471D01*
X130864445Y-151968314D01*
X130714172Y-152330212D01*
X130713830Y-152722069D01*
X108200933Y-152722069D01*
X108085529Y-152442771D01*
X107808686Y-152165445D01*
X107446788Y-152015172D01*
X107054931Y-152014830D01*
X106692771Y-152164471D01*
X106415445Y-152441314D01*
X106265172Y-152803212D01*
X106264830Y-153195069D01*
X90984829Y-153195069D01*
X90985170Y-152804931D01*
X90835529Y-152442771D01*
X90558686Y-152165445D01*
X90196788Y-152015172D01*
X89804931Y-152014830D01*
X89442771Y-152164471D01*
X89165445Y-152441314D01*
X89015172Y-152803212D01*
X89014830Y-153195069D01*
X75881732Y-153195069D01*
X75984828Y-152946788D01*
X75985170Y-152554931D01*
X75835529Y-152192771D01*
X75558686Y-151915445D01*
X75196788Y-151765172D01*
X74804931Y-151764830D01*
X74442771Y-151914471D01*
X74165445Y-152191314D01*
X74015172Y-152553212D01*
X74014830Y-152945069D01*
X60985047Y-152945069D01*
X60985170Y-152804931D01*
X60835529Y-152442771D01*
X60558686Y-152165445D01*
X60196788Y-152015172D01*
X59804931Y-152014830D01*
X59442771Y-152164471D01*
X59165445Y-152441314D01*
X59015172Y-152803212D01*
X59014830Y-153195069D01*
X46984829Y-153195069D01*
X46985170Y-152804931D01*
X46835529Y-152442771D01*
X46558686Y-152165445D01*
X46196788Y-152015172D01*
X45804931Y-152014830D01*
X45442771Y-152164471D01*
X45165445Y-152441314D01*
X45015172Y-152803212D01*
X45014830Y-153195069D01*
X40710000Y-153195069D01*
X40710000Y-150690069D01*
X96169830Y-150690069D01*
X96319471Y-151052229D01*
X96596314Y-151329555D01*
X96958212Y-151479828D01*
X97350069Y-151480170D01*
X97712229Y-151330529D01*
X97989555Y-151053686D01*
X98139828Y-150691788D01*
X98140170Y-150299931D01*
X97990529Y-149937771D01*
X97713686Y-149660445D01*
X97351788Y-149510172D01*
X96959931Y-149509830D01*
X96597771Y-149659471D01*
X96320445Y-149936314D01*
X96170172Y-150298212D01*
X96169830Y-150690069D01*
X40710000Y-150690069D01*
X40710000Y-146580071D01*
X95714830Y-146580071D01*
X95864471Y-146942231D01*
X96141314Y-147219557D01*
X96503212Y-147369830D01*
X96895069Y-147370172D01*
X97257229Y-147220531D01*
X97483084Y-146995069D01*
X107764830Y-146995069D01*
X107914471Y-147357229D01*
X108191314Y-147634555D01*
X108553212Y-147784828D01*
X108565013Y-147784838D01*
X108564830Y-147995069D01*
X108714471Y-148357229D01*
X108991314Y-148634555D01*
X109353212Y-148784828D01*
X109745069Y-148785170D01*
X110107229Y-148635529D01*
X110384555Y-148358686D01*
X110534828Y-147996788D01*
X110535170Y-147604931D01*
X110385529Y-147242771D01*
X110337911Y-147195069D01*
X119164830Y-147195069D01*
X119314471Y-147557229D01*
X119591314Y-147834555D01*
X119953212Y-147984828D01*
X120345069Y-147985170D01*
X120707229Y-147835529D01*
X120984555Y-147558686D01*
X121134828Y-147196788D01*
X121135170Y-146804931D01*
X120985529Y-146442771D01*
X120864393Y-146321424D01*
X121053212Y-146399828D01*
X121399559Y-146400130D01*
X121464471Y-146557229D01*
X121741314Y-146834555D01*
X122103212Y-146984828D01*
X122495069Y-146985170D01*
X122857229Y-146835529D01*
X123134555Y-146558686D01*
X123165201Y-146484882D01*
X123495069Y-146485170D01*
X123857229Y-146335529D01*
X124134555Y-146058686D01*
X124284828Y-145696788D01*
X124285134Y-145345069D01*
X131364830Y-145345069D01*
X131514471Y-145707229D01*
X131791314Y-145984555D01*
X132153212Y-146134828D01*
X132545069Y-146135170D01*
X132907229Y-145985529D01*
X133184555Y-145708686D01*
X133334828Y-145346788D01*
X133335170Y-144954931D01*
X133185529Y-144592771D01*
X133077103Y-144484155D01*
X133401715Y-144701054D01*
X133970000Y-144814093D01*
X134538285Y-144701054D01*
X135020054Y-144379147D01*
X135240000Y-144049974D01*
X135459946Y-144379147D01*
X135941715Y-144701054D01*
X136510000Y-144814093D01*
X137078285Y-144701054D01*
X137560054Y-144379147D01*
X137780000Y-144049974D01*
X137999946Y-144379147D01*
X138481715Y-144701054D01*
X139050000Y-144814093D01*
X139618285Y-144701054D01*
X140100054Y-144379147D01*
X140320000Y-144049974D01*
X140539946Y-144379147D01*
X141021715Y-144701054D01*
X141590000Y-144814093D01*
X142158285Y-144701054D01*
X142640054Y-144379147D01*
X142860000Y-144049974D01*
X143079946Y-144379147D01*
X143561715Y-144701054D01*
X144130000Y-144814093D01*
X144698285Y-144701054D01*
X145180054Y-144379147D01*
X145400000Y-144049974D01*
X145619946Y-144379147D01*
X146101715Y-144701054D01*
X146670000Y-144814093D01*
X147238285Y-144701054D01*
X147720054Y-144379147D01*
X147940000Y-144049974D01*
X148159946Y-144379147D01*
X148641715Y-144701054D01*
X149210000Y-144814093D01*
X149778285Y-144701054D01*
X150260054Y-144379147D01*
X150287850Y-144337548D01*
X150296838Y-144385317D01*
X150435910Y-144601441D01*
X150648110Y-144746431D01*
X150900000Y-144797440D01*
X152600000Y-144797440D01*
X152835317Y-144753162D01*
X153051441Y-144614090D01*
X153196431Y-144401890D01*
X153247440Y-144150000D01*
X153247440Y-142450000D01*
X153203162Y-142214683D01*
X153064090Y-141998559D01*
X152851890Y-141853569D01*
X152795546Y-141842159D01*
X152800054Y-141839147D01*
X153121961Y-141357378D01*
X153235000Y-140789093D01*
X153235000Y-140730907D01*
X153121961Y-140162622D01*
X152800054Y-139680853D01*
X152318285Y-139358946D01*
X151750000Y-139245907D01*
X151181715Y-139358946D01*
X150699946Y-139680853D01*
X150480000Y-140010026D01*
X150260054Y-139680853D01*
X149778285Y-139358946D01*
X149210000Y-139245907D01*
X148641715Y-139358946D01*
X148159946Y-139680853D01*
X147940000Y-140010026D01*
X147720054Y-139680853D01*
X147238285Y-139358946D01*
X146670000Y-139245907D01*
X146101715Y-139358946D01*
X145619946Y-139680853D01*
X145400000Y-140010026D01*
X145180054Y-139680853D01*
X144698285Y-139358946D01*
X144130000Y-139245907D01*
X143561715Y-139358946D01*
X143079946Y-139680853D01*
X142860000Y-140010026D01*
X142640054Y-139680853D01*
X142158285Y-139358946D01*
X141590000Y-139245907D01*
X141021715Y-139358946D01*
X140539946Y-139680853D01*
X140320000Y-140010026D01*
X140100054Y-139680853D01*
X139618285Y-139358946D01*
X139050000Y-139245907D01*
X138481715Y-139358946D01*
X137999946Y-139680853D01*
X137780000Y-140010026D01*
X137560054Y-139680853D01*
X137078285Y-139358946D01*
X136510000Y-139245907D01*
X135941715Y-139358946D01*
X135459946Y-139680853D01*
X135232298Y-140021553D01*
X135165183Y-139878642D01*
X134736924Y-139488355D01*
X134326890Y-139318524D01*
X134097000Y-139439845D01*
X134097000Y-140633000D01*
X134117000Y-140633000D01*
X134117000Y-140887000D01*
X134097000Y-140887000D01*
X134097000Y-140907000D01*
X133843000Y-140907000D01*
X133843000Y-140887000D01*
X132649181Y-140887000D01*
X132528514Y-141116892D01*
X132774817Y-141641358D01*
X133203076Y-142031645D01*
X133203101Y-142031655D01*
X132919946Y-142220853D01*
X132598039Y-142702622D01*
X132485000Y-143270907D01*
X132485000Y-143329093D01*
X132598039Y-143897378D01*
X132865361Y-144297455D01*
X132546788Y-144165172D01*
X132154931Y-144164830D01*
X131792771Y-144314471D01*
X131515445Y-144591314D01*
X131365172Y-144953212D01*
X131364830Y-145345069D01*
X124285134Y-145345069D01*
X124285170Y-145304931D01*
X124135529Y-144942771D01*
X123858686Y-144665445D01*
X123496788Y-144515172D01*
X123104931Y-144514830D01*
X122742771Y-144664471D01*
X122465445Y-144941314D01*
X122434799Y-145015118D01*
X122150441Y-145014870D01*
X122085529Y-144857771D01*
X121808686Y-144580445D01*
X121446788Y-144430172D01*
X121054931Y-144429830D01*
X120692771Y-144579471D01*
X120415445Y-144856314D01*
X120265172Y-145218212D01*
X120264830Y-145610069D01*
X120414471Y-145972229D01*
X120535607Y-146093576D01*
X120346788Y-146015172D01*
X119954931Y-146014830D01*
X119592771Y-146164471D01*
X119315445Y-146441314D01*
X119165172Y-146803212D01*
X119164830Y-147195069D01*
X110337911Y-147195069D01*
X110108686Y-146965445D01*
X109746788Y-146815172D01*
X109734987Y-146815162D01*
X109735170Y-146604931D01*
X109585529Y-146242771D01*
X109308686Y-145965445D01*
X108946788Y-145815172D01*
X108554931Y-145814830D01*
X108192771Y-145964471D01*
X107915445Y-146241314D01*
X107765172Y-146603212D01*
X107764830Y-146995069D01*
X97483084Y-146995069D01*
X97534555Y-146943688D01*
X97684828Y-146581790D01*
X97685170Y-146189933D01*
X97535529Y-145827773D01*
X97258686Y-145550447D01*
X96896788Y-145400174D01*
X96504931Y-145399832D01*
X96142771Y-145549473D01*
X95865445Y-145826316D01*
X95715172Y-146188214D01*
X95714830Y-146580071D01*
X40710000Y-146580071D01*
X40710000Y-142181069D01*
X95153830Y-142181069D01*
X95303471Y-142543229D01*
X95580314Y-142820555D01*
X95942212Y-142970828D01*
X96334069Y-142971170D01*
X96696229Y-142821529D01*
X96973555Y-142544686D01*
X97123828Y-142182788D01*
X97124170Y-141790931D01*
X96974529Y-141428771D01*
X96697686Y-141151445D01*
X96335788Y-141001172D01*
X95943931Y-141000830D01*
X95581771Y-141150471D01*
X95304445Y-141427314D01*
X95154172Y-141789212D01*
X95153830Y-142181069D01*
X40710000Y-142181069D01*
X40710000Y-140403108D01*
X132528514Y-140403108D01*
X132649181Y-140633000D01*
X133843000Y-140633000D01*
X133843000Y-139439845D01*
X133613110Y-139318524D01*
X133203076Y-139488355D01*
X132774817Y-139878642D01*
X132528514Y-140403108D01*
X40710000Y-140403108D01*
X40710000Y-137484367D01*
X89149532Y-137484367D01*
X89299173Y-137846527D01*
X89576016Y-138123853D01*
X89937914Y-138274126D01*
X90329771Y-138274468D01*
X90691931Y-138124827D01*
X90969257Y-137847984D01*
X91119530Y-137486086D01*
X91119872Y-137094229D01*
X90970231Y-136732069D01*
X90693388Y-136454743D01*
X90331490Y-136304470D01*
X89939633Y-136304128D01*
X89577473Y-136453769D01*
X89300147Y-136730612D01*
X89149874Y-137092510D01*
X89149532Y-137484367D01*
X40710000Y-137484367D01*
X40710000Y-135831069D01*
X127538830Y-135831069D01*
X127688471Y-136193229D01*
X127965314Y-136470555D01*
X128327212Y-136620828D01*
X128719069Y-136621170D01*
X128905726Y-136544045D01*
X129014471Y-136807229D01*
X129291314Y-137084555D01*
X129653212Y-137234828D01*
X130045069Y-137235170D01*
X130407229Y-137085529D01*
X130684555Y-136808686D01*
X130834828Y-136446788D01*
X130835170Y-136054931D01*
X130685529Y-135692771D01*
X130408686Y-135415445D01*
X130046788Y-135265172D01*
X129654931Y-135264830D01*
X129468274Y-135341955D01*
X129359529Y-135078771D01*
X129082686Y-134801445D01*
X128720788Y-134651172D01*
X128328931Y-134650830D01*
X127966771Y-134800471D01*
X127689445Y-135077314D01*
X127539172Y-135439212D01*
X127538830Y-135831069D01*
X40710000Y-135831069D01*
X40710000Y-134595069D01*
X92714830Y-134595069D01*
X92864471Y-134957229D01*
X93141314Y-135234555D01*
X93503212Y-135384828D01*
X93895069Y-135385170D01*
X94257229Y-135235529D01*
X94534555Y-134958686D01*
X94560971Y-134895069D01*
X95964830Y-134895069D01*
X96114471Y-135257229D01*
X96391314Y-135534555D01*
X96753212Y-135684828D01*
X97145069Y-135685170D01*
X97507229Y-135535529D01*
X97784555Y-135258686D01*
X97934828Y-134896788D01*
X97935170Y-134504931D01*
X97785529Y-134142771D01*
X97508686Y-133865445D01*
X97146788Y-133715172D01*
X96754931Y-133714830D01*
X96392771Y-133864471D01*
X96115445Y-134141314D01*
X95965172Y-134503212D01*
X95964830Y-134895069D01*
X94560971Y-134895069D01*
X94684828Y-134596788D01*
X94685170Y-134204931D01*
X94535529Y-133842771D01*
X94258686Y-133565445D01*
X93896788Y-133415172D01*
X93504931Y-133414830D01*
X93142771Y-133564471D01*
X92865445Y-133841314D01*
X92715172Y-134203212D01*
X92714830Y-134595069D01*
X40710000Y-134595069D01*
X40710000Y-114088669D01*
X112387730Y-114088669D01*
X112537371Y-114450829D01*
X112814214Y-114728155D01*
X113176112Y-114878428D01*
X113567969Y-114878770D01*
X113930129Y-114729129D01*
X114207455Y-114452286D01*
X114357728Y-114090388D01*
X114358070Y-113698531D01*
X114208429Y-113336371D01*
X113931586Y-113059045D01*
X113569688Y-112908772D01*
X113177831Y-112908430D01*
X112815671Y-113058071D01*
X112538345Y-113334914D01*
X112388072Y-113696812D01*
X112387730Y-114088669D01*
X40710000Y-114088669D01*
X40710000Y-106050000D01*
X102752560Y-106050000D01*
X102752560Y-107750000D01*
X102796838Y-107985317D01*
X102935910Y-108201441D01*
X103148110Y-108346431D01*
X103204454Y-108357841D01*
X103199946Y-108360853D01*
X102878039Y-108842622D01*
X102765000Y-109410907D01*
X102765000Y-109469093D01*
X102878039Y-110037378D01*
X103199946Y-110519147D01*
X103681715Y-110841054D01*
X104250000Y-110954093D01*
X104818285Y-110841054D01*
X105300054Y-110519147D01*
X105520000Y-110189974D01*
X105739946Y-110519147D01*
X106221715Y-110841054D01*
X106790000Y-110954093D01*
X107358285Y-110841054D01*
X107840054Y-110519147D01*
X108060000Y-110189974D01*
X108279946Y-110519147D01*
X108761715Y-110841054D01*
X109330000Y-110954093D01*
X109898285Y-110841054D01*
X110380054Y-110519147D01*
X110600000Y-110189974D01*
X110819946Y-110519147D01*
X111301715Y-110841054D01*
X111870000Y-110954093D01*
X112438285Y-110841054D01*
X112920054Y-110519147D01*
X113140000Y-110189974D01*
X113359946Y-110519147D01*
X113841715Y-110841054D01*
X113978008Y-110868164D01*
X113873972Y-111118712D01*
X113873630Y-111510569D01*
X114023271Y-111872729D01*
X114300114Y-112150055D01*
X114662012Y-112300328D01*
X115053869Y-112300670D01*
X115416029Y-112151029D01*
X115693355Y-111874186D01*
X115843628Y-111512288D01*
X115843970Y-111120431D01*
X115694329Y-110758271D01*
X115457395Y-110520924D01*
X115460054Y-110519147D01*
X115680000Y-110189974D01*
X115899946Y-110519147D01*
X116381715Y-110841054D01*
X116940224Y-110952148D01*
X116638371Y-111076871D01*
X116361045Y-111353714D01*
X116210772Y-111715612D01*
X116210430Y-112107469D01*
X116360071Y-112469629D01*
X116636914Y-112746955D01*
X116998812Y-112897228D01*
X117390669Y-112897570D01*
X117752829Y-112747929D01*
X118030155Y-112471086D01*
X118180428Y-112109188D01*
X118180770Y-111717331D01*
X118031129Y-111355171D01*
X117754286Y-111077845D01*
X117392388Y-110927572D01*
X117084680Y-110927303D01*
X117518285Y-110841054D01*
X118000054Y-110519147D01*
X118220000Y-110189974D01*
X118439946Y-110519147D01*
X118921715Y-110841054D01*
X119490000Y-110954093D01*
X120058285Y-110841054D01*
X120540054Y-110519147D01*
X120760000Y-110189974D01*
X120979946Y-110519147D01*
X121461715Y-110841054D01*
X122030000Y-110954093D01*
X122598285Y-110841054D01*
X123080054Y-110519147D01*
X123300000Y-110189974D01*
X123519946Y-110519147D01*
X124001715Y-110841054D01*
X124570000Y-110954093D01*
X125138285Y-110841054D01*
X125620054Y-110519147D01*
X125840000Y-110189974D01*
X126059946Y-110519147D01*
X126541715Y-110841054D01*
X127110000Y-110954093D01*
X127678285Y-110841054D01*
X128160054Y-110519147D01*
X128481961Y-110037378D01*
X128595000Y-109469093D01*
X128595000Y-109410907D01*
X128481961Y-108842622D01*
X128160054Y-108360853D01*
X127874422Y-108170000D01*
X128160054Y-107979147D01*
X128481961Y-107497378D01*
X128595000Y-106929093D01*
X128595000Y-106870907D01*
X128481961Y-106302622D01*
X128160054Y-105820853D01*
X127678285Y-105498946D01*
X127110000Y-105385907D01*
X126541715Y-105498946D01*
X126059946Y-105820853D01*
X125840000Y-106150026D01*
X125620054Y-105820853D01*
X125138285Y-105498946D01*
X124570000Y-105385907D01*
X124001715Y-105498946D01*
X123519946Y-105820853D01*
X123300000Y-106150026D01*
X123080054Y-105820853D01*
X122598285Y-105498946D01*
X122030000Y-105385907D01*
X121461715Y-105498946D01*
X120979946Y-105820853D01*
X120760000Y-106150026D01*
X120540054Y-105820853D01*
X120058285Y-105498946D01*
X119490000Y-105385907D01*
X118921715Y-105498946D01*
X118439946Y-105820853D01*
X118220000Y-106150026D01*
X118000054Y-105820853D01*
X117518285Y-105498946D01*
X116950000Y-105385907D01*
X116381715Y-105498946D01*
X115899946Y-105820853D01*
X115680000Y-106150026D01*
X115460054Y-105820853D01*
X114978285Y-105498946D01*
X114410000Y-105385907D01*
X113841715Y-105498946D01*
X113359946Y-105820853D01*
X113140000Y-106150026D01*
X112920054Y-105820853D01*
X112438285Y-105498946D01*
X111870000Y-105385907D01*
X111301715Y-105498946D01*
X110819946Y-105820853D01*
X110600000Y-106150026D01*
X110380054Y-105820853D01*
X109898285Y-105498946D01*
X109330000Y-105385907D01*
X108761715Y-105498946D01*
X108279946Y-105820853D01*
X108060000Y-106150026D01*
X107840054Y-105820853D01*
X107358285Y-105498946D01*
X106790000Y-105385907D01*
X106221715Y-105498946D01*
X105739946Y-105820853D01*
X105712150Y-105862452D01*
X105703162Y-105814683D01*
X105564090Y-105598559D01*
X105351890Y-105453569D01*
X105100000Y-105402560D01*
X103400000Y-105402560D01*
X103164683Y-105446838D01*
X102948559Y-105585910D01*
X102803569Y-105798110D01*
X102752560Y-106050000D01*
X40710000Y-106050000D01*
X40710000Y-40650000D01*
X102752560Y-40650000D01*
X102752560Y-42350000D01*
X102796838Y-42585317D01*
X102935910Y-42801441D01*
X103148110Y-42946431D01*
X103204454Y-42957841D01*
X103199946Y-42960853D01*
X102878039Y-43442622D01*
X102765000Y-44010907D01*
X102765000Y-44069093D01*
X102878039Y-44637378D01*
X103199946Y-45119147D01*
X103681715Y-45441054D01*
X104250000Y-45554093D01*
X104818285Y-45441054D01*
X105300054Y-45119147D01*
X105520000Y-44789974D01*
X105739946Y-45119147D01*
X106221715Y-45441054D01*
X106790000Y-45554093D01*
X107358285Y-45441054D01*
X107840054Y-45119147D01*
X108060000Y-44789974D01*
X108279946Y-45119147D01*
X108761715Y-45441054D01*
X109330000Y-45554093D01*
X109898285Y-45441054D01*
X110380054Y-45119147D01*
X110600000Y-44789974D01*
X110819946Y-45119147D01*
X111301715Y-45441054D01*
X111870000Y-45554093D01*
X112438285Y-45441054D01*
X112920054Y-45119147D01*
X113140000Y-44789974D01*
X113359946Y-45119147D01*
X113841715Y-45441054D01*
X114410000Y-45554093D01*
X114978285Y-45441054D01*
X115460054Y-45119147D01*
X115680000Y-44789974D01*
X115899946Y-45119147D01*
X116381715Y-45441054D01*
X116950000Y-45554093D01*
X117518285Y-45441054D01*
X118000054Y-45119147D01*
X118220000Y-44789974D01*
X118439946Y-45119147D01*
X118921715Y-45441054D01*
X119490000Y-45554093D01*
X120058285Y-45441054D01*
X120540054Y-45119147D01*
X120760000Y-44789974D01*
X120979946Y-45119147D01*
X121461715Y-45441054D01*
X122030000Y-45554093D01*
X122598285Y-45441054D01*
X123080054Y-45119147D01*
X123300000Y-44789974D01*
X123519946Y-45119147D01*
X124001715Y-45441054D01*
X124570000Y-45554093D01*
X125138285Y-45441054D01*
X125620054Y-45119147D01*
X125840000Y-44789974D01*
X126059946Y-45119147D01*
X126541715Y-45441054D01*
X127110000Y-45554093D01*
X127678285Y-45441054D01*
X128160054Y-45119147D01*
X128481961Y-44637378D01*
X128595000Y-44069093D01*
X128595000Y-44010907D01*
X128481961Y-43442622D01*
X128160054Y-42960853D01*
X127874422Y-42770000D01*
X128160054Y-42579147D01*
X128481961Y-42097378D01*
X128595000Y-41529093D01*
X128595000Y-41470907D01*
X128481961Y-40902622D01*
X128160054Y-40420853D01*
X127678285Y-40098946D01*
X127110000Y-39985907D01*
X126541715Y-40098946D01*
X126059946Y-40420853D01*
X125840000Y-40750026D01*
X125620054Y-40420853D01*
X125138285Y-40098946D01*
X124570000Y-39985907D01*
X124001715Y-40098946D01*
X123519946Y-40420853D01*
X123300000Y-40750026D01*
X123080054Y-40420853D01*
X122598285Y-40098946D01*
X122030000Y-39985907D01*
X121461715Y-40098946D01*
X120979946Y-40420853D01*
X120760000Y-40750026D01*
X120540054Y-40420853D01*
X120058285Y-40098946D01*
X119490000Y-39985907D01*
X118921715Y-40098946D01*
X118439946Y-40420853D01*
X118220000Y-40750026D01*
X118000054Y-40420853D01*
X117518285Y-40098946D01*
X116950000Y-39985907D01*
X116381715Y-40098946D01*
X115899946Y-40420853D01*
X115680000Y-40750026D01*
X115460054Y-40420853D01*
X114978285Y-40098946D01*
X114410000Y-39985907D01*
X113841715Y-40098946D01*
X113359946Y-40420853D01*
X113140000Y-40750026D01*
X112920054Y-40420853D01*
X112438285Y-40098946D01*
X111870000Y-39985907D01*
X111301715Y-40098946D01*
X110819946Y-40420853D01*
X110600000Y-40750026D01*
X110380054Y-40420853D01*
X109898285Y-40098946D01*
X109330000Y-39985907D01*
X108761715Y-40098946D01*
X108279946Y-40420853D01*
X108052298Y-40761553D01*
X107985183Y-40618642D01*
X107556924Y-40228355D01*
X107146890Y-40058524D01*
X106917000Y-40179845D01*
X106917000Y-41373000D01*
X106937000Y-41373000D01*
X106937000Y-41627000D01*
X106917000Y-41627000D01*
X106917000Y-41647000D01*
X106663000Y-41647000D01*
X106663000Y-41627000D01*
X106643000Y-41627000D01*
X106643000Y-41373000D01*
X106663000Y-41373000D01*
X106663000Y-40179845D01*
X106433110Y-40058524D01*
X106023076Y-40228355D01*
X105720063Y-40504501D01*
X105703162Y-40414683D01*
X105564090Y-40198559D01*
X105351890Y-40053569D01*
X105100000Y-40002560D01*
X103400000Y-40002560D01*
X103164683Y-40046838D01*
X102948559Y-40185910D01*
X102803569Y-40398110D01*
X102752560Y-40650000D01*
X40710000Y-40650000D01*
X40710000Y-38395069D01*
X102714830Y-38395069D01*
X102864471Y-38757229D01*
X103141314Y-39034555D01*
X103503212Y-39184828D01*
X103895069Y-39185170D01*
X104257229Y-39035529D01*
X104534555Y-38758686D01*
X104684828Y-38396788D01*
X104685170Y-38004931D01*
X104535529Y-37642771D01*
X104258686Y-37365445D01*
X103896788Y-37215172D01*
X103504931Y-37214830D01*
X103142771Y-37364471D01*
X102865445Y-37641314D01*
X102715172Y-38003212D01*
X102714830Y-38395069D01*
X40710000Y-38395069D01*
X40710000Y-30710000D01*
X159290000Y-30710000D01*
X159290000Y-179290000D01*
M02*
